<svg width="3212" height="90" viewBox="0 0 3212 90" fill="none" xmlns="http://www.w3.org/2000/svg">
<path d="M1387.04 63.088C1384.41 63.088 1382.37 62.448 1380.96 61.104C1379.49 59.824 1378.59 57.84 1378.33 55.152C1377.63 57.712 1376.35 59.632 1374.43 61.04C1372.51 62.448 1370.08 63.088 1367.26 63.088C1364.25 63.088 1361.89 62.384 1360.16 60.976C1358.37 59.568 1357.53 57.584 1357.53 55.024C1357.53 52.208 1358.69 49.904 1361.12 48.24C1363.55 46.576 1367.33 45.424 1372.45 44.656L1377.05 44.016V39.344C1377.05 36.784 1376.48 34.864 1375.39 33.584C1374.24 32.304 1372.57 31.664 1370.33 31.664C1369.37 31.664 1368.48 31.792 1367.58 32.048C1366.69 32.304 1366.05 32.56 1365.66 32.88C1367.07 33.392 1368.09 34.096 1368.73 34.928C1369.37 35.76 1369.69 36.848 1369.69 38.128C1369.69 39.792 1369.18 41.072 1368.22 41.968C1367.26 42.928 1365.98 43.376 1364.32 43.376C1362.53 43.376 1361.18 42.928 1360.16 41.968C1359.13 41.072 1358.69 39.792 1358.69 38.128C1358.69 35.312 1360.16 32.944 1363.23 31.152C1366.3 29.36 1370.08 28.464 1374.62 28.464C1379.04 28.464 1382.49 29.36 1384.99 31.152C1387.42 32.944 1388.7 35.504 1388.7 38.704V56.112C1388.7 57.008 1388.83 57.712 1389.09 58.16C1389.34 58.608 1389.79 58.8 1390.43 58.8C1391.2 58.8 1391.84 58.288 1392.29 57.136C1392.67 55.984 1392.93 54.384 1392.93 52.272H1395.68C1395.68 56.112 1394.97 58.864 1393.63 60.528C1392.22 62.256 1390.05 63.088 1387.04 63.088ZM1369.25 53.296C1369.25 54.64 1369.5 55.6 1370.01 56.24C1370.53 56.88 1371.29 57.2 1372.38 57.2C1373.85 57.2 1375.01 56.496 1375.84 55.088C1376.61 53.68 1377.05 51.568 1377.05 48.88V46.768L1374.81 47.28C1372.83 47.728 1371.42 48.432 1370.53 49.328C1369.63 50.288 1369.25 51.632 1369.25 53.296ZM1423.54 59.184V62H1402.16V59.184H1407.02V32.368H1405.87C1403.7 32.368 1402.1 33.072 1401.01 34.416C1399.86 35.76 1399.34 37.744 1399.34 40.304V41.52H1396.53V29.552H1429.17V41.52H1426.35V40.304C1426.35 37.744 1425.78 35.824 1424.69 34.416C1423.6 33.072 1422 32.368 1419.89 32.368H1418.67V59.184H1423.54ZM1450.21 63.088C1444.96 63.088 1440.61 61.488 1437.28 58.224C1433.95 55.024 1432.29 50.8 1432.29 45.552C1432.29 40.56 1433.89 36.464 1437.09 33.264C1440.29 30.064 1444.32 28.464 1449.19 28.464C1453.86 28.464 1457.63 29.936 1460.51 32.752C1463.39 35.632 1464.87 39.28 1464.87 43.76C1464.87 44.208 1464.8 44.592 1464.8 44.976C1464.8 45.36 1464.74 45.744 1464.74 46.064H1444.26V46.768C1444.26 51.12 1444.9 54.32 1446.31 56.368C1447.65 58.48 1449.7 59.504 1452.51 59.504C1454.82 59.504 1456.67 58.864 1458.15 57.52C1459.62 56.24 1460.71 54.256 1461.35 51.568L1464.23 51.888C1463.59 55.408 1462.05 58.16 1459.55 60.144C1457.06 62.128 1453.92 63.088 1450.21 63.088ZM1449.12 31.28C1447.46 31.28 1446.31 32.176 1445.54 33.968C1444.77 35.76 1444.39 38.896 1444.26 43.248H1453.54C1453.54 38.576 1453.15 35.44 1452.51 33.776C1451.87 32.112 1450.72 31.28 1449.12 31.28ZM1488.59 32.368H1481.74C1481.74 36.464 1481.68 39.92 1481.61 42.736C1481.48 45.552 1481.36 47.984 1481.16 49.968C1480.65 54.832 1479.82 58.224 1478.54 60.144C1477.26 62.128 1475.28 63.088 1472.59 63.088C1470.8 63.088 1469.32 62.576 1468.17 61.424C1467.02 60.336 1466.51 58.864 1466.51 57.008C1466.51 55.472 1466.89 54.192 1467.79 53.232C1468.68 52.272 1469.84 51.76 1471.37 51.76C1472.72 51.76 1473.8 52.208 1474.57 53.04C1475.34 53.936 1475.79 54.96 1475.79 56.24C1475.79 56.944 1475.66 57.584 1475.53 58.096C1475.34 58.608 1475.08 59.056 1474.76 59.44C1475.85 58.608 1476.68 57.2 1477.26 55.216C1477.77 53.232 1478.16 50.288 1478.28 46.384C1478.28 45.168 1478.35 43.76 1478.35 42.224C1478.35 40.688 1478.41 37.36 1478.41 32.368H1473.1V29.552H1504.46V32.368H1500.17V59.184H1504.46V62H1485.26V59.184H1488.59V32.368ZM1523.66 32.368V42.096H1528.52C1533.13 42.096 1536.78 42.992 1539.34 44.656C1541.9 46.32 1543.24 48.752 1543.24 51.952C1543.24 55.216 1541.96 57.712 1539.4 59.44C1536.84 61.168 1533.19 62 1528.52 62H1507.79V59.184H1512.01V32.368H1507.79V29.552H1529.1V32.368H1523.66ZM1525.64 44.912H1523.66V59.184H1525.71C1527.56 59.184 1528.97 58.608 1529.99 57.328C1531.02 56.048 1531.53 54.256 1531.53 51.888C1531.53 49.584 1531.02 47.792 1530.06 46.64C1529.1 45.488 1527.63 44.912 1525.64 44.912ZM1564.27 63.088C1559.03 63.088 1554.67 61.488 1551.35 58.224C1548.02 55.024 1546.35 50.8 1546.35 45.552C1546.35 40.56 1547.95 36.464 1551.15 33.264C1554.35 30.064 1558.39 28.464 1563.25 28.464C1567.92 28.464 1571.7 29.936 1574.58 32.752C1577.46 35.632 1578.93 39.28 1578.93 43.76C1578.93 44.208 1578.87 44.592 1578.87 44.976C1578.87 45.36 1578.8 45.744 1578.8 46.064H1558.32V46.768C1558.32 51.12 1558.96 54.32 1560.37 56.368C1561.71 58.48 1563.76 59.504 1566.58 59.504C1568.88 59.504 1570.74 58.864 1572.21 57.52C1573.68 56.24 1574.77 54.256 1575.41 51.568L1578.29 51.888C1577.65 55.408 1576.11 58.16 1573.62 60.144C1571.12 62.128 1567.99 63.088 1564.27 63.088ZM1563.19 31.28C1561.52 31.28 1560.37 32.176 1559.6 33.968C1558.83 35.76 1558.45 38.896 1558.32 43.248H1567.6C1567.6 38.576 1567.22 35.44 1566.58 33.776C1565.94 32.112 1564.79 31.28 1563.19 31.28Z" fill="white"/>
<path d="M31.04 63.088C28.416 63.088 26.368 62.448 24.96 61.104C23.488 59.824 22.592 57.84 22.336 55.152C21.632 57.712 20.352 59.632 18.432 61.04C16.512 62.448 14.08 63.088 11.264 63.088C8.256 63.088 5.888 62.384 4.16 60.976C2.368 59.568 1.536 57.584 1.536 55.024C1.536 52.208 2.688 49.904 5.12 48.24C7.552 46.576 11.328 45.424 16.448 44.656L21.056 44.016V39.344C21.056 36.784 20.48 34.864 19.392 33.584C18.24 32.304 16.576 31.664 14.336 31.664C13.376 31.664 12.48 31.792 11.584 32.048C10.688 32.304 10.048 32.56 9.664 32.88C11.072 33.392 12.096 34.096 12.736 34.928C13.376 35.76 13.696 36.848 13.696 38.128C13.696 39.792 13.184 41.072 12.224 41.968C11.264 42.928 9.984 43.376 8.32 43.376C6.528 43.376 5.184 42.928 4.16 41.968C3.136 41.072 2.688 39.792 2.688 38.128C2.688 35.312 4.16 32.944 7.232 31.152C10.304 29.36 14.08 28.464 18.624 28.464C23.04 28.464 26.496 29.36 28.992 31.152C31.424 32.944 32.704 35.504 32.704 38.704V56.112C32.704 57.008 32.832 57.712 33.088 58.16C33.344 58.608 33.792 58.8 34.432 58.8C35.2 58.8 35.84 58.288 36.288 57.136C36.672 55.984 36.928 54.384 36.928 52.272H39.68C39.68 56.112 38.976 58.864 37.632 60.528C36.224 62.256 34.048 63.088 31.04 63.088ZM13.248 53.296C13.248 54.64 13.504 55.6 14.016 56.24C14.528 56.88 15.296 57.2 16.384 57.2C17.856 57.2 19.008 56.496 19.84 55.088C20.608 53.68 21.056 51.568 21.056 48.88V46.768L18.816 47.28C16.832 47.728 15.424 48.432 14.528 49.328C13.632 50.288 13.248 51.632 13.248 53.296ZM67.538 59.184V62H46.162V59.184H51.026V32.368H49.874C47.698 32.368 46.098 33.072 45.01 34.416C43.858 35.76 43.346 37.744 43.346 40.304V41.52H40.53V29.552H73.17V41.52H70.354V40.304C70.354 37.744 69.778 35.824 68.69 34.416C67.602 33.072 66.002 32.368 63.89 32.368H62.674V59.184H67.538ZM94.2135 63.088C88.9655 63.088 84.6135 61.488 81.2855 58.224C77.9575 55.024 76.2935 50.8 76.2935 45.552C76.2935 40.56 77.8935 36.464 81.0935 33.264C84.2935 30.064 88.3255 28.464 93.1895 28.464C97.8615 28.464 101.638 29.936 104.518 32.752C107.398 35.632 108.87 39.28 108.87 43.76C108.87 44.208 108.806 44.592 108.806 44.976C108.806 45.36 108.742 45.744 108.742 46.064H88.2615V46.768C88.2615 51.12 88.9015 54.32 90.3095 56.368C91.6535 58.48 93.7015 59.504 96.5175 59.504C98.8215 59.504 100.678 58.864 102.15 57.52C103.622 56.24 104.71 54.256 105.35 51.568L108.229 51.888C107.59 55.408 106.054 58.16 103.558 60.144C101.062 62.128 97.9255 63.088 94.2135 63.088ZM93.1255 31.28C91.4615 31.28 90.3095 32.176 89.5415 33.968C88.7735 35.76 88.3895 38.896 88.2615 43.248H97.5415C97.5415 38.576 97.1575 35.44 96.5175 33.776C95.8775 32.112 94.7255 31.28 93.1255 31.28ZM132.591 32.368H125.743C125.743 36.464 125.679 39.92 125.615 42.736C125.487 45.552 125.359 47.984 125.167 49.968C124.655 54.832 123.823 58.224 122.543 60.144C121.263 62.128 119.279 63.088 116.591 63.088C114.799 63.088 113.327 62.576 112.174 61.424C111.023 60.336 110.511 58.864 110.511 57.008C110.511 55.472 110.895 54.192 111.791 53.232C112.687 52.272 113.839 51.76 115.375 51.76C116.719 51.76 117.807 52.208 118.575 53.04C119.343 53.936 119.791 54.96 119.791 56.24C119.791 56.944 119.663 57.584 119.535 58.096C119.343 58.608 119.087 59.056 118.767 59.44C119.855 58.608 120.687 57.2 121.263 55.216C121.775 53.232 122.159 50.288 122.287 46.384C122.287 45.168 122.351 43.76 122.351 42.224C122.351 40.688 122.415 37.36 122.415 32.368H117.103V29.552H148.463V32.368H144.175V59.184H148.463V62H129.263V59.184H132.591V32.368ZM167.661 32.368V42.096H172.525C177.133 42.096 180.781 42.992 183.341 44.656C185.901 46.32 187.245 48.752 187.245 51.952C187.245 55.216 185.965 57.712 183.405 59.44C180.845 61.168 177.197 62 172.525 62H151.789V59.184H156.013V32.368H151.789V29.552H173.101V32.368H167.661ZM169.645 44.912H167.661V59.184H169.709C171.565 59.184 172.973 58.608 173.997 57.328C175.021 56.048 175.533 54.256 175.533 51.888C175.533 49.584 175.021 47.792 174.061 46.64C173.101 45.488 171.629 44.912 169.645 44.912ZM208.276 63.088C203.028 63.088 198.676 61.488 195.348 58.224C192.02 55.024 190.356 50.8 190.356 45.552C190.356 40.56 191.956 36.464 195.156 33.264C198.356 30.064 202.388 28.464 207.252 28.464C211.924 28.464 215.7 29.936 218.58 32.752C221.46 35.632 222.932 39.28 222.932 43.76C222.932 44.208 222.868 44.592 222.868 44.976C222.868 45.36 222.804 45.744 222.804 46.064H202.324V46.768C202.324 51.12 202.964 54.32 204.372 56.368C205.716 58.48 207.764 59.504 210.58 59.504C212.884 59.504 214.74 58.864 216.212 57.52C217.684 56.24 218.772 54.256 219.412 51.568L222.292 51.888C221.652 55.408 220.116 58.16 217.62 60.144C215.124 62.128 211.988 63.088 208.276 63.088ZM207.188 31.28C205.524 31.28 204.372 32.176 203.604 33.968C202.836 35.76 202.452 38.896 202.324 43.248H211.604C211.604 38.576 211.22 35.44 210.58 33.776C209.94 32.112 208.788 31.28 207.188 31.28Z" fill="white"/>
<path d="M285.608 60.704C281.832 60.704 279.016 59.168 277.16 56.096C275.24 53.024 274.6 48.864 275.24 43.68C275.752 38.88 277.48 34.912 280.424 31.84C283.304 28.768 286.888 27.168 291.112 27.168C293.032 27.168 294.76 27.744 296.168 28.768C297.576 29.856 298.728 31.392 299.496 33.44L303.912 27.168H305.448L302.12 53.856C301.928 55.392 301.992 56.48 302.312 57.184C302.632 57.888 303.208 58.208 304.04 58.208C305.064 58.208 305.832 57.632 306.472 56.352C307.112 55.136 307.56 53.088 307.944 50.272H309.928C309.288 54.432 308.456 57.184 307.368 58.592C306.216 60 304.552 60.704 302.376 60.704C300.264 60.704 298.792 60.064 297.896 58.784C297 57.504 296.68 55.584 297 52.96L297.384 49.696C296.36 53.152 294.824 55.904 292.776 57.824C290.728 59.744 288.296 60.704 285.608 60.704ZM282.216 43.488C281.704 48.096 281.896 51.552 282.792 53.92C283.688 56.288 285.224 57.44 287.4 57.44C289.832 57.44 291.88 56.288 293.544 53.856C295.208 51.424 296.296 48.096 296.872 43.808C296.872 43.68 296.872 43.552 296.872 43.36C296.872 43.232 296.936 42.912 297.064 42.464L297.128 41.824C297.128 41.696 297.192 41.568 297.192 41.44C297.512 37.472 297.192 34.528 296.168 32.48C295.144 30.432 293.48 29.408 291.176 29.344C288.744 29.344 286.824 30.624 285.288 33.056C283.752 35.488 282.728 39.008 282.216 43.488ZM353.83 60.704C351.462 60.704 349.798 60.064 348.774 58.656C347.75 57.248 347.366 55.2 347.75 52.448L349.67 37.344C349.926 35.104 349.798 33.44 349.286 32.288C348.774 31.2 347.814 30.624 346.534 30.624C344.87 30.624 343.462 31.52 342.374 33.184C341.222 34.912 340.39 37.472 339.814 40.928L337.382 60H330.726L333.67 37.344C333.926 35.04 333.862 33.312 333.414 32.224C332.902 31.2 332.006 30.624 330.662 30.624C328.678 30.624 327.078 31.712 325.926 33.888C324.71 36.064 323.814 39.456 323.302 43.936L321.382 60H314.79L318.438 29.984H313.19L313.446 27.936C316.518 27.936 318.822 27.936 320.422 27.808C322.022 27.68 322.982 27.488 323.366 27.232L324.262 27.872L323.238 36.128C324.134 33.184 325.414 30.944 327.142 29.408C328.806 27.936 330.918 27.168 333.35 27.168C335.27 27.168 336.806 27.744 338.022 28.832C339.174 29.92 339.942 31.456 340.198 33.44C341.094 31.392 342.31 29.792 343.846 28.768C345.318 27.744 347.11 27.168 349.158 27.168C351.846 27.168 353.766 28.064 354.918 29.856C356.07 31.648 356.518 34.208 356.134 37.536L354.214 53.856C354.022 55.456 354.086 56.608 354.342 57.248C354.598 57.888 355.11 58.208 355.878 58.208C356.902 58.208 357.798 57.568 358.438 56.288C359.078 55.008 359.59 53.024 359.974 50.336H361.958C361.318 54.432 360.422 57.184 359.206 58.592C357.99 60 356.198 60.704 353.83 60.704ZM377.768 60.704C373.608 60.704 370.408 59.168 368.232 56.096C366.056 53.024 365.224 48.992 365.799 44.128C366.312 39.008 368.04 34.912 370.984 31.84C373.928 28.768 377.448 27.168 381.672 27.168C384.744 27.168 387.176 27.936 389.032 29.472C390.824 31.008 391.72 32.928 391.656 35.296C391.528 38.624 389.8 41.184 386.472 42.976C383.144 44.768 378.472 45.728 372.52 45.728C372.135 49.952 372.52 53.152 373.672 55.2C374.76 57.248 376.616 58.272 379.176 58.272C381.48 58.272 383.336 57.696 384.744 56.416C386.152 55.2 387.304 53.088 388.2 50.144L390.184 50.592C389.224 54.112 387.752 56.672 385.768 58.272C383.72 59.936 381.096 60.704 377.768 60.704ZM381.096 29.28C378.92 29.28 377.064 30.56 375.592 33.12C374.056 35.68 373.095 39.136 372.648 43.616C376.744 43.552 379.816 42.784 381.864 41.312C383.912 39.84 385.064 37.6 385.256 34.656C385.32 33.056 385 31.776 384.232 30.752C383.464 29.792 382.44 29.28 381.096 29.28ZM406.576 47.136C405.68 52.064 404.528 55.584 403.184 57.632C401.84 59.68 399.92 60.704 397.36 60.704C395.504 60.704 394.096 60.256 393.136 59.232C392.175 58.272 391.791 56.992 391.983 55.392C392.111 54.24 392.559 53.344 393.392 52.576C394.16 51.872 395.184 51.488 396.336 51.488C397.488 51.488 398.384 51.872 399.024 52.64C399.664 53.408 399.856 54.304 399.728 55.456C399.6 56.16 399.408 56.736 399.152 57.248C398.832 57.76 398.384 58.08 397.872 58.336C399.28 58.272 400.432 57.504 401.328 56.032C402.224 54.624 402.992 52.256 403.632 49.056C404.144 46.688 404.656 43.616 405.296 39.776C405.872 35.936 406.32 32.672 406.64 29.984H401.648L401.84 27.936H423.728L420.592 53.92C420.4 55.456 420.464 56.608 420.72 57.248C420.976 57.888 421.488 58.208 422.32 58.208C423.344 58.208 424.176 57.568 424.88 56.288C425.52 55.008 426.032 53.024 426.352 50.336H428.336C427.696 54.432 426.8 57.184 425.648 58.592C424.432 60 422.64 60.704 420.272 60.704C417.84 60.704 416.176 60.064 415.152 58.656C414.128 57.248 413.744 55.2 414.128 52.448L416.816 29.984H409.264C408.624 34.208 408.112 37.664 407.728 40.352C407.28 43.04 406.896 45.344 406.576 47.136ZM459.129 50.272C458.681 53.472 457.209 55.968 454.713 57.888C452.217 59.808 449.081 60.704 445.305 60.704C441.337 60.704 438.457 59.68 436.729 57.504C435.001 55.392 434.425 52.192 434.937 47.968L437.177 30.048H431.865L432.121 27.936C435.577 27.936 438.137 27.936 439.929 27.808C441.721 27.68 442.745 27.552 443.129 27.296L444.025 27.936L442.361 41.44C443.513 40.928 444.729 40.544 445.881 40.288C447.033 40.032 448.249 39.904 449.465 39.904C452.601 39.904 455.097 40.864 456.953 42.784C458.745 44.704 459.513 47.2 459.129 50.272ZM445.881 58.336C447.545 58.336 449.017 57.632 450.233 56.096C451.385 54.624 452.153 52.64 452.409 50.208C452.665 47.648 452.281 45.664 451.321 44.32C450.297 42.976 448.825 42.272 446.777 42.272C445.945 42.272 445.113 42.4 444.345 42.656C443.513 42.912 442.745 43.232 442.105 43.616L441.529 48.544C441.081 52.128 441.209 54.688 441.913 56.16C442.553 57.632 443.897 58.336 445.881 58.336ZM475.268 60.704C471.108 60.704 467.908 59.168 465.732 56.096C463.556 53.024 462.724 48.992 463.299 44.128C463.812 39.008 465.54 34.912 468.484 31.84C471.428 28.768 474.948 27.168 479.172 27.168C482.244 27.168 484.676 27.936 486.532 29.472C488.324 31.008 489.22 32.928 489.156 35.296C489.028 38.624 487.3 41.184 483.972 42.976C480.644 44.768 475.972 45.728 470.02 45.728C469.635 49.952 470.02 53.152 471.172 55.2C472.26 57.248 474.116 58.272 476.676 58.272C478.98 58.272 480.836 57.696 482.244 56.416C483.652 55.2 484.804 53.088 485.7 50.144L487.684 50.592C486.724 54.112 485.252 56.672 483.268 58.272C481.22 59.936 478.596 60.704 475.268 60.704ZM478.596 29.28C476.42 29.28 474.564 30.56 473.092 33.12C471.556 35.68 470.595 39.136 470.148 43.616C474.244 43.552 477.316 42.784 479.364 41.312C481.412 39.84 482.564 37.6 482.756 34.656C482.82 33.056 482.5 31.776 481.732 30.752C480.964 29.792 479.94 29.28 478.596 29.28Z" fill="white"/>
<path d="M572.44 60.896C570.072 60.896 568.28 60.256 567 58.976C565.72 57.696 565.016 55.776 564.888 53.152C564.12 55.584 562.84 57.44 560.984 58.848C559.064 60.256 556.824 60.896 554.264 60.896C551.384 60.896 549.144 60.256 547.544 58.912C545.944 57.632 545.176 55.712 545.176 53.216C545.176 50.656 546.264 48.544 548.568 46.88C550.808 45.216 554.456 43.872 559.448 42.848L564.056 41.888V37.344C564.056 34.72 563.48 32.8 562.456 31.52C561.368 30.304 559.64 29.664 557.336 29.664C556.184 29.664 555.16 29.856 554.264 30.112C553.368 30.432 552.536 30.88 551.768 31.456C553.048 31.84 554.008 32.352 554.648 33.12C555.224 33.888 555.544 34.912 555.544 36.128C555.544 37.536 555.096 38.688 554.264 39.52C553.432 40.352 552.28 40.736 550.808 40.736C549.272 40.736 548.12 40.352 547.288 39.52C546.456 38.752 546.072 37.6 546.072 36.128C546.072 33.568 547.416 31.392 550.168 29.6C552.92 27.808 556.248 26.912 560.216 26.912C564.568 26.912 567.768 27.744 569.816 29.408C571.8 31.072 572.824 33.76 572.824 37.344V54.368C572.824 55.392 572.952 56.096 573.336 56.608C573.72 57.12 574.232 57.376 574.936 57.376C575.832 57.376 576.472 56.8 576.984 55.584C577.432 54.432 577.688 52.64 577.688 50.272H579.928C579.928 54.048 579.288 56.736 578.136 58.4C576.984 60.064 575.064 60.896 572.44 60.896ZM554.072 51.872C554.072 53.344 554.392 54.432 555.032 55.2C555.672 55.968 556.696 56.288 557.976 56.288C559.896 56.288 561.368 55.456 562.456 53.792C563.48 52.128 564.056 49.696 564.056 46.624V43.936L560.6 44.896C558.296 45.536 556.632 46.432 555.608 47.456C554.584 48.544 554.072 50.016 554.072 51.872ZM606.182 57.632V60H586.854V57.632H592.166V30.176H590.118C587.814 30.304 586.086 30.944 584.998 32.224C583.91 33.504 583.398 35.488 583.398 38.112V39.52H581.03V27.744H612.07V39.52H609.638V38.112C609.638 35.488 609.062 33.504 607.974 32.224C606.886 30.944 605.222 30.304 602.982 30.176H600.934V57.632H606.182ZM632.191 60.896C627.327 60.896 623.423 59.36 620.415 56.16C617.343 53.024 615.871 48.864 615.871 43.68C615.871 38.752 617.279 34.72 620.223 31.584C623.167 28.512 626.879 26.912 631.359 26.912C635.711 26.912 639.167 28.32 641.727 31.072C644.287 33.824 645.631 37.408 645.631 41.76V42.528C645.631 42.848 645.567 43.232 645.567 43.616H624.959V44.32C625.023 49.184 625.727 52.704 627.071 54.816C628.415 56.992 630.527 58.016 633.471 58.016C635.839 58.016 637.823 57.376 639.359 56.032C640.895 54.752 641.983 52.704 642.751 49.952L645.119 50.336C644.415 53.664 642.943 56.224 640.639 58.08C638.335 60 635.519 60.896 632.191 60.896ZM631.231 29.344C629.183 29.344 627.647 30.304 626.623 32.224C625.599 34.144 625.087 37.152 624.959 41.248H636.927C636.927 36.896 636.479 33.824 635.583 32.032C634.687 30.24 633.215 29.344 631.231 29.344ZM670.546 57.632V30.176H662.482C662.482 34.976 662.418 38.624 662.418 41.184C662.354 43.744 662.29 45.984 662.162 47.776C661.778 52.768 661.01 56.224 659.858 58.08C658.706 60 656.722 60.896 653.97 60.896C652.05 60.896 650.578 60.384 649.426 59.296C648.274 58.272 647.762 56.736 647.762 54.816C647.762 53.408 648.146 52.256 648.978 51.36C649.746 50.464 650.834 49.952 652.242 49.952C653.522 49.952 654.482 50.336 655.25 51.04C655.954 51.808 656.338 52.704 656.338 53.792C656.338 55.072 655.954 56.032 655.25 56.672C654.546 57.376 653.522 57.76 652.242 57.76C652.434 58.016 652.754 58.208 653.138 58.336C653.522 58.464 654.034 58.528 654.546 58.528C656.21 58.528 657.362 57.568 658.066 55.712C658.706 53.856 659.154 50.464 659.41 45.472C659.474 43.808 659.538 41.76 659.538 39.456C659.538 37.152 659.602 34.08 659.602 30.176H654.29V27.744H683.922V30.176H679.314V57.632H683.922V60H666.066V57.632H670.546ZM701.551 30.176V40.928H706.159C710.639 40.928 714.159 41.76 716.655 43.36C719.151 45.024 720.431 47.328 720.431 50.4C720.431 53.472 719.151 55.84 716.655 57.504C714.159 59.168 710.639 60 706.159 60H688.174V57.632H692.783V30.176H688.174V27.744H707.247V30.176H701.551ZM704.559 43.36H701.551V57.632H704.623C706.863 57.632 708.591 57.056 709.743 55.84C710.895 54.624 711.471 52.768 711.471 50.336C711.471 47.904 710.895 46.176 709.807 45.024C708.719 43.936 706.991 43.36 704.559 43.36ZM740.753 60.896C735.89 60.896 731.986 59.36 728.978 56.16C725.906 53.024 724.434 48.864 724.434 43.68C724.434 38.752 725.842 34.72 728.786 31.584C731.73 28.512 735.442 26.912 739.922 26.912C744.274 26.912 747.73 28.32 750.29 31.072C752.85 33.824 754.194 37.408 754.194 41.76V42.528C754.194 42.848 754.13 43.232 754.13 43.616H733.522V44.32C733.586 49.184 734.29 52.704 735.634 54.816C736.978 56.992 739.09 58.016 742.034 58.016C744.402 58.016 746.386 57.376 747.922 56.032C749.458 54.752 750.546 52.704 751.314 49.952L753.682 50.336C752.978 53.664 751.506 56.224 749.202 58.08C746.898 60 744.082 60.896 740.753 60.896ZM739.794 29.344C737.746 29.344 736.21 30.304 735.186 32.224C734.162 34.144 733.65 37.152 733.522 41.248H745.49C745.49 36.896 745.042 33.824 744.146 32.032C743.25 30.24 741.778 29.344 739.794 29.344Z" fill="white"/>
<path d="M821.208 41.848C820.696 46.136 820.76 49.272 821.272 51.192C821.784 53.176 822.808 54.136 824.408 54.136C826.072 54.136 827.416 53.24 828.504 51.384C829.592 49.592 830.36 46.904 830.808 43.32C830.808 43.32 830.808 43.128 830.872 42.872L831.128 41.336C831.192 40.568 831.256 40.056 831.32 39.8C831.32 39.544 831.384 39.416 831.384 39.352C831.768 35.64 831.704 32.952 831.128 31.16C830.552 29.368 829.464 28.472 827.864 28.472C826.072 28.472 824.664 29.56 823.64 31.608C822.552 33.72 821.72 37.112 821.208 41.848ZM819.544 60.088C815.768 60.088 812.952 58.552 811.032 55.352C809.112 52.152 808.472 47.992 809.112 42.744C809.688 37.688 811.608 33.528 814.872 30.328C818.136 27.128 822.168 25.464 827.032 25.464C829.144 25.464 831.064 25.912 832.728 26.808C834.392 27.704 835.8 28.92 836.888 30.52L840.792 25.464H844.632L841.368 52.28C841.24 53.432 841.24 54.328 841.432 54.904C841.624 55.48 842.008 55.736 842.52 55.736C843.16 55.736 843.672 55.224 844.12 54.2C844.568 53.176 844.952 51.576 845.272 49.336H848.28C847.64 53.56 846.616 56.376 845.144 57.848C843.672 59.32 841.496 60.024 838.552 60.024C836.056 60.024 834.2 59.32 833.048 57.912C831.896 56.504 831.32 54.392 831.384 51.512L831.512 49.656C830.36 53.112 828.824 55.672 826.776 57.464C824.728 59.256 822.36 60.088 819.544 60.088ZM899.216 60.024C896.016 60.024 893.712 59.128 892.432 57.272C891.088 55.48 890.64 52.664 891.152 48.952L892.752 36.28C892.944 34.36 892.88 32.888 892.496 31.992C892.112 31.096 891.472 30.584 890.576 30.584C889.424 30.584 888.464 31.288 887.696 32.632C886.928 34.04 886.288 36.152 885.84 39.032L883.344 59H871.696L874.576 36.28C874.832 34.296 874.768 32.824 874.448 31.928C874.064 31.032 873.424 30.584 872.464 30.584C871.184 30.584 870.096 31.416 869.328 33.08C868.496 34.744 867.856 37.304 867.472 40.76L865.168 59H853.584L857.232 29.368H852.88L853.2 26.552C856.272 26.552 858.832 26.488 860.88 26.36C862.928 26.232 864.4 25.976 865.296 25.72L867.216 26.36L866.384 33.08C867.408 30.52 868.88 28.664 870.672 27.384C872.464 26.104 874.64 25.464 877.264 25.464C879.376 25.464 881.104 25.976 882.512 26.872C883.92 27.832 884.88 29.176 885.456 30.968C886.544 29.176 887.888 27.768 889.552 26.872C891.216 25.976 893.136 25.464 895.376 25.464C898.64 25.464 901.008 26.552 902.544 28.6C904.016 30.712 904.528 33.72 904.144 37.56L902.352 52.28C902.224 53.496 902.224 54.392 902.416 54.904C902.544 55.48 902.928 55.736 903.44 55.736C904.08 55.736 904.656 55.224 905.104 54.2C905.552 53.176 905.936 51.512 906.256 49.336H909.328C908.688 53.496 907.6 56.312 906.064 57.784C904.528 59.32 902.288 60.024 899.216 60.024ZM927.276 60.088C922.22 60.088 918.316 58.488 915.5 55.224C912.684 52.024 911.596 47.8 912.236 42.68C912.876 37.56 914.924 33.464 918.508 30.264C922.028 27.064 926.316 25.464 931.372 25.464C935.084 25.464 938.028 26.36 940.268 28.024C942.507 29.752 943.66 31.992 943.66 34.68C943.596 38.008 941.868 40.568 938.412 42.36C934.956 44.216 930.156 45.176 924.012 45.24C923.756 49.08 924.14 51.96 925.164 53.752C926.188 55.608 927.852 56.504 930.22 56.504C932.268 56.504 933.996 55.864 935.532 54.456C937.004 53.112 938.092 51.128 938.86 48.568L941.932 48.888C940.908 52.536 939.18 55.288 936.684 57.208C934.124 59.128 930.988 60.088 927.276 60.088ZM930.156 28.408C928.684 28.408 927.468 29.56 926.508 31.864C925.484 34.168 924.716 37.624 924.204 42.296C926.892 42.104 928.94 41.144 930.348 39.48C931.756 37.816 932.46 35.384 932.524 32.312C932.524 31.096 932.332 30.136 931.948 29.432C931.564 28.792 930.924 28.408 930.156 28.408ZM958.469 45.752C957.445 51.128 956.229 54.904 954.757 56.952C953.22 59.064 951.045 60.088 948.101 60.088C946.437 60.088 945.157 59.576 944.133 58.552C943.108 57.528 942.596 56.248 942.596 54.712C942.596 53.304 943.044 52.024 944.069 50.936C945.093 49.848 946.373 49.272 947.909 49.272C949.189 49.272 950.149 49.656 950.917 50.36C951.685 51.128 952.069 52.024 952.069 53.048C952.069 53.688 951.941 54.328 951.685 54.968C951.429 55.672 951.109 56.184 950.789 56.44C951.685 56.056 952.517 55.096 953.157 53.56C953.797 52.024 954.501 49.592 955.141 46.328C955.525 44.024 955.973 41.272 956.421 38.2C956.869 35.128 957.253 32.184 957.573 29.368H952.389L952.773 26.552H978.373L975.237 52.6C975.109 53.752 975.109 54.584 975.301 55.032C975.493 55.544 975.877 55.736 976.389 55.736C977.029 55.736 977.604 55.224 978.053 54.136C978.501 53.112 978.885 51.512 979.205 49.336H982.213C981.637 53.432 980.613 56.184 979.141 57.72C977.604 59.256 975.429 60.024 972.549 60.024C969.157 60.024 966.789 59.128 965.445 57.336C964.037 55.544 963.589 52.728 964.037 48.952L966.405 29.368H960.901C960.389 33.4 959.941 36.664 959.557 39.224C959.173 41.784 958.789 43.96 958.469 45.752ZM1018.24 49.336C1017.86 52.664 1016.13 55.224 1013.06 57.144C1009.99 59.064 1006.02 60.024 1001.15 60.024C996.162 60.024 992.642 58.872 990.466 56.568C988.29 54.264 987.522 50.744 988.098 46.008L990.082 29.56H985.73L986.114 26.808C989.634 26.808 992.578 26.744 995.01 26.616C997.442 26.488 999.17 26.232 1000.19 25.976L1002.11 26.552L1000.51 39.16C1001.28 38.904 1002.18 38.712 1003.14 38.584C1004.1 38.456 1005.12 38.392 1006.15 38.392C1009.99 38.392 1013.12 39.416 1015.43 41.4C1017.73 43.448 1018.63 46.072 1018.24 49.336ZM1001.92 56.12C1003.2 56.12 1004.23 55.544 1004.99 54.328C1005.76 53.112 1006.27 51.256 1006.59 48.696C1006.85 46.392 1006.66 44.664 1006.08 43.512C1005.44 42.36 1004.42 41.784 1002.88 41.784C1002.37 41.784 1001.86 41.848 1001.41 41.912C1000.96 42.04 1000.58 42.168 1000.19 42.296L999.362 48.568C998.978 51.384 999.042 53.304 999.426 54.456C999.81 55.608 1000.64 56.12 1001.92 56.12ZM1037.46 60.088C1032.41 60.088 1028.5 58.488 1025.69 55.224C1022.87 52.024 1021.78 47.8 1022.42 42.68C1023.06 37.56 1025.11 33.464 1028.7 30.264C1032.22 27.064 1036.5 25.464 1041.56 25.464C1045.27 25.464 1048.22 26.36 1050.46 28.024C1052.69 29.752 1053.85 31.992 1053.85 34.68C1053.78 38.008 1052.06 40.568 1048.6 42.36C1045.14 44.216 1040.34 45.176 1034.2 45.24C1033.94 49.08 1034.33 51.96 1035.35 53.752C1036.38 55.608 1038.04 56.504 1040.41 56.504C1042.46 56.504 1044.18 55.864 1045.72 54.456C1047.19 53.112 1048.28 51.128 1049.05 48.568L1052.12 48.888C1051.1 52.536 1049.37 55.288 1046.87 57.208C1044.31 59.128 1041.18 60.088 1037.46 60.088ZM1040.34 28.408C1038.87 28.408 1037.66 29.56 1036.7 31.864C1035.67 34.168 1034.9 37.624 1034.39 42.296C1037.08 42.104 1039.13 41.144 1040.54 39.48C1041.94 37.816 1042.65 35.384 1042.71 32.312C1042.71 31.096 1042.52 30.136 1042.14 29.432C1041.75 28.792 1041.11 28.408 1040.34 28.408Z" fill="white"/>
<path d="M1118.61 60.64C1114.9 60.64 1112.08 59.104 1110.22 56.032C1108.3 52.96 1107.66 48.864 1108.24 43.68C1108.75 38.944 1110.48 35.04 1113.3 31.968C1116.11 28.896 1119.57 27.36 1123.66 27.36C1125.58 27.36 1127.25 27.936 1128.66 29.088C1130.06 30.24 1131.09 31.84 1131.73 33.888L1136.27 27.36H1137.23L1133.97 53.984C1133.71 55.52 1133.78 56.672 1134.16 57.44C1134.48 58.208 1135.12 58.528 1136.02 58.528C1137.1 58.528 1138 57.888 1138.64 56.608C1139.28 55.328 1139.79 53.216 1140.18 50.272H1141.9C1141.26 54.496 1140.5 57.248 1139.47 58.592C1138.45 60 1136.91 60.64 1134.86 60.64C1132.82 60.64 1131.41 60.064 1130.58 58.784C1129.74 57.568 1129.49 55.648 1129.87 53.024L1130.32 49.44C1129.3 52.96 1127.82 55.712 1125.78 57.696C1123.73 59.68 1121.3 60.64 1118.61 60.64ZM1114.06 43.616C1113.55 48.352 1113.81 51.872 1114.77 54.304C1115.73 56.736 1117.39 57.952 1119.7 57.952C1122.32 57.952 1124.5 56.736 1126.29 54.176C1128.08 51.616 1129.23 48.16 1129.87 43.68C1129.87 43.552 1129.87 43.424 1129.87 43.296L1130 42.592L1130.06 42.016C1130.06 41.888 1130.13 41.824 1130.13 41.696C1130.45 37.728 1130.06 34.656 1128.98 32.544C1127.82 30.496 1126.03 29.408 1123.6 29.344C1121.04 29.344 1118.93 30.56 1117.26 33.12C1115.6 35.68 1114.51 39.136 1114.06 43.616ZM1184.49 60.64C1182.31 60.64 1180.71 60 1179.82 58.72C1178.86 57.44 1178.53 55.584 1178.86 53.024L1180.84 37.344C1181.1 35.04 1180.97 33.312 1180.46 32.16C1179.88 31.008 1178.92 30.368 1177.51 30.368C1175.72 30.368 1174.25 31.264 1173.1 33.056C1171.88 34.848 1170.98 37.536 1170.34 41.12L1167.91 60H1162.41L1165.35 37.344C1165.61 34.912 1165.54 33.184 1165.03 32.032C1164.52 30.944 1163.56 30.368 1162.15 30.368C1159.98 30.368 1158.31 31.52 1157.03 33.824C1155.75 36.128 1154.86 39.712 1154.28 44.448L1152.42 60H1146.98L1150.63 29.92H1145.13L1145.38 28C1148.46 28 1150.76 28 1152.23 27.872C1153.7 27.744 1154.6 27.616 1154.86 27.36L1155.5 28L1154.41 36.576C1155.24 33.504 1156.52 31.2 1158.18 29.664C1159.85 28.128 1161.9 27.36 1164.33 27.36C1166.25 27.36 1167.72 27.936 1168.87 29.024C1169.96 30.176 1170.6 31.712 1170.86 33.76C1171.75 31.648 1172.97 30.048 1174.44 28.96C1175.85 27.936 1177.58 27.36 1179.62 27.36C1182.18 27.36 1183.98 28.256 1185.13 29.92C1186.22 31.584 1186.6 34.08 1186.22 37.344L1184.23 53.984C1184.04 55.648 1184.1 56.8 1184.36 57.504C1184.62 58.208 1185.19 58.528 1186.09 58.528C1187.24 58.528 1188.14 57.888 1188.84 56.544C1189.54 55.2 1190.06 53.152 1190.44 50.336H1192.17C1191.53 54.432 1190.7 57.12 1189.54 58.528C1188.39 59.936 1186.66 60.64 1184.49 60.64ZM1207.38 60.64C1203.48 60.64 1200.47 59.168 1198.42 56.096C1196.37 53.024 1195.6 49.12 1196.12 44.256C1196.63 39.136 1198.29 35.04 1201.11 31.968C1203.86 28.896 1207.25 27.36 1211.28 27.36C1214.16 27.36 1216.47 28.128 1218.26 29.536C1219.99 31.008 1220.82 32.864 1220.76 35.168C1220.56 38.496 1218.84 41.12 1215.51 42.912C1212.18 44.704 1207.57 45.6 1201.68 45.6C1201.3 49.952 1201.68 53.152 1202.84 55.264C1203.99 57.44 1205.84 58.464 1208.47 58.464C1210.77 58.464 1212.56 57.888 1213.97 56.672C1215.38 55.52 1216.53 53.344 1217.56 50.272L1219.35 50.72C1218.39 54.304 1216.98 56.8 1215.06 58.336C1213.14 59.872 1210.58 60.64 1207.38 60.64ZM1210.84 29.28C1208.47 29.28 1206.48 30.624 1204.88 33.184C1203.28 35.744 1202.26 39.264 1201.81 43.68C1206.16 43.68 1209.49 42.912 1211.73 41.44C1213.97 40.032 1215.19 37.856 1215.38 34.976C1215.44 33.248 1215.06 31.84 1214.29 30.816C1213.46 29.792 1212.31 29.28 1210.84 29.28ZM1235.51 47.264C1234.61 52.128 1233.53 55.52 1232.25 57.568C1230.9 59.616 1228.98 60.64 1226.55 60.64C1224.69 60.64 1223.29 60.192 1222.39 59.232C1221.43 58.272 1221.05 56.992 1221.24 55.456C1221.3 54.432 1221.75 53.536 1222.52 52.832C1223.29 52.128 1224.18 51.744 1225.33 51.744C1226.49 51.744 1227.32 52.128 1227.96 52.832C1228.53 53.6 1228.73 54.496 1228.6 55.584C1228.47 56.352 1228.28 56.992 1227.96 57.504C1227.57 58.016 1227.13 58.4 1226.55 58.656C1228.09 58.656 1229.3 57.952 1230.26 56.544C1231.16 55.136 1231.99 52.768 1232.69 49.44C1233.14 47.2 1233.65 44.192 1234.29 40.416C1234.87 36.64 1235.38 33.12 1235.83 29.92H1230.84L1231.03 28H1252.02L1248.89 53.984C1248.69 55.648 1248.76 56.8 1249.01 57.504C1249.27 58.208 1249.85 58.528 1250.74 58.528C1251.89 58.528 1252.79 57.888 1253.49 56.544C1254.2 55.2 1254.71 53.152 1255.09 50.336H1256.82C1256.18 54.432 1255.35 57.12 1254.2 58.528C1253.05 59.936 1251.32 60.64 1249.14 60.64C1246.97 60.64 1245.37 60 1244.47 58.72C1243.51 57.44 1243.19 55.584 1243.51 53.024L1246.26 29.92H1238.26C1237.69 33.76 1237.17 37.088 1236.73 39.968C1236.28 42.912 1235.89 45.344 1235.51 47.264ZM1286.48 50.272C1286.1 53.472 1284.69 55.968 1282.26 57.824C1279.82 59.744 1276.88 60.64 1273.36 60.64C1269.65 60.64 1266.96 59.616 1265.3 57.504C1263.63 55.456 1263.12 52.32 1263.63 48.224L1265.87 29.92H1260.37L1260.62 28C1263.89 28 1266.38 28 1268.05 27.872C1269.71 27.744 1270.67 27.616 1270.93 27.36L1271.57 28L1269.9 41.696C1271.06 41.184 1272.21 40.736 1273.49 40.48C1274.77 40.224 1276.05 40.032 1277.33 40.032C1280.27 40.032 1282.64 40.992 1284.43 42.848C1286.16 44.768 1286.86 47.2 1286.48 50.272ZM1273.94 58.592C1275.73 58.592 1277.26 57.824 1278.54 56.288C1279.82 54.752 1280.59 52.768 1280.85 50.336C1281.1 47.712 1280.66 45.664 1279.63 44.256C1278.54 42.848 1276.94 42.144 1274.77 42.144C1273.87 42.144 1273.04 42.336 1272.14 42.592C1271.25 42.848 1270.48 43.232 1269.71 43.68L1269.14 48.352C1268.69 52.064 1268.82 54.752 1269.58 56.288C1270.35 57.824 1271.76 58.592 1273.94 58.592ZM1301.94 60.64C1298.04 60.64 1295.03 59.168 1292.98 56.096C1290.93 53.024 1290.17 49.12 1290.68 44.256C1291.19 39.136 1292.85 35.04 1295.67 31.968C1298.42 28.896 1301.81 27.36 1305.85 27.36C1308.73 27.36 1311.03 28.128 1312.82 29.536C1314.55 31.008 1315.38 32.864 1315.32 35.168C1315.13 38.496 1313.4 41.12 1310.07 42.912C1306.74 44.704 1302.13 45.6 1296.25 45.6C1295.86 49.952 1296.25 53.152 1297.4 55.264C1298.55 57.44 1300.41 58.464 1303.03 58.464C1305.33 58.464 1307.13 57.888 1308.53 56.672C1309.94 55.52 1311.09 53.344 1312.12 50.272L1313.91 50.72C1312.95 54.304 1311.54 56.8 1309.62 58.336C1307.7 59.872 1305.14 60.64 1301.94 60.64ZM1305.4 29.28C1303.03 29.28 1301.05 30.624 1299.45 33.184C1297.85 35.744 1296.82 39.264 1296.37 43.68C1300.73 43.68 1304.05 42.912 1306.29 41.44C1308.53 40.032 1309.75 37.856 1309.94 34.976C1310.01 33.248 1309.62 31.84 1308.85 30.816C1308.02 29.792 1306.87 29.28 1305.4 29.28Z" fill="white"/>
<path d="M3018.04 62.088C3015.41 62.088 3013.37 61.448 3011.96 60.104C3010.49 58.824 3009.59 56.84 3009.33 54.152C3008.63 56.712 3007.35 58.632 3005.43 60.04C3003.51 61.448 3001.08 62.088 2998.26 62.088C2995.25 62.088 2992.89 61.384 2991.16 59.976C2989.37 58.568 2988.53 56.584 2988.53 54.024C2988.53 51.208 2989.69 48.904 2992.12 47.24C2994.55 45.576 2998.33 44.424 3003.45 43.656L3008.05 43.016V38.344C3008.05 35.784 3007.48 33.864 3006.39 32.584C3005.24 31.304 3003.57 30.664 3001.33 30.664C3000.37 30.664 2999.48 30.792 2998.58 31.048C2997.69 31.304 2997.05 31.56 2996.66 31.88C2998.07 32.392 2999.09 33.096 2999.73 33.928C3000.37 34.76 3000.69 35.848 3000.69 37.128C3000.69 38.792 3000.18 40.072 2999.22 40.968C2998.26 41.928 2996.98 42.376 2995.32 42.376C2993.53 42.376 2992.18 41.928 2991.16 40.968C2990.13 40.072 2989.69 38.792 2989.69 37.128C2989.69 34.312 2991.16 31.944 2994.23 30.152C2997.3 28.36 3001.08 27.464 3005.62 27.464C3010.04 27.464 3013.49 28.36 3015.99 30.152C3018.42 31.944 3019.7 34.504 3019.7 37.704V55.112C3019.7 56.008 3019.83 56.712 3020.09 57.16C3020.34 57.608 3020.79 57.8 3021.43 57.8C3022.2 57.8 3022.84 57.288 3023.29 56.136C3023.67 54.984 3023.93 53.384 3023.93 51.272H3026.68C3026.68 55.112 3025.97 57.864 3024.63 59.528C3023.22 61.256 3021.05 62.088 3018.04 62.088ZM3000.25 52.296C3000.25 53.64 3000.5 54.6 3001.01 55.24C3001.53 55.88 3002.29 56.2 3003.38 56.2C3004.85 56.2 3006.01 55.496 3006.84 54.088C3007.61 52.68 3008.05 50.568 3008.05 47.88V45.768L3005.81 46.28C3003.83 46.728 3002.42 47.432 3001.53 48.328C3000.63 49.288 3000.25 50.632 3000.25 52.296ZM3054.54 58.184V61H3033.16V58.184H3038.02V31.368H3036.87C3034.7 31.368 3033.1 32.072 3032.01 33.416C3030.86 34.76 3030.34 36.744 3030.34 39.304V40.52H3027.53V28.552H3060.17V40.52H3057.35V39.304C3057.35 36.744 3056.78 34.824 3055.69 33.416C3054.6 32.072 3053 31.368 3050.89 31.368H3049.67V58.184H3054.54ZM3081.21 62.088C3075.96 62.088 3071.61 60.488 3068.28 57.224C3064.95 54.024 3063.29 49.8 3063.29 44.552C3063.29 39.56 3064.89 35.464 3068.09 32.264C3071.29 29.064 3075.32 27.464 3080.19 27.464C3084.86 27.464 3088.63 28.936 3091.51 31.752C3094.39 34.632 3095.87 38.28 3095.87 42.76C3095.87 43.208 3095.8 43.592 3095.8 43.976C3095.8 44.36 3095.74 44.744 3095.74 45.064H3075.26V45.768C3075.26 50.12 3075.9 53.32 3077.31 55.368C3078.65 57.48 3080.7 58.504 3083.51 58.504C3085.82 58.504 3087.67 57.864 3089.15 56.52C3090.62 55.24 3091.71 53.256 3092.35 50.568L3095.23 50.888C3094.59 54.408 3093.05 57.16 3090.55 59.144C3088.06 61.128 3084.92 62.088 3081.21 62.088ZM3080.12 30.28C3078.46 30.28 3077.31 31.176 3076.54 32.968C3075.77 34.76 3075.39 37.896 3075.26 42.248H3084.54C3084.54 37.576 3084.15 34.44 3083.51 32.776C3082.87 31.112 3081.72 30.28 3080.12 30.28ZM3119.59 31.368H3112.74C3112.74 35.464 3112.68 38.92 3112.61 41.736C3112.48 44.552 3112.36 46.984 3112.16 48.968C3111.65 53.832 3110.82 57.224 3109.54 59.144C3108.26 61.128 3106.28 62.088 3103.59 62.088C3101.8 62.088 3100.32 61.576 3099.17 60.424C3098.02 59.336 3097.51 57.864 3097.51 56.008C3097.51 54.472 3097.89 53.192 3098.79 52.232C3099.68 51.272 3100.84 50.76 3102.37 50.76C3103.72 50.76 3104.8 51.208 3105.57 52.04C3106.34 52.936 3106.79 53.96 3106.79 55.24C3106.79 55.944 3106.66 56.584 3106.53 57.096C3106.34 57.608 3106.08 58.056 3105.76 58.44C3106.85 57.608 3107.68 56.2 3108.26 54.216C3108.77 52.232 3109.16 49.288 3109.28 45.384C3109.28 44.168 3109.35 42.76 3109.35 41.224C3109.35 39.688 3109.41 36.36 3109.41 31.368H3104.1V28.552H3135.46V31.368H3131.17V58.184H3135.46V61H3116.26V58.184H3119.59V31.368ZM3154.66 31.368V41.096H3159.52C3164.13 41.096 3167.78 41.992 3170.34 43.656C3172.9 45.32 3174.24 47.752 3174.24 50.952C3174.24 54.216 3172.96 56.712 3170.4 58.44C3167.84 60.168 3164.19 61 3159.52 61H3138.79V58.184H3143.01V31.368H3138.79V28.552H3160.1V31.368H3154.66ZM3156.64 43.912H3154.66V58.184H3156.71C3158.56 58.184 3159.97 57.608 3160.99 56.328C3162.02 55.048 3162.53 53.256 3162.53 50.888C3162.53 48.584 3162.02 46.792 3161.06 45.64C3160.1 44.488 3158.63 43.912 3156.64 43.912ZM3195.27 62.088C3190.03 62.088 3185.67 60.488 3182.35 57.224C3179.02 54.024 3177.35 49.8 3177.35 44.552C3177.35 39.56 3178.95 35.464 3182.15 32.264C3185.35 29.064 3189.39 27.464 3194.25 27.464C3198.92 27.464 3202.7 28.936 3205.58 31.752C3208.46 34.632 3209.93 38.28 3209.93 42.76C3209.93 43.208 3209.87 43.592 3209.87 43.976C3209.87 44.36 3209.8 44.744 3209.8 45.064H3189.32V45.768C3189.32 50.12 3189.96 53.32 3191.37 55.368C3192.71 57.48 3194.76 58.504 3197.58 58.504C3199.88 58.504 3201.74 57.864 3203.21 56.52C3204.68 55.24 3205.77 53.256 3206.41 50.568L3209.29 50.888C3208.65 54.408 3207.11 57.16 3204.62 59.144C3202.12 61.128 3198.99 62.088 3195.27 62.088ZM3194.19 30.28C3192.52 30.28 3191.37 31.176 3190.6 32.968C3189.83 34.76 3189.45 37.896 3189.32 42.248H3198.6C3198.6 37.576 3198.22 34.44 3197.58 32.776C3196.94 31.112 3195.79 30.28 3194.19 30.28Z" fill="white"/>
<path d="M1662.04 62.088C1659.42 62.088 1657.37 61.448 1655.96 60.104C1654.49 58.824 1653.59 56.84 1653.34 54.152C1652.63 56.712 1651.35 58.632 1649.43 60.04C1647.51 61.448 1645.08 62.088 1642.26 62.088C1639.26 62.088 1636.89 61.384 1635.16 59.976C1633.37 58.568 1632.54 56.584 1632.54 54.024C1632.54 51.208 1633.69 48.904 1636.12 47.24C1638.55 45.576 1642.33 44.424 1647.45 43.656L1652.06 43.016V38.344C1652.06 35.784 1651.48 33.864 1650.39 32.584C1649.24 31.304 1647.58 30.664 1645.34 30.664C1644.38 30.664 1643.48 30.792 1642.58 31.048C1641.69 31.304 1641.05 31.56 1640.66 31.88C1642.07 32.392 1643.1 33.096 1643.74 33.928C1644.38 34.76 1644.7 35.848 1644.7 37.128C1644.7 38.792 1644.18 40.072 1643.22 40.968C1642.26 41.928 1640.98 42.376 1639.32 42.376C1637.53 42.376 1636.18 41.928 1635.16 40.968C1634.14 40.072 1633.69 38.792 1633.69 37.128C1633.69 34.312 1635.16 31.944 1638.23 30.152C1641.3 28.36 1645.08 27.464 1649.62 27.464C1654.04 27.464 1657.5 28.36 1659.99 30.152C1662.42 31.944 1663.7 34.504 1663.7 37.704V55.112C1663.7 56.008 1663.83 56.712 1664.09 57.16C1664.34 57.608 1664.79 57.8 1665.43 57.8C1666.2 57.8 1666.84 57.288 1667.29 56.136C1667.67 54.984 1667.93 53.384 1667.93 51.272H1670.68C1670.68 55.112 1669.98 57.864 1668.63 59.528C1667.22 61.256 1665.05 62.088 1662.04 62.088ZM1644.25 52.296C1644.25 53.64 1644.5 54.6 1645.02 55.24C1645.53 55.88 1646.3 56.2 1647.38 56.2C1648.86 56.2 1650.01 55.496 1650.84 54.088C1651.61 52.68 1652.06 50.568 1652.06 47.88V45.768L1649.82 46.28C1647.83 46.728 1646.42 47.432 1645.53 48.328C1644.63 49.288 1644.25 50.632 1644.25 52.296ZM1698.54 58.184V61H1677.16V58.184H1682.03V31.368H1680.87C1678.7 31.368 1677.1 32.072 1676.01 33.416C1674.86 34.76 1674.35 36.744 1674.35 39.304V40.52H1671.53V28.552H1704.17V40.52H1701.35V39.304C1701.35 36.744 1700.78 34.824 1699.69 33.416C1698.6 32.072 1697 31.368 1694.89 31.368H1693.67V58.184H1698.54ZM1725.21 62.088C1719.97 62.088 1715.61 60.488 1712.29 57.224C1708.96 54.024 1707.29 49.8 1707.29 44.552C1707.29 39.56 1708.89 35.464 1712.09 32.264C1715.29 29.064 1719.33 27.464 1724.19 27.464C1728.86 27.464 1732.64 28.936 1735.52 31.752C1738.4 34.632 1739.87 38.28 1739.87 42.76C1739.87 43.208 1739.81 43.592 1739.81 43.976C1739.81 44.36 1739.74 44.744 1739.74 45.064H1719.26V45.768C1719.26 50.12 1719.9 53.32 1721.31 55.368C1722.65 57.48 1724.7 58.504 1727.52 58.504C1729.82 58.504 1731.68 57.864 1733.15 56.52C1734.62 55.24 1735.71 53.256 1736.35 50.568L1739.23 50.888C1738.59 54.408 1737.05 57.16 1734.56 59.144C1732.06 61.128 1728.93 62.088 1725.21 62.088ZM1724.13 30.28C1722.46 30.28 1721.31 31.176 1720.54 32.968C1719.77 34.76 1719.39 37.896 1719.26 42.248H1728.54C1728.54 37.576 1728.16 34.44 1727.52 32.776C1726.88 31.112 1725.73 30.28 1724.13 30.28ZM1763.59 31.368H1756.74C1756.74 35.464 1756.68 38.92 1756.61 41.736C1756.49 44.552 1756.36 46.984 1756.17 48.968C1755.65 53.832 1754.82 57.224 1753.54 59.144C1752.26 61.128 1750.28 62.088 1747.59 62.088C1745.8 62.088 1744.33 61.576 1743.17 60.424C1742.02 59.336 1741.51 57.864 1741.51 56.008C1741.51 54.472 1741.89 53.192 1742.79 52.232C1743.69 51.272 1744.84 50.76 1746.37 50.76C1747.72 50.76 1748.81 51.208 1749.57 52.04C1750.34 52.936 1750.79 53.96 1750.79 55.24C1750.79 55.944 1750.66 56.584 1750.53 57.096C1750.34 57.608 1750.09 58.056 1749.77 58.44C1750.85 57.608 1751.69 56.2 1752.26 54.216C1752.77 52.232 1753.16 49.288 1753.29 45.384C1753.29 44.168 1753.35 42.76 1753.35 41.224C1753.35 39.688 1753.41 36.36 1753.41 31.368H1748.1V28.552H1779.46V31.368H1775.17V58.184H1779.46V61H1760.26V58.184H1763.59V31.368ZM1798.66 31.368V41.096H1803.53C1808.13 41.096 1811.78 41.992 1814.34 43.656C1816.9 45.32 1818.25 47.752 1818.25 50.952C1818.25 54.216 1816.97 56.712 1814.41 58.44C1811.85 60.168 1808.2 61 1803.53 61H1782.79V58.184H1787.01V31.368H1782.79V28.552H1804.1V31.368H1798.66ZM1800.65 43.912H1798.66V58.184H1800.71C1802.57 58.184 1803.97 57.608 1805 56.328C1806.02 55.048 1806.53 53.256 1806.53 50.888C1806.53 48.584 1806.02 46.792 1805.06 45.64C1804.1 44.488 1802.63 43.912 1800.65 43.912ZM1839.28 62.088C1834.03 62.088 1829.68 60.488 1826.35 57.224C1823.02 54.024 1821.36 49.8 1821.36 44.552C1821.36 39.56 1822.96 35.464 1826.16 32.264C1829.36 29.064 1833.39 27.464 1838.25 27.464C1842.92 27.464 1846.7 28.936 1849.58 31.752C1852.46 34.632 1853.93 38.28 1853.93 42.76C1853.93 43.208 1853.87 43.592 1853.87 43.976C1853.87 44.36 1853.8 44.744 1853.8 45.064H1833.32V45.768C1833.32 50.12 1833.96 53.32 1835.37 55.368C1836.72 57.48 1838.76 58.504 1841.58 58.504C1843.88 58.504 1845.74 57.864 1847.21 56.52C1848.68 55.24 1849.77 53.256 1850.41 50.568L1853.29 50.888C1852.65 54.408 1851.12 57.16 1848.62 59.144C1846.12 61.128 1842.99 62.088 1839.28 62.088ZM1838.19 30.28C1836.52 30.28 1835.37 31.176 1834.6 32.968C1833.84 34.76 1833.45 37.896 1833.32 42.248H1842.6C1842.6 37.576 1842.22 34.44 1841.58 32.776C1840.94 31.112 1839.79 30.28 1838.19 30.28Z" fill="white"/>
<path d="M1916.61 59.704C1912.83 59.704 1910.02 58.168 1908.16 55.096C1906.24 52.024 1905.6 47.864 1906.24 42.68C1906.75 37.88 1908.48 33.912 1911.42 30.84C1914.3 27.768 1917.89 26.168 1922.11 26.168C1924.03 26.168 1925.76 26.744 1927.17 27.768C1928.58 28.856 1929.73 30.392 1930.5 32.44L1934.91 26.168H1936.45L1933.12 52.856C1932.93 54.392 1932.99 55.48 1933.31 56.184C1933.63 56.888 1934.21 57.208 1935.04 57.208C1936.06 57.208 1936.83 56.632 1937.47 55.352C1938.11 54.136 1938.56 52.088 1938.94 49.272H1940.93C1940.29 53.432 1939.46 56.184 1938.37 57.592C1937.22 59 1935.55 59.704 1933.38 59.704C1931.26 59.704 1929.79 59.064 1928.9 57.784C1928 56.504 1927.68 54.584 1928 51.96L1928.38 48.696C1927.36 52.152 1925.82 54.904 1923.78 56.824C1921.73 58.744 1919.3 59.704 1916.61 59.704ZM1913.22 42.488C1912.7 47.096 1912.9 50.552 1913.79 52.92C1914.69 55.288 1916.22 56.44 1918.4 56.44C1920.83 56.44 1922.88 55.288 1924.54 52.856C1926.21 50.424 1927.3 47.096 1927.87 42.808C1927.87 42.68 1927.87 42.552 1927.87 42.36C1927.87 42.232 1927.94 41.912 1928.06 41.464L1928.13 40.824C1928.13 40.696 1928.19 40.568 1928.19 40.44C1928.51 36.472 1928.19 33.528 1927.17 31.48C1926.14 29.432 1924.48 28.408 1922.18 28.344C1919.74 28.344 1917.82 29.624 1916.29 32.056C1914.75 34.488 1913.73 38.008 1913.22 42.488ZM1984.83 59.704C1982.46 59.704 1980.8 59.064 1979.77 57.656C1978.75 56.248 1978.37 54.2 1978.75 51.448L1980.67 36.344C1980.93 34.104 1980.8 32.44 1980.29 31.288C1979.77 30.2 1978.81 29.624 1977.53 29.624C1975.87 29.624 1974.46 30.52 1973.37 32.184C1972.22 33.912 1971.39 36.472 1970.81 39.928L1968.38 59H1961.73L1964.67 36.344C1964.93 34.04 1964.86 32.312 1964.41 31.224C1963.9 30.2 1963.01 29.624 1961.66 29.624C1959.68 29.624 1958.08 30.712 1956.93 32.888C1955.71 35.064 1954.81 38.456 1954.3 42.936L1952.38 59H1945.79L1949.44 28.984H1944.19L1944.45 26.936C1947.52 26.936 1949.82 26.936 1951.42 26.808C1953.02 26.68 1953.98 26.488 1954.37 26.232L1955.26 26.872L1954.24 35.128C1955.13 32.184 1956.41 29.944 1958.14 28.408C1959.81 26.936 1961.92 26.168 1964.35 26.168C1966.27 26.168 1967.81 26.744 1969.02 27.832C1970.17 28.92 1970.94 30.456 1971.2 32.44C1972.09 30.392 1973.31 28.792 1974.85 27.768C1976.32 26.744 1978.11 26.168 1980.16 26.168C1982.85 26.168 1984.77 27.064 1985.92 28.856C1987.07 30.648 1987.52 33.208 1987.13 36.536L1985.21 52.856C1985.02 54.456 1985.09 55.608 1985.34 56.248C1985.6 56.888 1986.11 57.208 1986.88 57.208C1987.9 57.208 1988.8 56.568 1989.44 55.288C1990.08 54.008 1990.59 52.024 1990.97 49.336H1992.96C1992.32 53.432 1991.42 56.184 1990.21 57.592C1988.99 59 1987.2 59.704 1984.83 59.704ZM2008.77 59.704C2004.61 59.704 2001.41 58.168 1999.23 55.096C1997.06 52.024 1996.22 47.992 1996.8 43.128C1997.31 38.008 1999.04 33.912 2001.98 30.84C2004.93 27.768 2008.45 26.168 2012.67 26.168C2015.74 26.168 2018.18 26.936 2020.03 28.472C2021.82 30.008 2022.72 31.928 2022.66 34.296C2022.53 37.624 2020.8 40.184 2017.47 41.976C2014.14 43.768 2009.47 44.728 2003.52 44.728C2003.14 48.952 2003.52 52.152 2004.67 54.2C2005.76 56.248 2007.62 57.272 2010.18 57.272C2012.48 57.272 2014.34 56.696 2015.74 55.416C2017.15 54.2 2018.3 52.088 2019.2 49.144L2021.18 49.592C2020.22 53.112 2018.75 55.672 2016.77 57.272C2014.72 58.936 2012.1 59.704 2008.77 59.704ZM2012.1 28.28C2009.92 28.28 2008.06 29.56 2006.59 32.12C2005.06 34.68 2004.1 38.136 2003.65 42.616C2007.74 42.552 2010.82 41.784 2012.86 40.312C2014.91 38.84 2016.06 36.6 2016.26 33.656C2016.32 32.056 2016 30.776 2015.23 29.752C2014.46 28.792 2013.44 28.28 2012.1 28.28ZM2037.58 46.136C2036.68 51.064 2035.53 54.584 2034.18 56.632C2032.84 58.68 2030.92 59.704 2028.36 59.704C2026.5 59.704 2025.1 59.256 2024.14 58.232C2023.18 57.272 2022.79 55.992 2022.98 54.392C2023.11 53.24 2023.56 52.344 2024.39 51.576C2025.16 50.872 2026.18 50.488 2027.34 50.488C2028.49 50.488 2029.38 50.872 2030.02 51.64C2030.66 52.408 2030.86 53.304 2030.73 54.456C2030.6 55.16 2030.41 55.736 2030.15 56.248C2029.83 56.76 2029.38 57.08 2028.87 57.336C2030.28 57.272 2031.43 56.504 2032.33 55.032C2033.22 53.624 2033.99 51.256 2034.63 48.056C2035.14 45.688 2035.66 42.616 2036.3 38.776C2036.87 34.936 2037.32 31.672 2037.64 28.984H2032.65L2032.84 26.936H2054.73L2051.59 52.92C2051.4 54.456 2051.46 55.608 2051.72 56.248C2051.98 56.888 2052.49 57.208 2053.32 57.208C2054.34 57.208 2055.18 56.568 2055.88 55.288C2056.52 54.008 2057.03 52.024 2057.35 49.336H2059.34C2058.7 53.432 2057.8 56.184 2056.65 57.592C2055.43 59 2053.64 59.704 2051.27 59.704C2048.84 59.704 2047.18 59.064 2046.15 57.656C2045.13 56.248 2044.74 54.2 2045.13 51.448L2047.82 28.984H2040.26C2039.62 33.208 2039.11 36.664 2038.73 39.352C2038.28 42.04 2037.9 44.344 2037.58 46.136ZM2090.13 49.272C2089.68 52.472 2088.21 54.968 2085.71 56.888C2083.22 58.808 2080.08 59.704 2076.31 59.704C2072.34 59.704 2069.46 58.68 2067.73 56.504C2066 54.392 2065.43 51.192 2065.94 46.968L2068.18 29.048H2062.87L2063.12 26.936C2066.58 26.936 2069.14 26.936 2070.93 26.808C2072.72 26.68 2073.75 26.552 2074.13 26.296L2075.03 26.936L2073.36 40.44C2074.51 39.928 2075.73 39.544 2076.88 39.288C2078.03 39.032 2079.25 38.904 2080.47 38.904C2083.6 38.904 2086.1 39.864 2087.95 41.784C2089.75 43.704 2090.51 46.2 2090.13 49.272ZM2076.88 57.336C2078.55 57.336 2080.02 56.632 2081.23 55.096C2082.39 53.624 2083.15 51.64 2083.41 49.208C2083.67 46.648 2083.28 44.664 2082.32 43.32C2081.3 41.976 2079.83 41.272 2077.78 41.272C2076.95 41.272 2076.11 41.4 2075.35 41.656C2074.51 41.912 2073.75 42.232 2073.11 42.616L2072.53 47.544C2072.08 51.128 2072.21 53.688 2072.91 55.16C2073.55 56.632 2074.9 57.336 2076.88 57.336ZM2106.27 59.704C2102.11 59.704 2098.91 58.168 2096.73 55.096C2094.56 52.024 2093.72 47.992 2094.3 43.128C2094.81 38.008 2096.54 33.912 2099.48 30.84C2102.43 27.768 2105.95 26.168 2110.17 26.168C2113.24 26.168 2115.68 26.936 2117.53 28.472C2119.32 30.008 2120.22 31.928 2120.16 34.296C2120.03 37.624 2118.3 40.184 2114.97 41.976C2111.64 43.768 2106.97 44.728 2101.02 44.728C2100.64 48.952 2101.02 52.152 2102.17 54.2C2103.26 56.248 2105.12 57.272 2107.68 57.272C2109.98 57.272 2111.84 56.696 2113.24 55.416C2114.65 54.2 2115.8 52.088 2116.7 49.144L2118.68 49.592C2117.72 53.112 2116.25 55.672 2114.27 57.272C2112.22 58.936 2109.6 59.704 2106.27 59.704ZM2109.6 28.28C2107.42 28.28 2105.56 29.56 2104.09 32.12C2102.56 34.68 2101.6 38.136 2101.15 42.616C2105.24 42.552 2108.32 41.784 2110.36 40.312C2112.41 38.84 2113.56 36.6 2113.76 33.656C2113.82 32.056 2113.5 30.776 2112.73 29.752C2111.96 28.792 2110.94 28.28 2109.6 28.28Z" fill="white"/>
<path d="M2203.44 59.896C2201.07 59.896 2199.28 59.256 2198 57.976C2196.72 56.696 2196.02 54.776 2195.89 52.152C2195.12 54.584 2193.84 56.44 2191.98 57.848C2190.06 59.256 2187.82 59.896 2185.26 59.896C2182.38 59.896 2180.14 59.256 2178.54 57.912C2176.94 56.632 2176.18 54.712 2176.18 52.216C2176.18 49.656 2177.26 47.544 2179.57 45.88C2181.81 44.216 2185.46 42.872 2190.45 41.848L2195.06 40.888V36.344C2195.06 33.72 2194.48 31.8 2193.46 30.52C2192.37 29.304 2190.64 28.664 2188.34 28.664C2187.18 28.664 2186.16 28.856 2185.26 29.112C2184.37 29.432 2183.54 29.88 2182.77 30.456C2184.05 30.84 2185.01 31.352 2185.65 32.12C2186.22 32.888 2186.54 33.912 2186.54 35.128C2186.54 36.536 2186.1 37.688 2185.26 38.52C2184.43 39.352 2183.28 39.736 2181.81 39.736C2180.27 39.736 2179.12 39.352 2178.29 38.52C2177.46 37.752 2177.07 36.6 2177.07 35.128C2177.07 32.568 2178.42 30.392 2181.17 28.6C2183.92 26.808 2187.25 25.912 2191.22 25.912C2195.57 25.912 2198.77 26.744 2200.82 28.408C2202.8 30.072 2203.82 32.76 2203.82 36.344V53.368C2203.82 54.392 2203.95 55.096 2204.34 55.608C2204.72 56.12 2205.23 56.376 2205.94 56.376C2206.83 56.376 2207.47 55.8 2207.98 54.584C2208.43 53.432 2208.69 51.64 2208.69 49.272H2210.93C2210.93 53.048 2210.29 55.736 2209.14 57.4C2207.98 59.064 2206.06 59.896 2203.44 59.896ZM2185.07 50.872C2185.07 52.344 2185.39 53.432 2186.03 54.2C2186.67 54.968 2187.7 55.288 2188.98 55.288C2190.9 55.288 2192.37 54.456 2193.46 52.792C2194.48 51.128 2195.06 48.696 2195.06 45.624V42.936L2191.6 43.896C2189.3 44.536 2187.63 45.432 2186.61 46.456C2185.58 47.544 2185.07 49.016 2185.07 50.872ZM2237.18 56.632V59H2217.85V56.632H2223.17V29.176H2221.12C2218.81 29.304 2217.09 29.944 2216 31.224C2214.91 32.504 2214.4 34.488 2214.4 37.112V38.52H2212.03V26.744H2243.07V38.52H2240.64V37.112C2240.64 34.488 2240.06 32.504 2238.97 31.224C2237.89 29.944 2236.22 29.304 2233.98 29.176H2231.93V56.632H2237.18ZM2263.19 59.896C2258.33 59.896 2254.42 58.36 2251.42 55.16C2248.34 52.024 2246.87 47.864 2246.87 42.68C2246.87 37.752 2248.28 33.72 2251.22 30.584C2254.17 27.512 2257.88 25.912 2262.36 25.912C2266.71 25.912 2270.17 27.32 2272.73 30.072C2275.29 32.824 2276.63 36.408 2276.63 40.76V41.528C2276.63 41.848 2276.57 42.232 2276.57 42.616H2255.96V43.32C2256.02 48.184 2256.73 51.704 2258.07 53.816C2259.42 55.992 2261.53 57.016 2264.47 57.016C2266.84 57.016 2268.82 56.376 2270.36 55.032C2271.9 53.752 2272.98 51.704 2273.75 48.952L2276.12 49.336C2275.42 52.664 2273.94 55.224 2271.64 57.08C2269.34 59 2266.52 59.896 2263.19 59.896ZM2262.23 28.344C2260.18 28.344 2258.65 29.304 2257.62 31.224C2256.6 33.144 2256.09 36.152 2255.96 40.248H2267.93C2267.93 35.896 2267.48 32.824 2266.58 31.032C2265.69 29.24 2264.22 28.344 2262.23 28.344ZM2301.55 56.632V29.176H2293.48C2293.48 33.976 2293.42 37.624 2293.42 40.184C2293.35 42.744 2293.29 44.984 2293.16 46.776C2292.78 51.768 2292.01 55.224 2290.86 57.08C2289.71 59 2287.72 59.896 2284.97 59.896C2283.05 59.896 2281.58 59.384 2280.43 58.296C2279.27 57.272 2278.76 55.736 2278.76 53.816C2278.76 52.408 2279.15 51.256 2279.98 50.36C2280.75 49.464 2281.83 48.952 2283.24 48.952C2284.52 48.952 2285.48 49.336 2286.25 50.04C2286.95 50.808 2287.34 51.704 2287.34 52.792C2287.34 54.072 2286.95 55.032 2286.25 55.672C2285.55 56.376 2284.52 56.76 2283.24 56.76C2283.43 57.016 2283.75 57.208 2284.14 57.336C2284.52 57.464 2285.03 57.528 2285.55 57.528C2287.21 57.528 2288.36 56.568 2289.07 54.712C2289.71 52.856 2290.15 49.464 2290.41 44.472C2290.47 42.808 2290.54 40.76 2290.54 38.456C2290.54 36.152 2290.6 33.08 2290.6 29.176H2285.29V26.744H2314.92V29.176H2310.31V56.632H2314.92V59H2297.07V56.632H2301.55ZM2332.55 29.176V39.928H2337.16C2341.64 39.928 2345.16 40.76 2347.65 42.36C2350.15 44.024 2351.43 46.328 2351.43 49.4C2351.43 52.472 2350.15 54.84 2347.65 56.504C2345.16 58.168 2341.64 59 2337.16 59H2319.17V56.632H2323.78V29.176H2319.17V26.744H2338.25V29.176H2332.55ZM2335.56 42.36H2332.55V56.632H2335.62C2337.86 56.632 2339.59 56.056 2340.74 54.84C2341.89 53.624 2342.47 51.768 2342.47 49.336C2342.47 46.904 2341.89 45.176 2340.81 44.024C2339.72 42.936 2337.99 42.36 2335.56 42.36ZM2371.75 59.896C2366.89 59.896 2362.99 58.36 2359.98 55.16C2356.91 52.024 2355.43 47.864 2355.43 42.68C2355.43 37.752 2356.84 33.72 2359.79 30.584C2362.73 27.512 2366.44 25.912 2370.92 25.912C2375.27 25.912 2378.73 27.32 2381.29 30.072C2383.85 32.824 2385.19 36.408 2385.19 40.76V41.528C2385.19 41.848 2385.13 42.232 2385.13 42.616H2364.52V43.32C2364.59 48.184 2365.29 51.704 2366.63 53.816C2367.98 55.992 2370.09 57.016 2373.03 57.016C2375.4 57.016 2377.39 56.376 2378.92 55.032C2380.46 53.752 2381.55 51.704 2382.31 48.952L2384.68 49.336C2383.98 52.664 2382.51 55.224 2380.2 57.08C2377.9 59 2375.08 59.896 2371.75 59.896ZM2370.79 28.344C2368.75 28.344 2367.21 29.304 2366.19 31.224C2365.16 33.144 2364.65 36.152 2364.52 40.248H2376.49C2376.49 35.896 2376.04 32.824 2375.15 31.032C2374.25 29.24 2372.78 28.344 2370.79 28.344Z" fill="white"/>
<path d="M2452.21 40.848C2451.7 45.136 2451.76 48.272 2452.27 50.192C2452.78 52.176 2453.81 53.136 2455.41 53.136C2457.07 53.136 2458.42 52.24 2459.5 50.384C2460.59 48.592 2461.36 45.904 2461.81 42.32C2461.81 42.32 2461.81 42.128 2461.87 41.872L2462.13 40.336C2462.19 39.568 2462.26 39.056 2462.32 38.8C2462.32 38.544 2462.38 38.416 2462.38 38.352C2462.77 34.64 2462.7 31.952 2462.13 30.16C2461.55 28.368 2460.46 27.472 2458.86 27.472C2457.07 27.472 2455.66 28.56 2454.64 30.608C2453.55 32.72 2452.72 36.112 2452.21 40.848ZM2450.54 59.088C2446.77 59.088 2443.95 57.552 2442.03 54.352C2440.11 51.152 2439.47 46.992 2440.11 41.744C2440.69 36.688 2442.61 32.528 2445.87 29.328C2449.14 26.128 2453.17 24.464 2458.03 24.464C2460.14 24.464 2462.06 24.912 2463.73 25.808C2465.39 26.704 2466.8 27.92 2467.89 29.52L2471.79 24.464H2475.63L2472.37 51.28C2472.24 52.432 2472.24 53.328 2472.43 53.904C2472.62 54.48 2473.01 54.736 2473.52 54.736C2474.16 54.736 2474.67 54.224 2475.12 53.2C2475.57 52.176 2475.95 50.576 2476.27 48.336H2479.28C2478.64 52.56 2477.62 55.376 2476.14 56.848C2474.67 58.32 2472.5 59.024 2469.55 59.024C2467.06 59.024 2465.2 58.32 2464.05 56.912C2462.9 55.504 2462.32 53.392 2462.38 50.512L2462.51 48.656C2461.36 52.112 2459.82 54.672 2457.78 56.464C2455.73 58.256 2453.36 59.088 2450.54 59.088ZM2530.22 59.024C2527.02 59.024 2524.71 58.128 2523.43 56.272C2522.09 54.48 2521.64 51.664 2522.15 47.952L2523.75 35.28C2523.94 33.36 2523.88 31.888 2523.5 30.992C2523.11 30.096 2522.47 29.584 2521.58 29.584C2520.42 29.584 2519.46 30.288 2518.7 31.632C2517.93 33.04 2517.29 35.152 2516.84 38.032L2514.34 58H2502.7L2505.58 35.28C2505.83 33.296 2505.77 31.824 2505.45 30.928C2505.06 30.032 2504.42 29.584 2503.46 29.584C2502.18 29.584 2501.1 30.416 2500.33 32.08C2499.5 33.744 2498.86 36.304 2498.47 39.76L2496.17 58H2484.58L2488.23 28.368H2483.88L2484.2 25.552C2487.27 25.552 2489.83 25.488 2491.88 25.36C2493.93 25.232 2495.4 24.976 2496.3 24.72L2498.22 25.36L2497.38 32.08C2498.41 29.52 2499.88 27.664 2501.67 26.384C2503.46 25.104 2505.64 24.464 2508.26 24.464C2510.38 24.464 2512.1 24.976 2513.51 25.872C2514.92 26.832 2515.88 28.176 2516.46 29.968C2517.54 28.176 2518.89 26.768 2520.55 25.872C2522.22 24.976 2524.14 24.464 2526.38 24.464C2529.64 24.464 2532.01 25.552 2533.54 27.6C2535.02 29.712 2535.53 32.72 2535.14 36.56L2533.35 51.28C2533.22 52.496 2533.22 53.392 2533.42 53.904C2533.54 54.48 2533.93 54.736 2534.44 54.736C2535.08 54.736 2535.66 54.224 2536.1 53.2C2536.55 52.176 2536.94 50.512 2537.26 48.336H2540.33C2539.69 52.496 2538.6 55.312 2537.06 56.784C2535.53 58.32 2533.29 59.024 2530.22 59.024ZM2558.28 59.088C2553.22 59.088 2549.32 57.488 2546.5 54.224C2543.68 51.024 2542.6 46.8 2543.24 41.68C2543.88 36.56 2545.92 32.464 2549.51 29.264C2553.03 26.064 2557.32 24.464 2562.37 24.464C2566.08 24.464 2569.03 25.36 2571.27 27.024C2573.51 28.752 2574.66 30.992 2574.66 33.68C2574.6 37.008 2572.87 39.568 2569.41 41.36C2565.96 43.216 2561.16 44.176 2555.01 44.24C2554.76 48.08 2555.14 50.96 2556.16 52.752C2557.19 54.608 2558.85 55.504 2561.22 55.504C2563.27 55.504 2565 54.864 2566.53 53.456C2568 52.112 2569.09 50.128 2569.86 47.568L2572.93 47.888C2571.91 51.536 2570.18 54.288 2567.68 56.208C2565.12 58.128 2561.99 59.088 2558.28 59.088ZM2561.16 27.408C2559.68 27.408 2558.47 28.56 2557.51 30.864C2556.48 33.168 2555.72 36.624 2555.2 41.296C2557.89 41.104 2559.94 40.144 2561.35 38.48C2562.76 36.816 2563.46 34.384 2563.52 31.312C2563.52 30.096 2563.33 29.136 2562.95 28.432C2562.56 27.792 2561.92 27.408 2561.16 27.408ZM2589.47 44.752C2588.44 50.128 2587.23 53.904 2585.76 55.952C2584.22 58.064 2582.04 59.088 2579.1 59.088C2577.44 59.088 2576.16 58.576 2575.13 57.552C2574.11 56.528 2573.6 55.248 2573.6 53.712C2573.6 52.304 2574.04 51.024 2575.07 49.936C2576.09 48.848 2577.37 48.272 2578.91 48.272C2580.19 48.272 2581.15 48.656 2581.92 49.36C2582.68 50.128 2583.07 51.024 2583.07 52.048C2583.07 52.688 2582.94 53.328 2582.68 53.968C2582.43 54.672 2582.11 55.184 2581.79 55.44C2582.68 55.056 2583.52 54.096 2584.16 52.56C2584.8 51.024 2585.5 48.592 2586.14 45.328C2586.52 43.024 2586.97 40.272 2587.42 37.2C2587.87 34.128 2588.25 31.184 2588.57 28.368H2583.39L2583.77 25.552H2609.37L2606.24 51.6C2606.11 52.752 2606.11 53.584 2606.3 54.032C2606.49 54.544 2606.88 54.736 2607.39 54.736C2608.03 54.736 2608.6 54.224 2609.05 53.136C2609.5 52.112 2609.88 50.512 2610.2 48.336H2613.21C2612.64 52.432 2611.61 55.184 2610.14 56.72C2608.6 58.256 2606.43 59.024 2603.55 59.024C2600.16 59.024 2597.79 58.128 2596.44 56.336C2595.04 54.544 2594.59 51.728 2595.04 47.952L2597.4 28.368H2591.9C2591.39 32.4 2590.94 35.664 2590.56 38.224C2590.17 40.784 2589.79 42.96 2589.47 44.752ZM2649.24 48.336C2648.86 51.664 2647.13 54.224 2644.06 56.144C2640.99 58.064 2637.02 59.024 2632.15 59.024C2627.16 59.024 2623.64 57.872 2621.47 55.568C2619.29 53.264 2618.52 49.744 2619.1 45.008L2621.08 28.56H2616.73L2617.11 25.808C2620.63 25.808 2623.58 25.744 2626.01 25.616C2628.44 25.488 2630.17 25.232 2631.19 24.976L2633.11 25.552L2631.51 38.16C2632.28 37.904 2633.18 37.712 2634.14 37.584C2635.1 37.456 2636.12 37.392 2637.15 37.392C2640.99 37.392 2644.12 38.416 2646.43 40.4C2648.73 42.448 2649.63 45.072 2649.24 48.336ZM2632.92 55.12C2634.2 55.12 2635.23 54.544 2635.99 53.328C2636.76 52.112 2637.27 50.256 2637.59 47.696C2637.85 45.392 2637.66 43.664 2637.08 42.512C2636.44 41.36 2635.42 40.784 2633.88 40.784C2633.37 40.784 2632.86 40.848 2632.41 40.912C2631.96 41.04 2631.58 41.168 2631.19 41.296L2630.36 47.568C2629.98 50.384 2630.04 52.304 2630.43 53.456C2630.81 54.608 2631.64 55.12 2632.92 55.12ZM2668.46 59.088C2663.41 59.088 2659.5 57.488 2656.69 54.224C2653.87 51.024 2652.78 46.8 2653.42 41.68C2654.06 36.56 2656.11 32.464 2659.7 29.264C2663.22 26.064 2667.5 24.464 2672.56 24.464C2676.27 24.464 2679.22 25.36 2681.46 27.024C2683.69 28.752 2684.85 30.992 2684.85 33.68C2684.78 37.008 2683.06 39.568 2679.6 41.36C2676.14 43.216 2671.34 44.176 2665.2 44.24C2664.94 48.08 2665.33 50.96 2666.35 52.752C2667.38 54.608 2669.04 55.504 2671.41 55.504C2673.46 55.504 2675.18 54.864 2676.72 53.456C2678.19 52.112 2679.28 50.128 2680.05 47.568L2683.12 47.888C2682.1 51.536 2680.37 54.288 2677.87 56.208C2675.31 58.128 2672.18 59.088 2668.46 59.088ZM2671.34 27.408C2669.87 27.408 2668.66 28.56 2667.7 30.864C2666.67 33.168 2665.9 36.624 2665.39 41.296C2668.08 41.104 2670.13 40.144 2671.54 38.48C2672.94 36.816 2673.65 34.384 2673.71 31.312C2673.71 30.096 2673.52 29.136 2673.14 28.432C2672.75 27.792 2672.11 27.408 2671.34 27.408Z" fill="white"/>
<path d="M2749.61 59.64C2745.9 59.64 2743.08 58.104 2741.22 55.032C2739.3 51.96 2738.66 47.864 2739.24 42.68C2739.75 37.944 2741.48 34.04 2744.3 30.968C2747.11 27.896 2750.57 26.36 2754.66 26.36C2756.58 26.36 2758.25 26.936 2759.66 28.088C2761.06 29.24 2762.09 30.84 2762.73 32.888L2767.27 26.36H2768.23L2764.97 52.984C2764.71 54.52 2764.78 55.672 2765.16 56.44C2765.48 57.208 2766.12 57.528 2767.02 57.528C2768.1 57.528 2769 56.888 2769.64 55.608C2770.28 54.328 2770.79 52.216 2771.18 49.272H2772.9C2772.26 53.496 2771.5 56.248 2770.47 57.592C2769.45 59 2767.91 59.64 2765.86 59.64C2763.82 59.64 2762.41 59.064 2761.58 57.784C2760.74 56.568 2760.49 54.648 2760.87 52.024L2761.32 48.44C2760.3 51.96 2758.82 54.712 2756.78 56.696C2754.73 58.68 2752.3 59.64 2749.61 59.64ZM2745.06 42.616C2744.55 47.352 2744.81 50.872 2745.77 53.304C2746.73 55.736 2748.39 56.952 2750.7 56.952C2753.32 56.952 2755.5 55.736 2757.29 53.176C2759.08 50.616 2760.23 47.16 2760.87 42.68C2760.87 42.552 2760.87 42.424 2760.87 42.296L2761 41.592L2761.06 41.016C2761.06 40.888 2761.13 40.824 2761.13 40.696C2761.45 36.728 2761.06 33.656 2759.98 31.544C2758.82 29.496 2757.03 28.408 2754.6 28.344C2752.04 28.344 2749.93 29.56 2748.26 32.12C2746.6 34.68 2745.51 38.136 2745.06 42.616ZM2815.49 59.64C2813.31 59.64 2811.71 59 2810.82 57.72C2809.86 56.44 2809.53 54.584 2809.86 52.024L2811.84 36.344C2812.1 34.04 2811.97 32.312 2811.46 31.16C2810.88 30.008 2809.92 29.368 2808.51 29.368C2806.72 29.368 2805.25 30.264 2804.1 32.056C2802.88 33.848 2801.98 36.536 2801.34 40.12L2798.91 59H2793.41L2796.35 36.344C2796.61 33.912 2796.54 32.184 2796.03 31.032C2795.52 29.944 2794.56 29.368 2793.15 29.368C2790.98 29.368 2789.31 30.52 2788.03 32.824C2786.75 35.128 2785.86 38.712 2785.28 43.448L2783.42 59H2777.98L2781.63 28.92H2776.13L2776.38 27C2779.46 27 2781.76 27 2783.23 26.872C2784.7 26.744 2785.6 26.616 2785.86 26.36L2786.5 27L2785.41 35.576C2786.24 32.504 2787.52 30.2 2789.18 28.664C2790.85 27.128 2792.9 26.36 2795.33 26.36C2797.25 26.36 2798.72 26.936 2799.87 28.024C2800.96 29.176 2801.6 30.712 2801.86 32.76C2802.75 30.648 2803.97 29.048 2805.44 27.96C2806.85 26.936 2808.58 26.36 2810.62 26.36C2813.18 26.36 2814.98 27.256 2816.13 28.92C2817.22 30.584 2817.6 33.08 2817.22 36.344L2815.23 52.984C2815.04 54.648 2815.1 55.8 2815.36 56.504C2815.62 57.208 2816.19 57.528 2817.09 57.528C2818.24 57.528 2819.14 56.888 2819.84 55.544C2820.54 54.2 2821.06 52.152 2821.44 49.336H2823.17C2822.53 53.432 2821.7 56.12 2820.54 57.528C2819.39 58.936 2817.66 59.64 2815.49 59.64ZM2838.38 59.64C2834.48 59.64 2831.47 58.168 2829.42 55.096C2827.37 52.024 2826.6 48.12 2827.12 43.256C2827.63 38.136 2829.29 34.04 2832.11 30.968C2834.86 27.896 2838.25 26.36 2842.28 26.36C2845.16 26.36 2847.47 27.128 2849.26 28.536C2850.99 30.008 2851.82 31.864 2851.76 34.168C2851.56 37.496 2849.84 40.12 2846.51 41.912C2843.18 43.704 2838.57 44.6 2832.68 44.6C2832.3 48.952 2832.68 52.152 2833.84 54.264C2834.99 56.44 2836.84 57.464 2839.47 57.464C2841.77 57.464 2843.56 56.888 2844.97 55.672C2846.38 54.52 2847.53 52.344 2848.56 49.272L2850.35 49.72C2849.39 53.304 2847.98 55.8 2846.06 57.336C2844.14 58.872 2841.58 59.64 2838.38 59.64ZM2841.84 28.28C2839.47 28.28 2837.48 29.624 2835.88 32.184C2834.28 34.744 2833.26 38.264 2832.81 42.68C2837.16 42.68 2840.49 41.912 2842.73 40.44C2844.97 39.032 2846.19 36.856 2846.38 33.976C2846.44 32.248 2846.06 30.84 2845.29 29.816C2844.46 28.792 2843.31 28.28 2841.84 28.28ZM2866.51 46.264C2865.61 51.128 2864.53 54.52 2863.25 56.568C2861.9 58.616 2859.98 59.64 2857.55 59.64C2855.69 59.64 2854.29 59.192 2853.39 58.232C2852.43 57.272 2852.05 55.992 2852.24 54.456C2852.3 53.432 2852.75 52.536 2853.52 51.832C2854.29 51.128 2855.18 50.744 2856.33 50.744C2857.49 50.744 2858.32 51.128 2858.96 51.832C2859.53 52.6 2859.73 53.496 2859.6 54.584C2859.47 55.352 2859.28 55.992 2858.96 56.504C2858.57 57.016 2858.13 57.4 2857.55 57.656C2859.09 57.656 2860.3 56.952 2861.26 55.544C2862.16 54.136 2862.99 51.768 2863.69 48.44C2864.14 46.2 2864.65 43.192 2865.29 39.416C2865.87 35.64 2866.38 32.12 2866.83 28.92H2861.84L2862.03 27H2883.02L2879.89 52.984C2879.69 54.648 2879.76 55.8 2880.01 56.504C2880.27 57.208 2880.85 57.528 2881.74 57.528C2882.89 57.528 2883.79 56.888 2884.49 55.544C2885.2 54.2 2885.71 52.152 2886.09 49.336H2887.82C2887.18 53.432 2886.35 56.12 2885.2 57.528C2884.05 58.936 2882.32 59.64 2880.14 59.64C2877.97 59.64 2876.37 59 2875.47 57.72C2874.51 56.44 2874.19 54.584 2874.51 52.024L2877.26 28.92H2869.26C2868.69 32.76 2868.17 36.088 2867.73 38.968C2867.28 41.912 2866.89 44.344 2866.51 46.264ZM2917.48 49.272C2917.1 52.472 2915.69 54.968 2913.26 56.824C2910.82 58.744 2907.88 59.64 2904.36 59.64C2900.65 59.64 2897.96 58.616 2896.3 56.504C2894.63 54.456 2894.12 51.32 2894.63 47.224L2896.87 28.92H2891.37L2891.62 27C2894.89 27 2897.38 27 2899.05 26.872C2900.71 26.744 2901.67 26.616 2901.93 26.36L2902.57 27L2900.9 40.696C2902.06 40.184 2903.21 39.736 2904.49 39.48C2905.77 39.224 2907.05 39.032 2908.33 39.032C2911.27 39.032 2913.64 39.992 2915.43 41.848C2917.16 43.768 2917.86 46.2 2917.48 49.272ZM2904.94 57.592C2906.73 57.592 2908.26 56.824 2909.54 55.288C2910.82 53.752 2911.59 51.768 2911.85 49.336C2912.1 46.712 2911.66 44.664 2910.63 43.256C2909.54 41.848 2907.94 41.144 2905.77 41.144C2904.87 41.144 2904.04 41.336 2903.14 41.592C2902.25 41.848 2901.48 42.232 2900.71 42.68L2900.14 47.352C2899.69 51.064 2899.82 53.752 2900.58 55.288C2901.35 56.824 2902.76 57.592 2904.94 57.592ZM2932.94 59.64C2929.04 59.64 2926.03 58.168 2923.98 55.096C2921.93 52.024 2921.17 48.12 2921.68 43.256C2922.19 38.136 2923.85 34.04 2926.67 30.968C2929.42 27.896 2932.81 26.36 2936.85 26.36C2939.73 26.36 2942.03 27.128 2943.82 28.536C2945.55 30.008 2946.38 31.864 2946.32 34.168C2946.13 37.496 2944.4 40.12 2941.07 41.912C2937.74 43.704 2933.13 44.6 2927.25 44.6C2926.86 48.952 2927.25 52.152 2928.4 54.264C2929.55 56.44 2931.41 57.464 2934.03 57.464C2936.33 57.464 2938.13 56.888 2939.53 55.672C2940.94 54.52 2942.09 52.344 2943.12 49.272L2944.91 49.72C2943.95 53.304 2942.54 55.8 2940.62 57.336C2938.7 58.872 2936.14 59.64 2932.94 59.64ZM2936.4 28.28C2934.03 28.28 2932.05 29.624 2930.45 32.184C2928.85 34.744 2927.82 38.264 2927.37 42.68C2931.73 42.68 2935.05 41.912 2937.29 40.44C2939.53 39.032 2940.75 36.856 2940.94 33.976C2941.01 32.248 2940.62 30.84 2939.85 29.816C2939.02 28.792 2937.87 28.28 2936.4 28.28Z" fill="white"/>
</svg>
