<svg width="536" height="200" viewBox="0 0 536 200" fill="none" xmlns="http://www.w3.org/2000/svg">
<path d="M468.655 84.2498C478.596 86.9134 488.483 89.7759 498.485 92.2124C526.502 98.989 539.263 124.418 535.185 151.453C532.754 167.454 525.442 181.111 512.58 191.394C503.441 198.687 492.96 200.993 481.505 199.323C454.147 195.311 426.752 191.441 399.436 187.044C394.912 186.319 390.931 182.543 386.364 181.41C300.319 159.999 214.046 139.439 128.221 117.203C94.6302 108.507 61.8878 96.4156 28.9283 85.3619C10.7709 79.2789 2.44442 65.0233 1.06843 46.7548C-0.335414 28.0222 6.59575 13.2886 24.1873 4.66866C33.8529 -0.0474858 44.205 -0.622273 54.3306 1.23851C109.7 11.4781 165.169 21.3484 220.282 32.889C285.48 46.5535 350.337 61.8314 415.373 76.2137C418.017 76.8002 421.089 75.2185 424.004 74.9038C426.549 74.6114 429.267 74.1221 431.64 74.697C443.991 77.7935 456.259 81.2025 468.586 84.5054C468.609 84.4202 468.624 84.3634 468.647 84.2782L468.655 84.2498ZM69.4199 82.8476C72.6213 84.1924 74.2965 85.098 76.0706 85.6342C101.8 93.5635 127.277 102.551 153.364 109.146C233.601 129.397 314.067 148.796 394.473 168.301C397.13 168.952 400.915 168.232 403.16 166.672C415.423 158.055 428.588 156.072 442.867 159.929C453.262 162.714 463.625 165.734 474.127 168.122C485.914 170.824 496.735 164.865 499.873 154.29C502.686 144.815 501.183 135.767 495.721 127.637C487.628 115.575 474.007 115.06 465.462 126.5C461.667 131.572 458.691 137.228 455.248 142.576C449.03 152.265 440.181 152.116 435.5 141.638C429.8 128.939 423.461 116.129 420.641 102.679C418.681 93.295 413.78 92.0428 406.838 90.4567C360.299 79.7523 313.913 68.4798 267.28 58.2374C211.794 46.0486 156.143 34.6987 100.545 23.1501C91.6036 21.3021 82.4467 20.3705 71.476 18.7095C90.8107 41.303 93.2252 62.2851 69.4199 82.8476ZM47.2482 21.9896C29.9667 18.5462 17.821 26.951 17.0319 43.7566C16.6121 52.594 20.4028 60.033 26.4776 66.1052C36.7333 76.3419 53.4913 75.718 64.0847 65.0403C73.1248 55.9555 72.5624 43.1715 61.8583 32.4493C57.6849 28.2564 52.1404 25.4313 47.2482 21.9896Z" fill="#FF00E6"/>
</svg>
