<svg width="1410" height="484" viewBox="0 0 1410 484" fill="none" xmlns="http://www.w3.org/2000/svg">
<path d="M40.5505 81.1006L5.43312 20.2755L75.6679 20.2755L40.5505 81.1006Z" fill="#1500FF"/>
<path d="M206.551 81.1006L171.433 20.2755L241.668 20.2755L206.551 81.1006Z" fill="#1500FF"/>
<path d="M40.5505 81.1006L5.43312 20.2755L75.6679 20.2755L40.5505 81.1006Z" fill="#1500FF"/>
<path d="M206.551 81.1006L171.433 20.2755L241.668 20.2755L206.551 81.1006Z" fill="#1500FF"/>
<path d="M372.551 81.1006L337.433 20.2755L407.668 20.2755L372.551 81.1006Z" fill="#1500FF"/>
<path d="M538.551 81.1006L503.433 20.2755L573.668 20.2755L538.551 81.1006Z" fill="#1500FF"/>
<path d="M372.551 81.1006L337.433 20.2755L407.668 20.2755L372.551 81.1006Z" fill="#1500FF"/>
<path d="M538.551 81.1006L503.433 20.2755L573.668 20.2755L538.551 81.1006Z" fill="#1500FF"/>
<path d="M704.551 81.1006L669.433 20.2755L739.668 20.2755L704.551 81.1006Z" fill="#1500FF"/>
<path d="M870.551 81.1006L835.433 20.2755L905.668 20.2755L870.551 81.1006Z" fill="#1500FF"/>
<path d="M704.551 81.1006L669.433 20.2755L739.668 20.2755L704.551 81.1006Z" fill="#1500FF"/>
<path d="M870.551 81.1006L835.433 20.2755L905.668 20.2755L870.551 81.1006Z" fill="#1500FF"/>
<path d="M1036.55 81.1006L1001.43 20.2755L1071.67 20.2755L1036.55 81.1006Z" fill="#1500FF"/>
<path d="M1202.55 81.1006L1167.43 20.2755L1237.67 20.2755L1202.55 81.1006Z" fill="#1500FF"/>
<path d="M1036.55 81.1006L1001.43 20.2755L1071.67 20.2755L1036.55 81.1006Z" fill="#1500FF"/>
<path d="M1202.55 81.1006L1167.43 20.2755L1237.67 20.2755L1202.55 81.1006Z" fill="#1500FF"/>
<path d="M1368.55 81.1006L1333.43 20.2755L1403.67 20.2755L1368.55 81.1006Z" fill="#1500FF"/>
<path d="M1287.55 120.001L1322.67 180.826L1252.43 180.826L1287.55 120.001Z" fill="#1500FF"/>
<path d="M1121.55 120.001L1156.67 180.826L1086.43 180.826L1121.55 120.001Z" fill="#1500FF"/>
<path d="M1287.55 120.001L1322.67 180.826L1252.43 180.826L1287.55 120.001Z" fill="#1500FF"/>
<path d="M1121.55 120.001L1156.67 180.826L1086.43 180.826L1121.55 120.001Z" fill="#1500FF"/>
<path d="M955.549 120.001L990.666 180.826L920.432 180.826L955.549 120.001Z" fill="#1500FF"/>
<path d="M789.549 120.001L824.666 180.826L754.432 180.826L789.549 120.001Z" fill="#1500FF"/>
<path d="M955.549 120.001L990.666 180.826L920.432 180.826L955.549 120.001Z" fill="#1500FF"/>
<path d="M789.549 120.001L824.666 180.826L754.432 180.826L789.549 120.001Z" fill="#1500FF"/>
<path d="M623.549 120.001L658.666 180.826L588.432 180.826L623.549 120.001Z" fill="#1500FF"/>
<path d="M457.549 120.001L492.666 180.826L422.432 180.826L457.549 120.001Z" fill="#1500FF"/>
<path d="M623.549 120.001L658.666 180.826L588.432 180.826L623.549 120.001Z" fill="#1500FF"/>
<path d="M457.549 120.001L492.666 180.826L422.432 180.826L457.549 120.001Z" fill="#1500FF"/>
<path d="M291.55 120.001L326.667 180.826L256.433 180.826L291.55 120.001Z" fill="#1500FF"/>
<path d="M125.55 120.001L160.667 180.826L90.4327 180.826L125.55 120.001Z" fill="#1500FF"/>
<path d="M291.55 120.001L326.667 180.826L256.433 180.826L291.55 120.001Z" fill="#1500FF"/>
<path d="M125.55 120.001L160.667 180.826L90.4327 180.826L125.55 120.001Z" fill="#1500FF"/>
<path d="M40.5505 282.101L5.43312 221.275L75.6679 221.275L40.5505 282.101Z" fill="#1500FF"/>
<path d="M206.551 282.101L171.433 221.275L241.668 221.275L206.551 282.101Z" fill="#1500FF"/>
<path d="M40.5505 282.101L5.43312 221.275L75.6679 221.275L40.5505 282.101Z" fill="#1500FF"/>
<path d="M206.551 282.101L171.433 221.275L241.668 221.275L206.551 282.101Z" fill="#1500FF"/>
<path d="M372.551 282.101L337.433 221.275L407.668 221.275L372.551 282.101Z" fill="#1500FF"/>
<path d="M538.551 282.101L503.433 221.275L573.668 221.275L538.551 282.101Z" fill="#1500FF"/>
<path d="M372.551 282.101L337.433 221.275L407.668 221.275L372.551 282.101Z" fill="#1500FF"/>
<path d="M538.551 282.101L503.433 221.275L573.668 221.275L538.551 282.101Z" fill="#1500FF"/>
<path d="M704.551 282.101L669.433 221.275L739.668 221.275L704.551 282.101Z" fill="#1500FF"/>
<path d="M870.551 282.101L835.433 221.275L905.668 221.275L870.551 282.101Z" fill="#1500FF"/>
<path d="M704.551 282.101L669.433 221.275L739.668 221.275L704.551 282.101Z" fill="#1500FF"/>
<path d="M870.551 282.101L835.433 221.275L905.668 221.275L870.551 282.101Z" fill="#1500FF"/>
<path d="M1036.55 282.101L1001.43 221.275L1071.67 221.275L1036.55 282.101Z" fill="#1500FF"/>
<path d="M1202.55 282.101L1167.43 221.275L1237.67 221.275L1202.55 282.101Z" fill="#1500FF"/>
<path d="M1036.55 282.101L1001.43 221.275L1071.67 221.275L1036.55 282.101Z" fill="#1500FF"/>
<path d="M1202.55 282.101L1167.43 221.275L1237.67 221.275L1202.55 282.101Z" fill="#1500FF"/>
<path d="M1368.55 282.101L1333.43 221.275L1403.67 221.275L1368.55 282.101Z" fill="#1500FF"/>
<path d="M1287.55 321.001L1322.67 381.826L1252.43 381.826L1287.55 321.001Z" fill="#1500FF"/>
<path d="M1121.55 321.001L1156.67 381.826L1086.43 381.826L1121.55 321.001Z" fill="#1500FF"/>
<path d="M1287.55 321.001L1322.67 381.826L1252.43 381.826L1287.55 321.001Z" fill="#1500FF"/>
<path d="M1121.55 321.001L1156.67 381.826L1086.43 381.826L1121.55 321.001Z" fill="#1500FF"/>
<path d="M955.549 321.001L990.666 381.826L920.432 381.826L955.549 321.001Z" fill="#1500FF"/>
<path d="M789.549 321.001L824.666 381.826L754.432 381.826L789.549 321.001Z" fill="#1500FF"/>
<path d="M955.549 321.001L990.666 381.826L920.432 381.826L955.549 321.001Z" fill="#1500FF"/>
<path d="M789.549 321.001L824.666 381.826L754.432 381.826L789.549 321.001Z" fill="#1500FF"/>
<path d="M623.549 321.001L658.666 381.826L588.432 381.826L623.549 321.001Z" fill="#1500FF"/>
<path d="M457.549 321.001L492.666 381.826L422.432 381.826L457.549 321.001Z" fill="#1500FF"/>
<path d="M623.549 321.001L658.666 381.826L588.432 381.826L623.549 321.001Z" fill="#1500FF"/>
<path d="M457.549 321.001L492.666 381.826L422.432 381.826L457.549 321.001Z" fill="#1500FF"/>
<path d="M291.55 321.001L326.667 381.826L256.433 381.826L291.55 321.001Z" fill="#1500FF"/>
<path d="M125.55 321.001L160.667 381.826L90.4327 381.826L125.55 321.001Z" fill="#1500FF"/>
<path d="M291.55 321.001L326.667 381.826L256.433 381.826L291.55 321.001Z" fill="#1500FF"/>
<path d="M125.55 321.001L160.667 381.826L90.4327 381.826L125.55 321.001Z" fill="#1500FF"/>
<path d="M40.5505 483.101L5.43312 422.275L75.6679 422.275L40.5505 483.101Z" fill="#1500FF"/>
<path d="M206.551 483.101L171.433 422.275L241.668 422.275L206.551 483.101Z" fill="#1500FF"/>
<path d="M40.5505 483.101L5.43312 422.275L75.6679 422.275L40.5505 483.101Z" fill="#1500FF"/>
<path d="M206.551 483.101L171.433 422.275L241.668 422.275L206.551 483.101Z" fill="#1500FF"/>
<path d="M372.551 483.101L337.433 422.275L407.668 422.275L372.551 483.101Z" fill="#1500FF"/>
<path d="M538.551 483.101L503.433 422.275L573.668 422.275L538.551 483.101Z" fill="#1500FF"/>
<path d="M372.551 483.101L337.433 422.275L407.668 422.275L372.551 483.101Z" fill="#1500FF"/>
<path d="M538.551 483.101L503.433 422.275L573.668 422.275L538.551 483.101Z" fill="#1500FF"/>
<path d="M704.551 483.101L669.433 422.275L739.668 422.275L704.551 483.101Z" fill="#1500FF"/>
<path d="M870.551 483.101L835.433 422.275L905.668 422.275L870.551 483.101Z" fill="#1500FF"/>
<path d="M704.551 483.101L669.433 422.275L739.668 422.275L704.551 483.101Z" fill="#1500FF"/>
<path d="M870.551 483.101L835.433 422.275L905.668 422.275L870.551 483.101Z" fill="#1500FF"/>
<path d="M1036.55 483.101L1001.43 422.275L1071.67 422.275L1036.55 483.101Z" fill="#1500FF"/>
<path d="M1202.55 483.101L1167.43 422.275L1237.67 422.275L1202.55 483.101Z" fill="#1500FF"/>
<path d="M1036.55 483.101L1001.43 422.275L1071.67 422.275L1036.55 483.101Z" fill="#1500FF"/>
<path d="M1202.55 483.101L1167.43 422.275L1237.67 422.275L1202.55 483.101Z" fill="#1500FF"/>
<path d="M1368.55 483.101L1333.43 422.275L1403.67 422.275L1368.55 483.101Z" fill="#1500FF"/>
</svg>
