<svg width="4571" height="553" viewBox="0 0 4571 553" fill="none" xmlns="http://www.w3.org/2000/svg">
<ellipse cx="450.608" cy="139.647" rx="99.9128" ry="99.7532" fill="#00FF0A"/>
<ellipse cx="14.9869" cy="14.963" rx="14.9869" ry="14.963" transform="matrix(-0.999998 0.00205486 -0.00206146 -0.999998 492.649 125.697)" fill="#191919"/>
<ellipse cx="14.9869" cy="14.963" rx="14.9869" ry="14.963" transform="matrix(-0.999998 0.00205486 -0.00206146 -0.999998 441.463 125.509)" fill="#191919"/>
<ellipse cx="14.9869" cy="14.963" rx="14.9869" ry="14.963" transform="matrix(-0.999998 0.00205486 -0.00206146 -0.999998 441.693 179.564)" fill="#191919"/>
<ellipse cx="14.9869" cy="14.963" rx="14.9869" ry="14.963" transform="matrix(-0.999998 0.00205486 -0.00206146 -0.999998 492.649 179.564)" fill="#191919"/>
<path d="M426.645 105.747L426.645 167.542" stroke="white" stroke-width="11" stroke-linecap="round"/>
<path d="M477.6 105.747L477.6 167.542" stroke="white" stroke-width="11" stroke-linecap="round"/>
<ellipse cx="450.607" cy="409.979" rx="99.7532" ry="99.9128" transform="rotate(90 450.607 409.979)" fill="#1500FF"/>
<ellipse cx="14.963" cy="14.9869" rx="14.963" ry="14.9869" transform="matrix(-0.00206139 -0.999998 0.999998 -0.00205484 464.58 451.952)" fill="#191919"/>
<ellipse cx="14.963" cy="14.9869" rx="14.963" ry="14.9869" transform="matrix(-0.00206139 -0.999998 0.999998 -0.00205484 464.768 400.849)" fill="#191919"/>
<ellipse cx="14.963" cy="14.9869" rx="14.963" ry="14.9869" transform="matrix(-0.00206139 -0.999998 0.999998 -0.00205483 410.625 401.078)" fill="#191919"/>
<ellipse cx="14.963" cy="14.9869" rx="14.963" ry="14.9869" transform="matrix(-0.00206139 -0.999998 0.999998 -0.00205484 410.626 451.952)" fill="#191919"/>
<path d="M484.562 386.054L422.667 386.054" stroke="white" stroke-width="11" stroke-linecap="round"/>
<path d="M484.562 436.928L422.667 436.928" stroke="white" stroke-width="11" stroke-linecap="round"/>
<ellipse cx="139.878" cy="409.979" rx="99.7532" ry="99.9128" transform="rotate(90 139.878 409.979)" fill="white"/>
<ellipse cx="14.963" cy="14.9869" rx="14.963" ry="14.9869" transform="matrix(-0.00206139 -0.999998 0.999998 -0.00205484 153.851 451.952)" fill="#191919"/>
<ellipse cx="14.963" cy="14.9869" rx="14.963" ry="14.9869" transform="matrix(-0.00206139 -0.999998 0.999998 -0.00205483 154.039 400.849)" fill="#191919"/>
<ellipse cx="14.963" cy="14.9869" rx="14.963" ry="14.9869" transform="matrix(-0.00206139 -0.999998 0.999998 -0.00205484 99.8984 401.078)" fill="#191919"/>
<ellipse cx="14.963" cy="14.9869" rx="14.963" ry="14.9869" transform="matrix(-0.00206139 -0.999998 0.999998 -0.00205484 99.8984 451.952)" fill="#191919"/>
<path d="M163.26 429.972L116.899 389.03" stroke="#FF00E6" stroke-width="11" stroke-linecap="round"/>
<path d="M163.663 389.03L119.897 432.726" stroke="#FF00E6" stroke-width="11" stroke-linecap="round"/>
<ellipse cx="761.335" cy="139.647" rx="99.9128" ry="99.7532" fill="#FF00E6"/>
<ellipse cx="14.9869" cy="14.963" rx="14.9869" ry="14.963" transform="matrix(-0.999998 0.00205486 -0.00206146 -0.999998 803.376 125.697)" fill="#191919"/>
<ellipse cx="14.9869" cy="14.963" rx="14.9869" ry="14.963" transform="matrix(-0.999998 0.00205486 -0.00206146 -0.999998 752.191 125.509)" fill="#191919"/>
<ellipse cx="14.9869" cy="14.963" rx="14.9869" ry="14.963" transform="matrix(-0.999998 0.00205486 -0.00206146 -0.999998 752.421 179.564)" fill="#191919"/>
<ellipse cx="14.9869" cy="14.963" rx="14.9869" ry="14.963" transform="matrix(-0.999998 0.00205486 -0.00206146 -0.999998 803.376 179.564)" fill="#191919"/>
<path d="M737.373 105.747L737.373 167.542" stroke="white" stroke-width="11" stroke-linecap="round"/>
<path d="M788.328 105.747L788.328 167.542" stroke="white" stroke-width="11" stroke-linecap="round"/>
<ellipse cx="99.873" cy="99.7931" rx="99.873" ry="99.7931" transform="matrix(0.866371 0.499401 -0.500599 0.865679 1035.1 273.317)" fill="#00FF0A"/>
<ellipse cx="14.9809" cy="14.969" rx="14.9809" ry="14.969" transform="matrix(-0.867399 -0.49762 0.498814 -0.866706 1115.06 418.488)" fill="#191919"/>
<ellipse cx="14.9809" cy="14.969" rx="14.9809" ry="14.969" transform="matrix(-0.867399 -0.49762 0.498814 -0.866706 1070.83 392.773)" fill="#191919"/>
<ellipse cx="14.9809" cy="14.969" rx="14.9809" ry="14.969" transform="matrix(-0.867399 -0.49762 0.498814 -0.866706 1043.96 439.7)" fill="#191919"/>
<ellipse cx="14.9809" cy="14.969" rx="14.9809" ry="14.969" transform="matrix(-0.867399 -0.49762 0.498814 -0.866706 1088.09 465.138)" fill="#191919"/>
<path d="M1067.89 368.259L1036.94 421.777" stroke="white" stroke-width="11" stroke-linecap="round"/>
<path d="M1112.02 393.696L1081.07 447.214" stroke="white" stroke-width="11" stroke-linecap="round"/>
<ellipse cx="1072.06" cy="139.849" rx="99.9128" ry="99.7532" fill="white"/>
<ellipse cx="14.9869" cy="14.963" rx="14.9869" ry="14.963" transform="matrix(-0.999998 0.00205486 -0.00206146 -0.999998 1114.11 125.899)" fill="#191919"/>
<ellipse cx="14.9869" cy="14.963" rx="14.9869" ry="14.963" transform="matrix(-0.999998 0.00205486 -0.00206146 -0.999998 1062.92 125.711)" fill="#191919"/>
<ellipse cx="14.9869" cy="14.963" rx="14.9869" ry="14.963" transform="matrix(-0.999998 0.00205486 -0.00206146 -0.999998 1063.15 179.766)" fill="#191919"/>
<ellipse cx="14.9869" cy="14.963" rx="14.9869" ry="14.963" transform="matrix(-0.999998 0.00205486 -0.00206146 -0.999998 1114.11 179.766)" fill="#191919"/>
<path d="M1090.83 111.934L1053.08 160.905" stroke="#1500FF" stroke-width="11" stroke-linecap="round"/>
<path d="M1051.08 113.929L1092.97 159.426" stroke="#1500FF" stroke-width="11" stroke-linecap="round"/>
<ellipse cx="99.8439" cy="99.8222" rx="99.8439" ry="99.8222" transform="matrix(0.707518 -0.706695 0.707253 0.706961 1241.44 409.571)" fill="#FF00E6"/>
<ellipse cx="14.977" cy="14.9737" rx="14.977" ry="14.9737" transform="matrix(-0.706061 0.708148 -0.708708 -0.705505 1402.53 370.023)" fill="#191919"/>
<ellipse cx="14.977" cy="14.9737" rx="14.977" ry="14.9737" transform="matrix(-0.706061 0.708148 -0.708708 -0.705505 1366.21 406.038)" fill="#191919"/>
<ellipse cx="14.977" cy="14.9737" rx="14.977" ry="14.9737" transform="matrix(-0.706061 0.708148 -0.708708 -0.705505 1404.63 444.117)" fill="#191919"/>
<ellipse cx="14.977" cy="14.9737" rx="14.977" ry="14.9737" transform="matrix(-0.706061 0.708148 -0.708708 -0.705505 1440.65 408.131)" fill="#191919"/>
<path d="M1341.74 402.521L1385.48 446.239" stroke="white" stroke-width="11" stroke-linecap="round"/>
<path d="M1377.77 366.537L1421.51 410.254" stroke="white" stroke-width="11" stroke-linecap="round"/>
<ellipse cx="1383.09" cy="139.849" rx="99.9128" ry="99.7532" fill="#1500FF"/>
<ellipse cx="14.9869" cy="14.963" rx="14.9869" ry="14.963" transform="matrix(-0.999998 0.00205486 -0.00206146 -0.999998 1425.13 125.899)" fill="#191919"/>
<ellipse cx="14.9869" cy="14.963" rx="14.9869" ry="14.963" transform="matrix(-0.999998 0.00205486 -0.00206146 -0.999998 1373.94 125.711)" fill="#191919"/>
<ellipse cx="14.9869" cy="14.963" rx="14.9869" ry="14.963" transform="matrix(-0.999998 0.00205486 -0.00206146 -0.999998 1374.17 179.766)" fill="#191919"/>
<ellipse cx="14.9869" cy="14.963" rx="14.9869" ry="14.963" transform="matrix(-0.999998 0.00205486 -0.00206146 -0.999998 1425.13 179.766)" fill="#191919"/>
<path d="M1401.85 111.934L1364.1 160.905" stroke="#00FF0A" stroke-width="11" stroke-linecap="round"/>
<path d="M1362.1 113.929L1403.99 159.426" stroke="#00FF0A" stroke-width="11" stroke-linecap="round"/>
<ellipse cx="761.336" cy="409.979" rx="99.7532" ry="99.9128" transform="rotate(90 761.336 409.979)" fill="white"/>
<ellipse cx="14.963" cy="14.9869" rx="14.963" ry="14.9869" transform="matrix(-0.00206139 -0.999998 0.999998 -0.00205484 775.308 451.952)" fill="#191919"/>
<ellipse cx="14.963" cy="14.9869" rx="14.963" ry="14.9869" transform="matrix(-0.00206139 -0.999998 0.999998 -0.00205484 775.497 400.849)" fill="#191919"/>
<ellipse cx="14.963" cy="14.9869" rx="14.963" ry="14.9869" transform="matrix(-0.00206139 -0.999998 0.999998 -0.00205483 721.355 401.078)" fill="#191919"/>
<ellipse cx="14.963" cy="14.9869" rx="14.963" ry="14.9869" transform="matrix(-0.00206139 -0.999998 0.999998 -0.00205484 721.355 451.952)" fill="#191919"/>
<path d="M789.296 428.716L740.247 391.026" stroke="#FF00E6" stroke-width="11" stroke-linecap="round"/>
<path d="M787.297 389.03L741.727 430.848" stroke="#FF00E6" stroke-width="11" stroke-linecap="round"/>
<ellipse cx="99.8609" cy="99.8054" rx="99.8609" ry="99.8054" transform="matrix(0.821264 -0.570548 0.571954 0.820285 1 113.96)" fill="#FF00E6"/>
<ellipse cx="14.9792" cy="14.9708" rx="14.9792" ry="14.9708" transform="matrix(-0.820023 0.572321 -0.573557 -0.81917 166.606 103.424)" fill="#191919"/>
<ellipse cx="14.9792" cy="14.9708" rx="14.9792" ry="14.9708" transform="matrix(-0.820022 0.572321 -0.573557 -0.819171 124.486 132.463)" fill="#191919"/>
<ellipse cx="14.9792" cy="14.9708" rx="14.9792" ry="14.9708" transform="matrix(-0.820023 0.572321 -0.573557 -0.81917 155.604 176.698)" fill="#191919"/>
<ellipse cx="14.9792" cy="14.9708" rx="14.9792" ry="14.9708" transform="matrix(-0.820023 0.572321 -0.573557 -0.81917 197.427 147.637)" fill="#191919"/>
<path d="M101.017 124.694L136.374 175.414" stroke="white" stroke-width="11" stroke-linecap="round"/>
<path d="M142.84 95.6314L178.197 146.352" stroke="white" stroke-width="11" stroke-linecap="round"/>
<ellipse cx="99.9129" cy="99.7532" rx="99.9129" ry="99.7532" transform="matrix(1 0 -8.46932e-08 -1 3397.78 512.817)" fill="#00FF0A"/>
<ellipse cx="14.9869" cy="14.963" rx="14.9869" ry="14.963" transform="matrix(-0.999998 -0.00205486 -0.00206146 0.999998 3539.73 427.014)" fill="#191919"/>
<ellipse cx="14.9869" cy="14.963" rx="14.9869" ry="14.963" transform="matrix(-0.999998 -0.00205486 -0.00206146 0.999998 3488.55 427.202)" fill="#191919"/>
<ellipse cx="14.9869" cy="14.963" rx="14.9869" ry="14.963" transform="matrix(-0.999998 -0.00205486 -0.00206146 0.999998 3488.78 373.147)" fill="#191919"/>
<ellipse cx="14.9869" cy="14.963" rx="14.9869" ry="14.963" transform="matrix(-0.999998 -0.00205486 -0.00206146 0.999998 3539.73 373.147)" fill="#191919"/>
<path d="M3473.73 446.964L3473.73 385.169" stroke="white" stroke-width="11" stroke-linecap="round"/>
<path d="M3524.68 446.964L3524.68 385.169" stroke="white" stroke-width="11" stroke-linecap="round"/>
<ellipse cx="99.7532" cy="99.9128" rx="99.7532" ry="99.9128" transform="matrix(-4.37813e-08 -1 -1 1.28335e-07 3597.6 242.486)" fill="#1500FF"/>
<ellipse cx="14.963" cy="14.9869" rx="14.963" ry="14.9869" transform="matrix(-0.00206139 0.999998 0.999998 0.00205484 3511.66 100.76)" fill="#191919"/>
<ellipse cx="14.963" cy="14.9869" rx="14.963" ry="14.9869" transform="matrix(-0.00206139 0.999998 0.999998 0.00205484 3511.85 151.863)" fill="#191919"/>
<ellipse cx="14.963" cy="14.9869" rx="14.963" ry="14.9869" transform="matrix(-0.00206139 0.999998 0.999998 0.00205483 3457.71 151.634)" fill="#191919"/>
<ellipse cx="14.963" cy="14.9869" rx="14.963" ry="14.9869" transform="matrix(-0.00206139 0.999998 0.999998 0.00205484 3457.71 100.76)" fill="#191919"/>
<path d="M3531.65 166.658L3469.75 166.658" stroke="white" stroke-width="11" stroke-linecap="round"/>
<path d="M3531.65 115.784L3469.75 115.784" stroke="white" stroke-width="11" stroke-linecap="round"/>
<ellipse cx="99.7532" cy="99.9128" rx="99.7532" ry="99.9128" transform="matrix(-4.37813e-08 -1 -1 1.28335e-07 3286.88 242.486)" fill="white"/>
<ellipse cx="14.963" cy="14.9869" rx="14.963" ry="14.9869" transform="matrix(-0.00206139 0.999998 0.999998 0.00205484 3200.94 100.76)" fill="#191919"/>
<ellipse cx="14.963" cy="14.9869" rx="14.963" ry="14.9869" transform="matrix(-0.00206139 0.999998 0.999998 0.00205483 3201.12 151.863)" fill="#191919"/>
<ellipse cx="14.963" cy="14.9869" rx="14.963" ry="14.9869" transform="matrix(-0.00206139 0.999998 0.999998 0.00205484 3146.98 151.634)" fill="#191919"/>
<ellipse cx="14.963" cy="14.9869" rx="14.963" ry="14.9869" transform="matrix(-0.00206139 0.999998 0.999998 0.00205484 3146.98 100.76)" fill="#191919"/>
<path d="M3210.34 122.74L3163.98 163.682" stroke="#FF00E6" stroke-width="11" stroke-linecap="round"/>
<path d="M3210.75 163.682L3166.98 119.986" stroke="#FF00E6" stroke-width="11" stroke-linecap="round"/>
<ellipse cx="99.9129" cy="99.7532" rx="99.9129" ry="99.7532" transform="matrix(1 0 -8.46932e-08 -1 3708.51 512.817)" fill="#FF00E6"/>
<ellipse cx="14.9869" cy="14.963" rx="14.9869" ry="14.963" transform="matrix(-0.999998 -0.00205486 -0.00206146 0.999998 3850.46 427.014)" fill="#191919"/>
<ellipse cx="14.9869" cy="14.963" rx="14.9869" ry="14.963" transform="matrix(-0.999998 -0.00205486 -0.00206146 0.999998 3799.28 427.202)" fill="#191919"/>
<ellipse cx="14.9869" cy="14.963" rx="14.9869" ry="14.963" transform="matrix(-0.999998 -0.00205486 -0.00206146 0.999998 3799.51 373.147)" fill="#191919"/>
<ellipse cx="14.9869" cy="14.963" rx="14.9869" ry="14.963" transform="matrix(-0.999998 -0.00205486 -0.00206146 0.999998 3850.46 373.147)" fill="#191919"/>
<path d="M3784.46 446.964L3784.46 385.169" stroke="white" stroke-width="11" stroke-linecap="round"/>
<path d="M3835.41 446.964L3835.41 385.169" stroke="white" stroke-width="11" stroke-linecap="round"/>
<ellipse cx="99.873" cy="99.7931" rx="99.873" ry="99.7931" transform="matrix(0.866371 -0.499401 -0.500599 -0.865679 4082.18 279.395)" fill="#00FF0A"/>
<ellipse cx="14.9809" cy="14.969" rx="14.9809" ry="14.969" transform="matrix(-0.867399 0.49762 0.498814 0.866706 4162.15 134.224)" fill="#191919"/>
<ellipse cx="14.9809" cy="14.969" rx="14.9809" ry="14.969" transform="matrix(-0.867399 0.49762 0.498814 0.866706 4117.91 159.938)" fill="#191919"/>
<ellipse cx="14.9809" cy="14.969" rx="14.9809" ry="14.969" transform="matrix(-0.867399 0.49762 0.498814 0.866706 4091.04 113.012)" fill="#191919"/>
<ellipse cx="14.9809" cy="14.969" rx="14.9809" ry="14.969" transform="matrix(-0.867399 0.49762 0.498814 0.866706 4135.17 87.5737)" fill="#191919"/>
<path d="M4114.98 184.452L4084.03 130.935" stroke="white" stroke-width="11" stroke-linecap="round"/>
<path d="M4159.11 159.015L4128.16 105.498" stroke="white" stroke-width="11" stroke-linecap="round"/>
<ellipse cx="99.9129" cy="99.7532" rx="99.9129" ry="99.7532" transform="matrix(1 0 -8.46932e-08 -1 4019.24 512.616)" fill="white"/>
<ellipse cx="14.9869" cy="14.963" rx="14.9869" ry="14.963" transform="matrix(-0.999998 -0.00205486 -0.00206146 0.999998 4161.19 426.812)" fill="#191919"/>
<ellipse cx="14.9869" cy="14.963" rx="14.9869" ry="14.963" transform="matrix(-0.999998 -0.00205486 -0.00206146 0.999998 4110 427.001)" fill="#191919"/>
<ellipse cx="14.9869" cy="14.963" rx="14.9869" ry="14.963" transform="matrix(-0.999998 -0.00205486 -0.00206146 0.999998 4110.23 372.946)" fill="#191919"/>
<ellipse cx="14.9869" cy="14.963" rx="14.9869" ry="14.963" transform="matrix(-0.999998 -0.00205486 -0.00206146 0.999998 4161.19 372.946)" fill="#191919"/>
<path d="M4137.92 440.778L4100.16 391.807" stroke="#1500FF" stroke-width="11" stroke-linecap="round"/>
<path d="M4098.17 438.783L4140.05 393.286" stroke="#1500FF" stroke-width="11" stroke-linecap="round"/>
<ellipse cx="99.8439" cy="99.8222" rx="99.8439" ry="99.8222" transform="matrix(0.707518 0.706695 0.707253 -0.706961 4288.52 143.141)" fill="#FF00E6"/>
<ellipse cx="14.977" cy="14.9737" rx="14.977" ry="14.9737" transform="matrix(-0.706061 -0.708148 -0.708708 0.705505 4449.61 182.688)" fill="#191919"/>
<ellipse cx="14.977" cy="14.9737" rx="14.977" ry="14.9737" transform="matrix(-0.706061 -0.708148 -0.708708 0.705505 4413.29 146.674)" fill="#191919"/>
<ellipse cx="14.977" cy="14.9737" rx="14.977" ry="14.9737" transform="matrix(-0.706061 -0.708148 -0.708708 0.705505 4451.71 108.595)" fill="#191919"/>
<ellipse cx="14.977" cy="14.9737" rx="14.977" ry="14.9737" transform="matrix(-0.706061 -0.708148 -0.708708 0.705505 4487.74 144.581)" fill="#191919"/>
<path d="M4388.83 150.19L4432.56 106.473" stroke="white" stroke-width="11" stroke-linecap="round"/>
<path d="M4424.85 186.175L4468.59 142.458" stroke="white" stroke-width="11" stroke-linecap="round"/>
<ellipse cx="99.9129" cy="99.7532" rx="99.9129" ry="99.7532" transform="matrix(1 0 -8.46932e-08 -1 4330.26 512.616)" fill="#1500FF"/>
<ellipse cx="14.9869" cy="14.963" rx="14.9869" ry="14.963" transform="matrix(-0.999998 -0.00205486 -0.00206146 0.999998 4472.21 426.812)" fill="#191919"/>
<ellipse cx="14.9869" cy="14.963" rx="14.9869" ry="14.963" transform="matrix(-0.999998 -0.00205486 -0.00206146 0.999998 4421.03 427.001)" fill="#191919"/>
<ellipse cx="14.9869" cy="14.963" rx="14.9869" ry="14.963" transform="matrix(-0.999998 -0.00205486 -0.00206146 0.999998 4421.26 372.946)" fill="#191919"/>
<ellipse cx="14.9869" cy="14.963" rx="14.9869" ry="14.963" transform="matrix(-0.999998 -0.00205486 -0.00206146 0.999998 4472.21 372.946)" fill="#191919"/>
<path d="M4448.94 440.778L4411.19 391.807" stroke="#00FF0A" stroke-width="11" stroke-linecap="round"/>
<path d="M4409.19 438.783L4451.07 393.286" stroke="#00FF0A" stroke-width="11" stroke-linecap="round"/>
<ellipse cx="99.7532" cy="99.9128" rx="99.7532" ry="99.9128" transform="matrix(-4.37813e-08 -1 -1 1.28335e-07 3908.33 242.486)" fill="white"/>
<ellipse cx="14.963" cy="14.9869" rx="14.963" ry="14.9869" transform="matrix(-0.00206139 0.999998 0.999998 0.00205484 3822.39 100.76)" fill="#191919"/>
<ellipse cx="14.963" cy="14.9869" rx="14.963" ry="14.9869" transform="matrix(-0.00206139 0.999998 0.999998 0.00205484 3822.58 151.863)" fill="#191919"/>
<ellipse cx="14.963" cy="14.9869" rx="14.963" ry="14.9869" transform="matrix(-0.00206139 0.999998 0.999998 0.00205483 3768.44 151.634)" fill="#191919"/>
<ellipse cx="14.963" cy="14.9869" rx="14.963" ry="14.9869" transform="matrix(-0.00206139 0.999998 0.999998 0.00205484 3768.44 100.76)" fill="#191919"/>
<path d="M3836.38 123.996L3787.33 161.686" stroke="#FF00E6" stroke-width="11" stroke-linecap="round"/>
<path d="M3834.38 163.682L3788.81 121.864" stroke="#FF00E6" stroke-width="11" stroke-linecap="round"/>
<ellipse cx="99.8609" cy="99.8054" rx="99.8609" ry="99.8054" transform="matrix(0.821264 0.570548 0.571954 -0.820285 3048.08 438.751)" fill="#FF00E6"/>
<ellipse cx="14.9792" cy="14.9708" rx="14.9792" ry="14.9708" transform="matrix(-0.820023 -0.572321 -0.573557 0.81917 3213.69 449.288)" fill="#191919"/>
<ellipse cx="14.9792" cy="14.9708" rx="14.9792" ry="14.9708" transform="matrix(-0.820022 -0.572321 -0.573557 0.819171 3171.57 420.249)" fill="#191919"/>
<ellipse cx="14.9792" cy="14.9708" rx="14.9792" ry="14.9708" transform="matrix(-0.820023 -0.572321 -0.573557 0.81917 3202.69 376.014)" fill="#191919"/>
<ellipse cx="14.9792" cy="14.9708" rx="14.9792" ry="14.9708" transform="matrix(-0.820023 -0.572321 -0.573557 0.81917 3244.51 405.075)" fill="#191919"/>
<path d="M3148.1 428.018L3183.46 377.298" stroke="white" stroke-width="11" stroke-linecap="round"/>
<path d="M3189.92 457.081L3225.28 406.36" stroke="white" stroke-width="11" stroke-linecap="round"/>
<ellipse cx="99.9129" cy="99.7532" rx="99.9129" ry="99.7532" transform="matrix(-1 1.74846e-07 2.59539e-07 1 2698.15 41.8813)" fill="#00FF0A"/>
<ellipse cx="14.9869" cy="14.963" rx="14.9869" ry="14.963" transform="matrix(0.999998 0.00205468 0.00206128 -0.999998 2556.19 127.685)" fill="#191919"/>
<ellipse cx="14.9869" cy="14.963" rx="14.9869" ry="14.963" transform="matrix(0.999998 0.00205468 0.00206128 -0.999998 2607.38 127.497)" fill="#191919"/>
<ellipse cx="14.9869" cy="14.963" rx="14.9869" ry="14.963" transform="matrix(0.999998 0.00205468 0.00206128 -0.999998 2607.15 181.551)" fill="#191919"/>
<ellipse cx="14.9869" cy="14.963" rx="14.9869" ry="14.963" transform="matrix(0.999998 0.00205468 0.00206128 -0.999998 2556.19 181.551)" fill="#191919"/>
<path d="M2622.2 107.734L2622.2 169.53" stroke="white" stroke-width="11" stroke-linecap="round"/>
<path d="M2571.24 107.734L2571.24 169.53" stroke="white" stroke-width="11" stroke-linecap="round"/>
<ellipse cx="99.7532" cy="99.9128" rx="99.7532" ry="99.9128" transform="matrix(2.18627e-07 1 1 -3.0318e-07 2498.32 312.213)" fill="#1500FF"/>
<ellipse cx="14.963" cy="14.9869" rx="14.963" ry="14.9869" transform="matrix(0.00206122 -0.999998 -0.999998 -0.00205466 2584.26 453.939)" fill="#191919"/>
<ellipse cx="14.963" cy="14.9869" rx="14.963" ry="14.9869" transform="matrix(0.00206122 -0.999998 -0.999998 -0.00205466 2584.07 402.836)" fill="#191919"/>
<ellipse cx="14.963" cy="14.9869" rx="14.963" ry="14.9869" transform="matrix(0.00206122 -0.999998 -0.999998 -0.00205466 2638.22 403.066)" fill="#191919"/>
<ellipse cx="14.963" cy="14.9869" rx="14.963" ry="14.9869" transform="matrix(0.00206122 -0.999998 -0.999998 -0.00205466 2638.22 453.939)" fill="#191919"/>
<path d="M2564.28 388.042L2626.17 388.042" stroke="white" stroke-width="11" stroke-linecap="round"/>
<path d="M2564.28 438.916L2626.17 438.916" stroke="white" stroke-width="11" stroke-linecap="round"/>
<ellipse cx="99.7532" cy="99.9128" rx="99.7532" ry="99.9128" transform="matrix(2.18627e-07 1 1 -3.0318e-07 2809.05 312.212)" fill="white"/>
<ellipse cx="14.963" cy="14.9869" rx="14.963" ry="14.9869" transform="matrix(0.00206122 -0.999998 -0.999998 -0.00205466 2894.99 453.939)" fill="#191919"/>
<ellipse cx="14.963" cy="14.9869" rx="14.963" ry="14.9869" transform="matrix(0.00206122 -0.999998 -0.999998 -0.00205466 2894.8 402.836)" fill="#191919"/>
<ellipse cx="14.963" cy="14.9869" rx="14.963" ry="14.9869" transform="matrix(0.00206122 -0.999998 -0.999998 -0.00205466 2948.94 403.065)" fill="#191919"/>
<ellipse cx="14.963" cy="14.9869" rx="14.963" ry="14.9869" transform="matrix(0.00206122 -0.999998 -0.999998 -0.00205466 2948.94 453.939)" fill="#191919"/>
<path d="M2885.58 431.959L2931.94 391.018" stroke="#FF00E6" stroke-width="11" stroke-linecap="round"/>
<path d="M2885.18 391.017L2928.94 434.713" stroke="#FF00E6" stroke-width="11" stroke-linecap="round"/>
<ellipse cx="99.9129" cy="99.7532" rx="99.9129" ry="99.7532" transform="matrix(-1 1.74846e-07 2.59539e-07 1 2387.42 41.8813)" fill="#FF00E6"/>
<ellipse cx="14.9869" cy="14.963" rx="14.9869" ry="14.963" transform="matrix(0.999998 0.00205468 0.00206128 -0.999998 2245.46 127.685)" fill="#191919"/>
<ellipse cx="14.9869" cy="14.963" rx="14.9869" ry="14.963" transform="matrix(0.999998 0.00205468 0.00206128 -0.999998 2296.65 127.497)" fill="#191919"/>
<ellipse cx="14.9869" cy="14.963" rx="14.9869" ry="14.963" transform="matrix(0.999998 0.00205468 0.00206128 -0.999998 2296.42 181.551)" fill="#191919"/>
<ellipse cx="14.9869" cy="14.963" rx="14.9869" ry="14.963" transform="matrix(0.999998 0.00205468 0.00206128 -0.999998 2245.46 181.551)" fill="#191919"/>
<path d="M2311.47 107.734L2311.47 169.53" stroke="white" stroke-width="11" stroke-linecap="round"/>
<path d="M2260.51 107.734L2260.51 169.53" stroke="white" stroke-width="11" stroke-linecap="round"/>
<ellipse cx="99.873" cy="99.7931" rx="99.873" ry="99.7931" transform="matrix(-0.866371 0.499401 0.5006 0.865679 2013.74 275.305)" fill="#00FF0A"/>
<ellipse cx="14.9809" cy="14.969" rx="14.9809" ry="14.969" transform="matrix(0.867399 -0.49762 -0.498814 -0.866706 1933.78 420.476)" fill="#191919"/>
<ellipse cx="14.9809" cy="14.969" rx="14.9809" ry="14.969" transform="matrix(0.867399 -0.49762 -0.498814 -0.866706 1978.01 394.761)" fill="#191919"/>
<ellipse cx="14.9809" cy="14.969" rx="14.9809" ry="14.969" transform="matrix(0.867399 -0.49762 -0.498814 -0.866706 2004.88 441.689)" fill="#191919"/>
<ellipse cx="14.9809" cy="14.969" rx="14.9809" ry="14.969" transform="matrix(0.867399 -0.49762 -0.498814 -0.866706 1960.76 467.127)" fill="#191919"/>
<path d="M1980.95 370.247L2011.9 423.765" stroke="white" stroke-width="11" stroke-linecap="round"/>
<path d="M1936.82 395.685L1967.77 449.203" stroke="white" stroke-width="11" stroke-linecap="round"/>
<ellipse cx="99.9129" cy="99.7532" rx="99.9129" ry="99.7532" transform="matrix(-1 1.74846e-07 2.59539e-07 1 2076.69 42.083)" fill="white"/>
<ellipse cx="14.9869" cy="14.963" rx="14.9869" ry="14.963" transform="matrix(0.999998 0.00205468 0.00206128 -0.999998 1934.74 127.887)" fill="#191919"/>
<ellipse cx="14.9869" cy="14.963" rx="14.9869" ry="14.963" transform="matrix(0.999998 0.00205468 0.00206128 -0.999998 1985.92 127.698)" fill="#191919"/>
<ellipse cx="14.9869" cy="14.963" rx="14.9869" ry="14.963" transform="matrix(0.999998 0.00205468 0.00206128 -0.999998 1985.69 181.753)" fill="#191919"/>
<ellipse cx="14.9869" cy="14.963" rx="14.9869" ry="14.963" transform="matrix(0.999998 0.00205468 0.00206128 -0.999998 1934.74 181.753)" fill="#191919"/>
<path d="M1958.01 113.921L1995.76 162.892" stroke="#1500FF" stroke-width="11" stroke-linecap="round"/>
<path d="M1997.76 115.916L1955.87 161.414" stroke="#1500FF" stroke-width="11" stroke-linecap="round"/>
<ellipse cx="99.8439" cy="99.8222" rx="99.8439" ry="99.8222" transform="matrix(-0.707518 -0.706695 -0.707252 0.706961 1807.4 411.559)" fill="#FF00E6"/>
<ellipse cx="14.977" cy="14.9737" rx="14.977" ry="14.9737" transform="matrix(0.706061 0.708148 0.708708 -0.705505 1646.31 372.011)" fill="#191919"/>
<ellipse cx="14.977" cy="14.9737" rx="14.977" ry="14.9737" transform="matrix(0.706061 0.708148 0.708708 -0.705505 1682.63 408.026)" fill="#191919"/>
<ellipse cx="14.977" cy="14.9737" rx="14.977" ry="14.9737" transform="matrix(0.706061 0.708148 0.708708 -0.705505 1644.21 446.104)" fill="#191919"/>
<ellipse cx="14.977" cy="14.9737" rx="14.977" ry="14.9737" transform="matrix(0.706061 0.708148 0.708708 -0.705505 1608.19 410.119)" fill="#191919"/>
<path d="M1707.1 404.51L1663.36 448.228" stroke="white" stroke-width="11" stroke-linecap="round"/>
<path d="M1671.07 368.524L1627.33 412.242" stroke="white" stroke-width="11" stroke-linecap="round"/>
<ellipse cx="99.9129" cy="99.7532" rx="99.9129" ry="99.7532" transform="matrix(-1 1.74846e-07 2.59539e-07 1 1765.67 42.083)" fill="#1500FF"/>
<ellipse cx="14.9869" cy="14.963" rx="14.9869" ry="14.963" transform="matrix(0.999998 0.00205468 0.00206128 -0.999998 1623.71 127.887)" fill="#191919"/>
<ellipse cx="14.9869" cy="14.963" rx="14.9869" ry="14.963" transform="matrix(0.999998 0.00205468 0.00206128 -0.999998 1674.9 127.698)" fill="#191919"/>
<ellipse cx="14.9869" cy="14.963" rx="14.9869" ry="14.963" transform="matrix(0.999998 0.00205468 0.00206128 -0.999998 1674.67 181.753)" fill="#191919"/>
<ellipse cx="14.9869" cy="14.963" rx="14.9869" ry="14.963" transform="matrix(0.999998 0.00205468 0.00206128 -0.999998 1623.71 181.753)" fill="#191919"/>
<path d="M1646.99 113.921L1684.74 162.892" stroke="#00FF0A" stroke-width="11" stroke-linecap="round"/>
<path d="M1686.74 115.916L1644.85 161.414" stroke="#00FF0A" stroke-width="11" stroke-linecap="round"/>
<ellipse cx="99.7532" cy="99.9128" rx="99.7532" ry="99.9128" transform="matrix(2.18627e-07 1 1 -3.0318e-07 2187.59 312.213)" fill="white"/>
<ellipse cx="14.963" cy="14.9869" rx="14.963" ry="14.9869" transform="matrix(0.00206122 -0.999998 -0.999998 -0.00205466 2273.53 453.939)" fill="#191919"/>
<ellipse cx="14.963" cy="14.9869" rx="14.963" ry="14.9869" transform="matrix(0.00206122 -0.999998 -0.999998 -0.00205466 2273.34 402.836)" fill="#191919"/>
<ellipse cx="14.963" cy="14.9869" rx="14.963" ry="14.9869" transform="matrix(0.00206122 -0.999998 -0.999998 -0.00205466 2327.49 403.066)" fill="#191919"/>
<ellipse cx="14.963" cy="14.9869" rx="14.963" ry="14.9869" transform="matrix(0.00206122 -0.999998 -0.999998 -0.00205466 2327.49 453.939)" fill="#191919"/>
<path d="M2259.55 430.704L2308.59 393.014" stroke="#FF00E6" stroke-width="11" stroke-linecap="round"/>
<path d="M2261.54 391.018L2307.11 432.835" stroke="#FF00E6" stroke-width="11" stroke-linecap="round"/>
<ellipse cx="99.8609" cy="99.8054" rx="99.8609" ry="99.8054" transform="matrix(-0.821277 -0.570528 -0.571974 0.820271 3047.84 115.948)" fill="#FF00E6"/>
<ellipse cx="14.9792" cy="14.9708" rx="14.9792" ry="14.9708" transform="matrix(0.820023 0.572321 0.573557 -0.81917 2882.23 105.411)" fill="#191919"/>
<ellipse cx="14.9792" cy="14.9708" rx="14.9792" ry="14.9708" transform="matrix(0.820023 0.572321 0.573557 -0.81917 2924.35 134.45)" fill="#191919"/>
<ellipse cx="14.9792" cy="14.9708" rx="14.9792" ry="14.9708" transform="matrix(0.820023 0.572321 0.573557 -0.81917 2893.24 178.685)" fill="#191919"/>
<ellipse cx="14.9792" cy="14.9708" rx="14.9792" ry="14.9708" transform="matrix(0.820023 0.572321 0.573557 -0.81917 2851.41 149.624)" fill="#191919"/>
<path d="M2947.82 126.681L2912.47 177.401" stroke="white" stroke-width="11" stroke-linecap="round"/>
<path d="M2906 97.6187L2870.64 148.339" stroke="white" stroke-width="11" stroke-linecap="round"/>
</svg>
