<svg width="3690" height="90" viewBox="0 0 3690 90" fill="none" xmlns="http://www.w3.org/2000/svg">
<path d="M16.96 62.088C11.968 62.088 8.064 60.488 5.312 57.224C2.496 54.024 1.408 49.8 2.048 44.68C2.688 39.624 4.8 35.464 8.384 32.264C11.968 29.064 16.32 27.464 21.376 27.464C25.088 27.464 27.968 28.296 29.888 29.896C31.808 31.496 32.704 33.736 32.448 36.68C32.32 38.344 31.68 39.624 30.592 40.584C29.504 41.608 28.096 42.056 26.368 42.056C24.64 42.056 23.36 41.608 22.464 40.712C21.568 39.816 21.248 38.6 21.376 37C21.504 35.592 21.952 34.44 22.784 33.48C23.616 32.52 24.768 31.816 26.176 31.432C25.728 31.048 25.216 30.792 24.576 30.6C23.936 30.408 23.296 30.28 22.528 30.28C20.16 30.28 18.304 31.432 16.896 33.736C15.488 36.04 14.528 39.624 14.016 44.552C13.504 49.224 13.696 52.744 14.656 55.048C15.616 57.352 17.344 58.504 19.84 58.504C21.696 58.504 23.36 57.8 24.768 56.392C26.176 54.984 27.264 53 27.904 50.568L30.976 50.888C29.952 54.472 28.288 57.288 25.856 59.208C23.424 61.128 20.416 62.088 16.96 62.088ZM83.0285 62.024C79.8285 62.024 77.5245 61.128 76.2445 59.272C74.9005 57.48 74.4525 54.664 74.9645 50.952L76.5645 38.28C76.7565 36.36 76.6925 34.888 76.3085 33.992C75.9245 33.096 75.2845 32.584 74.3885 32.584C73.2365 32.584 72.2765 33.288 71.5085 34.632C70.7405 36.04 70.1005 38.152 69.6525 41.032L67.1565 61H55.5085L58.3885 38.28C58.6445 36.296 58.5805 34.824 58.2605 33.928C57.8765 33.032 57.2365 32.584 56.2765 32.584C54.9965 32.584 53.9085 33.416 53.1405 35.08C52.3085 36.744 51.6685 39.304 51.2845 42.76L48.9805 61H37.3965L41.0445 31.368H36.6925L37.0125 28.552C40.0845 28.552 42.6445 28.488 44.6925 28.36C46.7405 28.232 48.2125 27.976 49.1085 27.72L51.0285 28.36L50.1965 35.08C51.2205 32.52 52.6925 30.664 54.4845 29.384C56.2765 28.104 58.4525 27.464 61.0765 27.464C63.1885 27.464 64.9165 27.976 66.3245 28.872C67.7325 29.832 68.6925 31.176 69.2685 32.968C70.3565 31.176 71.7005 29.768 73.3645 28.872C75.0285 27.976 76.9485 27.464 79.1885 27.464C82.4525 27.464 84.8205 28.552 86.3565 30.6C87.8285 32.712 88.3405 35.72 87.9565 39.56L86.1645 54.28C86.0365 55.496 86.0365 56.392 86.2285 56.904C86.3565 57.48 86.7405 57.736 87.2525 57.736C87.8925 57.736 88.4685 57.224 88.9165 56.2C89.3645 55.176 89.7485 53.512 90.0685 51.336H93.1405C92.5005 55.496 91.4125 58.312 89.8765 59.784C88.3405 61.32 86.1005 62.024 83.0285 62.024ZM118.576 53.896C117.488 56.648 116.016 58.696 114.096 60.04C112.176 61.448 109.872 62.088 107.184 62.088C103.728 62.088 101.232 61.064 99.632 58.888C98.032 56.776 97.456 53.768 97.904 49.928L100.144 31.56H95.792L96.176 28.808C99.696 28.808 102.64 28.744 105.072 28.616C107.504 28.488 109.232 28.232 110.256 27.976L112.176 28.552L109.36 51.144C109.104 53.192 109.168 54.664 109.616 55.56C110 56.52 110.768 56.968 111.92 56.968C113.328 56.968 114.544 56.136 115.504 54.408C116.4 52.744 117.104 50.12 117.488 46.6L119.344 31.56H115.952L116.4 28.808C119.472 28.808 122.16 28.744 124.528 28.616C126.896 28.488 128.56 28.232 129.456 27.976L131.376 28.552L128.24 54.28C128.112 55.432 128.112 56.328 128.304 56.904C128.496 57.48 128.88 57.736 129.392 57.736C130.032 57.736 130.608 57.288 131.056 56.264C131.44 55.24 131.824 53.64 132.144 51.336H135.216C134.576 55.496 133.552 58.312 132.08 59.784C130.544 61.32 128.304 62.024 125.36 62.024C123.312 62.024 121.712 61.512 120.56 60.488C119.408 59.464 118.704 57.864 118.512 55.752C118.512 55.752 118.512 55.432 118.576 54.856C118.576 54.28 118.576 53.96 118.576 53.896ZM151.594 47.752C150.57 53.128 149.354 56.904 147.882 58.952C146.345 61.064 144.17 62.088 141.226 62.088C139.562 62.088 138.282 61.576 137.258 60.552C136.233 59.528 135.721 58.248 135.721 56.712C135.721 55.304 136.169 54.024 137.194 52.936C138.218 51.848 139.498 51.272 141.034 51.272C142.314 51.272 143.274 51.656 144.042 52.36C144.81 53.128 145.194 54.024 145.194 55.048C145.194 55.688 145.066 56.328 144.81 56.968C144.554 57.672 144.234 58.184 143.914 58.44C144.81 58.056 145.642 57.096 146.282 55.56C146.922 54.024 147.626 51.592 148.266 48.328C148.65 46.024 149.098 43.272 149.546 40.2C149.994 37.128 150.378 34.184 150.698 31.368H145.514L145.898 28.552H171.498L168.362 54.6C168.234 55.752 168.234 56.584 168.426 57.032C168.618 57.544 169.002 57.736 169.514 57.736C170.154 57.736 170.729 57.224 171.178 56.136C171.626 55.112 172.01 53.512 172.33 51.336H175.338C174.762 55.432 173.738 58.184 172.266 59.72C170.729 61.256 168.554 62.024 165.674 62.024C162.282 62.024 159.914 61.128 158.57 59.336C157.162 57.544 156.714 54.728 157.162 50.952L159.53 31.368H154.026C153.514 35.4 153.066 38.664 152.682 41.224C152.298 43.784 151.914 45.96 151.594 47.752ZM211.367 51.336C210.983 54.664 209.255 57.224 206.183 59.144C203.111 61.064 199.143 62.024 194.279 62.024C189.287 62.024 185.767 60.872 183.591 58.568C181.415 56.264 180.647 52.744 181.223 48.008L183.207 31.56H178.855L179.239 28.808C182.759 28.808 185.703 28.744 188.135 28.616C190.567 28.488 192.295 28.232 193.319 27.976L195.239 28.552L193.639 41.16C194.407 40.904 195.303 40.712 196.263 40.584C197.223 40.456 198.247 40.392 199.271 40.392C203.111 40.392 206.247 41.416 208.551 43.4C210.854 45.448 211.751 48.072 211.367 51.336ZM195.047 58.12C196.327 58.12 197.351 57.544 198.119 56.328C198.887 55.112 199.399 53.256 199.719 50.696C199.975 48.392 199.783 46.664 199.207 45.512C198.567 44.36 197.543 43.784 196.007 43.784C195.495 43.784 194.983 43.848 194.535 43.912C194.087 44.04 193.703 44.168 193.319 44.296L192.487 50.568C192.103 53.384 192.167 55.304 192.551 56.456C192.935 57.608 193.767 58.12 195.047 58.12ZM256.764 51.208L258.812 51.656C258.044 54.984 256.7 57.48 254.716 59.144C252.668 60.872 250.172 61.704 247.1 61.704C242.62 61.704 239.1 60.232 236.476 57.288C233.788 54.344 232.508 50.248 232.508 45.128C232.508 39.944 233.852 35.848 236.668 32.776C239.484 29.704 243.132 28.168 247.676 28.168C250.876 28.168 253.436 29.064 255.42 30.792C257.34 32.52 258.364 34.824 258.364 37.64C258.364 38.984 257.98 40.072 257.276 40.84C256.508 41.608 255.548 41.992 254.332 41.992C252.924 41.992 251.9 41.672 251.132 40.904C250.364 40.2 250.044 39.176 250.044 37.896C250.044 36.744 250.428 35.72 251.196 34.952C251.964 34.184 253.052 33.736 254.524 33.48C254.012 32.456 253.18 31.624 252.092 31.112C250.94 30.6 249.596 30.28 247.996 30.28C245.052 30.28 242.876 31.496 241.468 33.864C240.06 36.232 239.42 40.008 239.42 45.128C239.42 49.736 240.124 53.256 241.532 55.688C242.94 58.184 244.924 59.4 247.612 59.4C249.98 59.4 251.9 58.76 253.372 57.48C254.844 56.2 255.996 54.088 256.764 51.208ZM285.899 58.888V61H268.171V58.888H273.739V30.984H271.051C268.683 30.984 266.955 31.624 265.867 32.904C264.779 34.184 264.267 36.168 264.267 38.92V40.52H262.155V28.936H291.915V40.52H289.867V38.92C289.867 36.232 289.291 34.248 288.203 32.968C287.051 31.688 285.323 31.048 283.019 30.984H280.331V58.888H285.899ZM307.14 58.888H312.196V61H295.556V58.888H300.548V30.984H295.556V28.936H312.196V30.984H307.14V51.976L321.028 34.12V30.984H315.972V28.936H332.548V30.984H327.62V58.888H332.548V61H315.972V58.888H321.028V37.704L307.14 55.56V58.888ZM358.81 58.888V30.984H349.914C349.914 35.464 349.85 38.984 349.786 41.672C349.722 44.36 349.658 46.6 349.53 48.52C349.146 53.512 348.314 56.904 347.162 58.824C346.01 60.744 344.09 61.704 341.402 61.704C339.61 61.704 338.202 61.192 337.114 60.168C336.026 59.144 335.514 57.608 335.514 55.688C335.514 54.408 335.834 53.32 336.602 52.424C337.37 51.592 338.394 51.144 339.674 51.144C340.826 51.144 341.786 51.528 342.49 52.168C343.194 52.872 343.578 53.768 343.578 54.792C343.578 55.944 343.194 56.904 342.426 57.544C341.658 58.184 340.57 58.504 339.226 58.504C339.418 58.888 339.738 59.144 340.186 59.272C340.57 59.4 341.146 59.464 341.786 59.464C343.45 59.464 344.73 58.504 345.562 56.584C346.33 54.664 346.842 51.336 347.098 46.472C347.162 45 347.226 43.272 347.226 41.224C347.226 39.24 347.29 35.848 347.29 30.984H341.914V28.936H370.33V30.984H365.402V58.888H370.33V61H353.498V58.888H358.81ZM386.702 30.984V42.568H391.054C395.406 42.568 398.862 43.4 401.294 44.936C403.726 46.472 405.006 48.712 405.006 51.656C405.006 54.664 403.79 56.968 401.358 58.568C398.926 60.232 395.47 61 391.054 61H375.118V58.888H380.11V30.984H375.118V28.936H392.654V30.984H386.702ZM390.414 44.616H386.702V58.888H390.478C393.038 58.888 394.958 58.312 396.238 57.096C397.518 55.944 398.158 54.088 398.158 51.592C398.158 49.16 397.518 47.368 396.366 46.28C395.15 45.192 393.166 44.616 390.414 44.616ZM440.464 61.64C436.24 61.64 432.976 60.168 430.736 57.096C428.432 54.024 427.6 50.12 428.176 45.256C428.752 40.136 430.48 36.04 433.296 32.968C436.112 29.896 439.568 28.36 443.728 28.36C446.224 28.36 448.336 29.064 450.064 30.408C451.792 31.752 452.688 33.48 452.752 35.592C452.752 36.872 452.368 37.96 451.6 38.792C450.832 39.624 449.808 40.008 448.528 40.008C447.376 40.008 446.48 39.752 445.84 39.112C445.2 38.472 444.88 37.64 444.88 36.616C444.816 35.464 445.136 34.44 445.776 33.608C446.416 32.776 447.312 32.264 448.4 32.136C447.888 31.496 447.184 31.048 446.416 30.728C445.584 30.408 444.688 30.216 443.664 30.216C440.976 30.216 438.8 31.496 437.136 34.056C435.472 36.616 434.384 40.264 433.872 44.872C433.36 49.352 433.808 52.936 435.088 55.56C436.368 58.184 438.416 59.464 441.232 59.464C443.344 59.464 445.2 58.76 446.736 57.288C448.272 55.88 449.424 53.832 450.064 51.272L451.92 51.72C450.96 55.176 449.552 57.672 447.696 59.272C445.776 60.872 443.408 61.64 440.464 61.64ZM496.487 61.64C494.311 61.64 492.711 61 491.815 59.72C490.855 58.44 490.535 56.584 490.855 54.024L492.839 38.344C493.095 36.04 492.967 34.312 492.455 33.16C491.879 32.008 490.919 31.368 489.511 31.368C487.719 31.368 486.247 32.264 485.095 34.056C483.879 35.848 482.983 38.536 482.343 42.12L479.911 61H474.407L477.351 38.344C477.607 35.912 477.543 34.184 477.031 33.032C476.519 31.944 475.559 31.368 474.151 31.368C471.975 31.368 470.311 32.52 469.031 34.824C467.751 37.128 466.855 40.712 466.279 45.448L464.423 61H458.983L462.631 30.92H457.127L457.383 29C460.455 29 462.759 29 464.231 28.872C465.703 28.744 466.599 28.616 466.855 28.36L467.495 29L466.407 37.576C467.239 34.504 468.519 32.2 470.183 30.664C471.847 29.128 473.895 28.36 476.327 28.36C478.247 28.36 479.719 28.936 480.871 30.024C481.959 31.176 482.599 32.712 482.855 34.76C483.751 32.648 484.967 31.048 486.439 29.96C487.847 28.936 489.575 28.36 491.623 28.36C494.183 28.36 495.975 29.256 497.127 30.92C498.215 32.584 498.599 35.08 498.215 38.344L496.231 54.984C496.039 56.648 496.103 57.8 496.359 58.504C496.615 59.208 497.191 59.528 498.087 59.528C499.239 59.528 500.135 58.888 500.839 57.544C501.543 56.2 502.055 54.152 502.439 51.336H504.167C503.527 55.432 502.695 58.12 501.543 59.528C500.391 60.936 498.663 61.64 496.487 61.64ZM518.05 61.64C515.362 61.64 513.314 60.744 512.034 58.824C510.69 56.968 510.242 54.472 510.626 51.272L513.122 30.92H507.618L507.874 29C511.138 29 513.634 29 515.298 28.872C516.962 28.744 517.922 28.616 518.178 28.36L518.818 29L516.13 51.272C515.81 53.704 516.002 55.56 516.706 56.776C517.346 58.056 518.498 58.632 520.162 58.632C522.402 58.632 524.258 57.352 525.794 54.792C527.33 52.232 528.354 48.584 528.93 43.848L530.466 30.92H526.242L526.498 29C529.506 29 531.682 29 533.09 28.872C534.434 28.808 535.266 28.616 535.522 28.36L536.162 29L533.026 54.984C532.77 56.52 532.834 57.672 533.218 58.44C533.538 59.208 534.178 59.528 535.074 59.528C536.162 59.528 537.058 58.888 537.698 57.608C538.338 56.328 538.85 54.216 539.234 51.272H540.962C540.322 55.496 539.554 58.248 538.53 59.592C537.506 61 535.97 61.64 533.922 61.64C531.874 61.64 530.466 61.064 529.634 59.784C528.802 58.568 528.546 56.648 528.93 54.024L529.506 49.352C528.738 53.384 527.33 56.456 525.41 58.504C523.49 60.616 520.994 61.64 518.05 61.64ZM555.823 48.264C554.927 53.128 553.839 56.52 552.559 58.568C551.215 60.616 549.295 61.64 546.863 61.64C545.007 61.64 543.599 61.192 542.703 60.232C541.742 59.272 541.358 57.992 541.55 56.456C541.614 55.432 542.062 54.536 542.831 53.832C543.599 53.128 544.495 52.744 545.647 52.744C546.799 52.744 547.631 53.128 548.271 53.832C548.847 54.6 549.039 55.496 548.911 56.584C548.783 57.352 548.591 57.992 548.271 58.504C547.887 59.016 547.439 59.4 546.863 59.656C548.399 59.656 549.615 58.952 550.575 57.544C551.47 56.136 552.303 53.768 553.007 50.44C553.455 48.2 553.967 45.192 554.607 41.416C555.183 37.64 555.695 34.12 556.143 30.92H551.151L551.343 29H572.335L569.199 54.984C569.007 56.648 569.071 57.8 569.327 58.504C569.583 59.208 570.159 59.528 571.055 59.528C572.207 59.528 573.103 58.888 573.807 57.544C574.511 56.2 575.023 54.152 575.407 51.336H577.135C576.495 55.432 575.663 58.12 574.511 59.528C573.359 60.936 571.631 61.64 569.455 61.64C567.279 61.64 565.679 61 564.783 59.72C563.823 58.44 563.503 56.584 563.823 54.024L566.575 30.92H558.575C557.999 34.76 557.487 38.088 557.039 40.968C556.591 43.912 556.207 46.344 555.823 48.264ZM606.793 51.272C606.409 54.472 605.001 56.968 602.569 58.824C600.137 60.744 597.193 61.64 593.673 61.64C589.961 61.64 587.273 60.616 585.609 58.504C583.945 56.456 583.433 53.32 583.945 49.224L586.185 30.92H580.681L580.937 29C584.201 29 586.697 29 588.361 28.872C590.025 28.744 590.985 28.616 591.241 28.36L591.881 29L590.217 42.696C591.369 42.184 592.521 41.736 593.801 41.48C595.081 41.224 596.361 41.032 597.641 41.032C600.585 41.032 602.953 41.992 604.745 43.848C606.473 45.768 607.177 48.2 606.793 51.272ZM594.249 59.592C596.041 59.592 597.577 58.824 598.857 57.288C600.137 55.752 600.905 53.768 601.161 51.336C601.417 48.712 600.969 46.664 599.945 45.256C598.857 43.848 597.257 43.144 595.081 43.144C594.185 43.144 593.353 43.336 592.457 43.592C591.561 43.848 590.793 44.232 590.025 44.68L589.449 49.352C589.001 53.064 589.129 55.752 589.897 57.288C590.665 58.824 592.073 59.592 594.249 59.592ZM657.506 50.248L661.154 50.504C660.578 54.216 659.106 57.16 656.674 59.208C654.242 61.256 651.106 62.28 647.394 62.28C642.018 62.28 637.666 60.616 634.274 57.288C630.882 53.96 629.218 49.672 629.218 44.424C629.218 39.432 630.946 35.272 634.53 32.008C638.114 28.744 642.594 27.08 648.034 27.08C652.322 27.08 655.586 27.976 657.89 29.64C660.13 31.368 661.282 33.864 661.282 37.128C661.282 38.92 660.706 40.392 659.618 41.416C658.466 42.504 656.994 43.016 655.074 43.016C653.026 43.016 651.49 42.504 650.402 41.48C649.314 40.456 648.802 38.984 648.802 37.128C648.802 35.656 649.186 34.44 649.954 33.416C650.722 32.392 651.874 31.624 653.41 31.112C652.898 30.856 652.386 30.6 651.874 30.472C651.298 30.344 650.722 30.28 650.082 30.28C647.906 30.28 646.306 31.368 645.346 33.48C644.385 35.592 643.938 39.24 643.938 44.424C643.938 49.16 644.45 52.616 645.602 54.792C646.69 56.968 648.418 58.056 650.722 58.056C652.45 58.056 653.922 57.352 655.138 55.944C656.354 54.536 657.122 52.68 657.506 50.248ZM692.643 57.8V61H669.283V57.8H673.763V31.56H673.379C671.331 31.56 669.795 32.328 668.707 33.736C667.555 35.144 667.043 37.064 667.043 39.496V40.52H663.843V28.36H698.083V40.52H694.882V39.496C694.882 37.064 694.307 35.144 693.219 33.736C692.067 32.328 690.531 31.56 688.547 31.56H688.163V57.8H692.643ZM718.895 57.8H721.455V61H700.655V57.8H704.495V31.56H700.655V28.36H721.455V31.56H718.895V48.072L727.215 35.208V31.56H724.655V28.36H745.455V31.56H741.615V57.8H745.455V61H724.655V57.8H727.215V40.968L718.895 53.832V57.8ZM768.51 57.8V31.56H762.814C762.814 36.296 762.75 39.944 762.686 42.632C762.622 45.32 762.494 47.624 762.366 49.48C761.918 54.344 761.022 57.672 759.742 59.528C758.462 61.384 756.286 62.28 753.278 62.28C751.358 62.28 749.886 61.768 748.734 60.616C747.582 59.464 747.07 57.992 747.07 56.2C747.07 54.536 747.518 53.192 748.478 52.168C749.438 51.144 750.718 50.568 752.382 50.568C753.79 50.568 754.942 51.016 755.838 51.912C756.67 52.808 757.118 53.96 757.118 55.368C757.118 55.752 757.054 56.136 757.054 56.456C756.99 56.776 756.926 57.032 756.862 57.224C756.926 57.16 756.99 57.032 757.054 56.904C757.054 56.776 757.118 56.712 757.182 56.584C757.886 55.048 758.398 52.616 758.654 49.288C758.91 45.96 759.102 40.008 759.102 31.56H753.854V28.36H786.75V31.56H782.91V57.8H786.75V61H766.27V57.8H768.51ZM807.52 31.56V40.328H812.704C817.44 40.328 821.152 41.224 823.84 42.952C826.464 44.744 827.808 47.24 827.808 50.568C827.808 53.896 826.464 56.52 823.84 58.312C821.152 60.104 817.44 61 812.704 61H789.28V57.8H793.12V31.56H789.28V28.36H812.64V31.56H807.52ZM808.48 43.528H807.52V57.8H808.544C810.016 57.8 811.168 57.16 812.064 55.88C812.96 54.6 813.408 52.808 813.408 50.504C813.408 48.2 812.96 46.472 812.128 45.32C811.296 44.168 810.08 43.528 808.48 43.528ZM875.202 51.208L877.25 51.656C876.482 54.984 875.138 57.48 873.154 59.144C871.106 60.872 868.61 61.704 865.538 61.704C861.058 61.704 857.538 60.232 854.914 57.288C852.226 54.344 850.946 50.248 850.946 45.128C850.946 39.944 852.29 35.848 855.106 32.776C857.922 29.704 861.57 28.168 866.114 28.168C869.314 28.168 871.874 29.064 873.858 30.792C875.778 32.52 876.802 34.824 876.802 37.64C876.802 38.984 876.418 40.072 875.714 40.84C874.946 41.608 873.986 41.992 872.77 41.992C871.362 41.992 870.338 41.672 869.57 40.904C868.802 40.2 868.482 39.176 868.482 37.896C868.482 36.744 868.866 35.72 869.634 34.952C870.402 34.184 871.49 33.736 872.962 33.48C872.45 32.456 871.618 31.624 870.53 31.112C869.378 30.6 868.034 30.28 866.434 30.28C863.49 30.28 861.314 31.496 859.906 33.864C858.498 36.232 857.858 40.008 857.858 45.128C857.858 49.736 858.562 53.256 859.97 55.688C861.378 58.184 863.362 59.4 866.05 59.4C868.418 59.4 870.338 58.76 871.81 57.48C873.282 56.2 874.434 54.088 875.202 51.208ZM904.337 58.888V61H886.609V58.888H892.177V30.984H889.489C887.121 30.984 885.393 31.624 884.305 32.904C883.217 34.184 882.705 36.168 882.705 38.92V40.52H880.593V28.936H910.353V40.52H908.305V38.92C908.305 36.232 907.729 34.248 906.641 32.968C905.489 31.688 903.761 31.048 901.457 30.984H898.769V58.888H904.337ZM925.577 58.888H930.633V61H913.993V58.888H918.985V30.984H913.993V28.936H930.633V30.984H925.577V51.976L939.465 34.12V30.984H934.409V28.936H950.985V30.984H946.057V58.888H950.985V61H934.409V58.888H939.465V37.704L925.577 55.56V58.888ZM977.247 58.888V30.984H968.351C968.351 35.464 968.287 38.984 968.223 41.672C968.159 44.36 968.095 46.6 967.967 48.52C967.583 53.512 966.751 56.904 965.599 58.824C964.447 60.744 962.527 61.704 959.839 61.704C958.047 61.704 956.639 61.192 955.551 60.168C954.463 59.144 953.951 57.608 953.951 55.688C953.951 54.408 954.271 53.32 955.039 52.424C955.807 51.592 956.831 51.144 958.111 51.144C959.263 51.144 960.223 51.528 960.927 52.168C961.631 52.872 962.015 53.768 962.015 54.792C962.015 55.944 961.631 56.904 960.863 57.544C960.095 58.184 959.007 58.504 957.663 58.504C957.855 58.888 958.175 59.144 958.623 59.272C959.007 59.4 959.583 59.464 960.223 59.464C961.887 59.464 963.167 58.504 963.999 56.584C964.767 54.664 965.279 51.336 965.535 46.472C965.599 45 965.663 43.272 965.663 41.224C965.663 39.24 965.727 35.848 965.727 30.984H960.351V28.936H988.767V30.984H983.839V58.888H988.767V61H971.935V58.888H977.247ZM1005.14 30.984V42.568H1009.49C1013.84 42.568 1017.3 43.4 1019.73 44.936C1022.16 46.472 1023.44 48.712 1023.44 51.656C1023.44 54.664 1022.23 56.968 1019.8 58.568C1017.36 60.232 1013.91 61 1009.49 61H993.556V58.888H998.548V30.984H993.556V28.936H1011.09V30.984H1005.14ZM1008.85 44.616H1005.14V58.888H1008.92C1011.48 58.888 1013.4 58.312 1014.68 57.096C1015.96 55.944 1016.6 54.088 1016.6 51.592C1016.6 49.16 1015.96 47.368 1014.8 46.28C1013.59 45.192 1011.6 44.616 1008.85 44.616ZM1071.38 51.336L1073.17 51.848C1072.34 55.048 1071 57.48 1069.08 59.144C1067.16 60.808 1064.73 61.64 1061.78 61.64C1057.43 61.64 1054.04 60.232 1051.48 57.288C1048.92 54.344 1047.7 50.376 1047.7 45.256C1047.7 40.008 1048.98 35.912 1051.67 32.904C1054.36 29.896 1057.88 28.36 1062.36 28.36C1065.37 28.36 1067.86 29.256 1069.78 30.92C1071.7 32.648 1072.66 34.888 1072.66 37.704C1072.66 38.984 1072.28 40.008 1071.64 40.776C1071 41.544 1070.1 41.864 1068.95 41.864C1067.67 41.864 1066.65 41.544 1065.94 40.84C1065.24 40.2 1064.92 39.24 1064.92 38.024C1064.92 36.872 1065.24 35.912 1066.01 35.208C1066.71 34.504 1067.8 34.056 1069.21 33.8C1068.63 32.776 1067.73 31.88 1066.52 31.24C1065.24 30.6 1063.89 30.28 1062.36 30.28C1059.29 30.28 1057.05 31.496 1055.64 33.928C1054.17 36.36 1053.46 40.136 1053.46 45.256C1053.46 49.864 1054.17 53.384 1055.64 55.88C1057.05 58.376 1059.16 59.592 1061.85 59.592C1064.28 59.592 1066.26 58.952 1067.8 57.672C1069.33 56.392 1070.49 54.28 1071.38 51.336ZM1099.7 59.08V61H1082.74V59.08H1088.5V30.92H1085.49C1083.06 30.92 1081.33 31.56 1080.24 32.776C1079.09 34.056 1078.58 36.04 1078.58 38.856V40.52H1076.66V29H1105.78V40.52H1103.86V38.856C1103.86 36.04 1103.28 34.056 1102.19 32.776C1101.04 31.56 1099.31 30.92 1096.94 30.92H1093.94V59.08H1099.7ZM1120.18 59.08H1125.62V61H1109.62V59.08H1114.74V30.92H1109.62V29H1125.62V30.92H1120.18V52.552L1134.9 33.992V30.92H1129.46V29H1145.46V30.92H1140.34V59.08H1145.46V61H1129.46V59.08H1134.9V37.256L1120.18 55.816V59.08ZM1172.19 59.08V30.92H1162.78C1162.78 35.784 1162.72 39.432 1162.72 41.992C1162.66 44.552 1162.59 46.664 1162.46 48.456C1162.14 53.512 1161.44 56.968 1160.29 58.824C1159.14 60.744 1157.15 61.64 1154.46 61.64C1152.67 61.64 1151.26 61.128 1150.24 60.104C1149.15 59.08 1148.64 57.544 1148.64 55.624C1148.64 54.344 1148.96 53.256 1149.73 52.424C1150.43 51.656 1151.39 51.208 1152.61 51.208C1153.76 51.208 1154.66 51.592 1155.36 52.296C1156 53.064 1156.38 53.96 1156.38 55.048C1156.38 56.264 1156 57.16 1155.3 57.8C1154.53 58.44 1153.5 58.76 1152.16 58.696C1152.42 59.08 1152.8 59.336 1153.25 59.464C1153.63 59.592 1154.14 59.656 1154.78 59.656C1156.58 59.656 1157.86 58.76 1158.69 56.84C1159.46 54.92 1159.97 51.528 1160.22 46.536C1160.22 45.128 1160.29 43.464 1160.29 41.544C1160.29 39.624 1160.35 36.04 1160.35 30.92H1154.98V29H1182.75V30.92H1177.63V59.08H1182.75V61H1166.43V59.08H1172.19ZM1198.43 30.92V42.888H1202.66C1207.01 42.888 1210.4 43.656 1212.83 45.192C1215.26 46.728 1216.48 48.968 1216.48 51.848C1216.48 54.792 1215.26 57.096 1212.83 58.632C1210.4 60.232 1207.01 61 1202.66 61H1187.87V59.08H1192.99V30.92H1187.87V29H1204.51V30.92H1198.43ZM1202.59 44.808H1198.43V59.08H1202.66C1205.34 59.08 1207.39 58.504 1208.74 57.288C1210.02 56.136 1210.72 54.28 1210.72 51.784C1210.72 49.352 1210.08 47.56 1208.86 46.472C1207.58 45.384 1205.54 44.808 1202.59 44.808Z" fill="white"/>
<path d="M1253.96 62.088C1248.97 62.088 1245.06 60.488 1242.31 57.224C1239.5 54.024 1238.41 49.8 1239.05 44.68C1239.69 39.624 1241.8 35.464 1245.38 32.264C1248.97 29.064 1253.32 27.464 1258.38 27.464C1262.09 27.464 1264.97 28.296 1266.89 29.896C1268.81 31.496 1269.7 33.736 1269.45 36.68C1269.32 38.344 1268.68 39.624 1267.59 40.584C1266.5 41.608 1265.1 42.056 1263.37 42.056C1261.64 42.056 1260.36 41.608 1259.46 40.712C1258.57 39.816 1258.25 38.6 1258.38 37C1258.5 35.592 1258.95 34.44 1259.78 33.48C1260.62 32.52 1261.77 31.816 1263.18 31.432C1262.73 31.048 1262.22 30.792 1261.58 30.6C1260.94 30.408 1260.3 30.28 1259.53 30.28C1257.16 30.28 1255.3 31.432 1253.9 33.736C1252.49 36.04 1251.53 39.624 1251.02 44.552C1250.5 49.224 1250.7 52.744 1251.66 55.048C1252.62 57.352 1254.34 58.504 1256.84 58.504C1258.7 58.504 1260.36 57.8 1261.77 56.392C1263.18 54.984 1264.26 53 1264.9 50.568L1267.98 50.888C1266.95 54.472 1265.29 57.288 1262.86 59.208C1260.42 61.128 1257.42 62.088 1253.96 62.088ZM1320.03 62.024C1316.83 62.024 1314.52 61.128 1313.24 59.272C1311.9 57.48 1311.45 54.664 1311.96 50.952L1313.56 38.28C1313.76 36.36 1313.69 34.888 1313.31 33.992C1312.92 33.096 1312.28 32.584 1311.39 32.584C1310.24 32.584 1309.28 33.288 1308.51 34.632C1307.74 36.04 1307.1 38.152 1306.65 41.032L1304.16 61H1292.51L1295.39 38.28C1295.64 36.296 1295.58 34.824 1295.26 33.928C1294.88 33.032 1294.24 32.584 1293.28 32.584C1292 32.584 1290.91 33.416 1290.14 35.08C1289.31 36.744 1288.67 39.304 1288.28 42.76L1285.98 61H1274.4L1278.04 31.368H1273.69L1274.01 28.552C1277.08 28.552 1279.64 28.488 1281.69 28.36C1283.74 28.232 1285.21 27.976 1286.11 27.72L1288.03 28.36L1287.2 35.08C1288.22 32.52 1289.69 30.664 1291.48 29.384C1293.28 28.104 1295.45 27.464 1298.08 27.464C1300.19 27.464 1301.92 27.976 1303.32 28.872C1304.73 29.832 1305.69 31.176 1306.27 32.968C1307.36 31.176 1308.7 29.768 1310.36 28.872C1312.03 27.976 1313.95 27.464 1316.19 27.464C1319.45 27.464 1321.82 28.552 1323.36 30.6C1324.83 32.712 1325.34 35.72 1324.96 39.56L1323.16 54.28C1323.04 55.496 1323.04 56.392 1323.23 56.904C1323.36 57.48 1323.74 57.736 1324.25 57.736C1324.89 57.736 1325.47 57.224 1325.92 56.2C1326.36 55.176 1326.75 53.512 1327.07 51.336H1330.14C1329.5 55.496 1328.41 58.312 1326.88 59.784C1325.34 61.32 1323.1 62.024 1320.03 62.024ZM1355.58 53.896C1354.49 56.648 1353.02 58.696 1351.1 60.04C1349.18 61.448 1346.87 62.088 1344.18 62.088C1340.73 62.088 1338.23 61.064 1336.63 58.888C1335.03 56.776 1334.46 53.768 1334.9 49.928L1337.14 31.56H1332.79L1333.18 28.808C1336.7 28.808 1339.64 28.744 1342.07 28.616C1344.5 28.488 1346.23 28.232 1347.26 27.976L1349.18 28.552L1346.36 51.144C1346.1 53.192 1346.17 54.664 1346.62 55.56C1347 56.52 1347.77 56.968 1348.92 56.968C1350.33 56.968 1351.54 56.136 1352.5 54.408C1353.4 52.744 1354.1 50.12 1354.49 46.6L1356.34 31.56H1352.95L1353.4 28.808C1356.47 28.808 1359.16 28.744 1361.53 28.616C1363.9 28.488 1365.56 28.232 1366.46 27.976L1368.38 28.552L1365.24 54.28C1365.11 55.432 1365.11 56.328 1365.3 56.904C1365.5 57.48 1365.88 57.736 1366.39 57.736C1367.03 57.736 1367.61 57.288 1368.06 56.264C1368.44 55.24 1368.82 53.64 1369.14 51.336H1372.22C1371.58 55.496 1370.55 58.312 1369.08 59.784C1367.54 61.32 1365.3 62.024 1362.36 62.024C1360.31 62.024 1358.71 61.512 1357.56 60.488C1356.41 59.464 1355.7 57.864 1355.51 55.752C1355.51 55.752 1355.51 55.432 1355.58 54.856C1355.58 54.28 1355.58 53.96 1355.58 53.896ZM1388.59 47.752C1387.57 53.128 1386.35 56.904 1384.88 58.952C1383.35 61.064 1381.17 62.088 1378.23 62.088C1376.56 62.088 1375.28 61.576 1374.26 60.552C1373.23 59.528 1372.72 58.248 1372.72 56.712C1372.72 55.304 1373.17 54.024 1374.19 52.936C1375.22 51.848 1376.5 51.272 1378.03 51.272C1379.31 51.272 1380.27 51.656 1381.04 52.36C1381.81 53.128 1382.19 54.024 1382.19 55.048C1382.19 55.688 1382.07 56.328 1381.81 56.968C1381.55 57.672 1381.23 58.184 1380.91 58.44C1381.81 58.056 1382.64 57.096 1383.28 55.56C1383.92 54.024 1384.63 51.592 1385.27 48.328C1385.65 46.024 1386.1 43.272 1386.55 40.2C1386.99 37.128 1387.38 34.184 1387.7 31.368H1382.51L1382.9 28.552H1408.5L1405.36 54.6C1405.23 55.752 1405.23 56.584 1405.43 57.032C1405.62 57.544 1406 57.736 1406.51 57.736C1407.15 57.736 1407.73 57.224 1408.18 56.136C1408.63 55.112 1409.01 53.512 1409.33 51.336H1412.34C1411.76 55.432 1410.74 58.184 1409.27 59.72C1407.73 61.256 1405.55 62.024 1402.67 62.024C1399.28 62.024 1396.91 61.128 1395.57 59.336C1394.16 57.544 1393.71 54.728 1394.16 50.952L1396.53 31.368H1391.03C1390.51 35.4 1390.07 38.664 1389.68 41.224C1389.3 43.784 1388.91 45.96 1388.59 47.752ZM1448.37 51.336C1447.98 54.664 1446.25 57.224 1443.18 59.144C1440.11 61.064 1436.14 62.024 1431.28 62.024C1426.29 62.024 1422.77 60.872 1420.59 58.568C1418.41 56.264 1417.65 52.744 1418.22 48.008L1420.21 31.56H1415.85L1416.24 28.808C1419.76 28.808 1422.7 28.744 1425.13 28.616C1427.57 28.488 1429.29 28.232 1430.32 27.976L1432.24 28.552L1430.64 41.16C1431.41 40.904 1432.3 40.712 1433.26 40.584C1434.22 40.456 1435.25 40.392 1436.27 40.392C1440.11 40.392 1443.25 41.416 1445.55 43.4C1447.85 45.448 1448.75 48.072 1448.37 51.336ZM1432.05 58.12C1433.33 58.12 1434.35 57.544 1435.12 56.328C1435.89 55.112 1436.4 53.256 1436.72 50.696C1436.97 48.392 1436.78 46.664 1436.21 45.512C1435.57 44.36 1434.54 43.784 1433.01 43.784C1432.49 43.784 1431.98 43.848 1431.53 43.912C1431.09 44.04 1430.7 44.168 1430.32 44.296L1429.49 50.568C1429.1 53.384 1429.17 55.304 1429.55 56.456C1429.93 57.608 1430.77 58.12 1432.05 58.12ZM1493.76 51.208L1495.81 51.656C1495.04 54.984 1493.7 57.48 1491.72 59.144C1489.67 60.872 1487.17 61.704 1484.1 61.704C1479.62 61.704 1476.1 60.232 1473.48 57.288C1470.79 54.344 1469.51 50.248 1469.51 45.128C1469.51 39.944 1470.85 35.848 1473.67 32.776C1476.48 29.704 1480.13 28.168 1484.68 28.168C1487.88 28.168 1490.44 29.064 1492.42 30.792C1494.34 32.52 1495.36 34.824 1495.36 37.64C1495.36 38.984 1494.98 40.072 1494.28 40.84C1493.51 41.608 1492.55 41.992 1491.33 41.992C1489.92 41.992 1488.9 41.672 1488.13 40.904C1487.36 40.2 1487.04 39.176 1487.04 37.896C1487.04 36.744 1487.43 35.72 1488.2 34.952C1488.96 34.184 1490.05 33.736 1491.52 33.48C1491.01 32.456 1490.18 31.624 1489.09 31.112C1487.94 30.6 1486.6 30.28 1485 30.28C1482.05 30.28 1479.88 31.496 1478.47 33.864C1477.06 36.232 1476.42 40.008 1476.42 45.128C1476.42 49.736 1477.12 53.256 1478.53 55.688C1479.94 58.184 1481.92 59.4 1484.61 59.4C1486.98 59.4 1488.9 58.76 1490.37 57.48C1491.84 56.2 1493 54.088 1493.76 51.208ZM1522.9 58.888V61H1505.17V58.888H1510.74V30.984H1508.05C1505.68 30.984 1503.96 31.624 1502.87 32.904C1501.78 34.184 1501.27 36.168 1501.27 38.92V40.52H1499.16V28.936H1528.92V40.52H1526.87V38.92C1526.87 36.232 1526.29 34.248 1525.2 32.968C1524.05 31.688 1522.32 31.048 1520.02 30.984H1517.33V58.888H1522.9ZM1544.14 58.888H1549.2V61H1532.56V58.888H1537.55V30.984H1532.56V28.936H1549.2V30.984H1544.14V51.976L1558.03 34.12V30.984H1552.97V28.936H1569.55V30.984H1564.62V58.888H1569.55V61H1552.97V58.888H1558.03V37.704L1544.14 55.56V58.888ZM1595.81 58.888V30.984H1586.91C1586.91 35.464 1586.85 38.984 1586.79 41.672C1586.72 44.36 1586.66 46.6 1586.53 48.52C1586.15 53.512 1585.31 56.904 1584.16 58.824C1583.01 60.744 1581.09 61.704 1578.4 61.704C1576.61 61.704 1575.2 61.192 1574.11 60.168C1573.03 59.144 1572.51 57.608 1572.51 55.688C1572.51 54.408 1572.83 53.32 1573.6 52.424C1574.37 51.592 1575.39 51.144 1576.67 51.144C1577.83 51.144 1578.79 51.528 1579.49 52.168C1580.19 52.872 1580.58 53.768 1580.58 54.792C1580.58 55.944 1580.19 56.904 1579.43 57.544C1578.66 58.184 1577.57 58.504 1576.23 58.504C1576.42 58.888 1576.74 59.144 1577.19 59.272C1577.57 59.4 1578.15 59.464 1578.79 59.464C1580.45 59.464 1581.73 58.504 1582.56 56.584C1583.33 54.664 1583.84 51.336 1584.1 46.472C1584.16 45 1584.23 43.272 1584.23 41.224C1584.23 39.24 1584.29 35.848 1584.29 30.984H1578.91V28.936H1607.33V30.984H1602.4V58.888H1607.33V61H1590.5V58.888H1595.81ZM1623.7 30.984V42.568H1628.05C1632.41 42.568 1635.86 43.4 1638.29 44.936C1640.73 46.472 1642.01 48.712 1642.01 51.656C1642.01 54.664 1640.79 56.968 1638.36 58.568C1635.93 60.232 1632.47 61 1628.05 61H1612.12V58.888H1617.11V30.984H1612.12V28.936H1629.65V30.984H1623.7ZM1627.41 44.616H1623.7V58.888H1627.48C1630.04 58.888 1631.96 58.312 1633.24 57.096C1634.52 55.944 1635.16 54.088 1635.16 51.592C1635.16 49.16 1634.52 47.368 1633.37 46.28C1632.15 45.192 1630.17 44.616 1627.41 44.616ZM1677.46 61.64C1673.24 61.64 1669.98 60.168 1667.74 57.096C1665.43 54.024 1664.6 50.12 1665.18 45.256C1665.75 40.136 1667.48 36.04 1670.3 32.968C1673.11 29.896 1676.57 28.36 1680.73 28.36C1683.22 28.36 1685.34 29.064 1687.06 30.408C1688.79 31.752 1689.69 33.48 1689.75 35.592C1689.75 36.872 1689.37 37.96 1688.6 38.792C1687.83 39.624 1686.81 40.008 1685.53 40.008C1684.38 40.008 1683.48 39.752 1682.84 39.112C1682.2 38.472 1681.88 37.64 1681.88 36.616C1681.82 35.464 1682.14 34.44 1682.78 33.608C1683.42 32.776 1684.31 32.264 1685.4 32.136C1684.89 31.496 1684.18 31.048 1683.42 30.728C1682.58 30.408 1681.69 30.216 1680.66 30.216C1677.98 30.216 1675.8 31.496 1674.14 34.056C1672.47 36.616 1671.38 40.264 1670.87 44.872C1670.36 49.352 1670.81 52.936 1672.09 55.56C1673.37 58.184 1675.42 59.464 1678.23 59.464C1680.34 59.464 1682.2 58.76 1683.74 57.288C1685.27 55.88 1686.42 53.832 1687.06 51.272L1688.92 51.72C1687.96 55.176 1686.55 57.672 1684.7 59.272C1682.78 60.872 1680.41 61.64 1677.46 61.64ZM1733.49 61.64C1731.31 61.64 1729.71 61 1728.82 59.72C1727.86 58.44 1727.53 56.584 1727.86 54.024L1729.84 38.344C1730.1 36.04 1729.97 34.312 1729.46 33.16C1728.88 32.008 1727.92 31.368 1726.51 31.368C1724.72 31.368 1723.25 32.264 1722.1 34.056C1720.88 35.848 1719.98 38.536 1719.34 42.12L1716.91 61H1711.41L1714.35 38.344C1714.61 35.912 1714.54 34.184 1714.03 33.032C1713.52 31.944 1712.56 31.368 1711.15 31.368C1708.98 31.368 1707.31 32.52 1706.03 34.824C1704.75 37.128 1703.86 40.712 1703.28 45.448L1701.42 61H1695.98L1699.63 30.92H1694.13L1694.38 29C1697.46 29 1699.76 29 1701.23 28.872C1702.7 28.744 1703.6 28.616 1703.86 28.36L1704.5 29L1703.41 37.576C1704.24 34.504 1705.52 32.2 1707.18 30.664C1708.85 29.128 1710.9 28.36 1713.33 28.36C1715.25 28.36 1716.72 28.936 1717.87 30.024C1718.96 31.176 1719.6 32.712 1719.86 34.76C1720.75 32.648 1721.97 31.048 1723.44 29.96C1724.85 28.936 1726.58 28.36 1728.62 28.36C1731.18 28.36 1732.98 29.256 1734.13 30.92C1735.22 32.584 1735.6 35.08 1735.22 38.344L1733.23 54.984C1733.04 56.648 1733.1 57.8 1733.36 58.504C1733.62 59.208 1734.19 59.528 1735.09 59.528C1736.24 59.528 1737.14 58.888 1737.84 57.544C1738.54 56.2 1739.06 54.152 1739.44 51.336H1741.17C1740.53 55.432 1739.7 58.12 1738.54 59.528C1737.39 60.936 1735.66 61.64 1733.49 61.64ZM1755.05 61.64C1752.36 61.64 1750.31 60.744 1749.03 58.824C1747.69 56.968 1747.24 54.472 1747.63 51.272L1750.12 30.92H1744.62L1744.87 29C1748.14 29 1750.63 29 1752.3 28.872C1753.96 28.744 1754.92 28.616 1755.18 28.36L1755.82 29L1753.13 51.272C1752.81 53.704 1753 55.56 1753.71 56.776C1754.35 58.056 1755.5 58.632 1757.16 58.632C1759.4 58.632 1761.26 57.352 1762.79 54.792C1764.33 52.232 1765.35 48.584 1765.93 43.848L1767.47 30.92H1763.24L1763.5 29C1766.51 29 1768.68 29 1770.09 28.872C1771.43 28.808 1772.27 28.616 1772.52 28.36L1773.16 29L1770.03 54.984C1769.77 56.52 1769.83 57.672 1770.22 58.44C1770.54 59.208 1771.18 59.528 1772.07 59.528C1773.16 59.528 1774.06 58.888 1774.7 57.608C1775.34 56.328 1775.85 54.216 1776.23 51.272H1777.96C1777.32 55.496 1776.55 58.248 1775.53 59.592C1774.51 61 1772.97 61.64 1770.92 61.64C1768.87 61.64 1767.47 61.064 1766.63 59.784C1765.8 58.568 1765.55 56.648 1765.93 54.024L1766.51 49.352C1765.74 53.384 1764.33 56.456 1762.41 58.504C1760.49 60.616 1757.99 61.64 1755.05 61.64ZM1792.82 48.264C1791.93 53.128 1790.84 56.52 1789.56 58.568C1788.21 60.616 1786.29 61.64 1783.86 61.64C1782.01 61.64 1780.6 61.192 1779.7 60.232C1778.74 59.272 1778.36 57.992 1778.55 56.456C1778.61 55.432 1779.06 54.536 1779.83 53.832C1780.6 53.128 1781.49 52.744 1782.65 52.744C1783.8 52.744 1784.63 53.128 1785.27 53.832C1785.85 54.6 1786.04 55.496 1785.91 56.584C1785.78 57.352 1785.59 57.992 1785.27 58.504C1784.89 59.016 1784.44 59.4 1783.86 59.656C1785.4 59.656 1786.61 58.952 1787.57 57.544C1788.47 56.136 1789.3 53.768 1790.01 50.44C1790.45 48.2 1790.97 45.192 1791.61 41.416C1792.18 37.64 1792.69 34.12 1793.14 30.92H1788.15L1788.34 29H1809.33L1806.2 54.984C1806.01 56.648 1806.07 57.8 1806.33 58.504C1806.58 59.208 1807.16 59.528 1808.05 59.528C1809.21 59.528 1810.1 58.888 1810.81 57.544C1811.51 56.2 1812.02 54.152 1812.41 51.336H1814.13C1813.49 55.432 1812.66 58.12 1811.51 59.528C1810.36 60.936 1808.63 61.64 1806.45 61.64C1804.28 61.64 1802.68 61 1801.78 59.72C1800.82 58.44 1800.5 56.584 1800.82 54.024L1803.57 30.92H1795.57C1795 34.76 1794.49 38.088 1794.04 40.968C1793.59 43.912 1793.21 46.344 1792.82 48.264ZM1843.79 51.272C1843.41 54.472 1842 56.968 1839.57 58.824C1837.14 60.744 1834.19 61.64 1830.67 61.64C1826.96 61.64 1824.27 60.616 1822.61 58.504C1820.94 56.456 1820.43 53.32 1820.94 49.224L1823.18 30.92H1817.68L1817.94 29C1821.2 29 1823.7 29 1825.36 28.872C1827.02 28.744 1827.98 28.616 1828.24 28.36L1828.88 29L1827.22 42.696C1828.37 42.184 1829.52 41.736 1830.8 41.48C1832.08 41.224 1833.36 41.032 1834.64 41.032C1837.58 41.032 1839.95 41.992 1841.74 43.848C1843.47 45.768 1844.18 48.2 1843.79 51.272ZM1831.25 59.592C1833.04 59.592 1834.58 58.824 1835.86 57.288C1837.14 55.752 1837.9 53.768 1838.16 51.336C1838.42 48.712 1837.97 46.664 1836.94 45.256C1835.86 43.848 1834.26 43.144 1832.08 43.144C1831.18 43.144 1830.35 43.336 1829.46 43.592C1828.56 43.848 1827.79 44.232 1827.02 44.68L1826.45 49.352C1826 53.064 1826.13 55.752 1826.9 57.288C1827.66 58.824 1829.07 59.592 1831.25 59.592ZM1894.51 50.248L1898.15 50.504C1897.58 54.216 1896.11 57.16 1893.67 59.208C1891.24 61.256 1888.11 62.28 1884.39 62.28C1879.02 62.28 1874.67 60.616 1871.27 57.288C1867.88 53.96 1866.22 49.672 1866.22 44.424C1866.22 39.432 1867.95 35.272 1871.53 32.008C1875.11 28.744 1879.59 27.08 1885.03 27.08C1889.32 27.08 1892.59 27.976 1894.89 29.64C1897.13 31.368 1898.28 33.864 1898.28 37.128C1898.28 38.92 1897.71 40.392 1896.62 41.416C1895.47 42.504 1893.99 43.016 1892.07 43.016C1890.03 43.016 1888.49 42.504 1887.4 41.48C1886.31 40.456 1885.8 38.984 1885.8 37.128C1885.8 35.656 1886.19 34.44 1886.95 33.416C1887.72 32.392 1888.87 31.624 1890.41 31.112C1889.9 30.856 1889.39 30.6 1888.87 30.472C1888.3 30.344 1887.72 30.28 1887.08 30.28C1884.91 30.28 1883.31 31.368 1882.35 33.48C1881.39 35.592 1880.94 39.24 1880.94 44.424C1880.94 49.16 1881.45 52.616 1882.6 54.792C1883.69 56.968 1885.42 58.056 1887.72 58.056C1889.45 58.056 1890.92 57.352 1892.14 55.944C1893.35 54.536 1894.12 52.68 1894.51 50.248ZM1929.64 57.8V61H1906.28V57.8H1910.76V31.56H1910.38C1908.33 31.56 1906.79 32.328 1905.71 33.736C1904.55 35.144 1904.04 37.064 1904.04 39.496V40.52H1900.84V28.36H1935.08V40.52H1931.88V39.496C1931.88 37.064 1931.31 35.144 1930.22 33.736C1929.07 32.328 1927.53 31.56 1925.55 31.56H1925.16V57.8H1929.64ZM1955.9 57.8H1958.46V61H1937.66V57.8H1941.5V31.56H1937.66V28.36H1958.46V31.56H1955.9V48.072L1964.22 35.208V31.56H1961.66V28.36H1982.46V31.56H1978.62V57.8H1982.46V61H1961.66V57.8H1964.22V40.968L1955.9 53.832V57.8ZM2005.51 57.8V31.56H1999.81C1999.81 36.296 1999.75 39.944 1999.69 42.632C1999.62 45.32 1999.49 47.624 1999.37 49.48C1998.92 54.344 1998.02 57.672 1996.74 59.528C1995.46 61.384 1993.29 62.28 1990.28 62.28C1988.36 62.28 1986.89 61.768 1985.73 60.616C1984.58 59.464 1984.07 57.992 1984.07 56.2C1984.07 54.536 1984.52 53.192 1985.48 52.168C1986.44 51.144 1987.72 50.568 1989.38 50.568C1990.79 50.568 1991.94 51.016 1992.84 51.912C1993.67 52.808 1994.12 53.96 1994.12 55.368C1994.12 55.752 1994.05 56.136 1994.05 56.456C1993.99 56.776 1993.93 57.032 1993.86 57.224C1993.93 57.16 1993.99 57.032 1994.05 56.904C1994.05 56.776 1994.12 56.712 1994.18 56.584C1994.89 55.048 1995.4 52.616 1995.65 49.288C1995.91 45.96 1996.1 40.008 1996.1 31.56H1990.85V28.36H2023.75V31.56H2019.91V57.8H2023.75V61H2003.27V57.8H2005.51ZM2044.52 31.56V40.328H2049.7C2054.44 40.328 2058.15 41.224 2060.84 42.952C2063.46 44.744 2064.81 47.24 2064.81 50.568C2064.81 53.896 2063.46 56.52 2060.84 58.312C2058.15 60.104 2054.44 61 2049.7 61H2026.28V57.8H2030.12V31.56H2026.28V28.36H2049.64V31.56H2044.52ZM2045.48 43.528H2044.52V57.8H2045.54C2047.02 57.8 2048.17 57.16 2049.06 55.88C2049.96 54.6 2050.41 52.808 2050.41 50.504C2050.41 48.2 2049.96 46.472 2049.13 45.32C2048.3 44.168 2047.08 43.528 2045.48 43.528ZM2112.2 51.208L2114.25 51.656C2113.48 54.984 2112.14 57.48 2110.15 59.144C2108.11 60.872 2105.61 61.704 2102.54 61.704C2098.06 61.704 2094.54 60.232 2091.91 57.288C2089.23 54.344 2087.95 50.248 2087.95 45.128C2087.95 39.944 2089.29 35.848 2092.11 32.776C2094.92 29.704 2098.57 28.168 2103.11 28.168C2106.31 28.168 2108.87 29.064 2110.86 30.792C2112.78 32.52 2113.8 34.824 2113.8 37.64C2113.8 38.984 2113.42 40.072 2112.71 40.84C2111.95 41.608 2110.99 41.992 2109.77 41.992C2108.36 41.992 2107.34 41.672 2106.57 40.904C2105.8 40.2 2105.48 39.176 2105.48 37.896C2105.48 36.744 2105.87 35.72 2106.63 34.952C2107.4 34.184 2108.49 33.736 2109.96 33.48C2109.45 32.456 2108.62 31.624 2107.53 31.112C2106.38 30.6 2105.03 30.28 2103.43 30.28C2100.49 30.28 2098.31 31.496 2096.91 33.864C2095.5 36.232 2094.86 40.008 2094.86 45.128C2094.86 49.736 2095.56 53.256 2096.97 55.688C2098.38 58.184 2100.36 59.4 2103.05 59.4C2105.42 59.4 2107.34 58.76 2108.81 57.48C2110.28 56.2 2111.43 54.088 2112.2 51.208ZM2141.34 58.888V61H2123.61V58.888H2129.18V30.984H2126.49C2124.12 30.984 2122.39 31.624 2121.3 32.904C2120.22 34.184 2119.7 36.168 2119.7 38.92V40.52H2117.59V28.936H2147.35V40.52H2145.3V38.92C2145.3 36.232 2144.73 34.248 2143.64 32.968C2142.49 31.688 2140.76 31.048 2138.46 30.984H2135.77V58.888H2141.34ZM2162.58 58.888H2167.63V61H2150.99V58.888H2155.99V30.984H2150.99V28.936H2167.63V30.984H2162.58V51.976L2176.47 34.12V30.984H2171.41V28.936H2187.99V30.984H2183.06V58.888H2187.99V61H2171.41V58.888H2176.47V37.704L2162.58 55.56V58.888ZM2214.25 58.888V30.984H2205.35C2205.35 35.464 2205.29 38.984 2205.22 41.672C2205.16 44.36 2205.1 46.6 2204.97 48.52C2204.58 53.512 2203.75 56.904 2202.6 58.824C2201.45 60.744 2199.53 61.704 2196.84 61.704C2195.05 61.704 2193.64 61.192 2192.55 60.168C2191.46 59.144 2190.95 57.608 2190.95 55.688C2190.95 54.408 2191.27 53.32 2192.04 52.424C2192.81 51.592 2193.83 51.144 2195.11 51.144C2196.26 51.144 2197.22 51.528 2197.93 52.168C2198.63 52.872 2199.02 53.768 2199.02 54.792C2199.02 55.944 2198.63 56.904 2197.86 57.544C2197.1 58.184 2196.01 58.504 2194.66 58.504C2194.86 58.888 2195.18 59.144 2195.62 59.272C2196.01 59.4 2196.58 59.464 2197.22 59.464C2198.89 59.464 2200.17 58.504 2201 56.584C2201.77 54.664 2202.28 51.336 2202.54 46.472C2202.6 45 2202.66 43.272 2202.66 41.224C2202.66 39.24 2202.73 35.848 2202.73 30.984H2197.35V28.936H2225.77V30.984H2220.84V58.888H2225.77V61H2208.94V58.888H2214.25ZM2242.14 30.984V42.568H2246.49C2250.84 42.568 2254.3 43.4 2256.73 44.936C2259.16 46.472 2260.44 48.712 2260.44 51.656C2260.44 54.664 2259.23 56.968 2256.8 58.568C2254.36 60.232 2250.91 61 2246.49 61H2230.56V58.888H2235.55V30.984H2230.56V28.936H2248.09V30.984H2242.14ZM2245.85 44.616H2242.14V58.888H2245.92C2248.48 58.888 2250.4 58.312 2251.68 57.096C2252.96 55.944 2253.6 54.088 2253.6 51.592C2253.6 49.16 2252.96 47.368 2251.8 46.28C2250.59 45.192 2248.6 44.616 2245.85 44.616ZM2308.38 51.336L2310.17 51.848C2309.34 55.048 2308 57.48 2306.08 59.144C2304.16 60.808 2301.73 61.64 2298.78 61.64C2294.43 61.64 2291.04 60.232 2288.48 57.288C2285.92 54.344 2284.7 50.376 2284.7 45.256C2284.7 40.008 2285.98 35.912 2288.67 32.904C2291.36 29.896 2294.88 28.36 2299.36 28.36C2302.37 28.36 2304.86 29.256 2306.78 30.92C2308.7 32.648 2309.66 34.888 2309.66 37.704C2309.66 38.984 2309.28 40.008 2308.64 40.776C2308 41.544 2307.1 41.864 2305.95 41.864C2304.67 41.864 2303.65 41.544 2302.94 40.84C2302.24 40.2 2301.92 39.24 2301.92 38.024C2301.92 36.872 2302.24 35.912 2303.01 35.208C2303.71 34.504 2304.8 34.056 2306.21 33.8C2305.63 32.776 2304.73 31.88 2303.52 31.24C2302.24 30.6 2300.89 30.28 2299.36 30.28C2296.29 30.28 2294.05 31.496 2292.64 33.928C2291.17 36.36 2290.46 40.136 2290.46 45.256C2290.46 49.864 2291.17 53.384 2292.64 55.88C2294.05 58.376 2296.16 59.592 2298.85 59.592C2301.28 59.592 2303.26 58.952 2304.8 57.672C2306.33 56.392 2307.49 54.28 2308.38 51.336ZM2336.7 59.08V61H2319.74V59.08H2325.5V30.92H2322.49C2320.06 30.92 2318.33 31.56 2317.24 32.776C2316.09 34.056 2315.58 36.04 2315.58 38.856V40.52H2313.66V29H2342.78V40.52H2340.86V38.856C2340.86 36.04 2340.28 34.056 2339.19 32.776C2338.04 31.56 2336.31 30.92 2333.94 30.92H2330.94V59.08H2336.7ZM2357.18 59.08H2362.62V61H2346.62V59.08H2351.74V30.92H2346.62V29H2362.62V30.92H2357.18V52.552L2371.9 33.992V30.92H2366.46V29H2382.46V30.92H2377.34V59.08H2382.46V61H2366.46V59.08H2371.9V37.256L2357.18 55.816V59.08ZM2409.19 59.08V30.92H2399.78C2399.78 35.784 2399.72 39.432 2399.72 41.992C2399.66 44.552 2399.59 46.664 2399.46 48.456C2399.14 53.512 2398.44 56.968 2397.29 58.824C2396.14 60.744 2394.15 61.64 2391.46 61.64C2389.67 61.64 2388.26 61.128 2387.24 60.104C2386.15 59.08 2385.64 57.544 2385.64 55.624C2385.64 54.344 2385.96 53.256 2386.73 52.424C2387.43 51.656 2388.39 51.208 2389.61 51.208C2390.76 51.208 2391.66 51.592 2392.36 52.296C2393 53.064 2393.38 53.96 2393.38 55.048C2393.38 56.264 2393 57.16 2392.3 57.8C2391.53 58.44 2390.5 58.76 2389.16 58.696C2389.42 59.08 2389.8 59.336 2390.25 59.464C2390.63 59.592 2391.14 59.656 2391.78 59.656C2393.58 59.656 2394.86 58.76 2395.69 56.84C2396.46 54.92 2396.97 51.528 2397.22 46.536C2397.22 45.128 2397.29 43.464 2397.29 41.544C2397.29 39.624 2397.35 36.04 2397.35 30.92H2391.98V29H2419.75V30.92H2414.63V59.08H2419.75V61H2403.43V59.08H2409.19ZM2435.43 30.92V42.888H2439.66C2444.01 42.888 2447.4 43.656 2449.83 45.192C2452.26 46.728 2453.48 48.968 2453.48 51.848C2453.48 54.792 2452.26 57.096 2449.83 58.632C2447.4 60.232 2444.01 61 2439.66 61H2424.87V59.08H2429.99V30.92H2424.87V29H2441.51V30.92H2435.43ZM2439.59 44.808H2435.43V59.08H2439.66C2442.34 59.08 2444.39 58.504 2445.74 57.288C2447.02 56.136 2447.72 54.28 2447.72 51.784C2447.72 49.352 2447.08 47.56 2445.86 46.472C2444.58 45.384 2442.54 44.808 2439.59 44.808Z" fill="white"/>
<path d="M2487.96 62.088C2482.97 62.088 2479.06 60.488 2476.31 57.224C2473.5 54.024 2472.41 49.8 2473.05 44.68C2473.69 39.624 2475.8 35.464 2479.38 32.264C2482.97 29.064 2487.32 27.464 2492.38 27.464C2496.09 27.464 2498.97 28.296 2500.89 29.896C2502.81 31.496 2503.7 33.736 2503.45 36.68C2503.32 38.344 2502.68 39.624 2501.59 40.584C2500.5 41.608 2499.1 42.056 2497.37 42.056C2495.64 42.056 2494.36 41.608 2493.46 40.712C2492.57 39.816 2492.25 38.6 2492.38 37C2492.5 35.592 2492.95 34.44 2493.78 33.48C2494.62 32.52 2495.77 31.816 2497.18 31.432C2496.73 31.048 2496.22 30.792 2495.58 30.6C2494.94 30.408 2494.3 30.28 2493.53 30.28C2491.16 30.28 2489.3 31.432 2487.9 33.736C2486.49 36.04 2485.53 39.624 2485.02 44.552C2484.5 49.224 2484.7 52.744 2485.66 55.048C2486.62 57.352 2488.34 58.504 2490.84 58.504C2492.7 58.504 2494.36 57.8 2495.77 56.392C2497.18 54.984 2498.26 53 2498.9 50.568L2501.98 50.888C2500.95 54.472 2499.29 57.288 2496.86 59.208C2494.42 61.128 2491.42 62.088 2487.96 62.088ZM2554.03 62.024C2550.83 62.024 2548.52 61.128 2547.24 59.272C2545.9 57.48 2545.45 54.664 2545.96 50.952L2547.56 38.28C2547.76 36.36 2547.69 34.888 2547.31 33.992C2546.92 33.096 2546.28 32.584 2545.39 32.584C2544.24 32.584 2543.28 33.288 2542.51 34.632C2541.74 36.04 2541.1 38.152 2540.65 41.032L2538.16 61H2526.51L2529.39 38.28C2529.64 36.296 2529.58 34.824 2529.26 33.928C2528.88 33.032 2528.24 32.584 2527.28 32.584C2526 32.584 2524.91 33.416 2524.14 35.08C2523.31 36.744 2522.67 39.304 2522.28 42.76L2519.98 61H2508.4L2512.04 31.368H2507.69L2508.01 28.552C2511.08 28.552 2513.64 28.488 2515.69 28.36C2517.74 28.232 2519.21 27.976 2520.11 27.72L2522.03 28.36L2521.2 35.08C2522.22 32.52 2523.69 30.664 2525.48 29.384C2527.28 28.104 2529.45 27.464 2532.08 27.464C2534.19 27.464 2535.92 27.976 2537.32 28.872C2538.73 29.832 2539.69 31.176 2540.27 32.968C2541.36 31.176 2542.7 29.768 2544.36 28.872C2546.03 27.976 2547.95 27.464 2550.19 27.464C2553.45 27.464 2555.82 28.552 2557.36 30.6C2558.83 32.712 2559.34 35.72 2558.96 39.56L2557.16 54.28C2557.04 55.496 2557.04 56.392 2557.23 56.904C2557.36 57.48 2557.74 57.736 2558.25 57.736C2558.89 57.736 2559.47 57.224 2559.92 56.2C2560.36 55.176 2560.75 53.512 2561.07 51.336H2564.14C2563.5 55.496 2562.41 58.312 2560.88 59.784C2559.34 61.32 2557.1 62.024 2554.03 62.024ZM2589.58 53.896C2588.49 56.648 2587.02 58.696 2585.1 60.04C2583.18 61.448 2580.87 62.088 2578.18 62.088C2574.73 62.088 2572.23 61.064 2570.63 58.888C2569.03 56.776 2568.46 53.768 2568.9 49.928L2571.14 31.56H2566.79L2567.18 28.808C2570.7 28.808 2573.64 28.744 2576.07 28.616C2578.5 28.488 2580.23 28.232 2581.26 27.976L2583.18 28.552L2580.36 51.144C2580.1 53.192 2580.17 54.664 2580.62 55.56C2581 56.52 2581.77 56.968 2582.92 56.968C2584.33 56.968 2585.54 56.136 2586.5 54.408C2587.4 52.744 2588.1 50.12 2588.49 46.6L2590.34 31.56H2586.95L2587.4 28.808C2590.47 28.808 2593.16 28.744 2595.53 28.616C2597.9 28.488 2599.56 28.232 2600.46 27.976L2602.38 28.552L2599.24 54.28C2599.11 55.432 2599.11 56.328 2599.3 56.904C2599.5 57.48 2599.88 57.736 2600.39 57.736C2601.03 57.736 2601.61 57.288 2602.06 56.264C2602.44 55.24 2602.82 53.64 2603.14 51.336H2606.22C2605.58 55.496 2604.55 58.312 2603.08 59.784C2601.54 61.32 2599.3 62.024 2596.36 62.024C2594.31 62.024 2592.71 61.512 2591.56 60.488C2590.41 59.464 2589.7 57.864 2589.51 55.752C2589.51 55.752 2589.51 55.432 2589.58 54.856C2589.58 54.28 2589.58 53.96 2589.58 53.896ZM2622.59 47.752C2621.57 53.128 2620.35 56.904 2618.88 58.952C2617.35 61.064 2615.17 62.088 2612.23 62.088C2610.56 62.088 2609.28 61.576 2608.26 60.552C2607.23 59.528 2606.72 58.248 2606.72 56.712C2606.72 55.304 2607.17 54.024 2608.19 52.936C2609.22 51.848 2610.5 51.272 2612.03 51.272C2613.31 51.272 2614.27 51.656 2615.04 52.36C2615.81 53.128 2616.19 54.024 2616.19 55.048C2616.19 55.688 2616.07 56.328 2615.81 56.968C2615.55 57.672 2615.23 58.184 2614.91 58.44C2615.81 58.056 2616.64 57.096 2617.28 55.56C2617.92 54.024 2618.63 51.592 2619.27 48.328C2619.65 46.024 2620.1 43.272 2620.55 40.2C2620.99 37.128 2621.38 34.184 2621.7 31.368H2616.51L2616.9 28.552H2642.5L2639.36 54.6C2639.23 55.752 2639.23 56.584 2639.43 57.032C2639.62 57.544 2640 57.736 2640.51 57.736C2641.15 57.736 2641.73 57.224 2642.18 56.136C2642.63 55.112 2643.01 53.512 2643.33 51.336H2646.34C2645.76 55.432 2644.74 58.184 2643.27 59.72C2641.73 61.256 2639.55 62.024 2636.67 62.024C2633.28 62.024 2630.91 61.128 2629.57 59.336C2628.16 57.544 2627.71 54.728 2628.16 50.952L2630.53 31.368H2625.03C2624.51 35.4 2624.07 38.664 2623.68 41.224C2623.3 43.784 2622.91 45.96 2622.59 47.752ZM2682.37 51.336C2681.98 54.664 2680.25 57.224 2677.18 59.144C2674.11 61.064 2670.14 62.024 2665.28 62.024C2660.29 62.024 2656.77 60.872 2654.59 58.568C2652.41 56.264 2651.65 52.744 2652.22 48.008L2654.21 31.56H2649.85L2650.24 28.808C2653.76 28.808 2656.7 28.744 2659.13 28.616C2661.57 28.488 2663.29 28.232 2664.32 27.976L2666.24 28.552L2664.64 41.16C2665.41 40.904 2666.3 40.712 2667.26 40.584C2668.22 40.456 2669.25 40.392 2670.27 40.392C2674.11 40.392 2677.25 41.416 2679.55 43.4C2681.85 45.448 2682.75 48.072 2682.37 51.336ZM2666.05 58.12C2667.33 58.12 2668.35 57.544 2669.12 56.328C2669.89 55.112 2670.4 53.256 2670.72 50.696C2670.97 48.392 2670.78 46.664 2670.21 45.512C2669.57 44.36 2668.54 43.784 2667.01 43.784C2666.49 43.784 2665.98 43.848 2665.53 43.912C2665.09 44.04 2664.7 44.168 2664.32 44.296L2663.49 50.568C2663.1 53.384 2663.17 55.304 2663.55 56.456C2663.93 57.608 2664.77 58.12 2666.05 58.12ZM2727.76 51.208L2729.81 51.656C2729.04 54.984 2727.7 57.48 2725.72 59.144C2723.67 60.872 2721.17 61.704 2718.1 61.704C2713.62 61.704 2710.1 60.232 2707.48 57.288C2704.79 54.344 2703.51 50.248 2703.51 45.128C2703.51 39.944 2704.85 35.848 2707.67 32.776C2710.48 29.704 2714.13 28.168 2718.68 28.168C2721.88 28.168 2724.44 29.064 2726.42 30.792C2728.34 32.52 2729.36 34.824 2729.36 37.64C2729.36 38.984 2728.98 40.072 2728.28 40.84C2727.51 41.608 2726.55 41.992 2725.33 41.992C2723.92 41.992 2722.9 41.672 2722.13 40.904C2721.36 40.2 2721.04 39.176 2721.04 37.896C2721.04 36.744 2721.43 35.72 2722.2 34.952C2722.96 34.184 2724.05 33.736 2725.52 33.48C2725.01 32.456 2724.18 31.624 2723.09 31.112C2721.94 30.6 2720.6 30.28 2719 30.28C2716.05 30.28 2713.88 31.496 2712.47 33.864C2711.06 36.232 2710.42 40.008 2710.42 45.128C2710.42 49.736 2711.12 53.256 2712.53 55.688C2713.94 58.184 2715.92 59.4 2718.61 59.4C2720.98 59.4 2722.9 58.76 2724.37 57.48C2725.84 56.2 2727 54.088 2727.76 51.208ZM2756.9 58.888V61H2739.17V58.888H2744.74V30.984H2742.05C2739.68 30.984 2737.96 31.624 2736.87 32.904C2735.78 34.184 2735.27 36.168 2735.27 38.92V40.52H2733.16V28.936H2762.92V40.52H2760.87V38.92C2760.87 36.232 2760.29 34.248 2759.2 32.968C2758.05 31.688 2756.32 31.048 2754.02 30.984H2751.33V58.888H2756.9ZM2778.14 58.888H2783.2V61H2766.56V58.888H2771.55V30.984H2766.56V28.936H2783.2V30.984H2778.14V51.976L2792.03 34.12V30.984H2786.97V28.936H2803.55V30.984H2798.62V58.888H2803.55V61H2786.97V58.888H2792.03V37.704L2778.14 55.56V58.888ZM2829.81 58.888V30.984H2820.91C2820.91 35.464 2820.85 38.984 2820.79 41.672C2820.72 44.36 2820.66 46.6 2820.53 48.52C2820.15 53.512 2819.31 56.904 2818.16 58.824C2817.01 60.744 2815.09 61.704 2812.4 61.704C2810.61 61.704 2809.2 61.192 2808.11 60.168C2807.03 59.144 2806.51 57.608 2806.51 55.688C2806.51 54.408 2806.83 53.32 2807.6 52.424C2808.37 51.592 2809.39 51.144 2810.67 51.144C2811.83 51.144 2812.79 51.528 2813.49 52.168C2814.19 52.872 2814.58 53.768 2814.58 54.792C2814.58 55.944 2814.19 56.904 2813.43 57.544C2812.66 58.184 2811.57 58.504 2810.23 58.504C2810.42 58.888 2810.74 59.144 2811.19 59.272C2811.57 59.4 2812.15 59.464 2812.79 59.464C2814.45 59.464 2815.73 58.504 2816.56 56.584C2817.33 54.664 2817.84 51.336 2818.1 46.472C2818.16 45 2818.23 43.272 2818.23 41.224C2818.23 39.24 2818.29 35.848 2818.29 30.984H2812.91V28.936H2841.33V30.984H2836.4V58.888H2841.33V61H2824.5V58.888H2829.81ZM2857.7 30.984V42.568H2862.05C2866.41 42.568 2869.86 43.4 2872.29 44.936C2874.73 46.472 2876.01 48.712 2876.01 51.656C2876.01 54.664 2874.79 56.968 2872.36 58.568C2869.93 60.232 2866.47 61 2862.05 61H2846.12V58.888H2851.11V30.984H2846.12V28.936H2863.65V30.984H2857.7ZM2861.41 44.616H2857.7V58.888H2861.48C2864.04 58.888 2865.96 58.312 2867.24 57.096C2868.52 55.944 2869.16 54.088 2869.16 51.592C2869.16 49.16 2868.52 47.368 2867.37 46.28C2866.15 45.192 2864.17 44.616 2861.41 44.616ZM2911.46 61.64C2907.24 61.64 2903.98 60.168 2901.74 57.096C2899.43 54.024 2898.6 50.12 2899.18 45.256C2899.75 40.136 2901.48 36.04 2904.3 32.968C2907.11 29.896 2910.57 28.36 2914.73 28.36C2917.22 28.36 2919.34 29.064 2921.06 30.408C2922.79 31.752 2923.69 33.48 2923.75 35.592C2923.75 36.872 2923.37 37.96 2922.6 38.792C2921.83 39.624 2920.81 40.008 2919.53 40.008C2918.38 40.008 2917.48 39.752 2916.84 39.112C2916.2 38.472 2915.88 37.64 2915.88 36.616C2915.82 35.464 2916.14 34.44 2916.78 33.608C2917.42 32.776 2918.31 32.264 2919.4 32.136C2918.89 31.496 2918.18 31.048 2917.42 30.728C2916.58 30.408 2915.69 30.216 2914.66 30.216C2911.98 30.216 2909.8 31.496 2908.14 34.056C2906.47 36.616 2905.38 40.264 2904.87 44.872C2904.36 49.352 2904.81 52.936 2906.09 55.56C2907.37 58.184 2909.42 59.464 2912.23 59.464C2914.34 59.464 2916.2 58.76 2917.74 57.288C2919.27 55.88 2920.42 53.832 2921.06 51.272L2922.92 51.72C2921.96 55.176 2920.55 57.672 2918.7 59.272C2916.78 60.872 2914.41 61.64 2911.46 61.64ZM2967.49 61.64C2965.31 61.64 2963.71 61 2962.82 59.72C2961.86 58.44 2961.53 56.584 2961.86 54.024L2963.84 38.344C2964.1 36.04 2963.97 34.312 2963.46 33.16C2962.88 32.008 2961.92 31.368 2960.51 31.368C2958.72 31.368 2957.25 32.264 2956.1 34.056C2954.88 35.848 2953.98 38.536 2953.34 42.12L2950.91 61H2945.41L2948.35 38.344C2948.61 35.912 2948.54 34.184 2948.03 33.032C2947.52 31.944 2946.56 31.368 2945.15 31.368C2942.98 31.368 2941.31 32.52 2940.03 34.824C2938.75 37.128 2937.86 40.712 2937.28 45.448L2935.42 61H2929.98L2933.63 30.92H2928.13L2928.38 29C2931.46 29 2933.76 29 2935.23 28.872C2936.7 28.744 2937.6 28.616 2937.86 28.36L2938.5 29L2937.41 37.576C2938.24 34.504 2939.52 32.2 2941.18 30.664C2942.85 29.128 2944.9 28.36 2947.33 28.36C2949.25 28.36 2950.72 28.936 2951.87 30.024C2952.96 31.176 2953.6 32.712 2953.86 34.76C2954.75 32.648 2955.97 31.048 2957.44 29.96C2958.85 28.936 2960.58 28.36 2962.62 28.36C2965.18 28.36 2966.98 29.256 2968.13 30.92C2969.22 32.584 2969.6 35.08 2969.22 38.344L2967.23 54.984C2967.04 56.648 2967.1 57.8 2967.36 58.504C2967.62 59.208 2968.19 59.528 2969.09 59.528C2970.24 59.528 2971.14 58.888 2971.84 57.544C2972.54 56.2 2973.06 54.152 2973.44 51.336H2975.17C2974.53 55.432 2973.7 58.12 2972.54 59.528C2971.39 60.936 2969.66 61.64 2967.49 61.64ZM2989.05 61.64C2986.36 61.64 2984.31 60.744 2983.03 58.824C2981.69 56.968 2981.24 54.472 2981.63 51.272L2984.12 30.92H2978.62L2978.87 29C2982.14 29 2984.63 29 2986.3 28.872C2987.96 28.744 2988.92 28.616 2989.18 28.36L2989.82 29L2987.13 51.272C2986.81 53.704 2987 55.56 2987.71 56.776C2988.35 58.056 2989.5 58.632 2991.16 58.632C2993.4 58.632 2995.26 57.352 2996.79 54.792C2998.33 52.232 2999.35 48.584 2999.93 43.848L3001.47 30.92H2997.24L2997.5 29C3000.51 29 3002.68 29 3004.09 28.872C3005.43 28.808 3006.27 28.616 3006.52 28.36L3007.16 29L3004.03 54.984C3003.77 56.52 3003.83 57.672 3004.22 58.44C3004.54 59.208 3005.18 59.528 3006.07 59.528C3007.16 59.528 3008.06 58.888 3008.7 57.608C3009.34 56.328 3009.85 54.216 3010.23 51.272H3011.96C3011.32 55.496 3010.55 58.248 3009.53 59.592C3008.51 61 3006.97 61.64 3004.92 61.64C3002.87 61.64 3001.47 61.064 3000.63 59.784C2999.8 58.568 2999.55 56.648 2999.93 54.024L3000.51 49.352C2999.74 53.384 2998.33 56.456 2996.41 58.504C2994.49 60.616 2991.99 61.64 2989.05 61.64ZM3026.82 48.264C3025.93 53.128 3024.84 56.52 3023.56 58.568C3022.21 60.616 3020.29 61.64 3017.86 61.64C3016.01 61.64 3014.6 61.192 3013.7 60.232C3012.74 59.272 3012.36 57.992 3012.55 56.456C3012.61 55.432 3013.06 54.536 3013.83 53.832C3014.6 53.128 3015.49 52.744 3016.65 52.744C3017.8 52.744 3018.63 53.128 3019.27 53.832C3019.85 54.6 3020.04 55.496 3019.91 56.584C3019.78 57.352 3019.59 57.992 3019.27 58.504C3018.89 59.016 3018.44 59.4 3017.86 59.656C3019.4 59.656 3020.61 58.952 3021.57 57.544C3022.47 56.136 3023.3 53.768 3024.01 50.44C3024.45 48.2 3024.97 45.192 3025.61 41.416C3026.18 37.64 3026.69 34.12 3027.14 30.92H3022.15L3022.34 29H3043.33L3040.2 54.984C3040.01 56.648 3040.07 57.8 3040.33 58.504C3040.58 59.208 3041.16 59.528 3042.05 59.528C3043.21 59.528 3044.1 58.888 3044.81 57.544C3045.51 56.2 3046.02 54.152 3046.41 51.336H3048.13C3047.49 55.432 3046.66 58.12 3045.51 59.528C3044.36 60.936 3042.63 61.64 3040.45 61.64C3038.28 61.64 3036.68 61 3035.78 59.72C3034.82 58.44 3034.5 56.584 3034.82 54.024L3037.57 30.92H3029.57C3029 34.76 3028.49 38.088 3028.04 40.968C3027.59 43.912 3027.21 46.344 3026.82 48.264ZM3077.79 51.272C3077.41 54.472 3076 56.968 3073.57 58.824C3071.14 60.744 3068.19 61.64 3064.67 61.64C3060.96 61.64 3058.27 60.616 3056.61 58.504C3054.94 56.456 3054.43 53.32 3054.94 49.224L3057.18 30.92H3051.68L3051.94 29C3055.2 29 3057.7 29 3059.36 28.872C3061.02 28.744 3061.98 28.616 3062.24 28.36L3062.88 29L3061.22 42.696C3062.37 42.184 3063.52 41.736 3064.8 41.48C3066.08 41.224 3067.36 41.032 3068.64 41.032C3071.58 41.032 3073.95 41.992 3075.74 43.848C3077.47 45.768 3078.18 48.2 3077.79 51.272ZM3065.25 59.592C3067.04 59.592 3068.58 58.824 3069.86 57.288C3071.14 55.752 3071.9 53.768 3072.16 51.336C3072.42 48.712 3071.97 46.664 3070.94 45.256C3069.86 43.848 3068.26 43.144 3066.08 43.144C3065.18 43.144 3064.35 43.336 3063.46 43.592C3062.56 43.848 3061.79 44.232 3061.02 44.68L3060.45 49.352C3060 53.064 3060.13 55.752 3060.9 57.288C3061.66 58.824 3063.07 59.592 3065.25 59.592ZM3128.51 50.248L3132.15 50.504C3131.58 54.216 3130.11 57.16 3127.67 59.208C3125.24 61.256 3122.11 62.28 3118.39 62.28C3113.02 62.28 3108.67 60.616 3105.27 57.288C3101.88 53.96 3100.22 49.672 3100.22 44.424C3100.22 39.432 3101.95 35.272 3105.53 32.008C3109.11 28.744 3113.59 27.08 3119.03 27.08C3123.32 27.08 3126.59 27.976 3128.89 29.64C3131.13 31.368 3132.28 33.864 3132.28 37.128C3132.28 38.92 3131.71 40.392 3130.62 41.416C3129.47 42.504 3127.99 43.016 3126.07 43.016C3124.03 43.016 3122.49 42.504 3121.4 41.48C3120.31 40.456 3119.8 38.984 3119.8 37.128C3119.8 35.656 3120.19 34.44 3120.95 33.416C3121.72 32.392 3122.87 31.624 3124.41 31.112C3123.9 30.856 3123.39 30.6 3122.87 30.472C3122.3 30.344 3121.72 30.28 3121.08 30.28C3118.91 30.28 3117.31 31.368 3116.35 33.48C3115.39 35.592 3114.94 39.24 3114.94 44.424C3114.94 49.16 3115.45 52.616 3116.6 54.792C3117.69 56.968 3119.42 58.056 3121.72 58.056C3123.45 58.056 3124.92 57.352 3126.14 55.944C3127.35 54.536 3128.12 52.68 3128.51 50.248ZM3163.64 57.8V61H3140.28V57.8H3144.76V31.56H3144.38C3142.33 31.56 3140.79 32.328 3139.71 33.736C3138.55 35.144 3138.04 37.064 3138.04 39.496V40.52H3134.84V28.36H3169.08V40.52H3165.88V39.496C3165.88 37.064 3165.31 35.144 3164.22 33.736C3163.07 32.328 3161.53 31.56 3159.55 31.56H3159.16V57.8H3163.64ZM3189.9 57.8H3192.46V61H3171.66V57.8H3175.5V31.56H3171.66V28.36H3192.46V31.56H3189.9V48.072L3198.22 35.208V31.56H3195.66V28.36H3216.46V31.56H3212.62V57.8H3216.46V61H3195.66V57.8H3198.22V40.968L3189.9 53.832V57.8ZM3239.51 57.8V31.56H3233.81C3233.81 36.296 3233.75 39.944 3233.69 42.632C3233.62 45.32 3233.49 47.624 3233.37 49.48C3232.92 54.344 3232.02 57.672 3230.74 59.528C3229.46 61.384 3227.29 62.28 3224.28 62.28C3222.36 62.28 3220.89 61.768 3219.73 60.616C3218.58 59.464 3218.07 57.992 3218.07 56.2C3218.07 54.536 3218.52 53.192 3219.48 52.168C3220.44 51.144 3221.72 50.568 3223.38 50.568C3224.79 50.568 3225.94 51.016 3226.84 51.912C3227.67 52.808 3228.12 53.96 3228.12 55.368C3228.12 55.752 3228.05 56.136 3228.05 56.456C3227.99 56.776 3227.93 57.032 3227.86 57.224C3227.93 57.16 3227.99 57.032 3228.05 56.904C3228.05 56.776 3228.12 56.712 3228.18 56.584C3228.89 55.048 3229.4 52.616 3229.65 49.288C3229.91 45.96 3230.1 40.008 3230.1 31.56H3224.85V28.36H3257.75V31.56H3253.91V57.8H3257.75V61H3237.27V57.8H3239.51ZM3278.52 31.56V40.328H3283.7C3288.44 40.328 3292.15 41.224 3294.84 42.952C3297.46 44.744 3298.81 47.24 3298.81 50.568C3298.81 53.896 3297.46 56.52 3294.84 58.312C3292.15 60.104 3288.44 61 3283.7 61H3260.28V57.8H3264.12V31.56H3260.28V28.36H3283.64V31.56H3278.52ZM3279.48 43.528H3278.52V57.8H3279.54C3281.02 57.8 3282.17 57.16 3283.06 55.88C3283.96 54.6 3284.41 52.808 3284.41 50.504C3284.41 48.2 3283.96 46.472 3283.13 45.32C3282.3 44.168 3281.08 43.528 3279.48 43.528ZM3346.2 51.208L3348.25 51.656C3347.48 54.984 3346.14 57.48 3344.15 59.144C3342.11 60.872 3339.61 61.704 3336.54 61.704C3332.06 61.704 3328.54 60.232 3325.91 57.288C3323.23 54.344 3321.95 50.248 3321.95 45.128C3321.95 39.944 3323.29 35.848 3326.11 32.776C3328.92 29.704 3332.57 28.168 3337.11 28.168C3340.31 28.168 3342.87 29.064 3344.86 30.792C3346.78 32.52 3347.8 34.824 3347.8 37.64C3347.8 38.984 3347.42 40.072 3346.71 40.84C3345.95 41.608 3344.99 41.992 3343.77 41.992C3342.36 41.992 3341.34 41.672 3340.57 40.904C3339.8 40.2 3339.48 39.176 3339.48 37.896C3339.48 36.744 3339.87 35.72 3340.63 34.952C3341.4 34.184 3342.49 33.736 3343.96 33.48C3343.45 32.456 3342.62 31.624 3341.53 31.112C3340.38 30.6 3339.03 30.28 3337.43 30.28C3334.49 30.28 3332.31 31.496 3330.91 33.864C3329.5 36.232 3328.86 40.008 3328.86 45.128C3328.86 49.736 3329.56 53.256 3330.97 55.688C3332.38 58.184 3334.36 59.4 3337.05 59.4C3339.42 59.4 3341.34 58.76 3342.81 57.48C3344.28 56.2 3345.43 54.088 3346.2 51.208ZM3375.34 58.888V61H3357.61V58.888H3363.18V30.984H3360.49C3358.12 30.984 3356.39 31.624 3355.3 32.904C3354.22 34.184 3353.7 36.168 3353.7 38.92V40.52H3351.59V28.936H3381.35V40.52H3379.3V38.92C3379.3 36.232 3378.73 34.248 3377.64 32.968C3376.49 31.688 3374.76 31.048 3372.46 30.984H3369.77V58.888H3375.34ZM3396.58 58.888H3401.63V61H3384.99V58.888H3389.99V30.984H3384.99V28.936H3401.63V30.984H3396.58V51.976L3410.47 34.12V30.984H3405.41V28.936H3421.99V30.984H3417.06V58.888H3421.99V61H3405.41V58.888H3410.47V37.704L3396.58 55.56V58.888ZM3448.25 58.888V30.984H3439.35C3439.35 35.464 3439.29 38.984 3439.22 41.672C3439.16 44.36 3439.1 46.6 3438.97 48.52C3438.58 53.512 3437.75 56.904 3436.6 58.824C3435.45 60.744 3433.53 61.704 3430.84 61.704C3429.05 61.704 3427.64 61.192 3426.55 60.168C3425.46 59.144 3424.95 57.608 3424.95 55.688C3424.95 54.408 3425.27 53.32 3426.04 52.424C3426.81 51.592 3427.83 51.144 3429.11 51.144C3430.26 51.144 3431.22 51.528 3431.93 52.168C3432.63 52.872 3433.02 53.768 3433.02 54.792C3433.02 55.944 3432.63 56.904 3431.86 57.544C3431.1 58.184 3430.01 58.504 3428.66 58.504C3428.86 58.888 3429.18 59.144 3429.62 59.272C3430.01 59.4 3430.58 59.464 3431.22 59.464C3432.89 59.464 3434.17 58.504 3435 56.584C3435.77 54.664 3436.28 51.336 3436.54 46.472C3436.6 45 3436.66 43.272 3436.66 41.224C3436.66 39.24 3436.73 35.848 3436.73 30.984H3431.35V28.936H3459.77V30.984H3454.84V58.888H3459.77V61H3442.94V58.888H3448.25ZM3476.14 30.984V42.568H3480.49C3484.84 42.568 3488.3 43.4 3490.73 44.936C3493.16 46.472 3494.44 48.712 3494.44 51.656C3494.44 54.664 3493.23 56.968 3490.8 58.568C3488.36 60.232 3484.91 61 3480.49 61H3464.56V58.888H3469.55V30.984H3464.56V28.936H3482.09V30.984H3476.14ZM3479.85 44.616H3476.14V58.888H3479.92C3482.48 58.888 3484.4 58.312 3485.68 57.096C3486.96 55.944 3487.6 54.088 3487.6 51.592C3487.6 49.16 3486.96 47.368 3485.8 46.28C3484.59 45.192 3482.6 44.616 3479.85 44.616ZM3542.38 51.336L3544.17 51.848C3543.34 55.048 3542 57.48 3540.08 59.144C3538.16 60.808 3535.73 61.64 3532.78 61.64C3528.43 61.64 3525.04 60.232 3522.48 57.288C3519.92 54.344 3518.7 50.376 3518.7 45.256C3518.7 40.008 3519.98 35.912 3522.67 32.904C3525.36 29.896 3528.88 28.36 3533.36 28.36C3536.37 28.36 3538.86 29.256 3540.78 30.92C3542.7 32.648 3543.66 34.888 3543.66 37.704C3543.66 38.984 3543.28 40.008 3542.64 40.776C3542 41.544 3541.1 41.864 3539.95 41.864C3538.67 41.864 3537.65 41.544 3536.94 40.84C3536.24 40.2 3535.92 39.24 3535.92 38.024C3535.92 36.872 3536.24 35.912 3537.01 35.208C3537.71 34.504 3538.8 34.056 3540.21 33.8C3539.63 32.776 3538.73 31.88 3537.52 31.24C3536.24 30.6 3534.89 30.28 3533.36 30.28C3530.29 30.28 3528.05 31.496 3526.64 33.928C3525.17 36.36 3524.46 40.136 3524.46 45.256C3524.46 49.864 3525.17 53.384 3526.64 55.88C3528.05 58.376 3530.16 59.592 3532.85 59.592C3535.28 59.592 3537.26 58.952 3538.8 57.672C3540.33 56.392 3541.49 54.28 3542.38 51.336ZM3570.7 59.08V61H3553.74V59.08H3559.5V30.92H3556.49C3554.06 30.92 3552.33 31.56 3551.24 32.776C3550.09 34.056 3549.58 36.04 3549.58 38.856V40.52H3547.66V29H3576.78V40.52H3574.86V38.856C3574.86 36.04 3574.28 34.056 3573.19 32.776C3572.04 31.56 3570.31 30.92 3567.94 30.92H3564.94V59.08H3570.7ZM3591.18 59.08H3596.62V61H3580.62V59.08H3585.74V30.92H3580.62V29H3596.62V30.92H3591.18V52.552L3605.9 33.992V30.92H3600.46V29H3616.46V30.92H3611.34V59.08H3616.46V61H3600.46V59.08H3605.9V37.256L3591.18 55.816V59.08ZM3643.19 59.08V30.92H3633.78C3633.78 35.784 3633.72 39.432 3633.72 41.992C3633.66 44.552 3633.59 46.664 3633.46 48.456C3633.14 53.512 3632.44 56.968 3631.29 58.824C3630.14 60.744 3628.15 61.64 3625.46 61.64C3623.67 61.64 3622.26 61.128 3621.24 60.104C3620.15 59.08 3619.64 57.544 3619.64 55.624C3619.64 54.344 3619.96 53.256 3620.73 52.424C3621.43 51.656 3622.39 51.208 3623.61 51.208C3624.76 51.208 3625.66 51.592 3626.36 52.296C3627 53.064 3627.38 53.96 3627.38 55.048C3627.38 56.264 3627 57.16 3626.3 57.8C3625.53 58.44 3624.5 58.76 3623.16 58.696C3623.42 59.08 3623.8 59.336 3624.25 59.464C3624.63 59.592 3625.14 59.656 3625.78 59.656C3627.58 59.656 3628.86 58.76 3629.69 56.84C3630.46 54.92 3630.97 51.528 3631.22 46.536C3631.22 45.128 3631.29 43.464 3631.29 41.544C3631.29 39.624 3631.35 36.04 3631.35 30.92H3625.98V29H3653.75V30.92H3648.63V59.08H3653.75V61H3637.43V59.08H3643.19ZM3669.43 30.92V42.888H3673.66C3678.01 42.888 3681.4 43.656 3683.83 45.192C3686.26 46.728 3687.48 48.968 3687.48 51.848C3687.48 54.792 3686.26 57.096 3683.83 58.632C3681.4 60.232 3678.01 61 3673.66 61H3658.87V59.08H3663.99V30.92H3658.87V29H3675.51V30.92H3669.43ZM3673.59 44.808H3669.43V59.08H3673.66C3676.34 59.08 3678.39 58.504 3679.74 57.288C3681.02 56.136 3681.72 54.28 3681.72 51.784C3681.72 49.352 3681.08 47.56 3679.86 46.472C3678.58 45.384 3676.54 44.808 3673.59 44.808Z" fill="white"/>
</svg>
