<svg width="1440" height="804" viewBox="0 0 1440 804" fill="none" xmlns="http://www.w3.org/2000/svg">
<path d="M542.728 602.723L359.562 485.954L412.222 176.86M542.728 602.723L735.053 414.977M542.728 602.723L398.485 733.229L902.193 1518.56L941.116 1378.89C883.113 1071.32 760.697 447.947 735.053 414.977M412.222 176.86C494.647 122.674 680.103 12.0104 680.103 12.0104C700.71 9.72085 700.71 385.212 735.053 414.977M412.222 176.86C219.134 239.435 -168.416 369.624 -173.911 389.781M-173.911 389.781C-180.779 414.977 -50.2733 522.577 -25.0879 1163.66M-173.911 389.781C-213.597 378.333 -302.127 447.936 -338.76 817.933C-375.394 1187.93 -392.184 1362.85 -396 1404.07" stroke="white" stroke-width="22.8958"/>
<path d="M1362.4 602.722L1545.57 485.954L1492.9 176.86M1362.4 602.722L1170.07 414.977M1362.4 602.722L1506.64 733.229L838.084 1825.35L941.116 1394.91C999.118 1087.34 1144.43 447.947 1170.07 414.977M1492.9 176.86C1410.48 122.674 1225.02 12.0104 1225.02 12.0104M1492.9 176.86C1690.57 240.202 2090.49 368.259 2108.8 373.754M1225.02 12.0104C1204.42 9.72085 1204.42 385.212 1170.07 414.977M1225.02 12.0104L959.432 25.7375L677.814 12.0104M2108.8 373.754C2046.98 475.259 1920.14 745.124 1907.32 1012.55C1891.29 1346.83 1911.9 1564.34 1937.08 1708.58M2108.8 373.754C2139.33 374.517 2204.05 403.061 2218.7 511.129L2395 1539.15" stroke="white" stroke-width="22.8958"/>
<path d="M834.475 206.279L832.366 207.375L833.85 210.231L836.142 207.972L834.475 206.279ZM836.803 175.625C837.065 174.339 836.236 173.084 834.95 172.822C833.664 172.559 832.409 173.389 832.146 174.675L836.803 175.625ZM841.08 109.391C843.847 104.631 847.32 99.4054 850.98 94.9579C854.691 90.4488 858.398 86.984 861.593 85.4471C863.16 84.6933 864.406 84.4998 865.378 84.6728C866.289 84.8347 867.273 85.372 868.267 86.7486C870.39 89.69 872.148 95.9104 872.577 107.281L877.326 107.102C876.893 95.6365 875.136 88.1443 872.12 83.9669C870.545 81.7841 868.554 80.4104 866.211 79.9937C863.93 79.588 861.645 80.1482 859.533 81.1643C855.369 83.1671 851.122 87.3068 847.31 91.9379C843.448 96.6307 839.832 102.081 836.971 107.003L841.08 109.391ZM872.577 107.281C874.267 152.029 846.762 190.839 832.807 204.586L836.142 207.972C850.609 193.72 879.085 153.695 877.326 107.102L872.577 107.281ZM836.583 205.184C836.655 205.322 836.576 205.19 836.444 204.455C836.334 203.84 836.219 203.001 836.11 201.972C835.893 199.918 835.711 197.204 835.629 194.183C835.463 188.106 835.707 180.995 836.803 175.625L832.146 174.675C830.943 180.571 830.708 188.104 830.878 194.313C830.963 197.436 831.152 200.276 831.384 202.471C831.5 203.566 831.629 204.527 831.766 205.293C831.882 205.941 832.055 206.776 832.366 207.375L836.583 205.184Z" fill="#00FF0A"/>
<path d="M758.59 107.662V184.654C998.88 172.867 1119.94 178.317 1150.44 182.515V107.662C1093.98 103.29 865.681 105.84 758.59 107.662Z" fill="white" stroke="black" stroke-width="0.475257"/>
<path d="M876.052 163.135C875.045 163.451 874.209 163.513 873.47 163.242C872.73 162.971 872.056 162.428 871.434 161.568C871.181 161.244 870.974 160.907 870.739 160.478C870.503 160.049 869.931 158.87 868.995 156.85C867.644 154.155 866.399 152.433 865.212 151.699C863.979 150.98 862.433 150.862 860.51 151.467L858.815 151.999L861.373 165.737L866.868 164.009L867.116 165.44L853.608 169.687L853.359 168.256L857.252 167.032L851.709 137.076L847.817 138.299L847.568 136.868L856.634 134.018C860.893 132.679 864.374 132.39 867.033 133.164C869.692 133.938 871.255 135.711 871.755 138.422C872.128 140.569 871.591 142.7 870.142 144.816C868.663 146.992 866.647 148.581 864.077 149.691C865.366 149.789 866.457 149.899 867.425 150.098C868.348 150.311 869.179 150.553 869.886 150.884C870.609 151.261 871.208 151.726 871.73 152.267C872.221 152.867 872.841 153.88 873.499 155.333C874.741 158.163 875.563 159.817 875.89 160.217C876.231 160.663 876.67 160.777 877.127 160.633C877.768 160.431 878.143 159.861 878.267 158.816C878.405 157.816 878.294 156.342 877.979 154.378L879.215 153.989C879.684 156.76 879.693 158.87 879.183 160.289C878.673 161.707 877.609 162.645 876.052 163.135ZM855.83 135.78L858.567 150.568L859.94 150.136C862.779 149.244 864.836 147.943 866.064 146.249C867.247 144.569 867.633 142.435 867.19 139.907C866.745 137.531 865.695 135.949 864.038 135.162C862.336 134.389 860.043 134.456 857.112 135.377L855.83 135.78Z" fill="#FF00E6"/>
<path d="M913.183 154.117L890.601 158.176L890.535 156.724L894.551 156.003L892.839 125.586L888.823 126.308L888.757 124.856L910.489 120.95L911.082 131.573L909.664 131.828L909.51 129.612C909.335 127.01 908.737 125.313 907.709 124.474C906.633 123.643 904.697 123.454 901.909 123.955L897.091 124.822L897.886 139.017L904.595 137.811L904.405 134.041L906.058 133.744L906.58 143.16L904.927 143.457L904.661 139.262L897.952 140.468L898.802 155.238L905.417 154.05C907.731 153.634 909.347 152.855 910.208 151.677C911.078 150.545 911.438 148.481 911.29 145.484L911.186 143.551L912.604 143.297L913.183 154.117Z" fill="#FF00E6"/>
<path d="M945.874 141.602C945.681 144.597 944.777 147.011 943.067 148.852C941.357 150.693 939.065 151.705 936.191 151.889C934.466 151.999 933.068 151.944 931.894 151.634C930.722 151.372 929.53 150.775 928.316 149.843L926.275 152.522L925.556 152.568L926.229 141.27L927.666 141.179C927.467 144.077 928.144 146.391 929.697 148.119C931.202 149.851 933.32 150.629 936.051 150.455C938.206 150.317 939.897 149.68 941.072 148.499C942.25 147.365 942.964 145.732 943.116 143.606C943.139 142.45 942.979 141.451 942.591 140.658C942.204 139.865 941.538 139.234 940.642 138.762C940.247 138.595 939.851 138.428 939.408 138.264C938.917 138.103 937.455 137.811 935.017 137.294C931.804 136.682 929.667 135.616 928.509 134.054C927.355 132.541 926.882 130.407 927.087 127.604C927.245 124.804 928.155 122.485 929.82 120.696C931.485 118.906 933.682 117.9 936.364 117.728C937.849 117.633 939.254 117.784 940.527 118.135C941.803 118.535 942.75 119.052 943.373 119.781L945.178 117.165L945.897 117.119L945.26 128.222L943.823 128.314C943.945 125.709 943.322 123.488 941.957 121.7C940.547 119.962 938.809 119.111 936.702 119.246C934.594 119.38 932.954 120.062 931.779 121.244C930.556 122.428 929.888 124.01 929.819 125.938C929.748 127.097 929.908 128.097 930.296 128.89C930.686 129.731 931.352 130.362 932.296 130.83C932.697 131.093 933.191 131.302 933.779 131.457C934.369 131.66 935.737 132.005 937.93 132.442C941.153 133.198 943.337 134.261 944.438 135.682C945.539 137.102 946.002 139.093 945.874 141.602Z" fill="#FF00E6"/>
<path d="M964.161 151.09C962.385 151.037 961.154 150.471 960.419 149.345C959.684 148.266 959.493 146.628 959.844 144.525L962.359 127.985L958.857 127.88L959.092 126.446C961.011 126.504 962.567 125.879 963.856 124.525C965.097 123.17 966.074 121.038 966.786 118.13L967.985 118.166L966.673 126.675L973.389 126.877L973.154 128.31L966.437 128.108L963.803 145.413C963.571 146.75 963.635 147.809 963.903 148.489C964.17 149.169 964.64 149.52 965.408 149.543C966.511 149.576 967.391 149.074 968.046 148.038C968.702 147.001 969.235 145.24 969.692 142.805L971.132 142.848C970.554 146.096 969.72 148.28 968.724 149.451C967.68 150.62 966.176 151.151 964.161 151.09Z" fill="#FF00E6"/>
<path d="M984.618 164.142C982.76 163.912 981.294 163.247 980.179 162.094C979.059 160.988 978.604 159.577 978.804 157.958C978.922 157.005 979.302 156.278 979.95 155.729C980.599 155.181 981.45 154.947 982.402 155.065C983.212 155.165 983.85 155.486 984.267 156.021C984.685 156.556 984.852 157.158 984.758 157.92C984.646 158.825 984.266 159.552 983.713 160.112C983.113 160.667 982.452 160.924 981.678 160.925C982 161.448 982.382 161.882 982.924 162.191C983.466 162.5 984.074 162.672 984.836 162.766C986.932 163.025 988.688 162.517 990.014 161.181C991.339 159.846 992.455 157.469 993.308 154.092L995.263 146.498C994.241 148.5 992.999 149.943 991.44 150.814C989.876 151.733 988.096 152.045 986.143 151.803C984.142 151.556 982.742 150.754 981.942 149.398C981.143 148.042 981.033 146.19 981.602 143.939L985.338 128.972L981.241 128.466L981.608 127.06C984.038 127.361 985.896 127.59 987.146 127.648C988.397 127.706 989.123 127.699 989.337 127.532L989.754 128.067L985.704 144.398C985.302 146.089 985.244 147.339 985.62 148.208C985.99 149.125 986.706 149.6 987.849 149.741C989.85 149.989 991.528 149.325 992.936 147.71C994.292 146.136 995.431 143.569 996.296 140.097L998.629 130.615L995.485 130.227L995.852 128.821C998.091 129.098 999.711 129.298 1000.77 129.332C1001.78 129.408 1002.41 129.342 1002.63 129.175L1003.05 129.71L997.508 151.806C996.294 156.541 994.673 159.871 992.64 161.845C990.607 163.818 987.952 164.554 984.618 164.142Z" fill="#FF00E6"/>
<path d="M1017.37 157.157C1015.78 156.814 1014.7 156.093 1014.25 155.014C1013.75 153.924 1013.8 152.513 1014.44 150.686L1024.16 122.776L1020.12 121.91L1020.61 120.542C1023.01 121.056 1024.84 121.448 1026.08 121.616C1027.32 121.784 1028.09 121.851 1028.32 121.704L1028.69 122.274L1018.23 152.236C1017.83 153.426 1017.7 154.28 1017.77 154.837C1017.85 155.393 1018.22 155.719 1018.88 155.86C1019.68 156.031 1020.43 155.703 1021.22 154.791C1021.95 153.916 1022.65 152.448 1023.38 150.443L1024.65 150.715C1023.52 153.665 1022.48 155.552 1021.41 156.403C1020.35 157.255 1018.97 157.499 1017.37 157.157Z" fill="#FF00E6"/>
<path d="M1037.76 162.185C1034.96 161.343 1033.11 159.637 1032.3 156.988C1031.5 154.34 1031.79 151.37 1033.2 147.986C1034.68 144.419 1036.76 141.836 1039.44 140.237C1042.08 138.624 1044.85 138.252 1047.74 139.122C1049.81 139.744 1051.3 140.792 1052.29 142.19C1053.21 143.62 1053.41 145.133 1052.86 146.774C1052.01 149.123 1050.2 150.635 1047.42 151.205C1044.65 151.774 1041.14 151.423 1036.91 150.153C1035.7 153.196 1035.28 155.578 1035.66 157.343C1036.01 159.155 1037.13 160.291 1039.01 160.857C1040.67 161.354 1042.08 161.327 1043.35 160.757C1044.61 160.233 1045.91 158.919 1047.31 156.933L1048.5 157.641C1047.03 160.009 1045.48 161.498 1043.77 162.187C1042.06 162.876 1040.06 162.875 1037.76 162.185ZM1047.01 140.405C1045.31 139.894 1043.59 140.431 1041.89 141.925C1040.19 143.419 1038.69 145.726 1037.42 148.801C1040.55 149.74 1043.1 149.907 1045.03 149.333C1046.94 148.804 1048.28 147.504 1049.04 145.476C1049.46 144.249 1049.49 143.155 1049.16 142.254C1048.78 141.339 1048.07 140.722 1047.01 140.405Z" fill="#FF00E6"/>
<path d="M798.036 199.802V235.745C995.047 230.242 1094.31 232.787 1119.31 234.746V199.802C1073.02 197.761 885.839 198.951 798.036 199.802Z" fill="white"/>
<path d="M874.79 105.287C874.315 125.723 861.245 168.259 852.453 183.229" stroke="#00FF0A" stroke-width="4.75257"/>
<rect x="803.739" y="257.131" width="191.528" height="376.403" fill="white"/>
<path d="M843.592 197.25C830.634 207.261 809.483 232.954 832.556 250.878C861.399 273.282 883.97 264.94 890.993 259.935C898.015 254.93 912.813 222.753 884.472 222.515C856.132 222.276 859.894 246.349 868.672 246.349" stroke="#00FF0A" stroke-width="4.75257" stroke-linecap="round"/>
</svg>
