<svg width="584" height="68" viewBox="0 0 584 68" fill="none" xmlns="http://www.w3.org/2000/svg">
<path d="M4.5 4.5H453.375V63.5H4.5V4.5Z" fill="black" stroke="#1500FF" stroke-width="9"/>
<path d="M26.864 47.816C24.944 47.816 23.408 47.336 22.304 46.376C21.2 45.416 20.672 44.12 20.672 42.392C20.672 41.048 21.056 39.944 21.872 39.08C22.64 38.216 23.744 37.784 25.088 37.784C26.192 37.784 27.056 38.072 27.68 38.6C28.256 39.176 28.592 39.944 28.592 40.952C28.592 42.056 28.256 42.968 27.584 43.736C26.912 44.504 26 44.984 24.944 45.08C25.088 45.272 25.28 45.464 25.52 45.56C25.76 45.656 26.048 45.704 26.384 45.704C27.824 45.704 28.976 44.696 29.936 42.584C30.896 40.472 31.52 37.496 31.808 33.656C32.048 30.68 31.904 28.424 31.424 26.888C30.896 25.352 30.032 24.584 28.832 24.584C27.728 24.584 26.768 25.112 25.952 26.12C25.136 27.128 24.512 28.568 24.032 30.488L21.728 30.248C22.448 27.368 23.504 25.256 24.848 23.912C26.192 22.568 27.968 21.848 30.128 21.848C33.248 21.848 35.648 22.664 37.376 24.296C39.056 25.928 39.92 28.328 40.016 31.4C40.016 31.688 39.968 32.024 39.968 32.312C39.968 32.648 39.92 33.176 39.92 33.944H42.416L43.712 22.664H52.448L51.2 33.56H53.744C54.416 30.152 56 27.368 58.4 25.16C60.8 22.952 63.488 21.848 66.512 21.848C68.432 21.848 69.92 22.328 71.024 23.288C72.128 24.248 72.704 25.592 72.704 27.272C72.704 28.616 72.272 29.72 71.504 30.584C70.688 31.448 69.632 31.88 68.288 31.88C67.136 31.88 66.224 31.64 65.648 31.064C65.024 30.488 64.736 29.72 64.736 28.664C64.736 27.608 65.072 26.696 65.744 25.928C66.416 25.16 67.328 24.728 68.432 24.584C68.24 24.392 68.048 24.248 67.76 24.104C67.472 24.008 67.232 23.912 66.944 23.912C65.504 23.912 64.352 24.968 63.392 27.08C62.432 29.192 61.856 32.12 61.568 35.96C61.28 38.984 61.424 41.24 61.904 42.776C62.384 44.312 63.248 45.08 64.496 45.08C65.6 45.08 66.56 44.6 67.376 43.544C68.192 42.536 68.816 41.096 69.296 39.176L71.648 39.416C70.88 42.344 69.776 44.456 68.432 45.8C67.04 47.144 65.312 47.816 63.2 47.816C60.08 47.816 57.68 47 56 45.368C54.272 43.736 53.408 41.384 53.36 38.312C53.312 37.928 53.312 37.496 53.312 37.064C53.312 36.632 53.36 36.152 53.456 35.576H50.96L49.616 47H40.88L42.128 36.008H39.632C38.912 39.464 37.376 42.296 34.976 44.504C32.576 46.712 29.888 47.816 26.864 47.816ZM101.519 31.304C100.847 36.584 99.2146 40.616 96.5746 43.496C93.9346 46.376 90.6226 47.816 86.5906 47.816C82.8946 47.816 79.9186 46.568 77.6626 44.024C75.4066 41.528 74.4946 38.36 74.9746 34.568C75.4066 30.776 76.8466 27.704 79.3426 25.352C81.8386 23.048 84.8626 21.848 88.4146 21.848C89.6626 21.848 90.7186 22.088 91.6306 22.568C92.4946 23.048 93.2626 23.72 93.8386 24.68C93.7906 20.552 93.2146 17.432 92.1586 15.416C91.1026 13.4 89.4706 12.392 87.3106 12.392C86.1586 12.392 85.0546 12.584 84.0946 12.968C83.1346 13.352 82.2706 13.88 81.5506 14.6L80.3026 13.064C81.3586 12.008 82.5106 11.24 83.8546 10.76C85.1506 10.28 86.6866 9.992 88.4146 9.992C93.5026 9.992 97.1506 11.912 99.4066 15.656C101.663 19.4 102.383 24.632 101.519 31.304ZM83.9506 34.568C83.4706 38.36 83.4706 41.144 83.9506 42.92C84.4306 44.696 85.3906 45.56 86.8306 45.56C88.1746 45.56 89.3266 44.744 90.1906 43.064C91.0546 41.384 91.6786 38.696 92.1106 35.048C92.5426 31.304 92.5426 28.52 92.0626 26.744C91.5826 25.016 90.5746 24.104 89.1346 24.104C87.7426 24.104 86.6386 24.92 85.8226 26.552C85.0066 28.184 84.3826 30.824 83.9506 34.568ZM116.113 47.816C112.321 47.816 109.393 46.616 107.281 44.168C105.169 41.768 104.353 38.6 104.833 34.76C105.313 30.92 106.849 27.848 109.537 25.448C112.177 23.048 115.393 21.848 119.185 21.848C121.969 21.848 124.177 22.52 125.857 23.768C127.537 25.064 128.401 26.744 128.401 28.76C128.353 31.256 127.057 33.176 124.465 34.52C121.873 35.912 118.273 36.632 113.665 36.68C113.473 39.56 113.761 41.72 114.529 43.064C115.297 44.456 116.545 45.128 118.321 45.128C119.857 45.128 121.153 44.648 122.305 43.592C123.409 42.584 124.225 41.096 124.801 39.176L127.105 39.416C126.337 42.152 125.041 44.216 123.169 45.656C121.249 47.096 118.897 47.816 116.113 47.816ZM118.273 24.056C117.169 24.056 116.257 24.92 115.537 26.648C114.769 28.376 114.193 30.968 113.809 34.472C115.825 34.328 117.361 33.608 118.417 32.36C119.473 31.112 120.001 29.288 120.049 26.984C120.049 26.072 119.905 25.352 119.617 24.824C119.329 24.344 118.849 24.056 118.273 24.056ZM134.708 42.536C134.708 43.016 134.612 43.496 134.42 43.976C134.228 44.504 133.988 44.888 133.748 45.08C134.42 44.552 135.044 43.592 135.62 42.2C136.148 40.856 136.628 39.08 137.012 36.872C137.3 35.528 137.588 33.752 137.924 31.64C138.212 29.528 138.548 27.272 138.836 24.776H134.948L135.236 22.664H148.532L150.452 34.616L156.26 22.664H166.34L163.988 42.2C163.892 43.064 163.892 43.688 164.036 44.024C164.18 44.408 164.468 44.552 164.852 44.552C165.332 44.552 165.764 44.168 166.1 43.352C166.436 42.584 166.724 41.384 166.964 39.752H169.22C168.788 42.824 168.02 44.888 166.916 46.04C165.764 47.192 164.132 47.768 161.972 47.768C159.428 47.768 157.652 47.096 156.644 45.752C155.588 44.408 155.252 42.344 155.588 39.464L157.172 26.6L147.476 47H144.452L141.092 26.84C140.804 28.76 140.564 30.488 140.324 32.12C140.036 33.752 139.796 35.192 139.604 36.44C138.836 40.76 137.924 43.736 136.82 45.368C135.668 47 133.988 47.816 131.732 47.816C130.484 47.816 129.524 47.432 128.756 46.664C127.988 45.896 127.604 44.936 127.604 43.784C127.604 42.728 127.94 41.768 128.708 40.952C129.476 40.136 130.436 39.704 131.588 39.704C132.548 39.704 133.268 39.992 133.844 40.52C134.42 41.096 134.708 41.768 134.708 42.536ZM209.914 40.232C209.674 42.536 208.378 44.408 206.074 45.752C203.77 47.144 200.89 47.816 197.53 47.816C193.786 47.816 190.858 46.616 188.794 44.168C186.682 41.768 185.914 38.648 186.442 34.808C186.922 30.872 188.458 27.752 191.002 25.4C193.498 23.096 196.666 21.896 200.41 21.848C203.866 21.848 206.506 22.472 208.282 23.72C210.01 24.968 210.778 26.696 210.49 28.952C210.298 30.392 209.53 31.544 208.09 32.456C206.65 33.368 204.682 33.992 202.186 34.28C204.778 34.376 206.794 34.904 208.138 35.912C209.482 36.968 210.058 38.408 209.914 40.232ZM200.122 24.104C198.922 24.152 197.962 24.92 197.242 26.36C196.522 27.848 195.946 30.248 195.562 33.56H196.714C198.394 33.464 199.642 32.984 200.506 32.12C201.37 31.256 201.898 29.912 202.138 28.088C202.234 26.792 202.138 25.784 201.802 25.112C201.466 24.44 200.89 24.104 200.122 24.104ZM195.322 35.672C194.842 39.416 194.842 41.96 195.274 43.4C195.658 44.84 196.57 45.512 197.962 45.512C198.922 45.512 199.69 45.08 200.266 44.312C200.842 43.544 201.178 42.296 201.322 40.664C201.466 38.936 201.226 37.688 200.65 36.824C200.026 36.008 199.018 35.576 197.626 35.576C197.338 35.576 196.954 35.624 196.426 35.624C195.898 35.624 195.514 35.672 195.322 35.672ZM222.797 34.136C222.413 37.352 222.461 39.704 222.845 41.144C223.229 42.632 223.997 43.352 225.197 43.352C226.445 43.352 227.453 42.68 228.269 41.288C229.085 39.944 229.661 37.928 229.997 35.24C229.997 35.24 229.997 35.096 230.045 34.904L230.237 33.752C230.285 33.176 230.333 32.792 230.381 32.6C230.381 32.408 230.429 32.312 230.429 32.264C230.717 29.48 230.669 27.464 230.237 26.12C229.805 24.776 228.989 24.104 227.789 24.104C226.445 24.104 225.389 24.92 224.621 26.456C223.805 28.04 223.181 30.584 222.797 34.136ZM221.549 47.816C218.717 47.816 216.605 46.664 215.165 44.264C213.725 41.864 213.245 38.744 213.725 34.808C214.157 31.016 215.597 27.896 218.045 25.496C220.493 23.096 223.517 21.848 227.165 21.848C228.749 21.848 230.189 22.184 231.437 22.856C232.685 23.528 233.741 24.44 234.557 25.64L237.485 21.848H240.365L237.917 41.96C237.821 42.824 237.821 43.496 237.965 43.928C238.109 44.36 238.397 44.552 238.781 44.552C239.261 44.552 239.645 44.168 239.981 43.4C240.317 42.632 240.605 41.432 240.845 39.752H243.101C242.621 42.92 241.853 45.032 240.749 46.136C239.645 47.24 238.013 47.768 235.805 47.768C233.933 47.768 232.541 47.24 231.677 46.184C230.813 45.128 230.381 43.544 230.429 41.384L230.525 39.992C229.661 42.584 228.509 44.504 226.973 45.848C225.437 47.192 223.661 47.816 221.549 47.816ZM257.111 47.816C253.367 47.816 250.439 46.616 248.375 44.168C246.263 41.768 245.447 38.6 245.927 34.76C246.407 30.968 247.991 27.848 250.679 25.448C253.367 23.048 256.631 21.848 260.423 21.848C263.207 21.848 265.367 22.472 266.807 23.672C268.247 24.872 268.919 26.552 268.727 28.76C268.631 30.008 268.151 30.968 267.335 31.688C266.519 32.456 265.463 32.792 264.167 32.792C262.871 32.792 261.911 32.456 261.239 31.784C260.567 31.112 260.327 30.2 260.423 29C260.519 27.944 260.855 27.08 261.479 26.36C262.103 25.64 262.967 25.112 264.023 24.824C263.687 24.536 263.303 24.344 262.823 24.2C262.343 24.056 261.863 23.96 261.287 23.96C259.511 23.96 258.119 24.824 257.063 26.552C256.007 28.28 255.287 30.968 254.903 34.664C254.519 38.168 254.663 40.808 255.383 42.536C256.103 44.264 257.399 45.128 259.271 45.128C260.663 45.128 261.911 44.6 262.967 43.544C264.023 42.488 264.839 41 265.319 39.176L267.623 39.416C266.855 42.104 265.607 44.216 263.783 45.656C261.959 47.096 259.703 47.816 257.111 47.816ZM298.445 26.984C298.253 28.424 297.629 29.72 296.573 30.776C295.469 31.832 294.077 32.36 292.445 32.36C290.813 32.36 289.565 31.88 288.749 30.872C287.885 29.912 287.549 28.664 287.741 27.176C287.837 25.736 288.413 24.44 289.517 23.384C290.621 22.328 292.013 21.752 293.741 21.752C295.325 21.752 296.525 22.28 297.389 23.288C298.205 24.296 298.541 25.544 298.445 26.984ZM296.189 43.208C295.901 46.04 294.845 48.776 293.069 51.464C291.293 54.152 289.133 56.264 286.589 57.752L285.149 56.36C286.685 55.256 288.125 53.864 289.373 52.232C290.621 50.6 291.437 49.016 291.821 47.48C291.677 47.624 291.485 47.72 291.245 47.768C291.005 47.816 290.669 47.816 290.285 47.816C288.653 47.816 287.405 47.336 286.589 46.328C285.725 45.368 285.389 44.12 285.581 42.632C285.725 41.144 286.349 39.848 287.405 38.792C288.461 37.736 289.853 37.208 291.581 37.208C293.165 37.208 294.365 37.784 295.229 38.888C296.045 39.992 296.381 41.432 296.189 43.208ZM314.413 34.424C313.981 39.512 312.061 44.36 308.653 49.016C305.197 53.672 301.021 57.176 296.125 59.48L294.925 57.608C297.133 55.784 298.813 54.056 299.965 52.472C301.117 50.888 302.029 49.064 302.797 47C303.421 45.272 303.949 43.352 304.381 41.144C304.765 38.984 305.101 36.536 305.341 33.752C305.437 32.312 305.533 30.968 305.581 29.72C305.629 28.472 305.677 27.224 305.677 26.072C305.581 24.632 305.485 23.24 305.293 21.992C305.101 20.744 304.861 19.592 304.525 18.536C304.237 17.576 303.853 16.712 303.373 15.896C302.893 15.08 301.933 13.832 300.493 12.2L302.125 10.328C305.965 12.152 309.037 15.368 311.437 20.024C313.837 24.728 314.797 29.528 314.413 34.424Z" fill="white"/>
</svg>
