<svg width="468" height="237" viewBox="0 0 468 237" fill="none" xmlns="http://www.w3.org/2000/svg">
<path d="M4.5 4.5H453.5V232.5H4.5V4.5Z" fill="black" stroke="#1500FF" stroke-width="9"/>
<path d="M51.6 105.432C49.584 105.432 47.904 104.952 46.608 103.896C45.264 102.84 44.64 101.496 44.64 99.816C44.64 98.808 44.928 97.992 45.552 97.32C46.176 96.648 47.04 96.312 48.096 96.312C48.96 96.312 49.68 96.552 50.16 97.032C50.64 97.512 50.928 98.184 50.928 99C50.928 99.96 50.64 100.728 50.112 101.352C49.584 102.024 48.912 102.408 48.096 102.504C48.48 102.984 48.96 103.368 49.536 103.608C50.112 103.848 50.736 103.944 51.504 103.944C53.616 103.944 55.296 103.224 56.448 101.736C57.6 100.248 58.368 97.8 58.8 94.44C58.8 94.44 58.8 94.104 58.896 93.528C58.992 92.952 59.136 91.8 59.376 90.072C59.52 88.872 59.616 88.104 59.664 87.72C59.712 87.336 59.76 87.144 59.76 87.096C58.992 89.016 57.936 90.504 56.544 91.512C55.152 92.52 53.472 93 51.552 93C49.44 93 47.856 92.376 46.896 91.032C45.888 89.688 45.552 87.816 45.84 85.416L47.664 70.536H43.68L43.872 68.952C46.464 68.952 48.384 68.952 49.728 68.856C51.072 68.76 51.84 68.664 52.128 68.472L52.8 68.952L50.784 85.56C50.592 87.24 50.688 88.488 51.12 89.256C51.504 90.072 52.272 90.456 53.376 90.456C55.2 90.456 56.688 89.64 57.792 87.96C58.896 86.28 59.664 83.736 60.048 80.376L61.248 70.536H58.176L58.416 68.952C60.72 68.952 62.448 68.952 63.6 68.856C64.704 68.76 65.424 68.664 65.712 68.472L66.384 68.952L63.648 91.272C63.024 96.216 61.776 99.816 59.856 102.072C57.936 104.328 55.2 105.432 51.6 105.432ZM78.0566 83.352C77.3846 87.048 76.5206 89.688 75.5126 91.224C74.5046 92.76 73.0646 93.528 71.1446 93.528C69.7526 93.528 68.6966 93.192 67.9766 92.424C67.2566 91.704 66.9686 90.744 67.1126 89.544C67.2086 88.68 67.5446 88.008 68.1686 87.432C68.7446 86.904 69.5126 86.616 70.3766 86.616C71.2406 86.616 71.9126 86.904 72.3926 87.48C72.8726 88.056 73.0166 88.728 72.9206 89.592C72.8246 90.12 72.6806 90.552 72.4886 90.936C72.2486 91.32 71.9126 91.56 71.5286 91.752C72.5846 91.704 73.4486 91.128 74.1206 90.024C74.7926 88.968 75.3686 87.192 75.8486 84.792C76.2326 83.016 76.6166 80.712 77.0966 77.832C77.5286 74.952 77.8646 72.504 78.1046 70.488H74.3606L74.5046 68.952H90.9206L88.5686 88.44C88.4246 89.592 88.4726 90.456 88.6646 90.936C88.8566 91.416 89.2406 91.656 89.8646 91.656C90.6326 91.656 91.2566 91.176 91.7846 90.216C92.2646 89.256 92.6486 87.768 92.8886 85.752H94.3766C93.8966 88.824 93.2246 90.888 92.3606 91.944C91.4486 93 90.1046 93.528 88.3286 93.528C86.5046 93.528 85.2566 93.048 84.4886 91.992C83.7206 90.936 83.4326 89.4 83.7206 87.336L85.7366 70.488H80.0726C79.5926 73.656 79.2086 76.248 78.9206 78.264C78.5846 80.28 78.2966 82.008 78.0566 83.352ZM104.597 89.832C104.549 90.888 104.165 91.752 103.445 92.472C102.725 93.192 101.812 93.528 100.709 93.528C99.7005 93.528 98.9325 93.288 98.4045 92.712C97.8765 92.136 97.6365 91.368 97.6365 90.408C97.6365 89.448 98.0205 88.584 98.7405 87.816C99.4605 87.096 100.373 86.712 101.525 86.712C102.485 86.712 103.253 87.048 103.829 87.624C104.357 88.2 104.597 88.968 104.597 89.832ZM122.138 93H109.226L109.418 91.416H113.354L117.002 61.464H113.114L113.306 59.88H126.218L125.978 61.464H122.186L120.506 75.336H133.082L134.762 61.464H130.97L131.162 59.88H144.074L143.882 61.464H139.946L136.298 91.416H140.234L139.994 93H127.082L127.322 91.416H131.114L132.89 76.872H120.266L118.538 91.416H122.33L122.138 93ZM161.911 84.888C161.287 87.72 160.231 89.88 158.791 91.32C157.351 92.808 155.527 93.528 153.367 93.528C151.255 93.528 149.671 92.808 148.615 91.368C147.559 89.928 147.223 88.008 147.511 85.512L149.383 70.536H145.399L145.591 68.952C148.183 68.952 150.103 68.952 151.447 68.856C152.791 68.76 153.559 68.664 153.847 68.472L154.519 68.952L152.455 85.704C152.263 87.48 152.359 88.824 152.839 89.688C153.319 90.552 154.135 90.984 155.287 90.984C156.871 90.984 158.215 90.12 159.271 88.296C160.327 86.52 161.047 83.928 161.431 80.52L162.631 70.536H159.559L159.799 68.952C162.103 68.952 163.831 68.952 164.983 68.856C166.087 68.76 166.807 68.664 167.095 68.472L167.767 68.952L165.415 88.392C165.223 89.496 165.271 90.312 165.511 90.84C165.751 91.416 166.183 91.656 166.807 91.656C167.575 91.656 168.151 91.224 168.631 90.264C169.111 89.304 169.447 87.816 169.735 85.704H171.223C170.743 88.872 170.119 90.936 169.303 91.992C168.487 93.048 167.239 93.528 165.559 93.528C164.023 93.528 162.967 93.096 162.295 92.184C161.623 91.32 161.383 89.928 161.575 88.008C161.671 86.952 161.767 86.184 161.863 85.656C161.911 85.176 161.911 84.888 161.911 84.888ZM191.287 93.528C189.703 93.528 188.503 93.048 187.735 92.088C186.919 91.128 186.391 89.496 186.103 87.144C185.959 86.184 185.815 85.368 185.719 84.744C185.623 84.12 185.527 83.688 185.479 83.448C185.191 82.776 184.807 82.296 184.327 81.96C183.847 81.624 183.223 81.432 182.503 81.384H181.447L180.007 93H175.015L177.799 70.488H173.815L174.055 68.952C176.455 68.952 178.375 68.904 179.815 68.808C181.207 68.712 182.071 68.616 182.359 68.424L182.983 68.904L181.639 79.8H182.983C183.991 79.8 184.855 79.512 185.527 78.84C186.199 78.168 186.871 76.728 187.639 74.52C188.455 72.024 189.319 70.392 190.183 69.576C191.047 68.808 192.199 68.376 193.591 68.376C194.551 68.376 195.415 68.664 196.087 69.24C196.759 69.816 197.095 70.536 197.143 71.496C197.095 72.456 196.759 73.272 196.183 73.848C195.607 74.472 194.791 74.76 193.783 74.76C192.919 74.76 192.247 74.52 191.767 73.992C191.287 73.464 191.047 72.792 191.095 71.928C191.095 71.832 191.095 71.688 191.143 71.544C191.143 71.4 191.191 71.256 191.239 71.112C190.903 71.4 190.615 71.832 190.327 72.312C190.039 72.84 189.655 73.752 189.271 75C188.695 76.92 188.119 78.216 187.591 78.984C187.015 79.752 186.391 80.28 185.671 80.664C187.447 81.24 188.791 81.96 189.655 82.92C190.519 83.88 191.095 85.272 191.335 87.048C191.383 87.768 191.431 88.344 191.527 88.776C191.575 89.208 191.623 89.496 191.671 89.64C191.815 90.216 192.007 90.648 192.295 90.888C192.583 91.176 192.919 91.272 193.399 91.272C193.975 91.272 194.455 90.84 194.887 89.88C195.271 88.968 195.607 87.576 195.847 85.704H197.287C196.903 88.728 196.279 90.792 195.415 91.896C194.503 93 193.111 93.528 191.287 93.528ZM222.608 81.192C222.224 84.84 220.88 87.816 218.576 90.12C216.272 92.424 213.536 93.528 210.368 93.528C207.2 93.528 204.656 92.28 202.688 89.736C200.72 87.24 199.952 84.168 200.384 80.568C200.768 76.92 202.112 73.992 204.416 71.736C206.72 69.528 209.456 68.376 212.672 68.376C215.792 68.376 218.336 69.624 220.304 72.12C222.224 74.616 222.992 77.64 222.608 81.192ZM205.52 80.568C205.088 84.504 205.28 87.384 206.096 89.208C206.912 91.032 208.4 91.944 210.512 91.944C212.576 91.944 214.16 91.176 215.216 89.544C216.272 87.96 216.992 85.176 217.472 81.192C217.856 77.352 217.664 74.52 216.896 72.696C216.08 70.92 214.64 70.008 212.528 70.008C210.416 70.008 208.832 70.824 207.776 72.36C206.72 73.896 205.952 76.632 205.52 80.568ZM233.775 83.352C233.103 87.048 232.239 89.688 231.231 91.224C230.223 92.76 228.783 93.528 226.863 93.528C225.471 93.528 224.415 93.192 223.695 92.424C222.975 91.704 222.687 90.744 222.831 89.544C222.927 88.68 223.263 88.008 223.887 87.432C224.463 86.904 225.231 86.616 226.095 86.616C226.959 86.616 227.631 86.904 228.111 87.48C228.591 88.056 228.735 88.728 228.639 89.592C228.543 90.12 228.399 90.552 228.207 90.936C227.967 91.32 227.631 91.56 227.247 91.752C228.303 91.704 229.167 91.128 229.839 90.024C230.511 88.968 231.087 87.192 231.567 84.792C231.951 83.016 232.335 80.712 232.815 77.832C233.247 74.952 233.583 72.504 233.823 70.488H230.079L230.223 68.952H246.639L244.287 88.44C244.143 89.592 244.191 90.456 244.383 90.936C244.575 91.416 244.959 91.656 245.583 91.656C246.351 91.656 246.975 91.176 247.503 90.216C247.983 89.256 248.367 87.768 248.607 85.752H250.095C249.615 88.824 248.943 90.888 248.079 91.944C247.167 93 245.823 93.528 244.047 93.528C242.223 93.528 240.975 93.048 240.207 91.992C239.439 90.936 239.151 89.4 239.439 87.336L241.455 70.488H235.791C235.311 73.656 234.927 76.248 234.639 78.264C234.303 80.28 234.015 82.008 233.775 83.352ZM273.191 85.704C272.855 88.104 271.751 89.976 269.879 91.416C268.007 92.856 265.655 93.528 262.823 93.528C259.847 93.528 257.687 92.76 256.391 91.128C255.095 89.544 254.663 87.144 255.047 83.976L256.727 70.536H252.743L252.935 68.952C255.527 68.952 257.447 68.952 258.791 68.856C260.135 68.76 260.903 68.664 261.191 68.472L261.863 68.952L260.615 79.08C261.479 78.696 262.391 78.408 263.255 78.216C264.119 78.024 265.031 77.928 265.943 77.928C268.295 77.928 270.167 78.648 271.559 80.088C272.903 81.528 273.479 83.4 273.191 85.704ZM263.255 91.752C264.503 91.752 265.607 91.224 266.519 90.072C267.383 88.968 267.959 87.48 268.151 85.656C268.343 83.736 268.055 82.248 267.335 81.24C266.567 80.232 265.463 79.704 263.927 79.704C263.303 79.704 262.679 79.8 262.103 79.992C261.479 80.184 260.903 80.424 260.423 80.712L259.991 84.408C259.655 87.096 259.751 89.016 260.279 90.12C260.759 91.224 261.767 91.752 263.255 91.752ZM285.87 93.528C282.558 93.528 280.014 92.376 278.286 90.072C276.558 87.768 275.886 84.744 276.318 81.096C276.75 77.256 278.094 74.136 280.302 71.832C282.51 69.528 285.246 68.376 288.51 68.376C290.526 68.376 292.254 68.904 293.598 69.96C294.942 71.016 295.566 72.36 295.566 74.088C295.518 75.144 295.182 75.96 294.558 76.584C293.934 77.256 293.118 77.544 292.11 77.544C291.15 77.544 290.43 77.304 289.95 76.824C289.422 76.344 289.182 75.624 289.182 74.76C289.182 73.848 289.422 73.08 289.95 72.408C290.478 71.784 291.15 71.4 292.014 71.256C291.63 70.824 291.15 70.488 290.574 70.248C289.998 70.056 289.326 69.912 288.606 69.912C286.686 69.912 285.102 70.872 283.854 72.744C282.606 74.664 281.838 77.352 281.454 80.856C281.07 84.216 281.358 86.904 282.27 88.824C283.182 90.744 284.67 91.704 286.734 91.704C288.318 91.704 289.662 91.176 290.814 90.072C291.966 89.016 292.782 87.528 293.262 85.608L294.846 85.944C294.126 88.536 293.022 90.408 291.534 91.656C290.046 92.904 288.174 93.528 285.87 93.528ZM316.256 93.528C314.672 93.528 313.472 93.048 312.704 92.088C311.888 91.128 311.36 89.496 311.072 87.144C310.928 86.184 310.784 85.368 310.688 84.744C310.592 84.12 310.496 83.688 310.448 83.448C310.16 82.776 309.776 82.296 309.296 81.96C308.816 81.624 308.192 81.432 307.472 81.384H306.416L304.976 93H299.984L302.768 70.488H298.784L299.024 68.952C301.424 68.952 303.344 68.904 304.784 68.808C306.176 68.712 307.04 68.616 307.328 68.424L307.952 68.904L306.608 79.8H307.952C308.96 79.8 309.824 79.512 310.496 78.84C311.168 78.168 311.84 76.728 312.608 74.52C313.424 72.024 314.288 70.392 315.152 69.576C316.016 68.808 317.168 68.376 318.56 68.376C319.52 68.376 320.384 68.664 321.056 69.24C321.728 69.816 322.064 70.536 322.112 71.496C322.064 72.456 321.728 73.272 321.152 73.848C320.576 74.472 319.76 74.76 318.752 74.76C317.888 74.76 317.216 74.52 316.736 73.992C316.256 73.464 316.016 72.792 316.064 71.928C316.064 71.832 316.064 71.688 316.112 71.544C316.112 71.4 316.16 71.256 316.208 71.112C315.872 71.4 315.584 71.832 315.296 72.312C315.008 72.84 314.624 73.752 314.24 75C313.664 76.92 313.088 78.216 312.56 78.984C311.984 79.752 311.36 80.28 310.64 80.664C312.416 81.24 313.76 81.96 314.624 82.92C315.488 83.88 316.064 85.272 316.304 87.048C316.352 87.768 316.4 88.344 316.496 88.776C316.544 89.208 316.592 89.496 316.64 89.64C316.784 90.216 316.976 90.648 317.264 90.888C317.552 91.176 317.888 91.272 318.368 91.272C318.944 91.272 319.424 90.84 319.856 89.88C320.24 88.968 320.576 87.576 320.816 85.704H322.256C321.872 88.728 321.248 90.792 320.384 91.896C319.472 93 318.08 93.528 316.256 93.528ZM332.612 93.528C329.78 93.528 327.668 92.376 326.276 90.072C324.836 87.768 324.356 84.648 324.836 80.76C325.22 77.16 326.516 74.184 328.724 71.88C330.884 69.576 333.572 68.376 336.74 68.376C338.18 68.376 339.476 68.808 340.532 69.576C341.588 70.392 342.452 71.544 343.028 73.08L346.34 68.376H347.492L344.996 88.392C344.852 89.544 344.9 90.36 345.14 90.888C345.38 91.416 345.812 91.656 346.436 91.656C347.204 91.656 347.78 91.224 348.26 90.264C348.74 89.352 349.076 87.816 349.364 85.704H350.852C350.372 88.824 349.748 90.888 348.932 91.944C348.068 93 346.82 93.528 345.188 93.528C343.604 93.528 342.5 93.048 341.828 92.088C341.156 91.128 340.916 89.688 341.156 87.72L341.444 85.272C340.676 87.864 339.524 89.928 337.988 91.368C336.452 92.808 334.628 93.528 332.612 93.528ZM330.068 80.616C329.684 84.072 329.828 86.664 330.5 88.44C331.172 90.216 332.324 91.08 333.956 91.08C335.78 91.08 337.316 90.216 338.564 88.392C339.812 86.568 340.628 84.072 341.06 80.856C341.06 80.76 341.06 80.664 341.06 80.52C341.06 80.424 341.108 80.184 341.204 79.848L341.252 79.368C341.252 79.272 341.3 79.176 341.3 79.08C341.54 76.104 341.3 73.896 340.532 72.36C339.764 70.824 338.516 70.056 336.788 70.008C334.964 70.008 333.524 70.968 332.372 72.792C331.22 74.616 330.452 77.256 330.068 80.616ZM361.927 75.384C361.879 76.968 362.359 78.216 363.367 79.128C364.375 80.04 365.767 80.472 367.543 80.472H369.895L370.519 75.048C370.711 73.512 370.423 72.312 369.703 71.4C368.935 70.488 367.879 70.008 366.487 70.008C365.143 70.008 364.087 70.536 363.223 71.496C362.359 72.456 361.927 73.752 361.927 75.384ZM361.543 88.488C360.727 90.408 359.863 91.704 358.951 92.424C358.039 93.192 356.935 93.528 355.639 93.528C353.911 93.528 352.807 92.952 352.279 91.8C351.703 90.648 351.607 88.584 351.991 85.704H353.431C353.191 87.528 353.191 88.872 353.383 89.832C353.575 90.792 353.911 91.272 354.439 91.272C354.727 91.272 355.015 91.176 355.255 90.936C355.447 90.696 356.023 89.544 356.887 87.528C357.559 85.992 358.279 84.84 359.143 84.12C360.007 83.448 361.735 82.584 364.375 81.576C361.975 81.48 360.103 80.904 358.759 79.752C357.415 78.648 356.743 77.16 356.791 75.24C356.791 73.128 357.655 71.496 359.383 70.248C361.063 69 363.367 68.376 366.295 68.376C367.783 68.376 369.079 68.664 370.135 69.144C371.191 69.672 372.055 70.44 372.727 71.496L375.127 68.376H376.279L373.255 93H368.311L369.703 81.864C369.175 81.864 368.743 81.912 368.359 81.912H367.831C366.535 81.96 365.431 82.392 364.567 83.208C363.655 84.024 362.647 85.8 361.543 88.488ZM401.047 86.136C402.103 84.696 402.919 83.448 403.543 82.488C404.167 81.528 404.743 80.568 405.319 79.56C405.799 78.696 406.471 77.4 407.383 75.672C408.247 73.944 408.919 72.696 409.351 71.928C410.215 70.296 410.887 68.856 411.463 67.656C412.039 66.504 412.519 65.352 412.999 64.2H404.695C403.063 64.2 401.959 64.248 401.335 64.344C400.711 64.44 400.231 64.536 399.895 64.68C399.367 64.968 398.983 65.4 398.695 65.976C398.407 66.552 398.215 67.56 398.023 68.904L397.879 70.2H396.295L397.591 59.88H416.311V61.512C414.967 64.104 413.719 66.6 412.567 69C411.367 71.448 410.407 73.416 409.735 74.856C408.535 77.352 407.527 79.656 406.759 81.768C405.991 83.88 405.319 86.184 404.743 88.632C404.551 89.4 404.455 89.928 404.359 90.216C404.263 90.552 404.167 90.84 404.071 91.08C403.735 91.896 403.303 92.52 402.775 92.904C402.199 93.336 401.575 93.528 400.903 93.528C399.991 93.528 399.319 93.336 398.935 92.856C398.503 92.376 398.359 91.704 398.455 90.84C398.503 90.36 398.695 89.832 398.983 89.208C399.271 88.632 399.991 87.576 401.047 86.136Z" fill="white"/>
<path d="M61.392 165.224V167H43.248V165.224H49.056V137.384H43.248V135.656C46.704 135.656 49.392 135.464 51.216 134.984C53.04 134.552 54.336 133.784 55.104 132.728L56.496 132.92C56.256 133.448 56.064 134.36 55.968 135.656C55.872 136.952 55.824 138.392 55.824 140.024V165.224H61.392ZM86.2376 139.208C87.1976 140.84 87.9176 142.616 88.4936 144.584C89.0216 146.6 89.3096 148.52 89.3096 150.392C89.3096 152.312 89.0216 154.232 88.4936 156.2C87.9176 158.216 87.1976 159.992 86.2376 161.624C85.0856 163.592 83.6936 165.08 82.0616 166.136C80.4296 167.192 78.7016 167.672 76.8296 167.672C74.9096 167.672 73.1816 167.192 71.5976 166.136C69.9656 165.08 68.5736 163.592 67.4216 161.624C66.4616 160.04 65.6936 158.264 65.1656 156.248C64.5896 154.232 64.3496 152.312 64.3496 150.392C64.3496 148.52 64.5896 146.6 65.1656 144.584C65.6936 142.616 66.4616 140.84 67.4216 139.208C68.5736 137.288 69.9176 135.8 71.5496 134.744C73.1816 133.736 74.9096 133.208 76.8296 133.208C78.7016 133.208 80.4296 133.736 82.0616 134.744C83.6936 135.8 85.0856 137.288 86.2376 139.208ZM76.8296 135.032C74.7176 135.032 73.3256 136.136 72.5576 138.296C71.7896 140.456 71.4536 144.488 71.4536 150.392C71.4536 156.248 71.8376 160.328 72.6056 162.536C73.3736 164.744 74.8136 165.848 76.8296 165.848C78.8456 165.848 80.2856 164.744 81.0536 162.536C81.8216 160.328 82.2056 156.296 82.2056 150.392C82.2056 144.536 81.8216 140.504 81.0536 138.296C80.2856 136.136 78.8456 135.032 76.8296 135.032ZM97.6106 144.392C98.8586 144.392 99.8666 144.824 100.587 145.592C101.307 146.36 101.691 147.32 101.691 148.472C101.691 149.624 101.307 150.584 100.587 151.352C99.8186 152.12 98.8586 152.504 97.6106 152.504C96.3146 152.504 95.3066 152.12 94.5866 151.352C93.8666 150.584 93.5306 149.624 93.5306 148.472C93.5306 147.32 93.8666 146.312 94.5866 145.544C95.3066 144.776 96.3146 144.392 97.6106 144.392ZM97.6106 159.56C98.8586 159.56 99.8666 159.992 100.587 160.76C101.307 161.528 101.691 162.488 101.691 163.64C101.691 164.792 101.307 165.752 100.587 166.52C99.8186 167.288 98.8586 167.672 97.6106 167.672C96.3146 167.672 95.3066 167.288 94.5866 166.52C93.8666 165.752 93.5306 164.792 93.5306 163.64C93.5306 162.488 93.8666 161.48 94.5866 160.712C95.3066 159.944 96.3146 159.56 97.6106 159.56ZM128.425 139.208C129.385 140.84 130.105 142.616 130.681 144.584C131.209 146.6 131.497 148.52 131.497 150.392C131.497 152.312 131.209 154.232 130.681 156.2C130.105 158.216 129.385 159.992 128.425 161.624C127.273 163.592 125.881 165.08 124.249 166.136C122.617 167.192 120.889 167.672 119.017 167.672C117.097 167.672 115.369 167.192 113.785 166.136C112.153 165.08 110.761 163.592 109.609 161.624C108.649 160.04 107.881 158.264 107.353 156.248C106.777 154.232 106.537 152.312 106.537 150.392C106.537 148.52 106.777 146.6 107.353 144.584C107.881 142.616 108.649 140.84 109.609 139.208C110.761 137.288 112.105 135.8 113.737 134.744C115.369 133.736 117.097 133.208 119.017 133.208C120.889 133.208 122.617 133.736 124.249 134.744C125.881 135.8 127.273 137.288 128.425 139.208ZM119.017 135.032C116.905 135.032 115.513 136.136 114.745 138.296C113.977 140.456 113.641 144.488 113.641 150.392C113.641 156.248 114.025 160.328 114.793 162.536C115.561 164.744 117.001 165.848 119.017 165.848C121.033 165.848 122.473 164.744 123.241 162.536C124.009 160.328 124.393 156.296 124.393 150.392C124.393 144.536 124.009 140.504 123.241 138.296C122.473 136.136 121.033 135.032 119.017 135.032ZM156.55 139.208C157.51 140.84 158.23 142.616 158.806 144.584C159.334 146.6 159.622 148.52 159.622 150.392C159.622 152.312 159.334 154.232 158.806 156.2C158.23 158.216 157.51 159.992 156.55 161.624C155.398 163.592 154.006 165.08 152.374 166.136C150.742 167.192 149.014 167.672 147.142 167.672C145.222 167.672 143.494 167.192 141.91 166.136C140.278 165.08 138.886 163.592 137.734 161.624C136.774 160.04 136.006 158.264 135.478 156.248C134.902 154.232 134.662 152.312 134.662 150.392C134.662 148.52 134.902 146.6 135.478 144.584C136.006 142.616 136.774 140.84 137.734 139.208C138.886 137.288 140.23 135.8 141.862 134.744C143.494 133.736 145.222 133.208 147.142 133.208C149.014 133.208 150.742 133.736 152.374 134.744C154.006 135.8 155.398 137.288 156.55 139.208ZM147.142 135.032C145.03 135.032 143.638 136.136 142.87 138.296C142.102 140.456 141.766 144.488 141.766 150.392C141.766 156.248 142.15 160.328 142.918 162.536C143.686 164.744 145.126 165.848 147.142 165.848C149.158 165.848 150.598 164.744 151.366 162.536C152.134 160.328 152.518 156.296 152.518 150.392C152.518 144.536 152.134 140.504 151.366 138.296C150.598 136.136 149.158 135.032 147.142 135.032ZM194.079 150.392H163.551V148.472H194.079V150.392ZM221.285 139.208C222.245 140.84 222.965 142.616 223.541 144.584C224.069 146.6 224.357 148.52 224.357 150.392C224.357 152.312 224.069 154.232 223.541 156.2C222.965 158.216 222.245 159.992 221.285 161.624C220.133 163.592 218.741 165.08 217.109 166.136C215.477 167.192 213.749 167.672 211.877 167.672C209.957 167.672 208.229 167.192 206.645 166.136C205.013 165.08 203.621 163.592 202.469 161.624C201.509 160.04 200.741 158.264 200.213 156.248C199.637 154.232 199.396 152.312 199.396 150.392C199.396 148.52 199.637 146.6 200.213 144.584C200.741 142.616 201.509 140.84 202.469 139.208C203.621 137.288 204.965 135.8 206.597 134.744C208.229 133.736 209.957 133.208 211.877 133.208C213.749 133.208 215.477 133.736 217.109 134.744C218.741 135.8 220.133 137.288 221.285 139.208ZM211.877 135.032C209.765 135.032 208.373 136.136 207.605 138.296C206.837 140.456 206.501 144.488 206.501 150.392C206.501 156.248 206.885 160.328 207.653 162.536C208.421 164.744 209.861 165.848 211.877 165.848C213.893 165.848 215.333 164.744 216.101 162.536C216.869 160.328 217.253 156.296 217.253 150.392C217.253 144.536 216.869 140.504 216.101 138.296C215.333 136.136 213.893 135.032 211.877 135.032ZM249.41 139.208C250.37 140.84 251.09 142.616 251.666 144.584C252.194 146.6 252.482 148.52 252.482 150.392C252.482 152.312 252.194 154.232 251.666 156.2C251.09 158.216 250.37 159.992 249.41 161.624C248.258 163.592 246.866 165.08 245.234 166.136C243.602 167.192 241.874 167.672 240.002 167.672C238.082 167.672 236.354 167.192 234.77 166.136C233.138 165.08 231.746 163.592 230.594 161.624C229.634 160.04 228.866 158.264 228.338 156.248C227.762 154.232 227.521 152.312 227.521 150.392C227.521 148.52 227.762 146.6 228.338 144.584C228.866 142.616 229.634 140.84 230.594 139.208C231.746 137.288 233.09 135.8 234.722 134.744C236.354 133.736 238.082 133.208 240.002 133.208C241.874 133.208 243.602 133.736 245.234 134.744C246.866 135.8 248.258 137.288 249.41 139.208ZM240.002 135.032C237.89 135.032 236.498 136.136 235.73 138.296C234.962 140.456 234.626 144.488 234.626 150.392C234.626 156.248 235.01 160.328 235.778 162.536C236.546 164.744 237.986 165.848 240.002 165.848C242.018 165.848 243.458 164.744 244.226 162.536C244.994 160.328 245.378 156.296 245.378 150.392C245.378 144.536 244.994 140.504 244.226 138.296C243.458 136.136 242.018 135.032 240.002 135.032ZM260.783 144.392C262.031 144.392 263.039 144.824 263.759 145.592C264.479 146.36 264.863 147.32 264.863 148.472C264.863 149.624 264.479 150.584 263.759 151.352C262.991 152.12 262.031 152.504 260.783 152.504C259.487 152.504 258.479 152.12 257.759 151.352C257.039 150.584 256.703 149.624 256.703 148.472C256.703 147.32 257.039 146.312 257.759 145.544C258.479 144.776 259.487 144.392 260.783 144.392ZM260.783 159.56C262.031 159.56 263.039 159.992 263.759 160.76C264.479 161.528 264.863 162.488 264.863 163.64C264.863 164.792 264.479 165.752 263.759 166.52C262.991 167.288 262.031 167.672 260.783 167.672C259.487 167.672 258.479 167.288 257.759 166.52C257.039 165.752 256.703 164.792 256.703 163.64C256.703 162.488 257.039 161.48 257.759 160.712C258.479 159.944 259.487 159.56 260.783 159.56ZM291.597 139.208C292.557 140.84 293.277 142.616 293.853 144.584C294.381 146.6 294.669 148.52 294.669 150.392C294.669 152.312 294.381 154.232 293.853 156.2C293.277 158.216 292.557 159.992 291.597 161.624C290.445 163.592 289.053 165.08 287.421 166.136C285.789 167.192 284.061 167.672 282.189 167.672C280.269 167.672 278.541 167.192 276.957 166.136C275.325 165.08 273.933 163.592 272.781 161.624C271.821 160.04 271.053 158.264 270.525 156.248C269.949 154.232 269.709 152.312 269.709 150.392C269.709 148.52 269.949 146.6 270.525 144.584C271.053 142.616 271.821 140.84 272.781 139.208C273.933 137.288 275.277 135.8 276.909 134.744C278.541 133.736 280.269 133.208 282.189 133.208C284.061 133.208 285.789 133.736 287.421 134.744C289.053 135.8 290.445 137.288 291.597 139.208ZM282.189 135.032C280.077 135.032 278.685 136.136 277.917 138.296C277.149 140.456 276.813 144.488 276.813 150.392C276.813 156.248 277.197 160.328 277.965 162.536C278.733 164.744 280.173 165.848 282.189 165.848C284.205 165.848 285.645 164.744 286.413 162.536C287.181 160.328 287.565 156.296 287.565 150.392C287.565 144.536 287.181 140.504 286.413 138.296C285.645 136.136 284.205 135.032 282.189 135.032ZM319.722 139.208C320.682 140.84 321.402 142.616 321.978 144.584C322.506 146.6 322.794 148.52 322.794 150.392C322.794 152.312 322.506 154.232 321.978 156.2C321.402 158.216 320.682 159.992 319.722 161.624C318.57 163.592 317.178 165.08 315.546 166.136C313.914 167.192 312.186 167.672 310.314 167.672C308.394 167.672 306.666 167.192 305.082 166.136C303.45 165.08 302.058 163.592 300.906 161.624C299.946 160.04 299.178 158.264 298.65 156.248C298.074 154.232 297.834 152.312 297.834 150.392C297.834 148.52 298.074 146.6 298.65 144.584C299.178 142.616 299.946 140.84 300.906 139.208C302.058 137.288 303.402 135.8 305.034 134.744C306.666 133.736 308.394 133.208 310.314 133.208C312.186 133.208 313.914 133.736 315.546 134.744C317.178 135.8 318.57 137.288 319.722 139.208ZM310.314 135.032C308.202 135.032 306.81 136.136 306.042 138.296C305.274 140.456 304.938 144.488 304.938 150.392C304.938 156.248 305.322 160.328 306.09 162.536C306.858 164.744 308.298 165.848 310.314 165.848C312.33 165.848 313.77 164.744 314.538 162.536C315.306 160.328 315.69 156.296 315.69 150.392C315.69 144.536 315.306 140.504 314.538 138.296C313.77 136.136 312.33 135.032 310.314 135.032Z" fill="white"/>
</svg>
