<svg width="560" height="260" viewBox="0 0 560 260" fill="none" xmlns="http://www.w3.org/2000/svg">
<rect x="4.5" y="4.5" width="551" height="251" fill="black" stroke="#00FF0A" stroke-width="9"/>
<path d="M55.856 173.48C54.368 173.48 53.168 173 52.256 172.04C51.344 171.08 50.912 169.832 50.912 168.248C50.912 167.192 51.2 166.328 51.776 165.656C52.352 165.032 53.12 164.696 54.128 164.696C55.04 164.696 55.76 164.984 56.24 165.512C56.72 166.04 57.008 166.76 57.008 167.672C57.008 168.632 56.672 169.352 56.096 169.88C55.472 170.408 54.608 170.696 53.552 170.696C53.744 171.08 54.08 171.32 54.464 171.512C54.848 171.704 55.28 171.8 55.856 171.8C56.96 171.8 57.92 171.224 58.784 170.024C59.6 168.824 60.656 166.376 62 162.632L62.528 161.144L53.216 138.488H49.664V136.952H62.384V138.488H58.112L64.688 154.712L70.688 138.488H66.992V136.952H75.92V138.488H72.8L64.352 161.72C62.528 166.76 61.04 169.976 59.936 171.368C58.832 172.808 57.488 173.48 55.856 173.48ZM86.0578 159.416H89.6578V161H77.3698V159.416H81.1138V138.488H77.3698V136.952H89.6578V138.488H86.0578V147.704H96.4258V138.488H92.8258V136.952H105.066V138.488H101.37V159.416H105.066V161H92.8258V159.416H96.4258V149.24H86.0578V159.416ZM117.323 159.416H121.115V161H108.635V159.416H112.379V138.488H108.635V136.952H121.115V138.488H117.323V154.232L127.739 140.84V138.488H123.947V136.952H136.379V138.488H132.683V159.416H136.379V161H123.947V159.416H127.739V143.528L117.323 156.92V159.416ZM161.5 161.528C159.964 161.528 158.716 161.144 157.804 160.28C156.892 159.416 156.172 157.928 155.644 155.768C155.02 153.272 154.3 151.592 153.436 150.728C152.572 149.912 151.42 149.48 149.98 149.48H148.636V159.416H152.86V161H139.948V159.416H143.692V138.488H139.948V136.952H151.996V138.488H148.636V147.896H150.364C151.132 147.896 151.756 147.608 152.284 147.032C152.812 146.456 153.388 145.112 154.012 143.048C154.828 140.36 155.692 138.584 156.652 137.72C157.612 136.856 158.812 136.376 160.252 136.376C161.5 136.376 162.508 136.76 163.324 137.48C164.092 138.248 164.524 139.256 164.524 140.504C164.524 141.56 164.236 142.328 163.756 142.904C163.228 143.48 162.508 143.768 161.644 143.768C160.684 143.768 159.964 143.528 159.388 142.952C158.812 142.424 158.524 141.704 158.524 140.84C158.524 140.12 158.716 139.496 159.148 139.016C159.58 138.536 160.156 138.248 160.924 138.056C160.78 138.008 160.636 137.96 160.492 137.912C160.3 137.912 160.108 137.864 159.916 137.864C159.052 137.864 158.284 138.2 157.708 138.872C157.132 139.544 156.46 140.936 155.788 143.096C155.164 144.92 154.636 146.216 154.204 146.936C153.724 147.656 153.244 148.184 152.668 148.472C153.916 148.856 154.972 149.24 155.884 149.624C156.748 150.008 157.516 150.44 158.14 150.824C158.86 151.352 159.436 151.928 159.868 152.552C160.3 153.224 160.732 154.232 161.116 155.672C161.116 155.864 161.212 156.2 161.356 156.728C161.452 157.256 161.596 157.64 161.692 157.88C161.836 158.36 162.028 158.744 162.268 158.936C162.508 159.176 162.844 159.272 163.228 159.272C163.804 159.272 164.236 158.84 164.524 157.928C164.812 157.064 164.956 155.624 164.956 153.704H166.396C166.396 156.584 166.012 158.648 165.244 159.8C164.476 160.952 163.228 161.528 161.5 161.528ZM188.824 161.528C187.192 161.528 185.992 161.096 185.176 160.136C184.36 159.224 183.928 157.832 183.832 155.912C183.256 157.64 182.344 159.032 181 160.04C179.656 161.048 178.024 161.528 176.152 161.528C174.04 161.528 172.456 161.096 171.304 160.136C170.152 159.176 169.624 157.832 169.624 156.008C169.624 154.232 170.392 152.744 172.024 151.544C173.608 150.344 176.248 149.24 179.992 148.28L183.448 147.368V144.008C183.448 142.088 183.016 140.648 182.2 139.688C181.336 138.728 180.088 138.248 178.408 138.248C177.448 138.248 176.632 138.392 175.864 138.68C175.096 138.968 174.424 139.4 173.848 139.928C174.664 140.216 175.288 140.6 175.72 141.128C176.152 141.656 176.392 142.328 176.392 143.096C176.392 144.056 176.104 144.776 175.576 145.352C175 145.928 174.232 146.168 173.272 146.168C172.312 146.168 171.544 145.928 171.016 145.352C170.44 144.776 170.2 144.056 170.2 143.096C170.2 141.272 171.112 139.736 172.984 138.392C174.856 137.048 177.112 136.376 179.8 136.376C182.632 136.376 184.792 137 186.232 138.2C187.672 139.4 188.392 141.176 188.392 143.528V156.92C188.392 157.736 188.488 158.36 188.776 158.744C189.064 159.176 189.448 159.368 190.024 159.368C190.792 159.368 191.416 158.888 191.8 157.928C192.184 156.968 192.424 155.576 192.424 153.704H193.864C193.864 156.488 193.432 158.456 192.664 159.704C191.896 160.952 190.6 161.528 188.824 161.528ZM174.76 155.24C174.76 156.44 175.048 157.352 175.624 157.928C176.2 158.552 177.064 158.84 178.12 158.84C179.8 158.84 181.096 158.168 182.056 156.776C182.968 155.384 183.448 153.368 183.448 150.776V148.808L180.52 149.672C178.504 150.248 177.016 150.968 176.104 151.832C175.192 152.696 174.76 153.848 174.76 155.24ZM212.138 159.416V138.488H205.466C205.466 141.848 205.418 144.488 205.37 146.504C205.322 148.52 205.274 150.2 205.178 151.64C204.89 155.384 204.266 157.928 203.402 159.368C202.538 160.808 201.098 161.528 199.082 161.528C197.738 161.528 196.682 161.144 195.866 160.376C195.05 159.608 194.666 158.456 194.666 157.016C194.666 156.056 194.906 155.24 195.482 154.568C196.058 153.944 196.826 153.608 197.786 153.608C198.65 153.608 199.37 153.896 199.898 154.376C200.426 154.904 200.714 155.576 200.714 156.344C200.714 157.208 200.426 157.928 199.85 158.408C199.274 158.888 198.458 159.128 197.45 159.128C197.594 159.416 197.834 159.608 198.17 159.704C198.458 159.8 198.89 159.848 199.37 159.848C200.618 159.848 201.578 159.128 202.202 157.688C202.778 156.248 203.162 153.752 203.354 150.104C203.402 149 203.45 147.704 203.45 146.168C203.45 144.68 203.498 142.136 203.498 138.488H199.466V136.952H220.778V138.488H217.082V159.416H220.778V161H208.154V159.416H212.138ZM233.058 138.488V147.176H236.322C239.586 147.176 242.178 147.8 244.002 148.952C245.826 150.104 246.786 151.784 246.786 153.992C246.786 156.248 245.874 157.976 244.05 159.176C242.226 160.424 239.634 161 236.322 161H224.37V159.416H228.114V138.488H224.37V136.952H237.522V138.488H233.058ZM235.842 148.712H233.058V159.416H235.89C237.81 159.416 239.25 158.984 240.21 158.072C241.17 157.208 241.65 155.816 241.65 153.944C241.65 152.12 241.17 150.776 240.306 149.96C239.394 149.144 237.906 148.712 235.842 148.712ZM258.605 159.416H262.205V161H249.917V159.416H253.661V138.488H249.917V136.952H262.205V138.488H258.605V147.704H268.973V138.488H265.373V136.952H277.613V138.488H273.917V159.416H277.613V161H265.373V159.416H268.973V149.24H258.605V159.416ZM285.262 173.48C283.774 173.48 282.574 173 281.662 172.04C280.75 171.08 280.318 169.832 280.318 168.248C280.318 167.192 280.606 166.328 281.182 165.656C281.758 165.032 282.526 164.696 283.534 164.696C284.446 164.696 285.166 164.984 285.646 165.512C286.126 166.04 286.414 166.76 286.414 167.672C286.414 168.632 286.078 169.352 285.502 169.88C284.878 170.408 284.014 170.696 282.958 170.696C283.15 171.08 283.486 171.32 283.87 171.512C284.254 171.704 284.686 171.8 285.262 171.8C286.366 171.8 287.326 171.224 288.19 170.024C289.006 168.824 290.062 166.376 291.406 162.632L291.934 161.144L282.622 138.488H279.07V136.952H291.79V138.488H287.518L294.094 154.712L300.094 138.488H296.398V136.952H305.326V138.488H302.206L293.758 161.72C291.934 166.76 290.446 169.976 289.342 171.368C288.238 172.808 286.894 173.48 285.262 173.48ZM342.2 148.856C342.2 152.6 341.096 155.672 338.936 158.024C336.776 160.376 334.136 161.528 331.016 161.528C327.944 161.528 325.304 160.376 323.192 158.072C321.032 155.768 319.928 152.84 319.928 149.24H315.848V159.416H319.064V161H307.208V159.416H310.952V138.488H307.208V136.952H319.064V138.488H315.848V147.704H319.976C320.168 144.296 321.32 141.56 323.432 139.496C325.496 137.432 328.04 136.376 331.016 136.376C334.184 136.376 336.824 137.528 338.984 139.832C341.096 142.136 342.2 145.16 342.2 148.856ZM325.064 148.856C325.064 152.84 325.496 155.672 326.456 157.352C327.416 159.08 328.904 159.896 331.016 159.896C333.032 159.896 334.568 159.032 335.528 157.208C336.488 155.432 337.016 152.648 337.016 148.856C337.016 145.16 336.488 142.424 335.528 140.648C334.568 138.92 333.032 138.008 331.016 138.008C328.904 138.008 327.368 138.872 326.456 140.504C325.496 142.136 325.064 144.92 325.064 148.856ZM368.422 161H358.198V159.416H361.942V138.536H358.198V136.952H368.422C372.31 136.952 375.094 137.432 376.822 138.392C378.502 139.352 379.366 140.84 379.366 142.856C379.366 144.392 378.838 145.592 377.782 146.552C376.726 147.512 375.286 148.088 373.366 148.28C375.766 148.52 377.638 149.144 378.934 150.152C380.23 151.16 380.902 152.504 380.902 154.232C380.902 156.536 379.894 158.216 377.974 159.32C376.006 160.472 372.838 161 368.422 161ZM374.374 143.096C374.374 141.56 373.846 140.408 372.886 139.64C371.878 138.872 370.294 138.488 368.182 138.488H366.886V147.752H368.71C370.87 147.752 372.358 147.416 373.174 146.744C373.942 146.072 374.374 144.824 374.374 143.096ZM366.886 149.24V159.464H368.662C371.158 159.464 372.982 159.08 374.086 158.216C375.19 157.4 375.766 156.056 375.766 154.232C375.766 152.456 375.238 151.16 374.23 150.392C373.222 149.624 371.35 149.24 368.662 149.24H366.886ZM396.63 161.528C393.27 161.528 390.582 160.376 388.47 158.072C386.358 155.768 385.302 152.696 385.302 148.856C385.302 145.208 386.31 142.184 388.374 139.88C390.39 137.576 392.982 136.376 396.15 136.376C399.174 136.376 401.574 137.384 403.35 139.4C405.126 141.416 406.038 144.008 406.038 147.272C406.038 147.416 405.99 147.608 405.99 147.848C405.99 148.136 405.942 148.328 405.942 148.52H390.486V149.048C390.486 152.888 390.966 155.624 392.022 157.304C393.078 158.984 394.71 159.8 397.014 159.8C398.838 159.8 400.374 159.32 401.526 158.36C402.678 157.4 403.59 155.816 404.262 153.656L405.75 153.992C405.174 156.344 404.118 158.168 402.486 159.512C400.854 160.856 398.886 161.528 396.63 161.528ZM396.054 138.008C394.23 138.008 392.886 138.728 392.022 140.168C391.158 141.608 390.63 143.864 390.534 146.936H400.998C400.998 143.816 400.614 141.56 399.846 140.12C399.03 138.728 397.782 138.008 396.054 138.008ZM448.64 159.416V168.104H447.056V166.904C447.056 164.888 446.576 163.4 445.616 162.44C444.656 161.48 443.168 161 441.2 161H409.76V159.416H413.504V138.488H409.76V136.952H420.944V138.488H418.448V159.416H426.464V138.488H423.536V136.952H434.288V138.488H431.408V159.416H439.424V138.488H436.928V136.952H448.064V138.488H444.368V159.416H448.64ZM460.355 138.488V147.176H463.619C466.883 147.176 469.475 147.8 471.299 148.952C473.123 150.104 474.083 151.784 474.083 153.992C474.083 156.248 473.171 157.976 471.347 159.176C469.523 160.424 466.931 161 463.619 161H451.667V159.416H455.411V138.488H451.667V136.952H464.819V138.488H460.355ZM463.139 148.712H460.355V159.416H463.187C465.107 159.416 466.547 158.984 467.507 158.072C468.467 157.208 468.947 155.816 468.947 153.944C468.947 152.12 468.467 150.776 467.603 149.96C466.691 149.144 465.203 148.712 463.139 148.712ZM484.99 158.888C484.99 161.192 484.51 163.304 483.55 165.32C482.59 167.336 481.246 169.016 479.518 170.36L478.222 169.256C479.278 168.392 480.19 167.24 481.006 165.8C481.822 164.36 482.302 162.92 482.493 161.48C482.398 161.48 482.206 161.528 481.966 161.528C481.726 161.528 481.582 161.528 481.534 161.528C480.478 161.528 479.614 161.24 478.99 160.568C478.366 159.896 478.078 159.128 478.078 158.168C478.078 157.208 478.366 156.392 478.99 155.72C479.566 155.048 480.43 154.712 481.534 154.712C482.638 154.712 483.502 155.096 484.078 155.816C484.654 156.584 484.99 157.592 484.99 158.888Z" fill="white"/>
<path d="M60.464 207.416H64.064V209H51.776V207.416H55.52V186.488H51.776V184.952H64.064V186.488H60.464V195.704H70.832V186.488H67.232V184.952H79.472V186.488H75.776V207.416H79.472V209H67.232V207.416H70.832V197.24H60.464V207.416ZM94.8016 209.528C91.4416 209.528 88.7536 208.376 86.6416 206.072C84.5296 203.768 83.4736 200.696 83.4736 196.856C83.4736 193.208 84.4816 190.184 86.5456 187.88C88.5616 185.576 91.1536 184.376 94.3216 184.376C97.3456 184.376 99.7456 185.384 101.522 187.4C103.298 189.416 104.21 192.008 104.21 195.272C104.21 195.416 104.162 195.608 104.162 195.848C104.162 196.136 104.114 196.328 104.114 196.52H88.6576V197.048C88.6576 200.888 89.1376 203.624 90.1936 205.304C91.2496 206.984 92.8816 207.8 95.1856 207.8C97.0096 207.8 98.5456 207.32 99.6976 206.36C100.85 205.4 101.762 203.816 102.434 201.656L103.922 201.992C103.346 204.344 102.29 206.168 100.658 207.512C99.0256 208.856 97.0576 209.528 94.8016 209.528ZM94.2256 186.008C92.4016 186.008 91.0576 186.728 90.1936 188.168C89.3296 189.608 88.8016 191.864 88.7056 194.936H99.1696C99.1696 191.816 98.7856 189.56 98.0176 188.12C97.2016 186.728 95.9536 186.008 94.2256 186.008ZM130.156 209H119.932V207.416H123.676V186.536H119.932V184.952H130.156C134.044 184.952 136.828 185.432 138.556 186.392C140.236 187.352 141.1 188.84 141.1 190.856C141.1 192.392 140.572 193.592 139.516 194.552C138.46 195.512 137.02 196.088 135.1 196.28C137.5 196.52 139.372 197.144 140.668 198.152C141.964 199.16 142.636 200.504 142.636 202.232C142.636 204.536 141.628 206.216 139.708 207.32C137.74 208.472 134.572 209 130.156 209ZM136.108 191.096C136.108 189.56 135.58 188.408 134.62 187.64C133.612 186.872 132.028 186.488 129.916 186.488H128.62V195.752H130.444C132.604 195.752 134.092 195.416 134.908 194.744C135.676 194.072 136.108 192.824 136.108 191.096ZM128.62 197.24V207.464H130.396C132.892 207.464 134.716 207.08 135.82 206.216C136.924 205.4 137.5 204.056 137.5 202.232C137.5 200.456 136.972 199.16 135.964 198.392C134.956 197.624 133.084 197.24 130.396 197.24H128.62ZM161.196 207.848C163.164 207.848 164.604 206.984 165.564 205.256C166.476 203.528 166.956 200.792 167.004 196.952C167.004 193.208 166.572 190.52 165.66 188.792C164.7 187.064 163.26 186.2 161.292 186.2C159.468 186.2 157.98 187.16 156.924 188.984C155.82 190.808 155.292 193.304 155.292 196.376V199.16C155.292 202.184 155.724 204.392 156.684 205.784C157.596 207.176 159.084 207.848 161.196 207.848ZM155.292 219.224H160.62V221H146.604V219.224H150.348V186.728H146.604V184.952C148.956 184.952 150.636 184.952 151.644 184.856C152.604 184.76 153.324 184.568 153.804 184.28L154.476 184.712V191.72C154.764 189.512 155.58 187.736 157.02 186.392C158.412 185.048 160.188 184.376 162.348 184.376C165.084 184.376 167.388 185.576 169.308 187.928C171.228 190.28 172.188 193.256 172.188 196.856C172.188 200.552 171.132 203.576 169.116 205.976C167.1 208.376 164.604 209.528 161.628 209.528C160.14 209.528 158.892 209.288 157.884 208.712C156.828 208.184 155.964 207.368 155.292 206.216V219.224ZM187.942 209.528C184.582 209.528 181.894 208.376 179.782 206.072C177.67 203.768 176.614 200.696 176.614 196.856C176.614 193.208 177.622 190.184 179.686 187.88C181.702 185.576 184.294 184.376 187.462 184.376C190.486 184.376 192.886 185.384 194.662 187.4C196.438 189.416 197.35 192.008 197.35 195.272C197.35 195.416 197.302 195.608 197.302 195.848C197.302 196.136 197.254 196.328 197.254 196.52H181.798V197.048C181.798 200.888 182.278 203.624 183.334 205.304C184.39 206.984 186.022 207.8 188.326 207.8C190.15 207.8 191.686 207.32 192.838 206.36C193.99 205.4 194.902 203.816 195.574 201.656L197.062 201.992C196.486 204.344 195.43 206.168 193.798 207.512C192.166 208.856 190.198 209.528 187.942 209.528ZM187.366 186.008C185.542 186.008 184.198 186.728 183.334 188.168C182.47 189.608 181.942 191.864 181.846 194.936H192.31C192.31 191.816 191.926 189.56 191.158 188.12C190.342 186.728 189.094 186.008 187.366 186.008ZM216.337 207.416V186.488H208.705C208.705 188.216 208.609 190.184 208.465 192.344C208.321 194.504 208.129 196.424 207.937 198.056C207.553 200.456 207.169 202.376 206.689 203.912C206.209 205.448 205.633 206.648 204.961 207.416H216.337ZM221.281 186.488V207.416H225.553V216.104H223.969V214.904C223.969 212.888 223.489 211.4 222.529 210.44C221.569 209.48 220.081 209 218.161 209H207.073C205.105 209 203.665 209.48 202.705 210.44C201.745 211.4 201.265 212.888 201.265 214.904V216.104H199.729V207.416H202.417C203.233 206.84 203.953 205.784 204.529 204.248C205.105 202.712 205.585 200.744 205.969 198.248C206.113 197.192 206.257 195.848 206.401 194.264C206.497 192.728 206.641 190.136 206.785 186.488H203.041V184.952H225.409V186.488H221.281ZM241.885 196.136H244.333V186.488H242.029C240.205 186.488 238.717 186.968 237.613 187.832C236.461 188.696 235.933 189.896 235.933 191.432C235.933 192.968 236.461 194.12 237.517 194.936C238.573 195.752 240.061 196.136 241.885 196.136ZM239.005 199.928C238.765 200.312 238.573 200.744 238.381 201.224C238.189 201.704 237.805 202.808 237.325 204.488C236.749 206.408 236.029 207.704 235.213 208.424C234.397 209.192 233.341 209.528 232.045 209.528C230.317 209.528 229.117 208.952 228.445 207.8C227.773 206.648 227.437 204.584 227.437 201.704H228.877C228.877 203.528 229.021 204.872 229.309 205.832C229.597 206.792 230.029 207.272 230.605 207.272C230.941 207.272 231.229 207.128 231.421 206.84C231.613 206.552 231.997 205.448 232.573 203.528C233.053 201.896 233.677 200.744 234.349 200.072C235.021 199.4 236.701 198.488 239.293 197.24C236.701 197.192 234.637 196.664 233.101 195.608C231.565 194.552 230.797 193.16 230.797 191.336C230.797 189.32 231.757 187.784 233.677 186.632C235.597 185.528 238.189 184.952 241.501 184.952H252.973V186.488H249.277V207.416H252.973V209H240.301V207.416H244.333V197.528H242.893C241.981 197.528 241.213 197.72 240.589 198.104C239.965 198.488 239.437 199.112 239.005 199.928ZM277.214 207.416H280.574V209H268.526V207.416H272.27V186.488H268.526V184.952H295.262V186.488H291.566V207.416H295.262V209H283.262V207.416H286.622V186.488H277.214V207.416ZM313.399 207.848C315.367 207.848 316.807 206.984 317.767 205.256C318.679 203.528 319.159 200.792 319.207 196.952C319.207 193.208 318.775 190.52 317.863 188.792C316.903 187.064 315.463 186.2 313.495 186.2C311.671 186.2 310.183 187.16 309.127 188.984C308.023 190.808 307.495 193.304 307.495 196.376V199.16C307.495 202.184 307.927 204.392 308.887 205.784C309.799 207.176 311.287 207.848 313.399 207.848ZM307.495 219.224H312.823V221H298.807V219.224H302.551V186.728H298.807V184.952C301.159 184.952 302.839 184.952 303.847 184.856C304.807 184.76 305.527 184.568 306.007 184.28L306.679 184.712V191.72C306.967 189.512 307.783 187.736 309.223 186.392C310.615 185.048 312.391 184.376 314.551 184.376C317.287 184.376 319.591 185.576 321.511 187.928C323.431 190.28 324.391 193.256 324.391 196.856C324.391 200.552 323.335 203.576 321.319 205.976C319.303 208.376 316.807 209.528 313.831 209.528C312.343 209.528 311.095 209.288 310.087 208.712C309.031 208.184 308.167 207.368 307.495 206.216V219.224ZM337.073 207.416H340.865V209H328.385V207.416H332.129V186.488H328.385V184.952H340.865V186.488H337.073V202.232L347.489 188.84V186.488H343.697V184.952H356.129V186.488H352.433V207.416H356.129V209H343.697V207.416H347.489V191.528L337.073 204.92V207.416ZM374.29 207.848C376.258 207.848 377.698 206.984 378.658 205.256C379.57 203.528 380.05 200.792 380.098 196.952C380.098 193.208 379.666 190.52 378.754 188.792C377.794 187.064 376.354 186.2 374.386 186.2C372.562 186.2 371.074 187.16 370.018 188.984C368.914 190.808 368.386 193.304 368.386 196.376V199.16C368.386 202.184 368.818 204.392 369.778 205.784C370.69 207.176 372.178 207.848 374.29 207.848ZM368.386 219.224H373.714V221H359.698V219.224H363.442V186.728H359.698V184.952C362.05 184.952 363.73 184.952 364.738 184.856C365.698 184.76 366.418 184.568 366.898 184.28L367.57 184.712V191.72C367.858 189.512 368.674 187.736 370.114 186.392C371.506 185.048 373.282 184.376 375.442 184.376C378.178 184.376 380.482 185.576 382.402 187.928C384.322 190.28 385.282 193.256 385.282 196.856C385.282 200.552 384.226 203.576 382.21 205.976C380.194 208.376 377.698 209.528 374.722 209.528C373.234 209.528 371.986 209.288 370.978 208.712C369.922 208.184 369.058 207.368 368.386 206.216V219.224ZM401.084 184.376C404.252 184.376 406.988 185.576 409.196 187.976C411.404 190.376 412.556 193.352 412.556 197C412.556 200.648 411.404 203.672 409.196 206.024C406.988 208.376 404.252 209.528 401.084 209.528C397.772 209.528 395.036 208.376 392.924 206.072C390.764 203.768 389.708 200.744 389.708 197C389.708 193.256 390.764 190.232 392.924 187.88C395.036 185.576 397.772 184.376 401.084 184.376ZM401.084 186.008C398.924 186.008 397.34 186.872 396.38 188.6C395.372 190.328 394.892 193.16 394.892 197C394.892 200.84 395.372 203.624 396.38 205.352C397.34 207.08 398.924 207.944 401.084 207.944C403.148 207.944 404.732 207.032 405.788 205.208C406.844 203.384 407.372 200.648 407.372 197C407.372 193.352 406.844 190.616 405.788 188.792C404.732 186.968 403.148 186.008 401.084 186.008ZM431.353 207.416V186.488H423.721C423.721 188.216 423.625 190.184 423.481 192.344C423.337 194.504 423.145 196.424 422.953 198.056C422.569 200.456 422.185 202.376 421.705 203.912C421.225 205.448 420.648 206.648 419.977 207.416H431.353ZM436.297 186.488V207.416H440.569V216.104H438.984V214.904C438.984 212.888 438.505 211.4 437.545 210.44C436.585 209.48 435.097 209 433.177 209H422.089C420.121 209 418.681 209.48 417.721 210.44C416.761 211.4 416.281 212.888 416.281 214.904V216.104H414.745V207.416H417.433C418.249 206.84 418.969 205.784 419.545 204.248C420.121 202.712 420.601 200.744 420.985 198.248C421.129 197.192 421.273 195.848 421.417 194.264C421.513 192.728 421.657 190.136 421.801 186.488H418.057V184.952H440.425V186.488H436.297ZM455.364 209.528C452.004 209.528 449.316 208.376 447.204 206.072C445.092 203.768 444.036 200.696 444.036 196.856C444.036 193.208 445.044 190.184 447.108 187.88C449.124 185.576 451.716 184.376 454.884 184.376C457.908 184.376 460.308 185.384 462.084 187.4C463.86 189.416 464.772 192.008 464.772 195.272C464.772 195.416 464.724 195.608 464.724 195.848C464.724 196.136 464.676 196.328 464.676 196.52H449.22V197.048C449.22 200.888 449.7 203.624 450.756 205.304C451.812 206.984 453.444 207.8 455.748 207.8C457.572 207.8 459.108 207.32 460.26 206.36C461.412 205.4 462.324 203.816 462.996 201.656L464.484 201.992C463.908 204.344 462.852 206.168 461.22 207.512C459.588 208.856 457.62 209.528 455.364 209.528ZM454.788 186.008C452.964 186.008 451.62 186.728 450.756 188.168C449.892 189.608 449.364 191.864 449.268 194.936H459.732C459.732 191.816 459.348 189.56 458.58 188.12C457.764 186.728 456.516 186.008 454.788 186.008Z" fill="white"/>
<path d="M90.08 118H51.776V116.416H55.52V95.488H51.776V93.952H62.96V95.488H60.464V116.416H68.48V95.488H65.552V93.952H76.304V95.488H73.424V116.416H81.44V95.488H78.944V93.952H90.08V95.488H86.384V116.416H90.08V118ZM113.074 118.528C111.442 118.528 110.242 118.096 109.426 117.136C108.61 116.224 108.178 114.832 108.082 112.912C107.506 114.64 106.594 116.032 105.25 117.04C103.906 118.048 102.274 118.528 100.402 118.528C98.2903 118.528 96.7063 118.096 95.5543 117.136C94.4023 116.176 93.8743 114.832 93.8743 113.008C93.8743 111.232 94.6423 109.744 96.2743 108.544C97.8583 107.344 100.498 106.24 104.242 105.28L107.698 104.368V101.008C107.698 99.088 107.266 97.648 106.45 96.688C105.586 95.728 104.338 95.248 102.658 95.248C101.698 95.248 100.882 95.392 100.114 95.68C99.3463 95.968 98.6743 96.4 98.0983 96.928C98.9143 97.216 99.5383 97.6 99.9703 98.128C100.402 98.656 100.642 99.328 100.642 100.096C100.642 101.056 100.354 101.776 99.8263 102.352C99.2503 102.928 98.4823 103.168 97.5223 103.168C96.5623 103.168 95.7943 102.928 95.2663 102.352C94.6903 101.776 94.4503 101.056 94.4503 100.096C94.4503 98.272 95.3623 96.736 97.2343 95.392C99.1063 94.048 101.362 93.376 104.05 93.376C106.882 93.376 109.042 94 110.482 95.2C111.922 96.4 112.642 98.176 112.642 100.528V113.92C112.642 114.736 112.738 115.36 113.026 115.744C113.314 116.176 113.698 116.368 114.274 116.368C115.042 116.368 115.666 115.888 116.05 114.928C116.434 113.968 116.674 112.576 116.674 110.704H118.114C118.114 113.488 117.682 115.456 116.914 116.704C116.146 117.952 114.85 118.528 113.074 118.528ZM99.0103 112.24C99.0103 113.44 99.2983 114.352 99.8743 114.928C100.45 115.552 101.314 115.84 102.37 115.84C104.05 115.84 105.346 115.168 106.306 113.776C107.218 112.384 107.698 110.368 107.698 107.776V105.808L104.77 106.672C102.754 107.248 101.266 107.968 100.354 108.832C99.4423 109.696 99.0103 110.848 99.0103 112.24ZM128.948 116.416H132.548V118H120.26V116.416H124.004V95.488H120.26V93.952H132.548V95.488H128.948V104.704H139.316V95.488H135.716V93.952H147.956V95.488H144.26V116.416H147.956V118H135.716V116.416H139.316V106.24H128.948V116.416ZM170.198 110.656L171.734 110.992C171.158 113.488 170.15 115.36 168.662 116.608C167.126 117.904 165.254 118.528 162.95 118.528C159.59 118.528 156.95 117.424 154.982 115.216C152.966 113.008 152.006 109.936 152.006 106.096C152.006 102.208 153.014 99.136 155.126 96.832C157.238 94.528 159.974 93.376 163.382 93.376C165.782 93.376 167.702 94.048 169.19 95.344C170.63 96.64 171.398 98.368 171.398 100.48C171.398 101.488 171.11 102.304 170.582 102.88C170.006 103.456 169.286 103.744 168.374 103.744C167.318 103.744 166.55 103.504 165.974 102.928C165.398 102.4 165.158 101.632 165.158 100.672C165.158 99.808 165.446 99.04 166.022 98.464C166.598 97.888 167.414 97.552 168.518 97.36C168.134 96.592 167.51 95.968 166.694 95.584C165.83 95.2 164.822 94.96 163.622 94.96C161.414 94.96 159.782 95.872 158.726 97.648C157.67 99.424 157.19 102.256 157.19 106.096C157.19 109.552 157.718 112.192 158.774 114.016C159.83 115.888 161.318 116.8 163.334 116.8C165.11 116.8 166.55 116.32 167.654 115.36C168.758 114.4 169.622 112.816 170.198 110.656ZM195.745 116.416H199.537V118H187.057V116.416H190.801V95.488H187.057V93.952H199.537V95.488H195.745V111.232L206.161 97.84V95.488H202.369V93.952H214.801V95.488H211.105V116.416H214.801V118H202.369V116.416H206.161V100.528L195.745 113.92V116.416ZM249.042 110.656L250.578 110.992C250.002 113.488 248.994 115.36 247.506 116.608C245.97 117.904 244.098 118.528 241.794 118.528C238.434 118.528 235.794 117.424 233.826 115.216C231.81 113.008 230.85 109.936 230.85 106.096C230.85 102.208 231.858 99.136 233.97 96.832C236.082 94.528 238.818 93.376 242.226 93.376C244.626 93.376 246.546 94.048 248.034 95.344C249.474 96.64 250.242 98.368 250.242 100.48C250.242 101.488 249.954 102.304 249.426 102.88C248.85 103.456 248.13 103.744 247.218 103.744C246.162 103.744 245.394 103.504 244.818 102.928C244.242 102.4 244.002 101.632 244.002 100.672C244.002 99.808 244.29 99.04 244.866 98.464C245.442 97.888 246.258 97.552 247.362 97.36C246.978 96.592 246.354 95.968 245.538 95.584C244.674 95.2 243.666 94.96 242.466 94.96C240.258 94.96 238.626 95.872 237.57 97.648C236.514 99.424 236.034 102.256 236.034 106.096C236.034 109.552 236.562 112.192 237.618 114.016C238.674 115.888 240.162 116.8 242.178 116.8C243.954 116.8 245.394 116.32 246.498 115.36C247.602 114.4 248.466 112.816 249.042 110.656ZM265.709 93.376C268.877 93.376 271.613 94.576 273.821 96.976C276.029 99.376 277.181 102.352 277.181 106C277.181 109.648 276.029 112.672 273.821 115.024C271.613 117.376 268.877 118.528 265.709 118.528C262.397 118.528 259.661 117.376 257.549 115.072C255.389 112.768 254.333 109.744 254.333 106C254.333 102.256 255.389 99.232 257.549 96.88C259.661 94.576 262.397 93.376 265.709 93.376ZM265.709 95.008C263.549 95.008 261.965 95.872 261.005 97.6C259.997 99.328 259.517 102.16 259.517 106C259.517 109.84 259.997 112.624 261.005 114.352C261.965 116.08 263.549 116.944 265.709 116.944C267.773 116.944 269.357 116.032 270.413 114.208C271.469 112.384 271.997 109.648 271.997 106C271.997 102.352 271.469 99.616 270.413 97.792C269.357 95.968 267.773 95.008 265.709 95.008ZM301.15 111.328C301.15 113.632 300.19 115.408 298.366 116.656C296.542 117.904 294.094 118.528 291.022 118.528C288.046 118.528 285.742 117.952 284.014 116.8C282.286 115.648 281.47 114.112 281.47 112.192C281.47 111.184 281.71 110.368 282.286 109.792C282.814 109.216 283.582 108.928 284.542 108.928C285.502 108.928 286.222 109.216 286.75 109.744C287.23 110.32 287.518 111.04 287.518 111.952C287.518 112.72 287.23 113.344 286.75 113.824C286.27 114.304 285.55 114.64 284.686 114.784C285.166 115.504 285.886 116.032 286.894 116.416C287.902 116.8 289.102 116.992 290.542 116.992C292.366 116.992 293.71 116.512 294.67 115.552C295.582 114.592 296.062 113.104 296.062 111.184C296.062 109.552 295.582 108.352 294.622 107.584C293.662 106.864 292.03 106.48 289.726 106.48H287.566V104.896H289.726C291.646 104.896 293.038 104.512 293.902 103.696C294.718 102.88 295.15 101.536 295.15 99.712C295.15 98.272 294.718 97.168 293.902 96.4C293.086 95.632 291.934 95.248 290.398 95.248C288.622 95.248 287.23 95.776 286.27 96.832C285.31 97.888 284.638 99.568 284.254 101.872H282.766V93.712H284.158L285.358 95.536C286.27 94.768 287.23 94.24 288.286 93.904C289.342 93.568 290.542 93.376 291.934 93.376C294.478 93.376 296.494 93.952 297.934 95.008C299.374 96.064 300.142 97.6 300.142 99.616C300.142 101.248 299.566 102.544 298.51 103.552C297.406 104.608 295.918 105.232 293.998 105.52C296.206 105.808 297.934 106.432 299.23 107.44C300.478 108.448 301.15 109.744 301.15 111.328ZM320.212 116.416V95.488H312.58C312.58 97.216 312.484 99.184 312.34 101.344C312.196 103.504 312.004 105.424 311.812 107.056C311.428 109.456 311.044 111.376 310.564 112.912C310.084 114.448 309.508 115.648 308.836 116.416H320.212ZM325.156 95.488V116.416H329.428V125.104H327.844V123.904C327.844 121.888 327.364 120.4 326.404 119.44C325.444 118.48 323.956 118 322.036 118H310.948C308.98 118 307.54 118.48 306.58 119.44C305.62 120.4 305.14 121.888 305.14 123.904V125.104H303.604V116.416H306.292C307.108 115.84 307.828 114.784 308.404 113.248C308.98 111.712 309.46 109.744 309.844 107.248C309.988 106.192 310.132 104.848 310.276 103.264C310.372 101.728 310.516 99.136 310.66 95.488H306.916V93.952H329.284V95.488H325.156ZM351.856 118.528C350.224 118.528 349.024 118.096 348.208 117.136C347.392 116.224 346.96 114.832 346.864 112.912C346.288 114.64 345.376 116.032 344.032 117.04C342.688 118.048 341.056 118.528 339.184 118.528C337.072 118.528 335.488 118.096 334.336 117.136C333.184 116.176 332.656 114.832 332.656 113.008C332.656 111.232 333.424 109.744 335.056 108.544C336.64 107.344 339.28 106.24 343.023 105.28L346.48 104.368V101.008C346.48 99.088 346.048 97.648 345.232 96.688C344.368 95.728 343.12 95.248 341.44 95.248C340.48 95.248 339.664 95.392 338.896 95.68C338.128 95.968 337.456 96.4 336.88 96.928C337.696 97.216 338.32 97.6 338.752 98.128C339.184 98.656 339.424 99.328 339.424 100.096C339.424 101.056 339.136 101.776 338.608 102.352C338.032 102.928 337.264 103.168 336.304 103.168C335.344 103.168 334.576 102.928 334.048 102.352C333.472 101.776 333.232 101.056 333.232 100.096C333.232 98.272 334.144 96.736 336.016 95.392C337.888 94.048 340.144 93.376 342.832 93.376C345.664 93.376 347.824 94 349.264 95.2C350.704 96.4 351.424 98.176 351.424 100.528V113.92C351.424 114.736 351.52 115.36 351.808 115.744C352.096 116.176 352.48 116.368 353.056 116.368C353.824 116.368 354.448 115.888 354.832 114.928C355.216 113.968 355.456 112.576 355.456 110.704H356.896C356.896 113.488 356.464 115.456 355.696 116.704C354.927 117.952 353.632 118.528 351.856 118.528ZM337.792 112.24C337.792 113.44 338.08 114.352 338.656 114.928C339.232 115.552 340.096 115.84 341.152 115.84C342.832 115.84 344.128 115.168 345.088 113.776C346 112.384 346.48 110.368 346.48 107.776V105.808L343.552 106.672C341.536 107.248 340.048 107.968 339.136 108.832C338.224 109.696 337.792 110.848 337.792 112.24ZM367.73 116.416H371.522V118H359.042V116.416H362.786V95.488H359.042V93.952H371.522V95.488H367.73V111.232L378.146 97.84V95.488H374.354V93.952H386.786V95.488H383.09V116.416H386.786V118H374.354V116.416H378.146V100.528L367.73 113.92V116.416ZM378.146 80.224C379.01 80.224 379.682 80.512 380.162 81.088C380.642 81.664 380.93 82.384 380.93 83.248C380.93 85.168 380.162 86.848 378.722 88.24C377.234 89.68 375.314 90.352 373.01 90.352C370.658 90.352 368.738 89.68 367.298 88.24C365.81 86.848 365.09 85.168 365.09 83.248C365.09 82.384 365.33 81.664 365.858 81.088C366.338 80.512 367.01 80.224 367.874 80.224C368.642 80.224 369.266 80.464 369.746 80.896C370.226 81.376 370.466 81.952 370.466 82.672C370.466 83.632 370.082 84.304 369.362 84.784C368.594 85.264 367.634 85.408 366.482 85.12C367.058 85.888 367.922 86.512 369.074 86.944C370.226 87.424 371.522 87.616 373.01 87.616C374.546 87.616 375.89 87.424 377.09 86.944C378.242 86.512 379.154 85.888 379.73 85.072C378.386 85.408 377.378 85.36 376.658 84.928C375.89 84.496 375.554 83.728 375.554 82.672C375.554 81.952 375.746 81.376 376.226 80.896C376.706 80.464 377.33 80.224 378.146 80.224Z" fill="white"/>
<path d="M69.392 72.416V42.464H60.176C60.128 50.384 59.792 56.672 59.12 61.376C58.448 66.08 57.344 69.728 55.808 72.416H69.392ZM51.968 81.104V82.64H50.432V72.416H53.408C55.136 69.92 56.336 66.368 57.008 61.856C57.68 57.344 58.064 50.864 58.112 42.464H54.224V40.88H78.464V42.464H74.528V72.416H79.232V82.64H77.648V81.104C77.648 78.416 77.12 76.544 76.16 75.536C75.2 74.528 73.376 74 70.688 74H58.976C56.288 74 54.416 74.528 53.456 75.536C52.448 76.592 51.968 78.416 51.968 81.104ZM102.246 74.528C100.614 74.528 99.4141 74.096 98.5981 73.136C97.7821 72.224 97.3501 70.832 97.2541 68.912C96.6781 70.64 95.7661 72.032 94.4221 73.04C93.0781 74.048 91.4461 74.528 89.5741 74.528C87.4621 74.528 85.8781 74.096 84.7261 73.136C83.5741 72.176 83.0461 70.832 83.0461 69.008C83.0461 67.232 83.8141 65.744 85.4461 64.544C87.0301 63.344 89.6701 62.24 93.4141 61.28L96.8701 60.368V57.008C96.8701 55.088 96.4381 53.648 95.6221 52.688C94.7581 51.728 93.5101 51.248 91.8301 51.248C90.8701 51.248 90.0541 51.392 89.2861 51.68C88.5181 51.968 87.8461 52.4 87.2701 52.928C88.0861 53.216 88.7101 53.6 89.1421 54.128C89.5741 54.656 89.8141 55.328 89.8141 56.096C89.8141 57.056 89.5261 57.776 88.9981 58.352C88.4221 58.928 87.6541 59.168 86.6941 59.168C85.7341 59.168 84.9661 58.928 84.4381 58.352C83.8621 57.776 83.6221 57.056 83.6221 56.096C83.6221 54.272 84.5341 52.736 86.4061 51.392C88.2781 50.048 90.5341 49.376 93.2221 49.376C96.0541 49.376 98.2141 50 99.6541 51.2C101.094 52.4 101.814 54.176 101.814 56.528V69.92C101.814 70.736 101.91 71.36 102.198 71.744C102.486 72.176 102.87 72.368 103.446 72.368C104.214 72.368 104.838 71.888 105.222 70.928C105.606 69.968 105.846 68.576 105.846 66.704H107.286C107.286 69.488 106.854 71.456 106.086 72.704C105.318 73.952 104.022 74.528 102.246 74.528ZM88.1821 68.24C88.1821 69.44 88.4701 70.352 89.0461 70.928C89.6221 71.552 90.4861 71.84 91.5421 71.84C93.2221 71.84 94.5181 71.168 95.4781 69.776C96.3901 68.384 96.8701 66.368 96.8701 63.776V61.808L93.9421 62.672C91.9261 63.248 90.4381 63.968 89.5261 64.832C88.6141 65.696 88.1821 66.848 88.1821 68.24ZM118.12 72.416H121.912V74H109.432V72.416H113.176V51.488H109.432V49.952H121.912V51.488H118.12V67.232L128.536 53.84V51.488H124.744V49.952H137.176V51.488H133.48V72.416H137.176V74H124.744V72.416H128.536V56.528L118.12 69.92V72.416ZM128.536 36.224C129.4 36.224 130.072 36.512 130.552 37.088C131.032 37.664 131.32 38.384 131.32 39.248C131.32 41.168 130.552 42.848 129.112 44.24C127.624 45.68 125.704 46.352 123.4 46.352C121.048 46.352 119.128 45.68 117.688 44.24C116.2 42.848 115.48 41.168 115.48 39.248C115.48 38.384 115.72 37.664 116.248 37.088C116.728 36.512 117.4 36.224 118.264 36.224C119.032 36.224 119.656 36.464 120.136 36.896C120.616 37.376 120.856 37.952 120.856 38.672C120.856 39.632 120.472 40.304 119.752 40.784C118.984 41.264 118.024 41.408 116.872 41.12C117.448 41.888 118.312 42.512 119.464 42.944C120.616 43.424 121.912 43.616 123.4 43.616C124.936 43.616 126.28 43.424 127.48 42.944C128.632 42.512 129.544 41.888 130.12 41.072C128.776 41.408 127.768 41.36 127.048 40.928C126.28 40.496 125.944 39.728 125.944 38.672C125.944 37.952 126.136 37.376 126.616 36.896C127.096 36.464 127.72 36.224 128.536 36.224ZM171.417 66.656L172.953 66.992C172.377 69.488 171.369 71.36 169.881 72.608C168.345 73.904 166.473 74.528 164.169 74.528C160.809 74.528 158.169 73.424 156.201 71.216C154.185 69.008 153.225 65.936 153.225 62.096C153.225 58.208 154.233 55.136 156.345 52.832C158.457 50.528 161.193 49.376 164.601 49.376C167.001 49.376 168.921 50.048 170.409 51.344C171.849 52.64 172.617 54.368 172.617 56.48C172.617 57.488 172.329 58.304 171.801 58.88C171.225 59.456 170.505 59.744 169.593 59.744C168.537 59.744 167.769 59.504 167.193 58.928C166.617 58.4 166.377 57.632 166.377 56.672C166.377 55.808 166.665 55.04 167.241 54.464C167.817 53.888 168.633 53.552 169.737 53.36C169.353 52.592 168.729 51.968 167.913 51.584C167.049 51.2 166.041 50.96 164.841 50.96C162.633 50.96 161.001 51.872 159.945 53.648C158.889 55.424 158.409 58.256 158.409 62.096C158.409 65.552 158.937 68.192 159.993 70.016C161.049 71.888 162.537 72.8 164.553 72.8C166.329 72.8 167.769 72.32 168.873 71.36C169.977 70.4 170.841 68.816 171.417 66.656ZM193.268 72.416V74H179.972V72.416H184.148V51.488H182.132C180.356 51.488 179.06 51.968 178.244 52.928C177.428 53.888 177.044 55.376 177.044 57.44V58.64H175.46V49.952H197.78V58.64H196.244V57.44C196.244 55.424 195.812 53.936 194.996 52.976C194.132 52.016 192.836 51.536 191.108 51.488H189.092V72.416H193.268ZM219.902 74.528C218.27 74.528 217.07 74.096 216.254 73.136C215.438 72.224 215.006 70.832 214.91 68.912C214.334 70.64 213.422 72.032 212.078 73.04C210.734 74.048 209.102 74.528 207.23 74.528C205.118 74.528 203.534 74.096 202.382 73.136C201.23 72.176 200.702 70.832 200.702 69.008C200.702 67.232 201.47 65.744 203.102 64.544C204.686 63.344 207.326 62.24 211.07 61.28L214.526 60.368V57.008C214.526 55.088 214.094 53.648 213.278 52.688C212.414 51.728 211.166 51.248 209.486 51.248C208.526 51.248 207.71 51.392 206.942 51.68C206.174 51.968 205.502 52.4 204.926 52.928C205.742 53.216 206.366 53.6 206.798 54.128C207.23 54.656 207.47 55.328 207.47 56.096C207.47 57.056 207.182 57.776 206.654 58.352C206.078 58.928 205.31 59.168 204.35 59.168C203.39 59.168 202.622 58.928 202.094 58.352C201.518 57.776 201.278 57.056 201.278 56.096C201.278 54.272 202.19 52.736 204.062 51.392C205.934 50.048 208.19 49.376 210.878 49.376C213.71 49.376 215.87 50 217.31 51.2C218.75 52.4 219.47 54.176 219.47 56.528V69.92C219.47 70.736 219.566 71.36 219.854 71.744C220.142 72.176 220.526 72.368 221.102 72.368C221.87 72.368 222.494 71.888 222.878 70.928C223.262 69.968 223.502 68.576 223.502 66.704H224.942C224.942 69.488 224.51 71.456 223.742 72.704C222.974 73.952 221.678 74.528 219.902 74.528ZM205.838 68.24C205.838 69.44 206.126 70.352 206.702 70.928C207.278 71.552 208.142 71.84 209.198 71.84C210.878 71.84 212.174 71.168 213.134 69.776C214.046 68.384 214.526 66.368 214.526 63.776V61.808L211.598 62.672C209.582 63.248 208.094 63.968 207.182 64.832C206.27 65.696 205.838 66.848 205.838 68.24ZM241.681 72.848C243.649 72.848 245.089 71.984 246.049 70.256C246.961 68.528 247.441 65.792 247.489 61.952C247.489 58.208 247.057 55.52 246.145 53.792C245.185 52.064 243.745 51.2 241.777 51.2C239.953 51.2 238.465 52.16 237.409 53.984C236.305 55.808 235.777 58.304 235.777 61.376V64.16C235.777 67.184 236.209 69.392 237.169 70.784C238.081 72.176 239.569 72.848 241.681 72.848ZM235.777 84.224H241.105V86H227.089V84.224H230.833V51.728H227.089V49.952C229.441 49.952 231.121 49.952 232.129 49.856C233.089 49.76 233.809 49.568 234.289 49.28L234.961 49.712V56.72C235.249 54.512 236.065 52.736 237.505 51.392C238.897 50.048 240.673 49.376 242.833 49.376C245.569 49.376 247.873 50.576 249.793 52.928C251.713 55.28 252.673 58.256 252.673 61.856C252.673 65.552 251.617 68.576 249.601 70.976C247.585 73.376 245.089 74.528 242.113 74.528C240.625 74.528 239.377 74.288 238.369 73.712C237.312 73.184 236.449 72.368 235.777 71.216V84.224ZM268.475 49.376C271.643 49.376 274.379 50.576 276.587 52.976C278.795 55.376 279.947 58.352 279.947 62C279.947 65.648 278.795 68.672 276.587 71.024C274.379 73.376 271.643 74.528 268.475 74.528C265.163 74.528 262.427 73.376 260.315 71.072C258.155 68.768 257.099 65.744 257.099 62C257.099 58.256 258.155 55.232 260.315 52.88C262.427 50.576 265.163 49.376 268.475 49.376ZM268.475 51.008C266.315 51.008 264.731 51.872 263.771 53.6C262.763 55.328 262.283 58.16 262.283 62C262.283 65.84 262.763 68.624 263.771 70.352C264.731 72.08 266.315 72.944 268.475 72.944C270.539 72.944 272.123 72.032 273.179 70.208C274.235 68.384 274.763 65.648 274.763 62C274.763 58.352 274.235 55.616 273.179 53.792C272.123 51.968 270.539 51.008 268.475 51.008ZM292.636 72.416H296.428V74H283.948V72.416H287.692V51.488H283.948V49.952H296.428V51.488H292.636V67.232L303.052 53.84V51.488H299.26V49.952H311.692V51.488H307.996V72.416H311.692V74H299.26V72.416H303.052V56.528L292.636 69.92V72.416ZM303.052 36.224C303.916 36.224 304.588 36.512 305.068 37.088C305.548 37.664 305.836 38.384 305.836 39.248C305.836 41.168 305.068 42.848 303.628 44.24C302.14 45.68 300.22 46.352 297.916 46.352C295.564 46.352 293.644 45.68 292.204 44.24C290.716 42.848 289.996 41.168 289.996 39.248C289.996 38.384 290.236 37.664 290.764 37.088C291.244 36.512 291.916 36.224 292.78 36.224C293.548 36.224 294.172 36.464 294.652 36.896C295.132 37.376 295.372 37.952 295.372 38.672C295.372 39.632 294.988 40.304 294.268 40.784C293.5 41.264 292.54 41.408 291.388 41.12C291.964 41.888 292.828 42.512 293.98 42.944C295.132 43.424 296.428 43.616 297.916 43.616C299.452 43.616 300.796 43.424 301.996 42.944C303.148 42.512 304.06 41.888 304.636 41.072C303.292 41.408 302.284 41.36 301.564 40.928C300.796 40.496 300.46 39.728 300.46 38.672C300.46 37.952 300.652 37.376 301.132 36.896C301.612 36.464 302.236 36.224 303.052 36.224ZM339.068 49.376C342.236 49.376 344.972 50.576 347.18 52.976C349.388 55.376 350.54 58.352 350.54 62C350.54 65.648 349.388 68.672 347.18 71.024C344.972 73.376 342.236 74.528 339.068 74.528C335.756 74.528 333.02 73.376 330.908 71.072C328.748 68.768 327.692 65.744 327.692 62C327.692 58.256 328.748 55.232 330.908 52.88C333.02 50.576 335.756 49.376 339.068 49.376ZM339.068 51.008C336.908 51.008 335.324 51.872 334.364 53.6C333.356 55.328 332.876 58.16 332.876 62C332.876 65.84 333.356 68.624 334.364 70.352C335.324 72.08 336.908 72.944 339.068 72.944C341.132 72.944 342.716 72.032 343.772 70.208C344.828 68.384 345.356 65.648 345.356 62C345.356 58.352 344.828 55.616 343.772 53.792C342.716 51.968 341.132 51.008 339.068 51.008ZM369.337 72.416V51.488H361.705C361.705 53.216 361.609 55.184 361.465 57.344C361.321 59.504 361.129 61.424 360.937 63.056C360.553 65.456 360.169 67.376 359.689 68.912C359.209 70.448 358.633 71.648 357.961 72.416H369.337ZM374.281 51.488V72.416H378.553V81.104H376.969V79.904C376.969 77.888 376.489 76.4 375.529 75.44C374.569 74.48 373.081 74 371.161 74H360.073C358.105 74 356.665 74.48 355.705 75.44C354.745 76.4 354.265 77.888 354.265 79.904V81.104H352.729V72.416H355.417C356.233 71.84 356.953 70.784 357.529 69.248C358.105 67.712 358.585 65.744 358.969 63.248C359.113 62.192 359.257 60.848 359.401 59.264C359.497 57.728 359.641 55.136 359.785 51.488H356.041V49.952H378.409V51.488H374.281ZM393.349 74.528C389.989 74.528 387.301 73.376 385.189 71.072C383.077 68.768 382.021 65.696 382.021 61.856C382.021 58.208 383.029 55.184 385.093 52.88C387.109 50.576 389.701 49.376 392.869 49.376C395.893 49.376 398.293 50.384 400.069 52.4C401.845 54.416 402.757 57.008 402.757 60.272C402.757 60.416 402.709 60.608 402.709 60.848C402.709 61.136 402.661 61.328 402.661 61.52H387.205V62.048C387.205 65.888 387.685 68.624 388.741 70.304C389.797 71.984 391.429 72.8 393.733 72.8C395.557 72.8 397.093 72.32 398.245 71.36C399.397 70.4 400.309 68.816 400.981 66.656L402.469 66.992C401.893 69.344 400.837 71.168 399.205 72.512C397.573 73.856 395.605 74.528 393.349 74.528ZM392.773 51.008C390.949 51.008 389.605 51.728 388.741 53.168C387.877 54.608 387.349 56.864 387.253 59.936H397.717C397.717 56.816 397.333 54.56 396.565 53.12C395.749 51.728 394.501 51.008 392.773 51.008ZM421.215 60.992H423.423V51.488H420.639V49.952H431.151V51.488H428.367V60.992H430.527C431.295 60.992 431.919 60.704 432.447 60.08C432.927 59.504 433.503 58.16 434.079 56.096C434.847 53.408 435.663 51.584 436.575 50.72C437.439 49.856 438.591 49.376 440.031 49.376C441.279 49.376 442.335 49.76 443.103 50.432C443.871 51.152 444.255 52.16 444.255 53.408C444.255 54.416 443.967 55.184 443.487 55.76C442.959 56.336 442.239 56.624 441.327 56.624C440.415 56.624 439.695 56.384 439.119 55.856C438.543 55.328 438.303 54.656 438.303 53.84C438.303 53.168 438.495 52.544 438.879 52.064C439.263 51.584 439.791 51.296 440.463 51.152C440.367 51.104 440.223 51.056 440.127 51.056C439.983 51.056 439.839 51.008 439.695 51.008C438.831 51.008 438.159 51.344 437.631 52.016C437.055 52.688 436.527 54.032 435.951 56.144C435.375 58.16 434.847 59.552 434.367 60.272C433.887 60.992 433.263 61.472 432.591 61.664C434.991 62.528 436.719 63.344 437.823 64.208C438.879 65.072 439.647 66.368 440.127 68.048C440.175 68.288 440.271 68.672 440.415 69.248C440.559 69.824 440.703 70.304 440.799 70.592C440.991 71.168 441.183 71.6 441.471 71.888C441.759 72.176 442.095 72.272 442.479 72.272C443.055 72.272 443.535 71.84 443.871 70.88C444.159 69.968 444.351 68.576 444.351 66.704H445.791C445.791 69.68 445.359 71.744 444.591 72.848C443.823 74 442.479 74.528 440.655 74.528C439.119 74.528 437.871 74.144 437.007 73.328C436.095 72.512 435.375 70.976 434.799 68.768L434.367 67.136C434.079 66.08 433.791 65.216 433.551 64.64C433.167 63.872 432.735 63.344 432.207 62.96C431.631 62.624 431.007 62.432 430.239 62.432H428.367V72.416H431.535V74H420.255V72.416H423.423V62.432H421.551C420.783 62.432 420.111 62.624 419.535 62.96C418.959 63.344 418.527 63.872 418.143 64.64C417.999 64.928 417.807 65.408 417.615 66.08C417.423 66.752 417.183 67.664 416.895 68.768C416.319 71.024 415.551 72.56 414.687 73.328C413.823 74.144 412.623 74.528 411.135 74.528C409.263 74.528 407.919 73.952 407.151 72.8C406.335 71.648 405.951 69.632 405.951 66.704H407.391C407.391 68.624 407.535 70.064 407.823 70.928C408.111 71.84 408.591 72.272 409.311 72.272C409.695 72.272 410.031 72.176 410.319 71.888C410.607 71.648 410.847 71.216 411.039 70.592C411.087 70.304 411.183 69.872 411.327 69.296C411.471 68.72 411.567 68.288 411.663 68.048C412.095 66.32 412.863 65.024 413.967 64.16C415.071 63.296 416.799 62.48 419.199 61.664C418.479 61.472 417.903 60.992 417.423 60.224C416.943 59.504 416.415 58.16 415.839 56.144C415.263 54.032 414.687 52.64 414.159 51.968C413.583 51.344 412.911 51.008 412.095 51.008C411.855 51.008 411.663 51.056 411.567 51.056C411.423 51.104 411.279 51.152 411.183 51.248C411.903 51.344 412.479 51.632 412.911 52.064C413.295 52.544 413.535 53.12 413.535 53.84C413.535 54.704 413.247 55.376 412.719 55.856C412.143 56.336 411.423 56.576 410.559 56.576C409.599 56.576 408.831 56.288 408.303 55.712C407.727 55.136 407.487 54.32 407.487 53.264C407.487 52.112 407.871 51.152 408.687 50.432C409.455 49.76 410.463 49.376 411.711 49.376C412.671 49.376 413.487 49.568 414.207 49.904C414.927 50.288 415.551 50.816 416.031 51.536C416.319 52.016 416.607 52.544 416.895 53.168C417.135 53.84 417.423 54.848 417.807 56.192C418.287 58.208 418.815 59.552 419.295 60.128C419.775 60.704 420.447 60.992 421.215 60.992ZM463.603 72.416V51.488H455.971C455.971 53.216 455.875 55.184 455.731 57.344C455.587 59.504 455.395 61.424 455.203 63.056C454.819 65.456 454.435 67.376 453.955 68.912C453.475 70.448 452.898 71.648 452.227 72.416H463.603ZM468.547 51.488V72.416H472.819V81.104H471.234V79.904C471.234 77.888 470.755 76.4 469.795 75.44C468.835 74.48 467.347 74 465.427 74H454.339C452.371 74 450.931 74.48 449.971 75.44C449.011 76.4 448.531 77.888 448.531 79.904V81.104H446.995V72.416H449.683C450.499 71.84 451.219 70.784 451.795 69.248C452.371 67.712 452.851 65.744 453.235 63.248C453.379 62.192 453.523 60.848 453.667 59.264C453.763 57.728 453.907 55.136 454.051 51.488H450.307V49.952H472.675V51.488H468.547ZM487.614 74.528C484.254 74.528 481.566 73.376 479.454 71.072C477.342 68.768 476.286 65.696 476.286 61.856C476.286 58.208 477.294 55.184 479.358 52.88C481.374 50.576 483.966 49.376 487.134 49.376C490.158 49.376 492.558 50.384 494.334 52.4C496.11 54.416 497.022 57.008 497.022 60.272C497.022 60.416 496.974 60.608 496.974 60.848C496.974 61.136 496.926 61.328 496.926 61.52H481.47V62.048C481.47 65.888 481.95 68.624 483.006 70.304C484.062 71.984 485.694 72.8 487.998 72.8C489.822 72.8 491.358 72.32 492.51 71.36C493.662 70.4 494.574 68.816 495.246 66.656L496.734 66.992C496.158 69.344 495.102 71.168 493.47 72.512C491.838 73.856 489.87 74.528 487.614 74.528ZM487.038 51.008C485.214 51.008 483.87 51.728 483.006 53.168C482.142 54.608 481.614 56.864 481.518 59.936H491.982C491.982 56.816 491.598 54.56 490.83 53.12C490.014 51.728 488.766 51.008 487.038 51.008Z" fill="white"/>
</svg>
