<svg width="617" height="68" viewBox="0 0 617 68" fill="none" xmlns="http://www.w3.org/2000/svg">
<rect x="4.5" y="4.5" width="551" height="59" fill="black" stroke="#00FF0A" stroke-width="9"/>
<path d="M43.952 36C43.472 39.792 41.936 42.864 39.248 45.264C36.56 47.664 33.296 48.816 29.552 48.816C26.384 48.816 24.08 48.288 22.592 47.136C21.056 46.032 20.432 44.4 20.72 42.288C20.816 41.136 21.296 40.224 22.064 39.504C22.832 38.832 23.888 38.448 25.136 38.448C26.384 38.448 27.296 38.784 27.872 39.456C28.448 40.128 28.688 41.088 28.592 42.24C28.448 43.2 28.112 44.016 27.536 44.64C26.96 45.264 26.24 45.696 25.28 45.984C25.568 46.272 26 46.512 26.48 46.656C26.96 46.848 27.488 46.896 28.112 46.896C30.128 46.896 31.664 46.128 32.72 44.592C33.776 43.056 34.496 40.368 34.928 36.48H27.104L27.344 34.368H35.168C35.408 31.152 35.216 28.848 34.544 27.408C33.872 25.968 32.72 25.248 31.088 25.248C29.696 25.248 28.448 25.872 27.296 27.12C26.144 28.368 25.424 29.952 25.088 31.872H23.024L24.128 22.944H25.856L27.104 24.864C27.872 24.24 28.784 23.76 29.888 23.376C30.992 23.04 32.24 22.848 33.584 22.848C36.896 22.848 39.584 24.144 41.6 26.64C43.616 29.136 44.384 32.256 43.952 36ZM67.868 48.816C65.9 48.816 64.412 48.336 63.404 47.376C62.348 46.416 61.724 44.832 61.436 42.528C61.34 42.24 61.292 41.664 61.196 40.896C61.1 40.128 61.052 39.504 60.956 39.12C60.764 38.352 60.524 37.728 60.236 37.344C59.9 36.96 59.468 36.72 58.94 36.624H58.316L56.924 48H48.236L50.924 25.776H47.66L47.948 23.664C50.588 23.664 52.844 23.616 54.668 23.52C56.492 23.424 57.74 23.232 58.508 23.04L59.948 23.52L58.604 34.464H59.324C60.092 34.464 60.764 34.176 61.292 33.6C61.772 33.024 62.348 31.776 62.924 29.76C63.308 28.368 63.692 27.312 63.98 26.64C64.268 25.968 64.652 25.392 65.036 24.912C65.564 24.24 66.236 23.712 67.004 23.376C67.772 23.04 68.684 22.848 69.74 22.848C71.084 22.848 72.188 23.232 72.956 24C73.724 24.768 74.012 25.824 73.916 27.168C73.82 28.32 73.34 29.232 72.572 29.904C71.804 30.624 70.844 30.96 69.692 30.96C68.684 30.96 67.868 30.672 67.292 30.048C66.668 29.424 66.38 28.656 66.38 27.696C66.38 27.408 66.38 27.168 66.476 26.88C66.524 26.64 66.62 26.4 66.716 26.208C66.476 26.544 66.236 26.928 66.044 27.408C65.852 27.888 65.564 28.704 65.276 29.76C64.7 31.584 64.172 32.88 63.692 33.648C63.212 34.416 62.684 34.944 62.06 35.328C65.036 36.096 67.004 36.864 67.964 37.728C68.924 38.592 69.548 40.128 69.836 42.432C70.028 44.064 70.22 45.024 70.412 45.312C70.556 45.6 70.796 45.696 71.084 45.696C71.468 45.696 71.852 45.312 72.14 44.496C72.428 43.68 72.716 42.432 72.956 40.704H75.02C74.636 43.776 73.868 45.888 72.812 47.04C71.708 48.24 70.076 48.816 67.868 48.816ZM103.43 36.048C102.95 39.792 101.366 42.816 98.6304 45.216C95.8464 47.616 92.6304 48.816 88.9344 48.816C85.2384 48.816 82.2624 47.568 80.0064 45.024C77.7504 42.528 76.8384 39.36 77.3184 35.568C77.7504 31.872 79.3344 28.848 82.1184 26.448C84.9024 24.048 88.1184 22.848 91.8624 22.848C95.5104 22.848 98.4864 24.144 100.742 26.64C102.95 29.136 103.862 32.304 103.43 36.048ZM86.2944 35.568C85.8144 39.504 85.8144 42.288 86.2944 44.016C86.7744 45.744 87.7344 46.56 89.1744 46.56C90.6144 46.56 91.7184 45.792 92.5344 44.208C93.3504 42.672 93.9744 39.936 94.4544 36.048C94.8864 32.16 94.8864 29.376 94.4064 27.648C93.9264 25.968 93.0144 25.104 91.5744 25.104C90.1344 25.104 89.0304 25.92 88.2144 27.504C87.3504 29.088 86.7264 31.776 86.2944 35.568ZM114.992 38.064C114.224 42.096 113.312 44.928 112.208 46.464C111.056 48.048 109.424 48.816 107.216 48.816C105.968 48.816 105.008 48.432 104.24 47.664C103.472 46.896 103.088 45.936 103.088 44.784C103.088 43.728 103.424 42.768 104.192 41.952C104.96 41.136 105.92 40.704 107.072 40.704C108.032 40.704 108.752 40.992 109.328 41.52C109.904 42.096 110.192 42.768 110.192 43.536C110.192 44.016 110.096 44.496 109.904 44.976C109.712 45.504 109.472 45.888 109.232 46.08C109.904 45.792 110.528 45.072 111.008 43.92C111.488 42.768 112.016 40.944 112.496 38.496C112.784 36.768 113.12 34.704 113.456 32.4C113.792 30.096 114.08 27.888 114.32 25.776H110.432L110.72 23.664H129.92L127.568 43.2C127.472 44.064 127.472 44.688 127.616 45.024C127.76 45.408 128.048 45.552 128.432 45.552C128.912 45.552 129.344 45.168 129.68 44.352C130.016 43.584 130.304 42.384 130.544 40.752H132.8C132.368 43.824 131.6 45.888 130.496 47.04C129.344 48.192 127.712 48.768 125.552 48.768C123.008 48.768 121.232 48.096 120.224 46.752C119.168 45.408 118.832 43.296 119.168 40.464L120.944 25.776H116.816C116.432 28.8 116.096 31.248 115.808 33.168C115.52 35.088 115.232 36.72 114.992 38.064ZM161.79 36.048C161.31 39.792 159.726 42.816 156.99 45.216C154.206 47.616 150.99 48.816 147.294 48.816C143.598 48.816 140.622 47.568 138.366 45.024C136.11 42.528 135.198 39.36 135.678 35.568C136.11 31.872 137.694 28.848 140.478 26.448C143.262 24.048 146.478 22.848 150.222 22.848C153.87 22.848 156.846 24.144 159.102 26.64C161.31 29.136 162.222 32.304 161.79 36.048ZM144.654 35.568C144.174 39.504 144.174 42.288 144.654 44.016C145.134 45.744 146.094 46.56 147.534 46.56C148.974 46.56 150.078 45.792 150.894 44.208C151.71 42.672 152.334 39.936 152.814 36.048C153.246 32.16 153.246 29.376 152.766 27.648C152.286 25.968 151.374 25.104 149.934 25.104C148.494 25.104 147.39 25.92 146.574 27.504C145.71 29.088 145.086 31.776 144.654 35.568ZM173.665 48.768C170.497 48.768 168.145 48.24 166.513 47.136C164.881 46.032 164.065 44.4 164.065 42.24C164.065 40.704 164.401 39.408 165.169 38.352C165.937 37.296 167.473 36.096 169.873 34.848C171.985 33.744 173.329 32.736 174.001 31.824C174.673 30.96 175.009 29.904 175.009 28.656C175.009 27.696 174.769 26.976 174.289 26.448C173.809 25.92 173.185 25.632 172.369 25.632C171.313 25.632 170.401 26.064 169.681 26.928C168.961 27.792 168.481 28.944 168.193 30.48H165.745C166.081 27.888 167.041 25.968 168.577 24.72C170.113 23.472 172.225 22.848 175.009 22.848C177.409 22.848 179.329 23.424 180.817 24.576C182.305 25.728 183.073 27.216 183.073 29.136C183.073 30.864 182.641 32.304 181.873 33.504C181.105 34.704 179.473 35.952 177.073 37.296C175.105 38.4 173.809 39.312 173.233 40.08C172.657 40.848 172.369 41.76 172.369 42.816C172.369 43.824 172.609 44.592 173.185 45.168C173.761 45.744 174.529 46.032 175.585 46.032C176.929 46.032 178.081 45.552 178.945 44.544C179.809 43.536 180.385 42.144 180.625 40.368H183.409C182.977 43.152 181.969 45.264 180.337 46.656C178.705 48.096 176.497 48.768 173.665 48.768ZM203.479 42.672C202.663 44.736 201.559 46.272 200.119 47.28C198.679 48.336 196.951 48.816 194.935 48.816C192.343 48.816 190.471 48.048 189.271 46.416C188.071 44.832 187.639 42.576 187.975 39.696L189.655 25.92H186.391L186.679 23.856C189.319 23.856 191.527 23.808 193.351 23.712C195.175 23.616 196.471 23.424 197.239 23.232L198.679 23.664L196.567 40.608C196.375 42.144 196.423 43.248 196.759 43.92C197.047 44.64 197.623 44.976 198.487 44.976C199.543 44.976 200.455 44.352 201.175 43.056C201.847 41.808 202.375 39.84 202.663 37.2L204.055 25.92H201.511L201.847 23.856C204.151 23.856 206.167 23.808 207.943 23.712C209.719 23.616 210.967 23.424 211.639 23.232L213.079 23.664L210.727 42.96C210.631 43.824 210.631 44.496 210.775 44.928C210.919 45.36 211.207 45.552 211.591 45.552C212.071 45.552 212.503 45.216 212.839 44.448C213.127 43.68 213.415 42.48 213.655 40.752H215.959C215.479 43.872 214.711 45.984 213.607 47.088C212.455 48.24 210.775 48.768 208.567 48.768C207.031 48.768 205.831 48.384 204.967 47.616C204.103 46.848 203.575 45.648 203.431 44.064C203.431 44.064 203.431 43.824 203.479 43.392C203.479 42.96 203.479 42.72 203.479 42.672ZM240.146 48.768C237.602 48.768 235.826 48.096 234.818 46.752C233.762 45.408 233.426 43.296 233.762 40.464L234.146 37.344C233.378 38.112 232.466 38.688 231.41 39.072C230.354 39.456 229.154 39.6 227.858 39.6C225.266 39.6 223.346 38.832 222.098 37.248C220.85 35.664 220.418 33.408 220.802 30.528L221.33 25.92H218.066L218.354 23.856C220.994 23.856 223.202 23.808 225.026 23.712C226.85 23.616 228.146 23.424 228.914 23.232L230.354 23.664L229.346 31.68C229.154 33.12 229.202 34.224 229.538 34.896C229.874 35.616 230.498 35.952 231.41 35.952C232.082 35.952 232.658 35.808 233.234 35.472C233.762 35.136 234.194 34.656 234.53 34.032L235.826 23.664H244.514L242.162 43.248C242.066 44.064 242.066 44.64 242.21 45.024C242.354 45.408 242.642 45.552 243.026 45.552C243.506 45.552 243.938 45.168 244.274 44.352C244.61 43.584 244.898 42.384 245.138 40.752H247.394C246.962 43.824 246.194 45.888 245.09 47.04C243.938 48.192 242.306 48.768 240.146 48.768ZM273.278 48.768C270.734 48.768 268.958 48.096 267.95 46.752C266.894 45.408 266.558 43.344 266.894 40.464L267.374 36.576H261.566L260.174 48H251.486L254.174 25.776H250.91L251.198 23.664C253.838 23.664 256.094 23.616 257.918 23.52C259.742 23.424 260.99 23.232 261.758 23.04L263.198 23.52L261.854 34.464H267.614L268.91 23.664H277.598L275.246 43.2C275.15 44.064 275.15 44.64 275.294 45.024C275.438 45.408 275.726 45.552 276.11 45.552C276.59 45.552 277.022 45.168 277.406 44.352C277.742 43.584 278.03 42.384 278.222 40.752H280.526C280.046 43.824 279.278 45.936 278.174 47.088C277.07 48.24 275.438 48.768 273.278 48.768ZM309.54 36.048C309.06 39.792 307.476 42.816 304.74 45.216C301.956 47.616 298.74 48.816 295.044 48.816C291.348 48.816 288.372 47.568 286.116 45.024C283.86 42.528 282.948 39.36 283.428 35.568C283.86 31.872 285.444 28.848 288.228 26.448C291.012 24.048 294.228 22.848 297.972 22.848C301.62 22.848 304.596 24.144 306.852 26.64C309.06 29.136 309.972 32.304 309.54 36.048ZM292.404 35.568C291.924 39.504 291.924 42.288 292.404 44.016C292.884 45.744 293.844 46.56 295.284 46.56C296.724 46.56 297.828 45.792 298.644 44.208C299.46 42.672 300.084 39.936 300.564 36.048C300.996 32.16 300.996 29.376 300.516 27.648C300.036 25.968 299.124 25.104 297.684 25.104C296.244 25.104 295.14 25.92 294.324 27.504C293.46 29.088 292.836 31.776 292.404 35.568ZM323.863 48.816C320.071 48.816 317.143 47.616 315.031 45.168C312.919 42.768 312.103 39.6 312.583 35.76C313.063 31.92 314.599 28.848 317.287 26.448C319.927 24.048 323.143 22.848 326.935 22.848C329.719 22.848 331.927 23.52 333.607 24.768C335.287 26.064 336.151 27.744 336.151 29.76C336.103 32.256 334.807 34.176 332.215 35.52C329.623 36.912 326.023 37.632 321.415 37.68C321.223 40.56 321.511 42.72 322.279 44.064C323.047 45.456 324.295 46.128 326.071 46.128C327.607 46.128 328.903 45.648 330.055 44.592C331.159 43.584 331.975 42.096 332.551 40.176L334.855 40.416C334.087 43.152 332.791 45.216 330.919 46.656C328.999 48.096 326.647 48.816 323.863 48.816ZM326.023 25.056C324.919 25.056 324.007 25.92 323.287 27.648C322.519 29.376 321.943 31.968 321.559 35.472C323.575 35.328 325.111 34.608 326.167 33.36C327.223 32.112 327.751 30.288 327.799 27.984C327.799 27.072 327.655 26.352 327.367 25.824C327.079 25.344 326.599 25.056 326.023 25.056ZM362.531 35.136C362.147 38.352 362.195 40.704 362.579 42.144C362.963 43.632 363.731 44.352 364.931 44.352C366.179 44.352 367.187 43.68 368.003 42.288C368.819 40.944 369.395 38.928 369.731 36.24C369.731 36.24 369.731 36.096 369.779 35.904L369.971 34.752C370.019 34.176 370.067 33.792 370.115 33.6C370.115 33.408 370.163 33.312 370.163 33.264C370.451 30.48 370.403 28.464 369.971 27.12C369.539 25.776 368.723 25.104 367.523 25.104C366.179 25.104 365.123 25.92 364.355 27.456C363.539 29.04 362.915 31.584 362.531 35.136ZM361.283 48.816C358.451 48.816 356.339 47.664 354.899 45.264C353.459 42.864 352.979 39.744 353.459 35.808C353.891 32.016 355.331 28.896 357.779 26.496C360.227 24.096 363.251 22.848 366.899 22.848C368.483 22.848 369.923 23.184 371.171 23.856C372.419 24.528 373.475 25.44 374.291 26.64L377.219 22.848H380.099L377.651 42.96C377.555 43.824 377.555 44.496 377.699 44.928C377.843 45.36 378.131 45.552 378.515 45.552C378.995 45.552 379.379 45.168 379.715 44.4C380.051 43.632 380.339 42.432 380.579 40.752H382.835C382.355 43.92 381.587 46.032 380.483 47.136C379.379 48.24 377.747 48.768 375.539 48.768C373.667 48.768 372.275 48.24 371.411 47.184C370.547 46.128 370.115 44.544 370.163 42.384L370.259 40.992C369.395 43.584 368.243 45.504 366.707 46.848C365.171 48.192 363.395 48.816 361.283 48.816ZM421.037 48.768C418.637 48.768 416.909 48.096 415.949 46.704C414.941 45.36 414.605 43.248 414.989 40.464L416.189 30.96C416.333 29.52 416.285 28.416 415.997 27.744C415.709 27.072 415.229 26.688 414.557 26.688C413.693 26.688 412.973 27.216 412.397 28.224C411.821 29.28 411.341 30.864 411.005 33.024L409.133 48H400.397L402.557 30.96C402.749 29.472 402.701 28.368 402.461 27.696C402.173 27.024 401.693 26.688 400.973 26.688C400.013 26.688 399.197 27.312 398.621 28.56C397.997 29.808 397.517 31.728 397.229 34.32L395.501 48H386.813L389.549 25.776H386.285L386.525 23.664C388.829 23.664 390.749 23.616 392.285 23.52C393.821 23.424 394.925 23.232 395.597 23.04L397.037 23.52L396.413 28.56C397.181 26.64 398.285 25.248 399.629 24.288C400.973 23.328 402.605 22.848 404.573 22.848C406.157 22.848 407.453 23.232 408.509 23.904C409.565 24.624 410.285 25.632 410.717 26.976C411.533 25.632 412.541 24.576 413.789 23.904C415.037 23.232 416.477 22.848 418.157 22.848C420.605 22.848 422.381 23.664 423.533 25.2C424.637 26.784 425.021 29.04 424.733 31.92L423.389 42.96C423.293 43.872 423.293 44.544 423.437 44.928C423.533 45.36 423.821 45.552 424.205 45.552C424.685 45.552 425.117 45.168 425.453 44.4C425.789 43.632 426.077 42.384 426.317 40.752H428.621C428.141 43.872 427.325 45.984 426.173 47.088C425.021 48.24 423.341 48.768 421.037 48.768ZM442.082 48.816C438.29 48.816 435.362 47.616 433.25 45.168C431.138 42.768 430.322 39.6 430.802 35.76C431.282 31.92 432.818 28.848 435.506 26.448C438.146 24.048 441.362 22.848 445.154 22.848C447.938 22.848 450.146 23.52 451.826 24.768C453.506 26.064 454.37 27.744 454.37 29.76C454.322 32.256 453.026 34.176 450.434 35.52C447.842 36.912 444.242 37.632 439.634 37.68C439.442 40.56 439.73 42.72 440.498 44.064C441.266 45.456 442.514 46.128 444.29 46.128C445.826 46.128 447.122 45.648 448.274 44.592C449.378 43.584 450.194 42.096 450.77 40.176L453.074 40.416C452.306 43.152 451.01 45.216 449.138 46.656C447.218 48.096 444.866 48.816 442.082 48.816ZM444.242 25.056C443.138 25.056 442.226 25.92 441.506 27.648C440.738 29.376 440.162 31.968 439.778 35.472C441.794 35.328 443.33 34.608 444.386 33.36C445.442 32.112 445.97 30.288 446.018 27.984C446.018 27.072 445.874 26.352 445.586 25.824C445.298 25.344 444.818 25.056 444.242 25.056ZM465.476 38.064C464.708 42.096 463.796 44.928 462.692 46.464C461.54 48.048 459.908 48.816 457.7 48.816C456.452 48.816 455.492 48.432 454.724 47.664C453.956 46.896 453.572 45.936 453.572 44.784C453.572 43.728 453.908 42.768 454.676 41.952C455.444 41.136 456.404 40.704 457.556 40.704C458.516 40.704 459.236 40.992 459.812 41.52C460.388 42.096 460.676 42.768 460.676 43.536C460.676 44.016 460.58 44.496 460.388 44.976C460.196 45.504 459.956 45.888 459.716 46.08C460.388 45.792 461.012 45.072 461.492 43.92C461.972 42.768 462.5 40.944 462.98 38.496C463.268 36.768 463.604 34.704 463.94 32.4C464.276 30.096 464.564 27.888 464.804 25.776H460.916L461.204 23.664H480.404L478.052 43.2C477.956 44.064 477.956 44.688 478.1 45.024C478.244 45.408 478.532 45.552 478.916 45.552C479.396 45.552 479.828 45.168 480.164 44.352C480.5 43.584 480.788 42.384 481.028 40.752H483.284C482.852 43.824 482.084 45.888 480.98 47.04C479.828 48.192 478.196 48.768 476.036 48.768C473.492 48.768 471.716 48.096 470.708 46.752C469.652 45.408 469.316 43.296 469.652 40.464L471.428 25.776H467.3C466.916 28.8 466.58 31.248 466.292 33.168C466.004 35.088 465.716 36.72 465.476 38.064ZM510.306 40.752C510.018 43.248 508.722 45.168 506.418 46.608C504.114 48.048 501.138 48.768 497.49 48.768C493.746 48.768 491.106 47.904 489.474 46.176C487.842 44.448 487.266 41.808 487.698 38.256L489.186 25.92H485.922L486.21 23.856C488.85 23.856 491.058 23.808 492.882 23.712C494.706 23.616 496.002 23.424 496.77 23.232L498.21 23.664L497.01 33.12C497.586 32.928 498.258 32.784 498.978 32.688C499.698 32.592 500.466 32.544 501.234 32.544C504.114 32.544 506.466 33.312 508.194 34.8C509.922 36.336 510.594 38.304 510.306 40.752ZM498.066 45.84C499.026 45.84 499.794 45.408 500.37 44.496C500.946 43.584 501.33 42.192 501.57 40.272C501.762 38.544 501.618 37.248 501.186 36.384C500.706 35.52 499.938 35.088 498.786 35.088C498.402 35.088 498.018 35.136 497.682 35.184C497.346 35.28 497.058 35.376 496.77 35.472L496.146 40.176C495.858 42.288 495.906 43.728 496.194 44.592C496.482 45.456 497.106 45.84 498.066 45.84ZM524.722 48.816C520.93 48.816 518.002 47.616 515.89 45.168C513.778 42.768 512.962 39.6 513.442 35.76C513.922 31.92 515.458 28.848 518.146 26.448C520.786 24.048 524.002 22.848 527.794 22.848C530.578 22.848 532.786 23.52 534.466 24.768C536.146 26.064 537.01 27.744 537.01 29.76C536.962 32.256 535.666 34.176 533.074 35.52C530.482 36.912 526.882 37.632 522.274 37.68C522.082 40.56 522.37 42.72 523.138 44.064C523.906 45.456 525.154 46.128 526.93 46.128C528.466 46.128 529.762 45.648 530.914 44.592C532.018 43.584 532.834 42.096 533.41 40.176L535.714 40.416C534.946 43.152 533.65 45.216 531.778 46.656C529.858 48.096 527.506 48.816 524.722 48.816ZM526.882 25.056C525.778 25.056 524.866 25.92 524.146 27.648C523.378 29.376 522.802 31.968 522.418 35.472C524.434 35.328 525.97 34.608 527.026 33.36C528.082 32.112 528.61 30.288 528.658 27.984C528.658 27.072 528.514 26.352 528.226 25.824C527.938 25.344 527.458 25.056 526.882 25.056Z" fill="white"/>
</svg>
