<svg width="1440" height="1043" viewBox="0 0 1440 1043" fill="none" xmlns="http://www.w3.org/2000/svg">
<g clip-path="url(#clip0_402_4878)">
<path d="M274.283 709.854C261.881 709.788 251.836 699.509 252.052 687.101C252.268 674.992 262.113 665.162 274.167 665.029C286.635 664.879 296.729 674.892 296.729 687.4C296.729 699.958 286.768 709.938 274.266 709.871L274.283 709.854Z" fill="#FF00E6"/>
<path d="M1126.1 687.018C1126.18 699.46 1116.09 709.556 1103.62 709.523C1091.45 709.489 1081.67 699.826 1081.44 687.634C1081.2 675.01 1090.88 664.897 1103.42 664.697C1115.77 664.498 1126.03 674.594 1126.1 687.035V687.018Z" fill="#FF00E6"/>
<path d="M1435.56 543.144C1423.08 543.277 1412.93 533.298 1412.93 520.84C1412.93 508.698 1422.56 498.851 1434.72 498.535C1447.43 498.219 1457.41 507.75 1457.63 520.407C1457.83 533.131 1448.26 542.994 1435.56 543.128V543.144Z" fill="#FF00E6"/>
<path d="M1435.17 377.116C1422.83 377.082 1412.65 366.72 1412.85 354.378C1413.05 342.303 1422.9 332.473 1434.98 332.307C1447.52 332.14 1457.56 342.054 1457.56 354.595C1457.56 367.202 1447.68 377.149 1435.15 377.099L1435.17 377.116Z" fill="#FF00E6"/>
<path d="M1125.98 354.944C1125.93 367.302 1115.6 377.448 1103.27 377.282C1090.8 377.115 1081.04 366.936 1081.29 354.345C1081.54 342.137 1091.27 332.523 1103.47 332.456C1115.9 332.39 1126.05 342.503 1125.98 354.944Z" fill="#FF00E6"/>
<path d="M545.399 106.051C545.332 118.526 535.222 128.339 522.621 128.189C510.102 128.04 500.357 117.894 500.622 105.303C500.888 93.2437 510.85 83.4803 522.936 83.4304C535.238 83.3805 545.465 93.6928 545.399 106.051Z" fill="#FF00E6"/>
<path d="M877.045 105.785C877.012 118.342 867.034 128.172 854.433 128.056C842.23 127.94 832.435 118.259 832.252 106.117C832.07 93.7259 842.147 83.3969 854.516 83.2971C866.901 83.1973 877.079 93.3433 877.045 105.785Z" fill="#FF00E6"/>
<path d="M877.411 936.295C877.461 948.753 867.383 958.899 854.948 958.882C842.646 958.849 832.452 948.453 832.618 936.128C832.784 923.953 842.497 914.273 854.716 914.123C867.3 913.957 877.345 923.787 877.411 936.311V936.295Z" fill="#FF00E6"/>
<path d="M130.722 23.136C130.656 35.4277 120.196 45.6901 107.927 45.4905C95.9736 45.2909 85.8794 35.2115 85.6967 23.3024C85.5141 11.0606 95.7743 0.715019 108.176 0.631854C120.611 0.54869 130.772 10.7113 130.722 23.136Z" fill="#FF00E6"/>
<path d="M1457.69 687.184C1457.63 699.709 1447.52 709.572 1434.98 709.356C1422.93 709.14 1413.1 699.21 1412.98 687.134C1412.87 674.793 1423.06 664.514 1435.43 664.53C1447.9 664.53 1457.76 674.577 1457.69 687.184Z" fill="#FF00E6"/>
<path d="M1269.64 377.232C1257.31 377.365 1247.01 367.152 1247 354.761C1247 342.685 1256.77 332.672 1268.86 332.39C1281.26 332.107 1291.8 342.12 1291.99 354.378C1292.17 366.653 1281.96 377.099 1269.64 377.232Z" fill="#FF00E6"/>
<path d="M274.399 377.631C262.047 377.698 251.869 367.502 251.919 355.077C251.969 342.935 261.648 333.072 273.784 332.806C286.302 332.523 296.463 342.353 296.612 354.878C296.762 367.435 286.884 377.548 274.415 377.631H274.399Z" fill="#FF00E6"/>
<path d="M108.409 332.872C120.845 332.872 131.055 343.135 130.872 355.459C130.69 367.568 120.878 377.481 108.825 377.714C96.5388 377.947 85.9964 367.734 85.847 355.493C85.7142 343.251 96.0408 332.889 108.393 332.872H108.409Z" fill="#FF00E6"/>
<path d="M1352.05 83.1141C1364.47 82.981 1374.65 93.0771 1374.65 105.518C1374.65 117.727 1365.1 127.54 1352.9 127.823C1340.17 128.122 1330.19 118.609 1330.01 105.968C1329.82 93.3433 1339.55 83.2472 1352.05 83.1141Z" fill="#FF00E6"/>
<path d="M169.108 603.305C169.722 590.831 180.098 581.566 192.799 582.165C204.802 582.731 214.382 593.143 213.917 605.152C213.452 617.46 202.611 627.556 190.558 626.924C178.073 626.259 168.493 615.73 169.091 603.322L169.108 603.305Z" fill="#FF00E6"/>
<path d="M1269.21 0.149595C1281.61 0.0996968 1291.95 10.3621 1291.87 22.6205C1291.79 34.8623 1281.28 45.158 1269.03 45.0083C1257.04 44.8586 1247.06 34.8789 1246.88 22.8534C1246.68 10.4287 1256.74 0.199494 1269.22 0.149595H1269.21Z" fill="#FF00E6"/>
<path d="M1104.1 996.887C1116.45 997.02 1126.48 1007.43 1126.21 1019.81C1125.95 1032.32 1115.7 1042.08 1103.19 1041.75C1091.02 1041.43 1081.59 1031.67 1081.55 1019.31C1081.52 1006.85 1091.68 996.738 1104.1 996.887Z" fill="#FF00E6"/>
<path d="M1208.99 603.821C1209.08 616.229 1198.96 626.475 1186.58 626.525C1174.44 626.575 1164 615.996 1164.13 603.804C1164.27 591.696 1174.08 581.882 1186.2 581.716C1198.8 581.55 1208.89 591.346 1208.99 603.821Z" fill="#FF00E6"/>
<path d="M131.021 687.351C131.121 699.71 120.927 709.939 108.508 709.922C96.1398 709.905 85.8629 699.56 86.0124 687.285C86.1618 675.326 96.1896 665.296 108.176 665.097C120.562 664.897 130.905 674.993 131.021 687.351Z" fill="#FF00E6"/>
<path d="M296.878 1019.34C297.011 1032.03 287.298 1042.01 274.73 1042.11C262.262 1042.21 252.168 1032.17 252.185 1019.68C252.185 1007.6 261.947 997.587 274 997.254C286.352 996.921 296.762 1006.97 296.878 1019.36V1019.34Z" fill="#FF00E6"/>
<path d="M1269.57 664.598C1281.89 664.598 1292.24 674.977 1292.12 687.218C1291.99 699.527 1281.58 709.623 1269.19 709.423C1257.12 709.24 1247.28 699.344 1247.14 687.235C1246.99 674.877 1257.17 664.614 1269.59 664.598H1269.57Z" fill="#FF00E6"/>
<path d="M47.7278 271.979C47.844 284.537 37.8826 294.766 25.5139 294.783C13.2448 294.8 3.05096 284.471 3.10077 272.079C3.15057 259.921 12.7965 250.157 25.0158 249.891C37.6502 249.625 47.6281 259.322 47.7444 271.979H47.7278Z" fill="#FF00E6"/>
<path d="M47.6449 106.3C47.5453 118.941 37.6669 128.572 24.9495 128.389C12.7967 128.206 3.06772 118.409 3.00131 106.284C2.9349 93.7593 12.8797 83.6964 25.3812 83.6632C37.8329 83.6299 47.7279 93.6928 47.6449 106.3Z" fill="#FF00E6"/>
<path d="M1330.36 936.128C1330.37 923.437 1340.15 913.79 1352.88 913.906C1365.05 914.006 1374.82 923.703 1374.98 935.862C1375.15 948.32 1365.17 958.532 1352.75 958.632C1340.25 958.732 1330.34 948.769 1330.36 936.128Z" fill="#FF00E6"/>
<path d="M1103.75 45.0746C1091.75 45.2908 1081.54 35.5606 1081.15 23.5351C1080.76 10.7944 1090.15 0.631739 1102.7 0.215918C1115.17 -0.183269 1125.48 9.58019 1125.8 22.0881C1126.11 34.4462 1116.12 44.8584 1103.75 45.0746Z" fill="#FF00E6"/>
<path d="M711.471 936.86C711.272 949.352 701.011 959.265 688.609 958.915C676.473 958.583 666.894 948.703 666.894 936.528C666.894 923.87 676.689 914.123 689.34 914.19C701.924 914.256 711.67 924.236 711.471 936.86Z" fill="#FF00E6"/>
<path d="M998.425 271.747C998.458 259.073 1008.32 249.309 1020.92 249.476C1033.07 249.642 1042.85 259.389 1043.02 271.514C1043.18 283.839 1033.02 294.268 1020.74 294.384C1008.4 294.501 998.375 284.355 998.408 271.747H998.425Z" fill="#FF00E6"/>
<path d="M523.001 914.256C535.586 914.123 545.697 923.986 545.73 936.444C545.763 948.819 535.569 959.032 523.217 959.015C511.197 958.999 501.219 949.169 500.954 937.093C500.688 924.535 510.467 914.406 523.001 914.273V914.256Z" fill="#FF00E6"/>
<path d="M1352.25 249.326C1364.81 249.293 1374.8 259.306 1374.72 271.797C1374.63 284.205 1364.27 294.418 1352.02 294.218C1339.93 294.019 1330.17 284.122 1330.09 271.98C1329.99 259.223 1339.64 249.36 1352.25 249.326Z" fill="#FF00E6"/>
<path d="M47.9933 936.66C48.0265 949.267 38.0983 959.264 25.6134 959.197C13.1949 959.131 3.18367 948.901 3.34969 936.46C3.49911 924.268 13.1783 914.638 25.4308 914.488C38.1647 914.338 47.9601 923.969 47.9933 936.66Z" fill="#FF00E6"/>
<path d="M711.14 105.968C711.04 118.559 701.095 128.272 688.461 128.123C675.943 127.973 666.264 117.877 666.562 105.236C666.845 93.0274 676.64 83.4137 688.776 83.3804C701.228 83.3638 711.239 93.4599 711.14 105.968Z" fill="#FF00E6"/>
<path d="M606.146 377.498C593.86 377.598 583.484 367.286 583.533 355.011C583.583 342.969 593.412 332.923 605.415 332.656C618 332.374 628.077 342.104 628.243 354.678C628.409 367.319 618.664 377.382 606.146 377.482V377.498Z" fill="#FF00E6"/>
<path d="M1374.91 770.216C1374.83 782.707 1364.72 792.57 1352.17 792.404C1339.6 792.254 1330.02 782.225 1330.27 769.484C1330.5 757.359 1340.42 747.545 1352.49 747.512C1364.72 747.462 1374.98 757.857 1374.9 770.216H1374.91Z" fill="#FF00E6"/>
<path d="M1209.04 769.833C1209.19 782.391 1199.31 792.421 1186.76 792.471C1174.24 792.521 1164.15 782.458 1164.22 770.016C1164.28 758.074 1174.19 747.961 1186.16 747.579C1198.33 747.196 1208.89 757.475 1209.04 769.833Z" fill="#FF00E6"/>
<path d="M379.392 271.93C379.442 284.554 369.53 294.667 357.129 294.651C344.893 294.634 334.616 284.155 334.765 271.88C334.931 259.705 344.594 249.991 356.797 249.759C369.398 249.509 379.342 259.289 379.392 271.93Z" fill="#FF00E6"/>
<path d="M191.653 249.825C204.088 249.958 214.116 260.303 213.801 272.678C213.502 284.587 203.325 294.633 191.471 294.733C179.235 294.833 168.975 284.471 168.991 272.063C169.024 259.538 179.052 249.692 191.653 249.825Z" fill="#FF00E6"/>
<path d="M1043.24 770.066C1043.32 782.508 1033.22 792.604 1020.77 792.571C1008.5 792.537 998.824 783.007 998.608 770.748C998.392 758.107 1008.07 747.912 1020.52 747.662C1032.71 747.429 1043.15 757.725 1043.24 770.066Z" fill="#FF00E6"/>
<path d="M379.608 770.665C379.542 783.289 369.58 793.053 356.979 792.836C344.843 792.62 335.064 782.79 334.981 770.698C334.898 758.307 345.025 747.994 357.344 747.961C369.73 747.928 379.658 758.074 379.591 770.681L379.608 770.665Z" fill="#FF00E6"/>
<path d="M169.041 437.41C169.572 424.935 180.181 415.138 192.483 415.803C204.454 416.436 214.133 426.831 213.85 438.74C213.552 451.531 202.893 461.244 189.91 460.546C177.84 459.897 168.526 449.585 169.041 437.426V437.41Z" fill="#FF00E6"/>
<path d="M379.458 437.992C379.541 450.766 369.929 460.496 357.244 460.513C344.76 460.513 334.699 450.4 334.831 437.992C334.964 425.933 344.793 415.97 356.813 415.704C369.165 415.421 379.375 425.468 379.458 437.992Z" fill="#FF00E6"/>
<path d="M214.017 770.598C213.967 783.023 203.773 793.036 191.305 792.903C179.085 792.77 169.34 783.089 169.174 770.914C169.008 758.523 179.102 748.127 191.404 748.011C203.541 747.894 214.066 758.423 214.017 770.615V770.598Z" fill="#FF00E6"/>
<path d="M711.273 438.324C711.123 450.932 701.162 460.562 688.494 460.362C675.926 460.163 666.297 450.034 666.679 437.409C667.044 425.234 676.923 415.57 689.009 415.587C701.361 415.587 711.406 425.866 711.256 438.341L711.273 438.324Z" fill="#FF00E6"/>
<path d="M47.9109 771.313C47.5789 783.937 37.4349 793.418 24.7507 792.952C12.6145 792.503 3.15115 782.523 3.30057 770.332C3.44999 757.973 13.9592 747.728 26.1453 748.093C38.5805 748.459 48.243 758.755 47.9109 771.33V771.313Z" fill="#FF00E6"/>
<path d="M1043.1 438.191C1042.95 450.649 1032.81 460.413 1020.22 460.23C1007.62 460.047 998.176 450.051 998.508 437.243C998.824 425.035 1008.67 415.388 1020.77 415.438C1033.06 415.488 1043.25 425.866 1043.1 438.191Z" fill="#FF00E6"/>
<path d="M1208.91 437.609C1209.04 450.15 1199.16 460.113 1186.56 460.163C1174.06 460.213 1163.95 450.117 1164.07 437.692C1164.17 425.783 1174.16 415.621 1186.08 415.338C1198.38 415.055 1208.79 425.184 1208.93 437.592L1208.91 437.609Z" fill="#FF00E6"/>
<path d="M1457.43 22.87C1457.25 35.3114 1446.9 45.2578 1434.5 44.8919C1422.53 44.5426 1412.7 34.3966 1412.72 22.4209C1412.75 9.94633 1422.88 -0.0499932 1435.35 0.0664365C1447.92 0.182866 1457.59 10.1792 1457.41 22.87H1457.43Z" fill="#FF00E6"/>
<path d="M274.051 0.565274C286.619 0.498743 296.481 10.4119 296.447 23.0528C296.414 35.4942 286.204 45.6069 273.818 45.424C261.832 45.2576 251.887 35.2613 251.754 23.2524C251.638 10.6947 261.516 0.631806 274.034 0.581907L274.051 0.565274Z" fill="#FF00E6"/>
<path d="M131.121 1020.12C130.889 1032.61 120.612 1042.46 108.127 1042.16C96.1069 1041.86 86.1787 1031.78 86.1455 1019.82C86.1289 1007.6 96.5718 997.22 108.824 997.303C121.16 997.386 131.337 1007.82 131.105 1020.12H131.121Z" fill="#FF00E6"/>
<path d="M440.356 45.3412C427.987 45.5408 417.677 35.3948 417.627 23.0033C417.577 10.4289 427.539 0.432607 440.057 0.449239C452.077 0.465872 462.121 10.2293 462.536 22.3048C462.951 34.3469 452.558 45.1416 440.356 45.3412Z" fill="#FF00E6"/>
<path d="M794.466 687.235C794.433 699.61 784.14 709.772 771.804 709.639C759.236 709.506 749.557 699.51 749.74 686.819C749.922 674.577 759.585 664.93 771.788 664.797C784.057 664.664 794.483 674.976 794.466 687.235Z" fill="#FF00E6"/>
<path d="M606.212 709.705C593.877 709.789 583.584 699.509 583.667 687.185C583.733 675.192 593.644 665.146 605.648 664.88C618.133 664.597 628.293 674.494 628.393 687.018C628.509 699.692 618.797 709.622 606.212 709.705Z" fill="#FF00E6"/>
<path d="M628.527 1019.66C628.46 1032.3 618.532 1042.13 605.964 1041.98C593.579 1041.83 583.468 1031.38 583.8 1019.06C584.115 1007.08 594.176 997.186 606.147 997.087C618.549 996.987 628.576 1007.12 628.527 1019.66Z" fill="#FF00E6"/>
<path d="M771.755 1041.9C759.22 1041.68 749.691 1031.67 749.89 1018.89C750.089 1006.75 759.967 997.021 772.104 997.021C784.356 997.021 794.766 1007.5 794.6 1019.67C794.434 1032.13 784.174 1042.11 771.738 1041.9H771.755Z" fill="#FF00E6"/>
<path d="M1269.29 1041.68C1256.84 1041.48 1246.9 1031.03 1247.33 1018.64C1247.76 1006.5 1257.74 996.805 1269.77 996.821C1282.06 996.855 1292.42 1007.3 1292.27 1019.51C1292.12 1031.82 1281.69 1041.88 1269.31 1041.66L1269.29 1041.68Z" fill="#FF00E6"/>
<path d="M1457.84 1019.47C1457.71 1031.87 1447.4 1041.86 1435.02 1041.61C1422.96 1041.38 1413.2 1031.42 1413.15 1019.32C1413.08 1007.02 1423.34 996.721 1435.65 996.754C1448.02 996.771 1457.99 1006.98 1457.86 1019.47H1457.84Z" fill="#FF00E6"/>
<path d="M794.333 355.061C794.283 367.352 783.857 377.598 771.571 377.432C759.02 377.249 749.407 367.186 749.623 354.495C749.839 342.22 759.468 332.689 771.737 332.59C784.089 332.49 794.382 342.736 794.333 355.061Z" fill="#FF00E6"/>
<path d="M689.075 581.949C701.676 581.949 711.521 591.912 711.339 604.47C711.173 616.645 701.493 626.459 689.39 626.725C677.088 626.991 666.811 616.878 666.712 604.404C666.612 591.796 676.424 581.949 689.058 581.949H689.075Z" fill="#FF00E6"/>
<path d="M379.525 603.954C379.707 616.579 369.962 626.708 357.493 626.858C345.257 627.008 334.881 616.679 334.914 604.354C334.947 592.162 344.543 582.332 356.696 582.066C369.464 581.783 379.358 591.264 379.525 603.954Z" fill="#FF00E6"/>
<path d="M439.94 211.253C427.389 211.203 417.544 201.174 417.743 188.616C417.926 176.474 427.688 166.744 439.857 166.561C452.127 166.378 462.586 176.657 462.619 188.932C462.652 201.307 452.492 211.303 439.94 211.27V211.253Z" fill="#FF00E6"/>
<path d="M606.329 211.154C593.678 211.337 583.601 201.623 583.484 189.115C583.368 176.757 593.545 166.495 605.914 166.495C618.067 166.495 627.929 176.142 628.161 188.284C628.427 201.108 619.013 210.954 606.329 211.154Z" fill="#FF00E6"/>
<path d="M1103.63 210.921C1090.92 210.987 1081.19 201.307 1081.22 188.6C1081.24 176.142 1091.4 166.095 1103.82 166.278C1115.92 166.445 1125.73 176.275 1125.88 188.367C1126.03 200.991 1116.3 210.854 1103.65 210.937L1103.63 210.921Z" fill="#FF00E6"/>
<path d="M998.541 604.303C998.425 591.562 1008.07 581.782 1020.75 581.799C1032.97 581.799 1042.82 591.346 1043.15 603.471C1043.48 615.763 1033.47 626.308 1021.17 626.608C1008.83 626.907 998.641 616.877 998.524 604.303H998.541Z" fill="#FF00E6"/>
<path d="M1269.28 543.244C1256.81 543.144 1246.83 532.882 1247.1 520.441C1247.36 508.265 1257.17 498.618 1269.36 498.585C1281.81 498.535 1292.05 508.648 1292.04 520.956C1292.04 533.231 1281.69 543.344 1269.26 543.244H1269.28Z" fill="#FF00E6"/>
<path d="M1269.69 166.228C1282.01 166.428 1292.24 176.973 1291.9 189.148C1291.56 201.606 1281.31 211.17 1268.66 210.854C1256.44 210.554 1246.9 200.724 1246.95 188.516C1247 176.108 1257.29 166.028 1269.71 166.228H1269.69Z" fill="#FF00E6"/>
<path d="M1186.46 249.409C1199.05 249.426 1208.99 259.455 1208.84 271.947C1208.69 284.338 1198.23 294.601 1186.05 294.301C1174.14 294.018 1164.12 283.856 1164 271.947C1163.88 259.539 1173.99 249.376 1186.46 249.393V249.409Z" fill="#FF00E6"/>
<path d="M1269.61 875.585C1257.19 875.585 1247.09 865.372 1247.24 852.931C1247.39 840.673 1256.99 831.109 1269.31 830.959C1281.88 830.793 1292.12 840.673 1292.19 853.031C1292.25 865.289 1281.96 875.585 1269.61 875.585Z" fill="#FF00E6"/>
<path d="M771.937 45.2084C759.884 45.3747 749.773 35.6445 749.475 23.5691C749.159 10.7784 758.523 0.715595 771.091 0.349674C783.493 -0.0162482 793.886 9.88027 794.185 22.305C794.467 34.4802 784.223 45.042 771.937 45.2084Z" fill="#FF00E6"/>
<path d="M1104.18 831.042C1116.82 831.225 1126.48 841.254 1126.13 853.862C1125.82 865.971 1115.9 875.667 1103.8 875.684C1091.42 875.717 1081.37 865.538 1081.49 853.063C1081.6 840.339 1091.38 830.859 1104.18 831.042Z" fill="#FF00E6"/>
<path d="M605.499 0.39899C618 0.182764 628.028 10.0627 628.111 22.6537C628.194 35.2115 618.233 45.3076 605.798 45.2909C593.91 45.2743 583.75 35.3279 583.385 23.3689C583.019 11.1105 593.13 0.615217 605.499 0.39899Z" fill="#FF00E6"/>
<path d="M47.7941 438.508C47.7111 451.215 37.8991 460.812 25.1651 460.646C12.647 460.48 2.88486 450.334 3.1671 437.776C3.43274 425.734 13.4273 415.92 25.4806 415.854C37.8659 415.787 47.8937 425.95 47.8107 438.508H47.7941Z" fill="#FF00E6"/>
<path d="M1374.78 437.393C1374.95 449.984 1365.17 459.997 1352.6 460.08C1339.92 460.18 1330.16 450.483 1330.14 437.759C1330.14 425.517 1339.64 415.654 1351.8 415.305C1364.09 414.939 1374.62 425.051 1374.77 437.376L1374.78 437.393Z" fill="#FF00E6"/>
<path d="M794.399 521.273C794.283 533.664 784.056 543.611 771.587 543.461C759.086 543.311 749.423 533.198 749.689 520.557C749.938 508.332 759.667 498.802 771.903 498.785C784.371 498.785 794.515 508.931 794.399 521.273Z" fill="#FF00E6"/>
<path d="M130.905 521.738C130.69 534.229 120.396 544.076 107.944 543.727C95.8081 543.394 85.9962 533.464 85.963 521.472C85.9298 509.18 96.1734 499.051 108.625 499.084C121.127 499.117 131.121 509.28 130.905 521.738Z" fill="#FF00E6"/>
<path d="M274.599 499.001C287.15 499.134 296.879 509.197 296.647 521.788C296.414 534.346 286.27 543.993 273.686 543.643C261.483 543.294 251.953 533.481 251.986 521.289C252.02 508.748 262.031 498.885 274.599 499.018V499.001Z" fill="#FF00E6"/>
<path d="M960.207 687.517C959.991 700.025 949.797 709.838 937.296 709.572C925.342 709.323 915.348 699.144 915.315 687.218C915.281 675.026 925.774 664.63 938.01 664.73C950.478 664.83 960.423 675.043 960.207 687.517Z" fill="#FF00E6"/>
<path d="M937.694 498.735C950.262 498.702 960.207 508.665 960.124 521.19C960.058 533.698 949.98 543.544 937.429 543.395C925.359 543.245 915.48 533.415 915.265 521.339C915.065 509.015 925.226 498.769 937.694 498.735Z" fill="#FF00E6"/>
<path d="M877.196 437.709C877.346 450.251 867.517 460.23 854.916 460.313C842.398 460.413 832.303 450.367 832.403 437.909C832.486 425.917 842.331 415.854 854.318 415.505C866.504 415.139 877.047 425.368 877.196 437.709Z" fill="#FF00E6"/>
<path d="M523.036 460.446C510.418 460.38 500.606 450.433 500.739 437.859C500.871 425.517 511.347 415.338 523.6 415.637C535.554 415.937 545.465 426.049 545.532 438.008C545.598 450.5 535.554 460.513 523.036 460.446Z" fill="#FF00E6"/>
<path d="M440.754 664.946C453.04 665.196 463.334 675.99 462.802 688.049C462.254 700.191 452.243 709.838 440.24 709.788C427.755 709.738 417.76 699.576 417.943 687.118C418.126 674.56 428.27 664.697 440.754 664.946Z" fill="#FF00E6"/>
<path d="M108.692 166.727C121.11 166.91 131.122 177.322 130.773 189.664C130.408 202.238 120.297 211.702 107.596 211.336C95.4432 210.987 85.6976 200.974 85.8304 188.965C85.9633 176.624 96.3397 166.544 108.692 166.711V166.727Z" fill="#FF00E6"/>
<path d="M273.818 166.644C286.236 166.394 296.414 176.357 296.513 188.849C296.613 201.223 287.332 210.904 275.03 211.27C262.296 211.652 252.202 202.221 251.87 189.647C251.554 177.172 261.366 166.893 273.818 166.644Z" fill="#FF00E6"/>
<path d="M1457.46 188.483C1457.5 201.274 1447.87 210.871 1435.08 210.804C1422.78 210.738 1413.05 201.24 1412.8 189.049C1412.55 176.657 1422.55 166.311 1434.92 166.145C1447.37 165.979 1457.43 175.942 1457.46 188.483Z" fill="#FF00E6"/>
<path d="M1330.21 604.37C1330.02 591.613 1339.62 581.733 1352.25 581.666C1364.9 581.6 1374.82 591.38 1374.85 603.938C1374.87 616.296 1364.66 626.492 1352.29 626.442C1340.27 626.392 1330.37 616.495 1330.21 604.37Z" fill="#FF00E6"/>
<path d="M854.384 581.849C867.068 581.666 877.096 591.313 877.245 603.871C877.394 616.279 867.317 626.591 854.948 626.691C843.127 626.774 832.85 616.795 832.469 604.852C832.054 592.428 841.965 582.049 854.384 581.866V581.849Z" fill="#FF00E6"/>
<path d="M960.34 1019.03C960.539 1031.58 950.694 1041.71 938.176 1041.83C925.84 1041.95 915.431 1031.67 915.431 1019.39C915.431 1007.53 925.442 997.303 937.379 996.954C949.731 996.571 960.141 1006.58 960.323 1019.03H960.34Z" fill="#FF00E6"/>
<path d="M771.854 211.087C759.153 211.137 749.474 201.423 749.54 188.683C749.607 176.441 759.17 166.677 771.339 166.428C783.691 166.178 794.101 176.225 794.267 188.583C794.433 201.024 784.455 211.037 771.854 211.087Z" fill="#FF00E6"/>
<path d="M108.907 831.441C121.525 831.541 131.404 841.687 131.055 854.162C130.706 866.354 120.844 876.034 108.758 876.067C96.4059 876.101 86.0461 865.821 86.0959 853.58C86.1623 841.188 96.3063 831.325 108.907 831.441Z" fill="#FF00E6"/>
<path d="M274.565 831.374C287.266 831.407 296.911 841.171 296.779 853.878C296.646 866.02 286.9 875.834 274.797 876C262.362 876.166 252.185 866.153 252.119 853.695C252.052 841.071 261.831 831.324 274.548 831.358L274.565 831.374Z" fill="#FF00E6"/>
<path d="M440.156 831.258C452.708 831.158 462.885 841.121 462.885 853.512C462.885 865.804 452.475 876.1 440.19 875.967C428.087 875.834 418.225 866.053 418.009 853.961C417.777 841.37 427.539 831.357 440.14 831.274L440.156 831.258Z" fill="#FF00E6"/>
<path d="M605.715 875.884C593.412 875.651 583.301 865.023 583.75 852.798C584.215 840.257 594.375 830.876 607.076 831.242C619.362 831.608 628.543 841.271 628.443 853.746C628.344 866.27 618.216 876.134 605.715 875.901V875.884Z" fill="#FF00E6"/>
<path d="M771.771 875.817C759.336 875.651 749.607 865.455 749.839 852.864C750.088 840.173 759.983 830.842 772.833 831.191C785.019 831.524 794.632 841.42 794.532 853.529C794.433 865.904 784.123 876 771.754 875.834L771.771 875.817Z" fill="#FF00E6"/>
<path d="M440.057 997.171C452.243 996.938 462.885 1007.27 463.002 1019.46C463.118 1031.7 452.775 1042.03 440.406 1042.05C428.236 1042.05 418.424 1032.45 418.126 1020.22C417.81 1007.7 427.589 997.42 440.074 997.188L440.057 997.171Z" fill="#FF00E6"/>
<path d="M1103.34 543.294C1090.82 543.178 1081.1 533.082 1081.37 520.441C1081.62 508.216 1091.32 498.685 1103.57 498.618C1116.09 498.552 1126.1 508.548 1126.03 521.073C1125.98 533.547 1115.92 543.411 1103.34 543.294Z" fill="#FF00E6"/>
<path d="M1457.74 853.081C1457.73 865.672 1447.78 875.618 1435.3 875.552C1422.96 875.485 1412.85 865.089 1413.07 852.731C1413.28 840.49 1422.93 830.992 1435.23 830.892C1448.03 830.793 1457.76 840.373 1457.74 853.081Z" fill="#FF00E6"/>
<path d="M545.598 604.503C545.415 616.844 534.972 627.073 522.77 626.807C510.451 626.541 500.489 616.046 500.822 603.671C501.154 591.113 511.298 581.649 523.998 582.015C536.118 582.348 545.764 592.394 545.581 604.503H545.598Z" fill="#FF00E6"/>
<path d="M959.924 22.6205C959.941 35.0618 949.78 45.2245 937.395 45.1247C925.508 45.0249 915.314 34.9953 915.015 23.1028C914.716 10.8777 924.96 0.382429 937.329 0.249366C949.863 0.116304 959.908 10.0627 959.924 22.6205Z" fill="#FF00E6"/>
<path d="M3.23373 604.669C3.16732 592.078 13.0125 582.215 25.6468 582.231C38.0156 582.231 47.6283 591.646 47.8773 603.937C48.1097 616.545 38.3808 626.791 25.9623 626.99C13.6268 627.19 3.30016 617.044 3.25035 604.669H3.23373Z" fill="#FF00E6"/>
<path d="M191.985 914.389C204.42 914.555 214.431 924.951 214.05 937.292C213.684 949.334 203.64 959.131 191.637 959.148C179.185 959.148 169.157 949.002 169.257 936.527C169.356 923.919 179.301 914.222 191.985 914.389Z" fill="#FF00E6"/>
<path d="M1208.76 105.951C1208.59 118.459 1198.5 128.139 1185.85 127.89C1173.73 127.657 1163.97 117.744 1163.93 105.652C1163.9 93.3434 1174.23 83.0643 1186.53 83.1475C1198.95 83.2473 1208.93 93.4598 1208.76 105.934V105.951Z" fill="#FF00E6"/>
<path d="M960.257 853.463C960.14 865.938 949.93 875.951 937.545 875.735C925.176 875.518 914.999 864.973 915.397 852.765C915.796 840.573 925.574 831.109 937.843 831.059C950.478 831.009 960.373 840.905 960.257 853.463Z" fill="#FF00E6"/>
<path d="M628.327 520.79C628.477 533.464 618.781 543.46 606.246 543.527C593.761 543.593 583.617 533.564 583.617 521.172C583.617 508.764 593.794 498.751 606.279 498.834C618.482 498.918 628.178 508.581 628.327 520.79Z" fill="#FF00E6"/>
<path d="M440.455 332.706C452.741 332.823 463.084 343.484 462.686 355.626C462.287 367.635 452.193 377.532 440.273 377.565C427.788 377.598 417.743 367.535 417.81 355.027C417.86 342.519 427.937 332.59 440.472 332.706H440.455Z" fill="#FF00E6"/>
<path d="M1209.09 936.128C1209.17 948.586 1199.11 958.732 1186.68 958.749C1174.43 958.749 1164.12 948.303 1164.28 936.028C1164.45 923.92 1174.23 914.156 1186.38 913.99C1199 913.807 1209.03 923.57 1209.09 936.128Z" fill="#FF00E6"/>
<path d="M937.345 332.524C949.863 332.357 960.007 342.287 960.074 354.762C960.14 367.286 950.129 377.366 937.661 377.366C925.724 377.366 915.596 367.519 915.181 355.493C914.766 343.318 925.01 332.69 937.345 332.524Z" fill="#FF00E6"/>
<path d="M190.906 83.5962C203.225 83.3966 213.635 93.5426 213.718 105.867C213.801 117.926 204.088 127.972 192.018 128.305C179.318 128.654 169.207 119.14 168.908 106.583C168.609 94.0915 178.454 83.8124 190.906 83.5962Z" fill="#FF00E6"/>
<path d="M998.376 104.919C998.708 92.3451 1008.98 82.7313 1021.5 83.2802C1033.54 83.8124 1043.12 93.9751 1042.94 106.017C1042.75 118.442 1032.54 128.222 1019.99 127.989C1007.41 127.756 998.027 117.76 998.376 104.919Z" fill="#FF00E6"/>
<path d="M937.744 211.021C925.193 211.071 915.016 201.008 915.132 188.666C915.248 176.308 925.558 166.195 937.927 166.345C950.013 166.495 959.825 176.325 959.991 188.433C960.157 201.024 950.362 210.971 937.761 211.021H937.744Z" fill="#FF00E6"/>
<path d="M379.641 936.361C379.774 949.035 370.028 959.015 357.51 959.065C345.175 959.115 334.981 948.869 335.064 936.494C335.147 924.352 344.859 914.522 356.979 914.322C369.746 914.123 379.508 923.62 379.641 936.361Z" fill="#FF00E6"/>
<path d="M379.292 106.167C379.176 118.924 369.447 128.438 356.68 128.272C344.593 128.122 334.814 118.259 334.715 106.15C334.599 93.759 344.726 83.5298 357.111 83.5298C369.646 83.5298 379.408 93.4928 379.292 106.167Z" fill="#FF00E6"/>
<path d="M711.421 770.366C711.421 782.907 701.377 792.82 688.859 792.67C676.623 792.537 666.993 782.907 666.844 770.682C666.678 758.141 676.573 747.911 688.958 747.795C701.26 747.678 711.438 757.908 711.421 770.366Z" fill="#FF00E6"/>
<path d="M440.555 498.918C452.94 499.067 463.167 509.613 462.752 521.788C462.354 533.88 452.409 543.544 440.323 543.61C427.821 543.677 417.81 533.664 417.876 521.139C417.943 508.631 428.004 498.768 440.555 498.918Z" fill="#FF00E6"/>
<path d="M998.708 936.011C998.874 923.271 1008.7 913.757 1021.44 914.039C1033.57 914.305 1043.25 924.152 1043.3 936.277C1043.35 948.652 1033.17 958.832 1020.77 958.765C1008.24 958.715 998.542 948.719 998.708 936.011Z" fill="#FF00E6"/>
<path d="M711.206 272.246C711.024 284.687 700.614 294.866 688.428 294.517C676.059 294.151 666.264 283.722 666.629 271.281C666.978 259.039 676.723 249.608 688.992 249.625C701.51 249.658 711.405 259.721 711.223 272.246H711.206Z" fill="#FF00E6"/>
<path d="M877.112 272.08C877.013 284.454 866.537 294.75 854.351 294.467C842.414 294.185 832.452 284.072 832.353 272.129C832.236 259.605 842.164 249.592 854.732 249.559C867.251 249.525 877.229 259.572 877.112 272.096V272.08Z" fill="#FF00E6"/>
<path d="M545.448 272.229C545.299 284.554 534.773 294.883 522.637 294.583C510.334 294.284 500.34 283.739 500.689 271.397C501.021 259.205 510.849 249.642 523.052 249.658C535.52 249.658 545.581 259.821 545.448 272.246V272.229Z" fill="#FF00E6"/>
<path d="M854.998 792.636C842.513 792.67 832.436 782.557 832.552 770.115C832.668 757.774 843.161 747.445 855.313 747.711C867.317 747.977 877.229 758.023 877.328 770.016C877.428 782.557 867.516 792.603 854.998 792.653V792.636Z" fill="#FF00E6"/>
<path d="M523.533 792.786C511.015 792.919 500.954 782.99 500.904 770.465C500.855 758.107 511.198 747.728 523.417 747.828C535.338 747.944 545.415 757.957 545.681 769.933C545.947 782.391 536.018 792.653 523.533 792.786Z" fill="#FF00E6"/>
</g>
<defs>
<clipPath id="clip0_402_4878">
<rect width="1870" height="1042.3" fill="white" transform="translate(-246)"/>
</clipPath>
</defs>
</svg>
